G04 #@! TF.GenerationSoftware,KiCad,Pcbnew,6.0.11+dfsg-1~bpo11+1*
G04 #@! TF.CreationDate,2023-05-25T13:31:40+02:00*
G04 #@! TF.ProjectId,scalenode-cm4-baseboard,7363616c-656e-46f6-9465-2d636d342d62,1.1.1*
G04 #@! TF.SameCoordinates,Original*
G04 #@! TF.FileFunction,Copper,L4,Bot*
G04 #@! TF.FilePolarity,Positive*
%FSLAX46Y46*%
G04 Gerber Fmt 4.6, Leading zero omitted, Abs format (unit mm)*
G04 Created by KiCad (PCBNEW 6.0.11+dfsg-1~bpo11+1) date 2023-05-25 13:31:40*
%MOMM*%
%LPD*%
G01*
G04 APERTURE LIST*
G04 Aperture macros list*
%AMRoundRect*
0 Rectangle with rounded corners*
0 $1 Rounding radius*
0 $2 $3 $4 $5 $6 $7 $8 $9 X,Y pos of 4 corners*
0 Add a 4 corners polygon primitive as box body*
4,1,4,$2,$3,$4,$5,$6,$7,$8,$9,$2,$3,0*
0 Add four circle primitives for the rounded corners*
1,1,$1+$1,$2,$3*
1,1,$1+$1,$4,$5*
1,1,$1+$1,$6,$7*
1,1,$1+$1,$8,$9*
0 Add four rect primitives between the rounded corners*
20,1,$1+$1,$2,$3,$4,$5,0*
20,1,$1+$1,$4,$5,$6,$7,0*
20,1,$1+$1,$6,$7,$8,$9,0*
20,1,$1+$1,$8,$9,$2,$3,0*%
%AMFreePoly0*
4,1,46,0.312869,1.975377,0.588081,1.911586,0.851559,1.809654,1.098046,1.671615,1.322624,1.500222,1.520812,1.298896,1.688656,1.071654,1.822807,0.823029,1.920587,0.557982,1.980047,0.281802,2.000000,0.000000,1.996053,-0.125581,1.958446,-0.405575,1.881762,-0.677476,1.767531,-0.935860,1.618034,-1.175571,1.436253,-1.391826,1.225814,-1.580310,0.990917,-1.737263,0.736249,-1.859553,
0.466891,-1.944740,0.188217,-1.991124,-0.094213,-1.997780,-0.374763,-1.964575,-0.647835,-1.892171,-0.907981,-1.782013,-1.150011,-1.636299,-1.369094,-1.457937,-1.560861,-1.250485,-1.721484,-1.018083,-1.847759,-0.765367,-1.937166,-0.497380,-1.987922,-0.219469,-1.999013,0.062822,-1.970219,0.343858,-1.902113,0.618034,-1.796055,0.879878,-1.654161,1.124167,-1.479262,1.346025,-1.274848,1.541026,
-1.044997,1.705280,-0.794296,1.835509,-0.527746,1.929115,-0.250666,1.984229,0.031415,1.999753,0.312869,1.975377,0.312869,1.975377,$1*%
G04 Aperture macros list end*
G04 #@! TA.AperFunction,ComponentPad*
%ADD10C,6.000000*%
G04 #@! TD*
G04 #@! TA.AperFunction,ComponentPad*
%ADD11C,6.200000*%
G04 #@! TD*
G04 #@! TA.AperFunction,ComponentPad*
%ADD12C,4.500000*%
G04 #@! TD*
G04 #@! TA.AperFunction,ComponentPad*
%ADD13R,2.250000X2.250000*%
G04 #@! TD*
G04 #@! TA.AperFunction,ComponentPad*
%ADD14C,2.250000*%
G04 #@! TD*
G04 #@! TA.AperFunction,ComponentPad*
%ADD15C,1.524000*%
G04 #@! TD*
G04 #@! TA.AperFunction,ComponentPad*
%ADD16C,1.700000*%
G04 #@! TD*
G04 #@! TA.AperFunction,ComponentPad*
%ADD17O,3.000000X1.600000*%
G04 #@! TD*
G04 #@! TA.AperFunction,ComponentPad*
%ADD18C,2.100000*%
G04 #@! TD*
G04 #@! TA.AperFunction,SMDPad,CuDef*
%ADD19RoundRect,0.147500X0.172500X-0.147500X0.172500X0.147500X-0.172500X0.147500X-0.172500X-0.147500X0*%
G04 #@! TD*
G04 #@! TA.AperFunction,SMDPad,CuDef*
%ADD20RoundRect,0.120000X-0.280000X0.180000X-0.280000X-0.180000X0.280000X-0.180000X0.280000X0.180000X0*%
G04 #@! TD*
G04 #@! TA.AperFunction,SMDPad,CuDef*
%ADD21RoundRect,0.120000X0.280000X-0.180000X0.280000X0.180000X-0.280000X0.180000X-0.280000X-0.180000X0*%
G04 #@! TD*
G04 #@! TA.AperFunction,SMDPad,CuDef*
%ADD22R,1.550000X0.300000*%
G04 #@! TD*
G04 #@! TA.AperFunction,SMDPad,CuDef*
%ADD23R,2.750000X1.200000*%
G04 #@! TD*
G04 #@! TA.AperFunction,SMDPad,CuDef*
%ADD24R,1.200000X1.200000*%
G04 #@! TD*
G04 #@! TA.AperFunction,SMDPad,CuDef*
%ADD25RoundRect,0.147500X0.147500X0.172500X-0.147500X0.172500X-0.147500X-0.172500X0.147500X-0.172500X0*%
G04 #@! TD*
G04 #@! TA.AperFunction,SMDPad,CuDef*
%ADD26R,0.740000X0.220000*%
G04 #@! TD*
G04 #@! TA.AperFunction,SMDPad,CuDef*
%ADD27RoundRect,0.337500X0.337500X1.062500X-0.337500X1.062500X-0.337500X-1.062500X0.337500X-1.062500X0*%
G04 #@! TD*
G04 #@! TA.AperFunction,SMDPad,CuDef*
%ADD28R,3.050000X1.520000*%
G04 #@! TD*
G04 #@! TA.AperFunction,ComponentPad*
%ADD29FreePoly0,0.000000*%
G04 #@! TD*
G04 #@! TA.AperFunction,SMDPad,CuDef*
%ADD30RoundRect,0.147500X-0.172500X0.147500X-0.172500X-0.147500X0.172500X-0.147500X0.172500X0.147500X0*%
G04 #@! TD*
G04 #@! TA.AperFunction,SMDPad,CuDef*
%ADD31R,1.750000X0.700000*%
G04 #@! TD*
G04 #@! TA.AperFunction,SMDPad,CuDef*
%ADD32R,1.000000X1.400000*%
G04 #@! TD*
G04 #@! TA.AperFunction,SMDPad,CuDef*
%ADD33R,1.400000X1.000000*%
G04 #@! TD*
G04 #@! TA.AperFunction,SMDPad,CuDef*
%ADD34R,1.500000X0.800000*%
G04 #@! TD*
G04 #@! TA.AperFunction,SMDPad,CuDef*
%ADD35R,1.500000X1.500000*%
G04 #@! TD*
G04 #@! TA.AperFunction,SMDPad,CuDef*
%ADD36R,1.500000X1.300000*%
G04 #@! TD*
G04 #@! TA.AperFunction,SMDPad,CuDef*
%ADD37RoundRect,0.180000X-0.420000X-0.720000X0.420000X-0.720000X0.420000X0.720000X-0.420000X0.720000X0*%
G04 #@! TD*
G04 #@! TA.AperFunction,SMDPad,CuDef*
%ADD38R,1.520000X3.050000*%
G04 #@! TD*
G04 #@! TA.AperFunction,SMDPad,CuDef*
%ADD39R,0.700000X1.200000*%
G04 #@! TD*
G04 #@! TA.AperFunction,ComponentPad*
%ADD40C,1.208000*%
G04 #@! TD*
G04 #@! TA.AperFunction,SMDPad,CuDef*
%ADD41R,1.630000X0.300000*%
G04 #@! TD*
G04 #@! TA.AperFunction,SMDPad,CuDef*
%ADD42R,1.800000X0.300000*%
G04 #@! TD*
G04 #@! TA.AperFunction,SMDPad,CuDef*
%ADD43RoundRect,0.180000X-0.720000X0.420000X-0.720000X-0.420000X0.720000X-0.420000X0.720000X0.420000X0*%
G04 #@! TD*
G04 #@! TA.AperFunction,SMDPad,CuDef*
%ADD44RoundRect,0.180000X0.720000X-0.420000X0.720000X0.420000X-0.720000X0.420000X-0.720000X-0.420000X0*%
G04 #@! TD*
G04 #@! TA.AperFunction,SMDPad,CuDef*
%ADD45C,1.000000*%
G04 #@! TD*
G04 #@! TA.AperFunction,SMDPad,CuDef*
%ADD46RoundRect,0.162500X-0.600000X0.162500X-0.600000X-0.162500X0.600000X-0.162500X0.600000X0.162500X0*%
G04 #@! TD*
G04 #@! TA.AperFunction,SMDPad,CuDef*
%ADD47RoundRect,0.114500X-1.030500X-1.435500X1.030500X-1.435500X1.030500X1.435500X-1.030500X1.435500X0*%
G04 #@! TD*
G04 #@! TA.AperFunction,SMDPad,CuDef*
%ADD48RoundRect,0.147500X-0.147500X-0.172500X0.147500X-0.172500X0.147500X0.172500X-0.147500X0.172500X0*%
G04 #@! TD*
G04 #@! TA.AperFunction,SMDPad,CuDef*
%ADD49R,1.143000X2.032000*%
G04 #@! TD*
G04 #@! TA.AperFunction,SMDPad,CuDef*
%ADD50RoundRect,0.200000X0.800000X0.850000X-0.800000X0.850000X-0.800000X-0.850000X0.800000X-0.850000X0*%
G04 #@! TD*
G04 #@! TA.AperFunction,SMDPad,CuDef*
%ADD51RoundRect,0.250000X0.650000X2.450000X-0.650000X2.450000X-0.650000X-2.450000X0.650000X-2.450000X0*%
G04 #@! TD*
G04 #@! TA.AperFunction,SMDPad,CuDef*
%ADD52RoundRect,0.150000X-0.350000X-0.550000X0.350000X-0.550000X0.350000X0.550000X-0.350000X0.550000X0*%
G04 #@! TD*
G04 #@! TA.AperFunction,SMDPad,CuDef*
%ADD53RoundRect,0.250000X0.250000X-0.650000X0.250000X0.650000X-0.250000X0.650000X-0.250000X-0.650000X0*%
G04 #@! TD*
G04 #@! TA.AperFunction,SMDPad,CuDef*
%ADD54RoundRect,0.250000X-0.250000X0.650000X-0.250000X-0.650000X0.250000X-0.650000X0.250000X0.650000X0*%
G04 #@! TD*
G04 #@! TA.AperFunction,SMDPad,CuDef*
%ADD55RoundRect,0.200000X0.850000X-0.800000X0.850000X0.800000X-0.850000X0.800000X-0.850000X-0.800000X0*%
G04 #@! TD*
G04 #@! TA.AperFunction,ViaPad*
%ADD56C,0.500000*%
G04 #@! TD*
G04 #@! TA.AperFunction,ViaPad*
%ADD57C,0.800000*%
G04 #@! TD*
G04 #@! TA.AperFunction,Conductor*
%ADD58C,0.400000*%
G04 #@! TD*
G04 #@! TA.AperFunction,Conductor*
%ADD59C,0.500000*%
G04 #@! TD*
G04 #@! TA.AperFunction,Conductor*
%ADD60C,0.254000*%
G04 #@! TD*
G04 #@! TA.AperFunction,Conductor*
%ADD61C,0.250000*%
G04 #@! TD*
G04 #@! TA.AperFunction,Conductor*
%ADD62C,1.000000*%
G04 #@! TD*
G04 #@! TA.AperFunction,Conductor*
%ADD63C,0.127000*%
G04 #@! TD*
G04 #@! TA.AperFunction,Conductor*
%ADD64C,0.150000*%
G04 #@! TD*
G04 #@! TA.AperFunction,Conductor*
%ADD65C,0.180000*%
G04 #@! TD*
G04 #@! TA.AperFunction,Conductor*
%ADD66C,0.200000*%
G04 #@! TD*
G04 #@! TA.AperFunction,Conductor*
%ADD67C,0.750000*%
G04 #@! TD*
G04 #@! TA.AperFunction,Conductor*
%ADD68C,1.250000*%
G04 #@! TD*
G04 APERTURE END LIST*
D10*
X193488000Y-93200000D03*
X145488000Y-93200000D03*
X193488000Y-60200000D03*
X145488000Y-60200000D03*
D11*
X200341000Y-93092000D03*
X200341000Y-60092000D03*
D12*
X78126000Y-94198000D03*
D13*
X117090000Y-73050000D03*
D14*
X117090000Y-80668000D03*
X117090000Y-85748000D03*
X137408000Y-93368000D03*
X137408000Y-83209000D03*
X137408000Y-73050000D03*
D13*
X117090000Y-73050000D03*
D14*
X117090000Y-80668000D03*
X117090000Y-85748000D03*
X137408000Y-93368000D03*
X137408000Y-83209000D03*
X137408000Y-73050000D03*
D15*
X88923000Y-71450000D03*
X90703000Y-70430000D03*
X88923000Y-69410000D03*
X90703000Y-68390000D03*
X88923000Y-67370000D03*
X90703000Y-66349000D03*
X88923000Y-65330000D03*
X90703000Y-64309000D03*
D16*
X93064000Y-74409000D03*
X93064000Y-72119000D03*
X93063000Y-63658000D03*
X93063000Y-61369000D03*
D17*
X82658000Y-57965000D03*
X82658000Y-77834000D03*
D18*
X130700000Y-60200000D03*
X128201000Y-60200000D03*
D19*
X99452000Y-86860000D03*
X99452000Y-85890000D03*
X98436000Y-86860000D03*
X98436000Y-85890000D03*
X97420000Y-86860000D03*
X97420000Y-85890000D03*
X96404000Y-86860000D03*
X96404000Y-85890000D03*
X95388000Y-86860000D03*
X95388000Y-85890000D03*
X94372000Y-86860000D03*
X94372000Y-85890000D03*
D20*
X174546000Y-69446000D03*
X174546000Y-70846000D03*
X177594000Y-69446000D03*
X177594000Y-70846000D03*
D21*
X176070000Y-68052000D03*
X176070000Y-66652000D03*
X173022000Y-81768000D03*
X173022000Y-80368000D03*
D20*
X176070000Y-69446000D03*
X176070000Y-70846000D03*
X177594000Y-85448000D03*
X177594000Y-86848000D03*
D21*
X176070000Y-81768000D03*
X176070000Y-80368000D03*
X174546000Y-81768000D03*
X174546000Y-80368000D03*
D22*
X187314000Y-86127000D03*
X179766000Y-85880000D03*
X187314000Y-85630000D03*
X179766000Y-85380000D03*
X187314000Y-85130000D03*
X179766000Y-84878000D03*
X187314000Y-84629000D03*
X179766000Y-84379000D03*
X187314000Y-84129000D03*
X179766000Y-83879000D03*
X187314000Y-83629000D03*
X179766000Y-83379000D03*
X187314000Y-83129000D03*
X179766000Y-82879000D03*
X187314000Y-82629000D03*
X179766000Y-82379000D03*
X187314000Y-82129000D03*
X179766000Y-81879000D03*
X187314000Y-81629000D03*
X179766000Y-81379000D03*
X187314000Y-81129000D03*
X179766000Y-80879000D03*
X187314000Y-80628000D03*
X179766000Y-80378000D03*
X187314000Y-80128000D03*
X179766000Y-79878000D03*
X187314000Y-79628000D03*
X179766000Y-79378000D03*
X187314000Y-79128000D03*
X179766000Y-78878000D03*
X187314000Y-78629000D03*
X179766000Y-78379000D03*
X187314000Y-78129000D03*
X179766000Y-77879000D03*
X187314000Y-77628000D03*
X179766000Y-77378000D03*
X187314000Y-77128000D03*
X179766000Y-76878000D03*
X187314000Y-76629000D03*
X179766000Y-76379000D03*
X187314000Y-76129000D03*
X179766000Y-75879000D03*
X187314000Y-75628000D03*
X179766000Y-75378000D03*
X187314000Y-75128000D03*
X179766000Y-74878000D03*
X187314000Y-74628000D03*
X179766000Y-74378000D03*
X187314000Y-74128000D03*
X179766000Y-73878000D03*
X187314000Y-73628000D03*
X179766000Y-73378000D03*
X187314000Y-73128000D03*
X179766000Y-72878000D03*
X187314000Y-72629000D03*
X179766000Y-72379000D03*
X187314000Y-72129000D03*
X179766000Y-71879000D03*
X187314000Y-69629000D03*
X179766000Y-69379000D03*
X187314000Y-69129000D03*
X179766000Y-68879000D03*
X187314000Y-68630000D03*
X179766000Y-68380000D03*
X187314000Y-68130000D03*
X179766000Y-67880000D03*
X187314000Y-67630000D03*
D23*
X186539000Y-66528000D03*
X186539000Y-87229000D03*
D21*
X177594000Y-81768000D03*
X177594000Y-80368000D03*
D20*
X173022000Y-85448000D03*
X173022000Y-86848000D03*
D21*
X177594000Y-68052000D03*
X177594000Y-66652000D03*
D24*
X122650000Y-85600000D03*
X120550000Y-85600000D03*
D25*
X129685000Y-83800000D03*
X128715000Y-83800000D03*
D26*
X91659000Y-82941000D03*
X93000000Y-81941000D03*
X91659000Y-81941000D03*
X91659000Y-82441000D03*
X93000000Y-82441000D03*
X93000000Y-82941000D03*
X91659000Y-83440000D03*
X93000000Y-83440000D03*
X93000000Y-83940000D03*
X91659000Y-83940000D03*
X91659000Y-84440000D03*
X93000000Y-84440000D03*
X93000000Y-84940000D03*
X91659000Y-84940000D03*
D24*
X131150000Y-90200000D03*
X133250000Y-90200000D03*
D27*
X128676000Y-86750000D03*
X126325000Y-86750000D03*
D28*
X106306000Y-62567000D03*
X106306000Y-64857000D03*
D29*
X142039000Y-76877000D03*
D25*
X131985000Y-83800000D03*
X131015000Y-83800000D03*
D30*
X88425000Y-88671000D03*
X88425000Y-89641000D03*
D21*
X173022000Y-68052000D03*
X173022000Y-66652000D03*
X174546000Y-68052000D03*
X174546000Y-66652000D03*
D20*
X176070000Y-85448000D03*
X176070000Y-86848000D03*
X174546000Y-85448000D03*
X174546000Y-86848000D03*
D24*
X122650000Y-87800000D03*
X120550000Y-87800000D03*
D19*
X152925800Y-74185400D03*
X152925800Y-73217400D03*
X151935200Y-74185400D03*
X151935200Y-73217400D03*
D31*
X76350000Y-81900000D03*
X76350000Y-83000000D03*
X76350000Y-84099000D03*
X76350000Y-85200000D03*
X76350000Y-86300000D03*
X76350000Y-87399000D03*
X76350000Y-88500000D03*
X76350000Y-89600000D03*
D32*
X85654000Y-90699000D03*
D33*
X87135000Y-79600000D03*
D34*
X84084000Y-91000000D03*
D35*
X76475000Y-79449000D03*
D36*
X76475000Y-90800000D03*
D34*
X84734000Y-79150000D03*
D37*
X102318000Y-59130000D03*
X105317000Y-59130000D03*
D30*
X109387000Y-62153000D03*
X109387000Y-63123000D03*
D38*
X110551000Y-59511000D03*
X108261000Y-59511000D03*
D30*
X154482800Y-73149600D03*
X154482800Y-74119600D03*
X108300000Y-69174000D03*
X108300000Y-70144000D03*
D39*
X133002000Y-88286000D03*
X132052000Y-88286000D03*
X131103000Y-88286000D03*
X131103000Y-85685000D03*
X132052000Y-85685000D03*
X133002000Y-85685000D03*
D30*
X109337000Y-69176000D03*
X109337000Y-70146000D03*
X109390000Y-66011000D03*
X109390000Y-66981000D03*
D29*
X109939000Y-76877000D03*
D30*
X134500000Y-85766000D03*
X134500000Y-86734000D03*
D40*
X201980000Y-87500000D03*
X199731000Y-87500000D03*
X201980000Y-65899000D03*
X199731000Y-65899000D03*
X200860000Y-85524000D03*
X200860000Y-67875000D03*
D41*
X201245000Y-83949000D03*
D42*
X198581000Y-83949000D03*
D41*
X201245000Y-83449000D03*
D42*
X198581000Y-83449000D03*
D41*
X201245000Y-82949000D03*
D42*
X198581000Y-82949000D03*
D41*
X201245000Y-82449000D03*
D42*
X198581000Y-82449000D03*
D41*
X201245000Y-81949000D03*
D42*
X198581000Y-81949000D03*
D41*
X201245000Y-81449000D03*
D42*
X198581000Y-81449000D03*
D41*
X201245000Y-80949000D03*
D42*
X198581000Y-80949000D03*
D41*
X201245000Y-80449000D03*
D42*
X198581000Y-80449000D03*
D41*
X201245000Y-79949000D03*
D42*
X198581000Y-79949000D03*
D41*
X201245000Y-79449000D03*
D42*
X198581000Y-79449000D03*
D41*
X201245000Y-78949000D03*
D42*
X198581000Y-78949000D03*
D41*
X201245000Y-78449000D03*
D42*
X198581000Y-78449000D03*
D41*
X201245000Y-77949000D03*
D42*
X198581000Y-77949000D03*
D41*
X201245000Y-77449000D03*
D42*
X198581000Y-77449000D03*
D41*
X201245000Y-76949000D03*
D42*
X198581000Y-76949000D03*
D41*
X201245000Y-76450000D03*
D42*
X198581000Y-76450000D03*
D41*
X201245000Y-75950000D03*
D42*
X198581000Y-75950000D03*
D41*
X201245000Y-75450000D03*
D42*
X198581000Y-75450000D03*
D41*
X201245000Y-74950000D03*
D42*
X198581000Y-74950000D03*
D41*
X201245000Y-74450000D03*
D42*
X198581000Y-74450000D03*
D41*
X201245000Y-73950000D03*
D42*
X198581000Y-73950000D03*
D41*
X201245000Y-73450000D03*
D42*
X198581000Y-73450000D03*
D41*
X201245000Y-72950000D03*
D42*
X198581000Y-72950000D03*
D41*
X201245000Y-72450000D03*
D42*
X198581000Y-72450000D03*
D41*
X201245000Y-71950000D03*
D42*
X198581000Y-71950000D03*
D41*
X201245000Y-71450000D03*
D42*
X198581000Y-71450000D03*
D41*
X201245000Y-70950000D03*
D42*
X198581000Y-70950000D03*
D41*
X201245000Y-70450000D03*
D42*
X198581000Y-70450000D03*
D41*
X201245000Y-69950000D03*
D42*
X198581000Y-69950000D03*
D41*
X201245000Y-69450000D03*
D42*
X198581000Y-69450000D03*
D43*
X151600000Y-87500000D03*
X151600000Y-90499000D03*
D44*
X151600000Y-86900000D03*
X151600000Y-83901000D03*
D45*
X134000000Y-83750000D03*
D46*
X96336000Y-93411000D03*
X96336000Y-92141000D03*
X96336000Y-90875000D03*
X96336000Y-89604000D03*
X101762000Y-89604000D03*
X101762000Y-90875000D03*
X101762000Y-92141000D03*
X101762000Y-93411000D03*
D47*
X99050000Y-91506000D03*
D21*
X134800000Y-94196000D03*
X134800000Y-92796000D03*
D48*
X102316000Y-74756000D03*
X103284000Y-74756000D03*
X102316000Y-64506000D03*
X103284000Y-64506000D03*
D19*
X132000000Y-93665000D03*
X132000000Y-92697000D03*
D49*
X128350000Y-91896000D03*
X125650000Y-91896000D03*
D48*
X102315000Y-65706000D03*
X103285000Y-65706000D03*
D21*
X133300000Y-94196000D03*
X133300000Y-92796000D03*
D48*
X102315000Y-68206000D03*
X103285000Y-68206000D03*
D38*
X99145000Y-59506000D03*
X96855000Y-59506000D03*
D50*
X125001000Y-94796000D03*
X129000000Y-94796000D03*
D51*
X114316000Y-85212000D03*
X109216000Y-85212000D03*
D52*
X84100000Y-95301000D03*
X86300000Y-95301000D03*
D53*
X99681000Y-68597000D03*
X97230000Y-68597000D03*
X97230000Y-62896000D03*
X99681000Y-62896000D03*
D52*
X85000000Y-92501000D03*
X87200000Y-92501000D03*
D54*
X96244000Y-74285000D03*
X98695000Y-74285000D03*
X98695000Y-79986000D03*
X96244000Y-79986000D03*
D48*
X102315000Y-70906000D03*
X103285000Y-70906000D03*
D55*
X90500000Y-90007000D03*
X90500000Y-94006000D03*
D48*
X102315000Y-73506000D03*
X103285000Y-73506000D03*
D51*
X114316000Y-91312000D03*
X109216000Y-91312000D03*
D48*
X102301000Y-67006000D03*
X103269000Y-67006000D03*
X102316000Y-72206000D03*
X103284000Y-72206000D03*
D19*
X94650000Y-90791000D03*
X94650000Y-89821000D03*
D24*
X93000000Y-92556000D03*
X93000000Y-90456000D03*
D19*
X94650000Y-93241000D03*
X94650000Y-92271000D03*
D56*
X100881000Y-74751000D03*
X100881000Y-72211000D03*
X100881000Y-65734000D03*
X106000000Y-90750000D03*
X104000000Y-93750000D03*
X106000000Y-91750000D03*
X106000000Y-89750000D03*
X104000000Y-89750000D03*
X104000000Y-90750000D03*
X106000000Y-92750000D03*
X104000000Y-92750000D03*
X106000000Y-93750000D03*
X104000000Y-91750000D03*
X100600000Y-93850000D03*
X88100000Y-92700000D03*
X88500000Y-92200000D03*
X88900000Y-92700000D03*
X88900000Y-91700000D03*
X88100000Y-91700000D03*
X88200000Y-93900000D03*
X115900000Y-92346000D03*
X115900000Y-91596000D03*
X115900000Y-90096000D03*
X87250000Y-93900000D03*
X87750000Y-94500000D03*
X115900000Y-93096000D03*
X115900000Y-90846000D03*
X88200000Y-95100000D03*
X87250000Y-95100000D03*
X97570000Y-93720000D03*
X80633579Y-80056421D03*
X82290000Y-80060000D03*
X84601262Y-80056063D03*
X176835998Y-87590717D03*
X176174202Y-83213083D03*
X169977998Y-88352717D03*
X169101000Y-88352717D03*
X170879000Y-88352717D03*
X175692998Y-87590717D03*
X178232998Y-87590717D03*
X188519998Y-87209717D03*
X185725998Y-67600000D03*
X184455998Y-66508717D03*
X176835998Y-65873717D03*
X178486998Y-65873717D03*
X166992998Y-62063717D03*
X166992998Y-60539717D03*
X173355000Y-91536000D03*
X169799000Y-91536000D03*
X174410000Y-91490000D03*
X170942000Y-91536000D03*
X172212000Y-91536000D03*
X170942000Y-96108000D03*
X169799000Y-96108000D03*
X168529000Y-96108000D03*
X167386000Y-96108000D03*
X162560000Y-96108000D03*
X161417000Y-96108000D03*
X160147000Y-96108000D03*
X159004000Y-96108000D03*
X157734000Y-96108000D03*
X165370000Y-57660000D03*
X166570000Y-57660000D03*
X168580000Y-57660000D03*
X172212000Y-96108000D03*
X173355000Y-96108000D03*
X166179500Y-96108000D03*
X164973000Y-96108000D03*
X163766500Y-96108000D03*
X164732200Y-70403200D03*
X165621200Y-70403200D03*
X172577719Y-57660980D03*
X188530000Y-66500000D03*
X196950000Y-79440000D03*
X192450000Y-69670000D03*
X85000000Y-84200000D03*
X163830000Y-91409000D03*
X189920000Y-69350000D03*
X78269000Y-87448000D03*
X164211000Y-62066490D03*
X193070000Y-70320000D03*
X105616000Y-60602000D03*
X177580000Y-80310000D03*
X175584000Y-62150000D03*
X196960000Y-82440000D03*
X150950000Y-58900000D03*
X185724800Y-86207600D03*
X162980500Y-57660000D03*
X175334000Y-59250000D03*
X158419800Y-88950000D03*
X175569500Y-91239500D03*
X185724800Y-74425200D03*
X162788600Y-88747600D03*
X174657523Y-57374444D03*
X167354897Y-71275103D03*
X184600000Y-87225000D03*
X160150000Y-88950000D03*
X168918251Y-62063717D03*
X185724800Y-83312000D03*
X190795000Y-68525000D03*
X122250000Y-94250000D03*
X187075000Y-92200000D03*
X174200000Y-96200000D03*
X119000000Y-85500000D03*
X194200000Y-71490000D03*
X162623500Y-62066490D03*
X83674000Y-90236000D03*
X199920000Y-76950000D03*
X165354000Y-62061059D03*
X176050000Y-80330000D03*
X175320000Y-79350000D03*
X119000000Y-84750000D03*
X185724800Y-75765200D03*
X134500000Y-91000000D03*
X164180000Y-57660000D03*
X135250000Y-90500000D03*
X191620000Y-69350000D03*
X185725998Y-68483700D03*
X177661983Y-58090017D03*
X123245800Y-69634200D03*
X135250000Y-89500000D03*
X151968200Y-72212200D03*
X185590000Y-66490000D03*
X185724800Y-85155200D03*
X185724800Y-78175200D03*
X134500000Y-89000000D03*
X189675000Y-90575000D03*
X135250000Y-91500000D03*
X92399502Y-82899500D03*
X134500000Y-90000000D03*
X189920000Y-68525000D03*
X123000000Y-94250000D03*
X177234000Y-62150000D03*
X190795000Y-67700000D03*
X193720000Y-70960000D03*
X185724800Y-69367400D03*
X196950000Y-80920000D03*
X176175000Y-96175000D03*
X195680000Y-73240000D03*
X160660000Y-73600000D03*
X83345000Y-87966000D03*
X185125000Y-92125000D03*
X160153220Y-91644059D03*
X119000000Y-88500000D03*
X166100000Y-91395949D03*
X196740000Y-74520000D03*
X110546000Y-61437000D03*
X176840000Y-79340000D03*
X119000000Y-87750000D03*
X170977720Y-60512280D03*
D57*
X131975000Y-82900000D03*
D56*
X202850000Y-76125000D03*
X119000000Y-87000000D03*
X157797504Y-91409000D03*
X196240000Y-73870000D03*
X185730000Y-70580000D03*
X187440000Y-66497200D03*
X119000000Y-86250000D03*
X79363500Y-79500000D03*
X187535748Y-87198200D03*
X123000000Y-95000000D03*
X173470000Y-62100000D03*
X185567248Y-87223600D03*
X104250000Y-62182083D03*
X195230000Y-72620000D03*
X134000000Y-91750000D03*
X163957000Y-90322400D03*
X158000000Y-78800000D03*
X169090000Y-69410000D03*
X133000000Y-91750000D03*
X157775000Y-62044500D03*
X174688500Y-62072000D03*
X190795000Y-69350000D03*
X132000000Y-91750000D03*
X185724800Y-82395200D03*
X185724800Y-80305200D03*
X187925000Y-90550000D03*
X122250000Y-95000000D03*
X186551498Y-87223600D03*
X194700000Y-72020000D03*
X185740000Y-79060000D03*
X77850000Y-90856000D03*
X199920000Y-77940000D03*
X174520000Y-80360000D03*
X186550000Y-66497200D03*
X196970000Y-83950000D03*
X189920000Y-67700000D03*
X170997231Y-62063717D03*
X159980000Y-57670000D03*
X161090000Y-57659989D03*
X161630000Y-57659989D03*
X159890000Y-58882000D03*
X161030000Y-58880000D03*
X160510000Y-57659989D03*
X160470000Y-58882000D03*
X133500000Y-70960000D03*
X134100000Y-71560000D03*
X124000000Y-90800000D03*
X132900000Y-62800000D03*
X197290000Y-67960000D03*
X131700000Y-70960000D03*
X123400000Y-92600000D03*
X199750000Y-68720000D03*
X198818500Y-68700000D03*
X122800000Y-91400000D03*
X132900000Y-61600000D03*
X134100000Y-70960000D03*
X133500000Y-61600000D03*
X197960000Y-67320000D03*
X122800000Y-92000000D03*
X132900000Y-71560000D03*
X134100000Y-61600000D03*
X132300000Y-61600000D03*
X124000000Y-92600000D03*
X133500000Y-62800000D03*
X132300000Y-70960000D03*
X124000000Y-92000000D03*
X132900000Y-70960000D03*
X161600000Y-58880000D03*
X123400000Y-92000000D03*
X131700000Y-71560000D03*
X122800000Y-92600000D03*
X133500000Y-62200000D03*
X131100000Y-71560000D03*
X122800000Y-90800000D03*
X198060000Y-68020000D03*
X134100000Y-62800000D03*
X132300000Y-62200000D03*
X123400000Y-90800000D03*
X134100000Y-62200000D03*
X132300000Y-71560000D03*
X124000000Y-91400000D03*
X132300000Y-62800000D03*
X123400000Y-91400000D03*
X197280000Y-67330000D03*
X198070000Y-68710000D03*
X196610000Y-67310000D03*
X132900000Y-62200000D03*
X131100000Y-70960000D03*
X133500000Y-71560000D03*
X188450000Y-90925000D03*
X185750000Y-92404500D03*
X189150000Y-90925000D03*
X186450000Y-92404500D03*
X182723000Y-83877000D03*
X184380000Y-83520000D03*
X180100000Y-66900000D03*
X118980000Y-76770000D03*
X150670000Y-68830000D03*
X100881000Y-64591000D03*
X161700000Y-78350000D03*
X172214981Y-86185019D03*
X171514981Y-86185019D03*
X161000000Y-78350000D03*
X118329477Y-76790523D03*
X150670684Y-69500361D03*
X142500000Y-68094500D03*
X121530000Y-59350000D03*
X94380000Y-84960000D03*
X102817261Y-83256756D03*
X154622500Y-62707000D03*
X163190000Y-60103489D03*
X95380000Y-84970000D03*
X102350000Y-82850000D03*
X101850000Y-83250000D03*
X155400000Y-60575167D03*
X96375000Y-84025000D03*
X164914916Y-60304916D03*
X101294666Y-82825166D03*
X97400000Y-84025000D03*
X100800000Y-83250000D03*
X164574916Y-59304916D03*
X98450000Y-84025000D03*
X99425000Y-84030500D03*
X100350000Y-82800000D03*
X156090000Y-58882000D03*
X103841209Y-83281821D03*
X103280908Y-86560908D03*
X100517000Y-89305000D03*
X196577488Y-75237488D03*
X163527720Y-89850000D03*
X163527720Y-93441000D03*
X162827720Y-89850000D03*
X162827720Y-93441000D03*
X196082512Y-74742512D03*
X162327720Y-94200000D03*
X195507488Y-73947488D03*
X162327720Y-89287482D03*
X161627720Y-94200000D03*
X161627720Y-89287482D03*
X195012512Y-73452512D03*
X193497488Y-71637488D03*
X159650000Y-89325000D03*
X159927720Y-94139500D03*
X159227720Y-94139500D03*
X193002512Y-71142512D03*
X158950000Y-89325000D03*
X170700000Y-68100000D03*
X200220000Y-79430000D03*
X160880497Y-63644500D03*
X186300000Y-63700000D03*
X194630000Y-66350000D03*
X171714309Y-66914309D03*
X185700000Y-64300000D03*
X200100803Y-78766811D03*
X193964227Y-66883914D03*
X161500000Y-63644500D03*
X102633931Y-86543911D03*
X103371709Y-82871709D03*
X164783996Y-62350000D03*
X167589414Y-59839501D03*
X177609500Y-61310000D03*
X186290000Y-62250000D03*
X196078174Y-66409464D03*
X179197000Y-61310000D03*
X200150000Y-80950000D03*
X179197000Y-59278000D03*
X168148000Y-59151000D03*
X177671659Y-58709444D03*
X200016347Y-83383585D03*
X177586591Y-59346922D03*
X179190000Y-59930000D03*
X199850502Y-83980476D03*
X168700000Y-59700000D03*
X169360263Y-59687763D03*
X179197000Y-58579500D03*
X200150000Y-82480000D03*
X199877321Y-81923736D03*
X169890000Y-59040000D03*
X179197000Y-57881000D03*
X199880000Y-80360000D03*
X186290000Y-63010000D03*
X179197000Y-62770500D03*
X195460000Y-66450000D03*
X174688500Y-62770500D03*
X170053000Y-57500000D03*
X103850000Y-58325000D03*
X173770691Y-57649309D03*
X172435000Y-60103500D03*
X172435000Y-62580000D03*
X168900000Y-65575000D03*
X172950000Y-65575000D03*
X171735000Y-60103500D03*
X171735000Y-62580000D03*
X172950000Y-64875000D03*
X168900000Y-64875000D03*
X171196000Y-63309500D03*
X172974000Y-63309500D03*
X169222512Y-62872512D03*
X176027720Y-59420564D03*
X172974000Y-64009500D03*
X171196000Y-64009500D03*
X169717488Y-63367488D03*
X176727720Y-59420564D03*
X168375000Y-87070500D03*
X158350000Y-79975000D03*
X159200000Y-82550000D03*
X171450000Y-84375000D03*
X174000000Y-90600000D03*
X177031578Y-90849500D03*
X186075000Y-93925000D03*
X175250000Y-90670000D03*
X175527720Y-96123436D03*
X174827720Y-96123436D03*
X182090000Y-82254500D03*
X179980500Y-89910500D03*
X197200000Y-76757948D03*
X167366487Y-90506487D03*
X182289500Y-78310000D03*
X182559500Y-82740000D03*
X197235072Y-77386851D03*
X182670000Y-78970000D03*
X166684000Y-90525000D03*
X180669500Y-89217499D03*
X194537488Y-72707488D03*
X161127720Y-93441000D03*
X161127720Y-89821500D03*
X160427720Y-93441000D03*
X194042512Y-72212512D03*
X160427720Y-89821500D03*
X197200000Y-76093974D03*
X181610000Y-78960000D03*
X157384000Y-93125000D03*
X181470000Y-82750000D03*
X179469500Y-91400000D03*
X181350000Y-78310000D03*
X179000000Y-92600000D03*
X181070000Y-82254500D03*
X157384000Y-94575000D03*
X197200000Y-75430000D03*
X93825000Y-70775000D03*
X94525000Y-70775000D03*
X94108088Y-68438000D03*
X92467748Y-68220773D03*
X92467748Y-67520773D03*
X94108088Y-67738000D03*
X95072039Y-63277258D03*
X94372039Y-63277258D03*
X171450000Y-71755000D03*
X172709840Y-69215000D03*
X173969680Y-69215000D03*
X153250000Y-93350000D03*
X148920200Y-77698600D03*
X151663400Y-77698600D03*
X152350000Y-92700000D03*
X177634000Y-84050000D03*
X171450000Y-69215000D03*
X124600000Y-88000000D03*
X150774400Y-78460600D03*
X79860000Y-78630000D03*
X150190200Y-77698600D03*
X178334000Y-83350000D03*
X172334000Y-70485000D03*
X177634000Y-82750000D03*
X176489360Y-69215000D03*
X124600000Y-87200000D03*
X173084000Y-69850000D03*
X124000000Y-85200000D03*
X124000000Y-86800000D03*
X171450000Y-70485000D03*
X148082000Y-78435200D03*
X151450000Y-93350000D03*
X149402800Y-78460600D03*
X100156270Y-87052770D03*
X153250000Y-92050000D03*
X124600000Y-86400000D03*
X175229520Y-69215000D03*
X124600000Y-85600000D03*
X124000000Y-86000000D03*
X124000000Y-87600000D03*
X177749200Y-69265800D03*
X151500000Y-92050000D03*
X95600000Y-77090000D03*
X96260000Y-77084000D03*
X94880000Y-77606000D03*
X95600000Y-77606000D03*
X96260000Y-77600000D03*
X82150000Y-92706000D03*
X81150000Y-93706000D03*
X82150000Y-93706000D03*
X81150000Y-94706000D03*
X82150000Y-94706000D03*
X81150000Y-95706000D03*
X82150000Y-95706000D03*
X81150000Y-92706000D03*
X94880000Y-77090000D03*
X177560000Y-60420000D03*
X150680209Y-68167064D03*
X179877000Y-63333000D03*
X119599503Y-76770000D03*
X108300000Y-71350000D03*
X110250000Y-70200000D03*
X109391000Y-67902000D03*
X109390000Y-63956010D03*
X106306000Y-66512000D03*
X95511000Y-59512000D03*
X100651000Y-59132000D03*
X83900000Y-92081000D03*
X84050000Y-92931000D03*
X84700000Y-93581000D03*
X102786000Y-69544000D03*
X101897000Y-69544000D03*
X101008000Y-69544000D03*
X153000000Y-84100000D03*
X153000000Y-82500000D03*
X153450000Y-83300000D03*
X153900000Y-82500000D03*
X151935200Y-74186400D03*
X159834000Y-62250000D03*
X167919400Y-74142600D03*
X160527720Y-62050000D03*
X92800000Y-58775000D03*
X152925800Y-74186400D03*
X104963281Y-87271123D03*
X128285800Y-69634200D03*
X93682500Y-85800000D03*
X84407000Y-85222000D03*
X173384000Y-82700000D03*
X161827720Y-62250000D03*
X81760000Y-84110000D03*
X167780200Y-73298800D03*
X162522400Y-71546200D03*
X85342500Y-86698000D03*
X81162528Y-86698000D03*
X89226190Y-87693488D03*
X160697488Y-80797488D03*
X160202512Y-80302512D03*
X81162528Y-87398000D03*
X85342500Y-87398000D03*
X88731214Y-87198512D03*
X193996906Y-85932223D03*
X157250000Y-81750000D03*
X182653564Y-85802475D03*
X158000000Y-81750000D03*
X182210000Y-85370000D03*
X194002675Y-85312747D03*
X202384500Y-78049000D03*
X202384500Y-77349000D03*
X166970000Y-59850000D03*
X157429200Y-71063600D03*
X166179500Y-59849494D03*
X156000000Y-70350000D03*
X159994600Y-72079600D03*
X149485690Y-62785690D03*
X155244487Y-63419487D03*
X123270000Y-57375500D03*
X155879800Y-77317600D03*
X155397200Y-73558400D03*
X162331400Y-76962000D03*
X160500000Y-70250000D03*
X161750000Y-71500000D03*
X202643500Y-69734450D03*
X202643500Y-71078150D03*
X202643500Y-70406300D03*
X202643500Y-71750000D03*
X202650500Y-69062600D03*
X201609100Y-69011800D03*
X200567700Y-69011800D03*
X149600000Y-86500000D03*
X148000000Y-86500000D03*
X148000000Y-87800000D03*
X149600000Y-87800000D03*
X148800000Y-87150000D03*
X148000000Y-88650000D03*
X184200800Y-89766800D03*
X183565800Y-89766800D03*
X196316600Y-89055600D03*
X149650000Y-88600000D03*
X184200800Y-89182600D03*
X196951600Y-89741400D03*
X184835800Y-89157200D03*
X197586600Y-89716000D03*
X196926200Y-89055600D03*
X197561200Y-89055600D03*
X183565800Y-89182600D03*
X184835800Y-89766800D03*
X196291200Y-89741400D03*
D58*
X101516000Y-74751000D02*
X100881000Y-74751000D01*
X101516000Y-74751000D02*
X101135000Y-74751000D01*
X102301000Y-74751000D02*
X101516000Y-74751000D01*
D59*
X100881000Y-76672000D02*
X100881000Y-74751000D01*
X98693000Y-78860000D02*
X100881000Y-76672000D01*
X98693000Y-79966000D02*
X98693000Y-78860000D01*
D58*
X101389000Y-72211000D02*
X102301000Y-72211000D01*
X101135000Y-72211000D02*
X101389000Y-72211000D01*
X101389000Y-72211000D02*
X100881000Y-72211000D01*
D59*
X99901000Y-75472000D02*
X99901000Y-73191000D01*
X96243000Y-79966000D02*
X96243000Y-79130000D01*
X99901000Y-73191000D02*
X100881000Y-72211000D01*
X96243000Y-79130000D02*
X99901000Y-75472000D01*
D58*
X97243000Y-62884000D02*
X97243000Y-64128000D01*
X97243000Y-64128000D02*
X98849000Y-65734000D01*
X98849000Y-65734000D02*
X101008000Y-65734000D01*
X101008000Y-65734000D02*
X102278000Y-67004000D01*
D60*
X101377000Y-93850000D02*
X101780000Y-93447000D01*
X100600000Y-93850000D02*
X101377000Y-93850000D01*
X97570000Y-93720000D02*
X96647000Y-93720000D01*
X96647000Y-93720000D02*
X96338000Y-93411000D01*
X103271000Y-74347000D02*
X103271000Y-74751000D01*
X102532000Y-74116000D02*
X103040000Y-74116000D01*
X103040000Y-74116000D02*
X103271000Y-74347000D01*
X102301000Y-73481000D02*
X102301000Y-73885000D01*
X102301000Y-73885000D02*
X102532000Y-74116000D01*
D58*
X103865500Y-68274000D02*
X104310000Y-67829500D01*
X104310000Y-67829500D02*
X104310000Y-66178500D01*
X104310000Y-66178500D02*
X103865500Y-65734000D01*
X103865500Y-65734000D02*
X103675000Y-65734000D01*
X103271000Y-68274000D02*
X103865500Y-68274000D01*
X103865500Y-68274000D02*
X104310000Y-68718500D01*
X104310000Y-68718500D02*
X104310000Y-70496500D01*
X104310000Y-70496500D02*
X103865500Y-70941000D01*
X103271000Y-70941000D02*
X103865500Y-70941000D01*
X103865500Y-70941000D02*
X104310000Y-71385500D01*
X104310000Y-71385500D02*
X104310000Y-72973000D01*
X104310000Y-72973000D02*
X103802000Y-73481000D01*
X103802000Y-73481000D02*
X103271000Y-73481000D01*
X103675000Y-65734000D02*
X103271000Y-65734000D01*
X104310000Y-65289500D02*
X104310000Y-64101000D01*
X99720000Y-59511000D02*
X99121000Y-59511000D01*
X103865500Y-65734000D02*
X104310000Y-65289500D01*
X104310000Y-64101000D02*
X99720000Y-59511000D01*
D61*
X102956000Y-67639000D02*
X103271000Y-67324000D01*
X102301000Y-67992232D02*
X102654232Y-67639000D01*
X103271000Y-67324000D02*
X103271000Y-67004000D01*
X102654232Y-67639000D02*
X102956000Y-67639000D01*
X102301000Y-68274000D02*
X102301000Y-67992232D01*
X102956000Y-65099000D02*
X103271000Y-64784000D01*
X102654232Y-65099000D02*
X102956000Y-65099000D01*
X103271000Y-64784000D02*
X103271000Y-64464000D01*
X102301000Y-65452232D02*
X102654232Y-65099000D01*
X102301000Y-65734000D02*
X102301000Y-65452232D01*
D60*
X185724800Y-80305200D02*
X185724800Y-81135200D01*
X185724800Y-78074800D02*
X185724800Y-78175200D01*
X187314000Y-73628000D02*
X185737600Y-73628000D01*
X134800000Y-92796000D02*
X132100000Y-92796000D01*
X187314000Y-76629000D02*
X185789000Y-76629000D01*
X151935200Y-73216400D02*
X151935200Y-72245200D01*
X185724800Y-85715200D02*
X185724800Y-86207600D01*
X84152260Y-91029780D02*
X84152260Y-90714260D01*
X185724800Y-81135200D02*
X185724800Y-82395200D01*
X173022000Y-80368000D02*
X174512000Y-80368000D01*
D62*
X104250000Y-62182083D02*
X104634917Y-62567000D01*
D59*
X86775977Y-80056063D02*
X87202260Y-79629780D01*
D63*
X200403000Y-78449000D02*
X199920000Y-77966000D01*
D59*
X77823780Y-90829780D02*
X77850000Y-90856000D01*
D60*
X185724800Y-82395200D02*
X185724800Y-82654800D01*
X185724800Y-84185200D02*
X185724800Y-85155200D01*
X185742000Y-79628000D02*
X185724800Y-79645200D01*
X187314000Y-84127000D02*
X186467498Y-84127000D01*
D64*
X196969000Y-82449000D02*
X196960000Y-82440000D01*
D60*
X187314000Y-85630000D02*
X185810000Y-85630000D01*
X185731000Y-81129000D02*
X185724800Y-81135200D01*
X198581000Y-83949000D02*
X196971000Y-83949000D01*
X185724800Y-75765200D02*
X185724800Y-76564800D01*
X185724800Y-79645200D02*
X185724800Y-80305200D01*
X185781000Y-84129000D02*
X185724800Y-84185200D01*
X185724800Y-85155200D02*
X185724800Y-85715200D01*
X185724800Y-83312000D02*
X185724800Y-84185200D01*
D64*
X198581000Y-77949000D02*
X199911000Y-77949000D01*
D60*
X198581000Y-79449000D02*
X196959000Y-79449000D01*
D63*
X200008000Y-81449000D02*
X199508000Y-80949000D01*
D60*
X187314000Y-72129000D02*
X185871000Y-72129000D01*
X185737600Y-73628000D02*
X185724800Y-73615200D01*
D63*
X201245000Y-75450000D02*
X202175000Y-75450000D01*
D60*
X187314000Y-84129000D02*
X185781000Y-84129000D01*
X185805400Y-86127000D02*
X185724800Y-86207600D01*
X185810000Y-85630000D02*
X185724800Y-85715200D01*
X187314000Y-86127000D02*
X185805400Y-86127000D01*
X199921000Y-76949000D02*
X199920000Y-76950000D01*
D59*
X84601262Y-79380778D02*
X84802260Y-79179780D01*
D60*
X185750600Y-82629000D02*
X185724800Y-82654800D01*
D62*
X105618000Y-59130000D02*
X105618000Y-60600000D01*
D59*
X79363500Y-79500000D02*
X79357500Y-79506000D01*
X84601262Y-80056063D02*
X86775977Y-80056063D01*
D60*
X196979000Y-80949000D02*
X196950000Y-80920000D01*
X185724800Y-74425200D02*
X185724800Y-75185200D01*
X187314000Y-82629000D02*
X185750600Y-82629000D01*
D59*
X84601262Y-80056063D02*
X84601262Y-79380778D01*
D60*
X185779000Y-78129000D02*
X185724800Y-78074800D01*
X198581000Y-80949000D02*
X196979000Y-80949000D01*
D63*
X199969000Y-82949000D02*
X199500000Y-82480000D01*
D60*
X187314000Y-75128000D02*
X185782000Y-75128000D01*
X185789000Y-76629000D02*
X185724800Y-76564800D01*
X174512000Y-80368000D02*
X174520000Y-80360000D01*
X167840000Y-69410000D02*
X169090000Y-69410000D01*
X185724800Y-76564800D02*
X185724800Y-78074800D01*
X185782000Y-75128000D02*
X185724800Y-75185200D01*
D59*
X131975000Y-83755000D02*
X131975000Y-82900000D01*
D64*
X199911000Y-77949000D02*
X199920000Y-77940000D01*
D63*
X199508000Y-80949000D02*
X198581000Y-80949000D01*
X201245000Y-79949000D02*
X200082062Y-79949000D01*
X201245000Y-78449000D02*
X200403000Y-78449000D01*
X201245000Y-81449000D02*
X200008000Y-81449000D01*
X199920000Y-77966000D02*
X199920000Y-77940000D01*
D62*
X105618000Y-60600000D02*
X105616000Y-60602000D01*
D60*
X153829000Y-74119600D02*
X152925800Y-73216400D01*
D63*
X202175000Y-75450000D02*
X202850000Y-76125000D01*
D60*
X187314000Y-78129000D02*
X185779000Y-78129000D01*
D59*
X76542260Y-90829780D02*
X77823780Y-90829780D01*
X78250446Y-87429446D02*
X78269000Y-87448000D01*
D62*
X110551000Y-59511000D02*
X110551000Y-61432000D01*
D60*
X92403002Y-82940000D02*
X93000000Y-82940000D01*
X201245000Y-76949000D02*
X199921000Y-76949000D01*
X187314000Y-81129000D02*
X185731000Y-81129000D01*
X198581000Y-74450000D02*
X198343000Y-74450000D01*
D63*
X200082062Y-79949000D02*
X199582062Y-79449000D01*
D62*
X110551000Y-61432000D02*
X110546000Y-61437000D01*
D60*
X84152260Y-90714260D02*
X83674000Y-90236000D01*
X185724800Y-78175200D02*
X185724800Y-79645200D01*
D64*
X198581000Y-82449000D02*
X196969000Y-82449000D01*
D59*
X131985000Y-83765000D02*
X131975000Y-83755000D01*
D63*
X199582062Y-79449000D02*
X198581000Y-79449000D01*
D60*
X185724800Y-82654800D02*
X185724800Y-83312000D01*
X185724800Y-73615200D02*
X185724800Y-74425200D01*
X167354897Y-69895103D02*
X167840000Y-69410000D01*
D59*
X79357500Y-79506000D02*
X76568480Y-79506000D01*
D60*
X187314000Y-79628000D02*
X185742000Y-79628000D01*
D62*
X104634917Y-62567000D02*
X106306000Y-62567000D01*
D60*
X185871000Y-72129000D02*
X185724800Y-72275200D01*
X152925800Y-73216400D02*
X151935200Y-73216400D01*
X151935200Y-72245200D02*
X151968200Y-72212200D01*
X185724800Y-75185200D02*
X185724800Y-75765200D01*
D59*
X76418042Y-87429446D02*
X78250446Y-87429446D01*
D60*
X154482800Y-74119600D02*
X153829000Y-74119600D01*
X185724800Y-72275200D02*
X185724800Y-73615200D01*
X196959000Y-79449000D02*
X196950000Y-79440000D01*
X196971000Y-83949000D02*
X196970000Y-83950000D01*
D63*
X201245000Y-82949000D02*
X199969000Y-82949000D01*
D60*
X167354897Y-71275103D02*
X167354897Y-69895103D01*
X134800000Y-94196000D02*
X132530000Y-94196000D01*
X132530000Y-94196000D02*
X132000000Y-93666000D01*
X134800000Y-94196000D02*
X136580000Y-94196000D01*
X136580000Y-94196000D02*
X137410000Y-93366000D01*
X129000000Y-94796000D02*
X129000000Y-92096000D01*
X130870000Y-94796000D02*
X129000000Y-94796000D01*
X132000000Y-93666000D02*
X130870000Y-94796000D01*
X102301000Y-70941000D02*
X102301000Y-71345000D01*
X102301000Y-71345000D02*
X102532000Y-71576000D01*
X102532000Y-71576000D02*
X103040000Y-71576000D01*
X103040000Y-71576000D02*
X103271000Y-71807000D01*
X103271000Y-71807000D02*
X103271000Y-72211000D01*
D65*
X189665628Y-75971851D02*
X189665629Y-75971851D01*
X189622623Y-75547587D02*
X189622624Y-75547586D01*
X189023298Y-74567000D02*
X187999000Y-74567000D01*
X189622624Y-75547586D02*
X189622623Y-75547584D01*
X188610000Y-89971298D02*
X190691000Y-87890298D01*
X189665629Y-75971851D02*
X189622624Y-75928846D01*
X190046890Y-75971850D02*
X190046889Y-75971851D01*
X190691000Y-76234702D02*
X190428149Y-75971851D01*
X190691000Y-87890298D02*
X190691000Y-76234702D01*
X188450000Y-90925000D02*
X188610000Y-90765000D01*
X190046889Y-75971851D02*
X190046887Y-75971850D01*
X189622624Y-75166325D02*
X189622624Y-75166326D01*
X188610000Y-90765000D02*
X188610000Y-89971298D01*
X189622624Y-75166326D02*
X189023298Y-74567000D01*
X190046871Y-75971831D02*
G75*
G02*
X190428149Y-75971851I190629J-190669D01*
G01*
X189622578Y-75166371D02*
G75*
G02*
X189622623Y-75547584I-190578J-190629D01*
G01*
X189665671Y-75971808D02*
G75*
G03*
X190046887Y-75971850I190629J190608D01*
G01*
X189622607Y-75547571D02*
G75*
G03*
X189622624Y-75928846I190593J-190629D01*
G01*
X189407800Y-87823498D02*
X189407800Y-77042309D01*
X187078149Y-89748173D02*
X187078150Y-89748171D01*
X185910000Y-91321298D02*
X187078149Y-90153149D01*
X185750000Y-92404500D02*
X185910000Y-92244500D01*
X187907391Y-89323909D02*
X187907392Y-89323908D01*
X187999000Y-76067000D02*
X187939000Y-76127000D01*
X187939000Y-76127000D02*
X187314000Y-76127000D01*
X188432491Y-76067000D02*
X187999000Y-76067000D01*
X187502415Y-89323908D02*
X187502414Y-89323908D01*
X187907392Y-89323908D02*
X189407800Y-87823498D01*
X187078149Y-89343195D02*
X187097438Y-89323907D01*
X187078151Y-89343194D02*
X187078149Y-89343195D01*
X189407800Y-77042309D02*
X188432491Y-76067000D01*
X185910000Y-92244500D02*
X185910000Y-91321298D01*
X187078168Y-89343211D02*
G75*
G03*
X187078150Y-89748171I202432J-202489D01*
G01*
X187502389Y-89323934D02*
G75*
G03*
X187097438Y-89323907I-202489J-202466D01*
G01*
X187078110Y-89748212D02*
G75*
G02*
X187078149Y-90153149I-202410J-202488D01*
G01*
X187907388Y-89323906D02*
G75*
G02*
X187502414Y-89323908I-202488J202506D01*
G01*
X191071000Y-76077298D02*
X191071000Y-88047702D01*
X188990000Y-90765000D02*
X189150000Y-90925000D01*
X188990000Y-90128702D02*
X188990000Y-90765000D01*
X187999000Y-74187000D02*
X189180702Y-74187000D01*
X191071000Y-88047702D02*
X188990000Y-90128702D01*
X189180702Y-74187000D02*
X191071000Y-76077298D01*
X188589893Y-75687000D02*
X189788800Y-76885907D01*
X186290000Y-91478702D02*
X186290000Y-92244500D01*
X187939000Y-75627000D02*
X187999000Y-75687000D01*
X187999000Y-75687000D02*
X188589893Y-75687000D01*
X187314000Y-75627000D02*
X187939000Y-75627000D01*
X189788800Y-76885907D02*
X189788800Y-87979902D01*
X186290000Y-92244500D02*
X186450000Y-92404500D01*
X189788800Y-87979902D02*
X186290000Y-91478702D01*
D64*
X118980000Y-76780000D02*
X118980000Y-76770000D01*
D66*
X182723000Y-83877000D02*
X179764000Y-83877000D01*
D64*
X121620000Y-79420000D02*
X118980000Y-76780000D01*
D66*
X180390000Y-66900000D02*
X180100000Y-66900000D01*
D64*
X144305736Y-79420000D02*
X121620000Y-79420000D01*
X150670000Y-68830000D02*
X150175000Y-69325000D01*
D66*
X184503500Y-83396500D02*
X184503500Y-71013500D01*
D64*
X150175000Y-69325000D02*
X150175000Y-73550736D01*
D66*
X184380000Y-83520000D02*
X184503500Y-83396500D01*
X184503500Y-71013500D02*
X180390000Y-66900000D01*
D64*
X150175000Y-73550736D02*
X144305736Y-79420000D01*
D58*
X100119000Y-64591000D02*
X99693000Y-64165000D01*
X99693000Y-64165000D02*
X99693000Y-62884000D01*
X100881000Y-64591000D02*
X100119000Y-64591000D01*
X101135000Y-64591000D02*
X102174000Y-64591000D01*
X102174000Y-64591000D02*
X102301000Y-64464000D01*
X101135000Y-64591000D02*
X100881000Y-64591000D01*
D65*
X172054981Y-85836279D02*
X172054981Y-86025019D01*
X161828702Y-79410000D02*
X165628702Y-79410000D01*
X172054981Y-86025019D02*
X172214981Y-86185019D01*
X161540000Y-79121298D02*
X161828702Y-79410000D01*
X165628702Y-79410000D02*
X172054981Y-85836279D01*
X161700000Y-78350000D02*
X161540000Y-78510000D01*
X161540000Y-78510000D02*
X161540000Y-79121298D01*
X163235200Y-79790000D02*
X165471298Y-79790000D01*
X161160000Y-78510000D02*
X161160000Y-79278702D01*
X171674981Y-86025019D02*
X171514981Y-86185019D01*
X162330971Y-80085771D02*
X162330971Y-80085772D01*
X161000000Y-78350000D02*
X161160000Y-78510000D01*
X162930971Y-80085772D02*
X162930971Y-80085771D01*
X161160000Y-79278702D02*
X161671298Y-79790000D01*
X161671298Y-79790000D02*
X162035200Y-79790000D01*
X163226742Y-79790000D02*
X163235200Y-79790000D01*
X171674981Y-85993683D02*
X171674981Y-86025019D01*
X162626742Y-80381543D02*
X162635200Y-80381543D01*
X165471298Y-79790000D02*
X171674981Y-85993683D01*
X162331000Y-80085771D02*
G75*
G03*
X162035200Y-79790000I-295800J-29D01*
G01*
X162626742Y-80381529D02*
G75*
G02*
X162330971Y-80085772I-42J295729D01*
G01*
X162930943Y-80085772D02*
G75*
G02*
X162635200Y-80381543I-295743J-28D01*
G01*
X163226742Y-79790071D02*
G75*
G03*
X162930971Y-80085771I-42J-295729D01*
G01*
D66*
X150580000Y-73570000D02*
X144430000Y-79720000D01*
X142500000Y-68094500D02*
X142500000Y-65430000D01*
X142500000Y-65430000D02*
X135500000Y-58430000D01*
X121258954Y-79720000D02*
X118329477Y-76790523D01*
X150580000Y-69591045D02*
X150580000Y-73570000D01*
X122450000Y-58430000D02*
X121530000Y-59350000D01*
X150670684Y-69500361D02*
X150580000Y-69591045D01*
X144430000Y-79720000D02*
X121258954Y-79720000D01*
X135500000Y-58430000D02*
X122450000Y-58430000D01*
D65*
X118810000Y-70850000D02*
X126050000Y-78090000D01*
X76418042Y-89629446D02*
X85485094Y-89629446D01*
X112371859Y-70850000D02*
X118810000Y-70850000D01*
X102817261Y-83256756D02*
X102817261Y-78682739D01*
X154116695Y-62707000D02*
X154622500Y-62707000D01*
X85485094Y-89629446D02*
X90174540Y-84940000D01*
X94380000Y-84960000D02*
X93020000Y-84960000D01*
X93000000Y-84940000D02*
X91988500Y-84940000D01*
X94380000Y-84960000D02*
X94380000Y-85882000D01*
X136910000Y-78090000D02*
X149175000Y-65825000D01*
X109911859Y-73310000D02*
X112371859Y-70850000D01*
X149175000Y-65825000D02*
X150998695Y-65825000D01*
X90174540Y-84940000D02*
X91660000Y-84940000D01*
X108190000Y-73310000D02*
X109911859Y-73310000D01*
X126050000Y-78090000D02*
X136910000Y-78090000D01*
X150998695Y-65825000D02*
X154116695Y-62707000D01*
X102817261Y-78682739D02*
X108190000Y-73310000D01*
X94850000Y-84440000D02*
X93000000Y-84440000D01*
X109787595Y-73010000D02*
X112267595Y-70530000D01*
X102350000Y-78650000D02*
X107990000Y-73010000D01*
X148975000Y-65525000D02*
X150874431Y-65525000D01*
X126180000Y-77720000D02*
X136780000Y-77720000D01*
X112267595Y-70530000D02*
X118990000Y-70530000D01*
X162258322Y-61035167D02*
X163190000Y-60103489D01*
X76981000Y-88506000D02*
X77539780Y-89064780D01*
X93000000Y-84440000D02*
X91660000Y-84440000D01*
X77539780Y-89064780D02*
X85351260Y-89064780D01*
X136780000Y-77720000D02*
X148975000Y-65525000D01*
X102350000Y-82850000D02*
X102350000Y-78650000D01*
X89976040Y-84440000D02*
X91660000Y-84440000D01*
X118990000Y-70530000D02*
X126180000Y-77720000D01*
X155364264Y-61035167D02*
X162258322Y-61035167D01*
X95380000Y-84970000D02*
X95388000Y-84978000D01*
X150874431Y-65525000D02*
X155364264Y-61035167D01*
X107990000Y-73010000D02*
X109787595Y-73010000D01*
X95388000Y-84978000D02*
X95388000Y-85890000D01*
X85351260Y-89064780D02*
X89976040Y-84440000D01*
X95380000Y-84970000D02*
X94850000Y-84440000D01*
X78623446Y-86329446D02*
X76418042Y-86329446D01*
X80850780Y-88556780D02*
X78623446Y-86329446D01*
X119160000Y-70220000D02*
X126340000Y-77400000D01*
X126340000Y-77400000D02*
X136600000Y-77400000D01*
X150750167Y-65225000D02*
X155400000Y-60575167D01*
X96404000Y-84054000D02*
X96404000Y-85890000D01*
X136600000Y-77400000D02*
X148775000Y-65225000D01*
X101850000Y-83250000D02*
X101850000Y-78650000D01*
X93000000Y-83940000D02*
X91660000Y-83940000D01*
X109663331Y-72710000D02*
X112153331Y-70220000D01*
X148775000Y-65225000D02*
X150750167Y-65225000D01*
X107790000Y-72710000D02*
X109663331Y-72710000D01*
X85160760Y-88556780D02*
X80850780Y-88556780D01*
X91660000Y-83940000D02*
X89777540Y-83940000D01*
X96375000Y-84025000D02*
X96290000Y-83940000D01*
X96375000Y-84025000D02*
X96404000Y-84054000D01*
X101850000Y-78650000D02*
X107790000Y-72710000D01*
X112153331Y-70220000D02*
X119160000Y-70220000D01*
X89777540Y-83940000D02*
X85160760Y-88556780D01*
X96290000Y-83940000D02*
X93000000Y-83940000D01*
X119286414Y-69900000D02*
X126435454Y-77049040D01*
X97400000Y-84025000D02*
X97420000Y-84045000D01*
X136450960Y-77049040D02*
X148575000Y-64925000D01*
X77670000Y-83440000D02*
X76980554Y-84129446D01*
X91660000Y-83440000D02*
X93000000Y-83440000D01*
X126435454Y-77049040D02*
X136450960Y-77049040D01*
X164253989Y-59643989D02*
X164914916Y-60304916D01*
X107590000Y-72410000D02*
X109539067Y-72410000D01*
X101294666Y-82825166D02*
X101294666Y-78705334D01*
X101294666Y-78705334D02*
X107590000Y-72410000D01*
X93290000Y-83440000D02*
X93000000Y-83440000D01*
X96625000Y-83250000D02*
X93480000Y-83250000D01*
X93480000Y-83250000D02*
X93290000Y-83440000D01*
X154937589Y-59643989D02*
X164253989Y-59643989D01*
X149656579Y-64925000D02*
X154937589Y-59643989D01*
X97420000Y-84045000D02*
X97420000Y-85890000D01*
X97400000Y-84025000D02*
X96625000Y-83250000D01*
X148575000Y-64925000D02*
X149656579Y-64925000D01*
X91660000Y-83440000D02*
X77670000Y-83440000D01*
X109539067Y-72410000D02*
X112049067Y-69900000D01*
X112049067Y-69900000D02*
X119286414Y-69900000D01*
X77502553Y-82440000D02*
X91660000Y-82440000D01*
X109414803Y-72110000D02*
X111934803Y-69590000D01*
X148375000Y-64625000D02*
X149532315Y-64625000D01*
X119400000Y-69590000D02*
X126500000Y-76690000D01*
X76913107Y-83029446D02*
X77502553Y-82440000D01*
X100810000Y-83240000D02*
X100810000Y-78690000D01*
X98450000Y-84025000D02*
X96865000Y-82440000D01*
X126500000Y-76690000D02*
X136310000Y-76690000D01*
X154815814Y-59341500D02*
X164538332Y-59341500D01*
X100810000Y-78690000D02*
X107390000Y-72110000D01*
X100800000Y-83250000D02*
X100810000Y-83240000D01*
X93000000Y-82440000D02*
X91660000Y-82440000D01*
X98450000Y-84025000D02*
X98450000Y-85876000D01*
X111934803Y-69590000D02*
X119400000Y-69590000D01*
X96865000Y-82440000D02*
X93000000Y-82440000D01*
X136310000Y-76690000D02*
X148375000Y-64625000D01*
X149532315Y-64625000D02*
X154815814Y-59341500D01*
X164538332Y-59341500D02*
X164574916Y-59304916D01*
X107390000Y-72110000D02*
X109414803Y-72110000D01*
X91660000Y-81940000D02*
X93000000Y-81940000D01*
X107190000Y-71810000D02*
X109290539Y-71810000D01*
X100350000Y-78650000D02*
X107190000Y-71810000D01*
X111820539Y-69280000D02*
X119570000Y-69280000D01*
X148175000Y-64325000D02*
X149408051Y-64325000D01*
X99425000Y-84025000D02*
X97340000Y-81940000D01*
X100350000Y-82800000D02*
X100350000Y-78650000D01*
X154851050Y-58882000D02*
X156090000Y-58882000D01*
X136150000Y-76350000D02*
X148175000Y-64325000D01*
X126640000Y-76350000D02*
X136150000Y-76350000D01*
X97340000Y-81940000D02*
X93000000Y-81940000D01*
X99425000Y-84030500D02*
X99425000Y-85863000D01*
X149408051Y-64325000D02*
X154851050Y-58882000D01*
X119570000Y-69280000D02*
X126640000Y-76350000D01*
X109290539Y-71810000D02*
X111820539Y-69280000D01*
X91650000Y-81930000D02*
X76418596Y-81930000D01*
X99425000Y-84030500D02*
X99425000Y-84025000D01*
D66*
X102827905Y-87013911D02*
X102776089Y-87013911D01*
X103841209Y-78658791D02*
X108560000Y-73940000D01*
X103280908Y-86560908D02*
X102827905Y-87013911D01*
X115674000Y-71630000D02*
X117090000Y-73046000D01*
X100517000Y-89896522D02*
X101491478Y-90871000D01*
X103841209Y-83281821D02*
X103841209Y-78658791D01*
X100517000Y-89305000D02*
X100517000Y-89896522D01*
X108560000Y-73940000D02*
X110172813Y-73940000D01*
X110172813Y-73940000D02*
X112482813Y-71630000D01*
X102776089Y-87013911D02*
X100517000Y-89273000D01*
X100517000Y-89273000D02*
X100517000Y-89305000D01*
X112482813Y-71630000D02*
X115674000Y-71630000D01*
D60*
X94650000Y-90791000D02*
X96258000Y-90791000D01*
D64*
X163352720Y-93266000D02*
X163352720Y-90025000D01*
X198581000Y-78450000D02*
X197831000Y-78450000D01*
X198581000Y-78449000D02*
X197230999Y-78449000D01*
X196604112Y-78524000D02*
X196125000Y-78044888D01*
X197155999Y-78524000D02*
X196604112Y-78524000D01*
X196125000Y-75442488D02*
X196330000Y-75237488D01*
X196330000Y-75237488D02*
X196577488Y-75237488D01*
X163352720Y-90025000D02*
X163527720Y-89850000D01*
X197831000Y-78450000D02*
X197756000Y-78525000D01*
X196125000Y-78044888D02*
X196125000Y-75442488D01*
X197230999Y-78449000D02*
X197155999Y-78524000D01*
X163352720Y-93266000D02*
X163527720Y-93441000D01*
X198581000Y-78949000D02*
X197230999Y-78949000D01*
X196459136Y-78874000D02*
X195775000Y-78189864D01*
X196082512Y-74990000D02*
X196082512Y-74742512D01*
X197230999Y-78949000D02*
X197155999Y-78874000D01*
X197831000Y-78950000D02*
X197756000Y-78875000D01*
X195775000Y-78189864D02*
X195775000Y-75297512D01*
X163002720Y-93266000D02*
X163002720Y-90025000D01*
X162827720Y-93441000D02*
X163002720Y-93266000D01*
X195775000Y-75297512D02*
X196082512Y-74990000D01*
X163002720Y-90025000D02*
X162827720Y-89850000D01*
X197155999Y-78874000D02*
X196459136Y-78874000D01*
X198581000Y-78950000D02*
X197831000Y-78950000D01*
X162327720Y-94200000D02*
X162152720Y-94025000D01*
X198581000Y-79949000D02*
X197230999Y-79949000D01*
X197230999Y-79949000D02*
X197155999Y-80024000D01*
X195205000Y-74002488D02*
X195260000Y-73947488D01*
X195260000Y-73947488D02*
X195507488Y-73947488D01*
X162152720Y-94025000D02*
X162152720Y-89462482D01*
X195205000Y-79847512D02*
X195205000Y-74002488D01*
X195381488Y-80024000D02*
X195205000Y-79847512D01*
X197155999Y-80024000D02*
X195381488Y-80024000D01*
X162152720Y-89462482D02*
X162327720Y-89287482D01*
X161802720Y-94025000D02*
X161802720Y-89462482D01*
X195236512Y-80374000D02*
X194855000Y-79992488D01*
X161627720Y-94200000D02*
X161802720Y-94025000D01*
X197230999Y-80449000D02*
X197155999Y-80374000D01*
X194855000Y-79992488D02*
X194855000Y-73857512D01*
X194855000Y-73857512D02*
X195012512Y-73700000D01*
X195012512Y-73700000D02*
X195012512Y-73452512D01*
X198581000Y-80449000D02*
X197230999Y-80449000D01*
X197155999Y-80374000D02*
X195236512Y-80374000D01*
X161802720Y-89462482D02*
X161627720Y-89287482D01*
X159752720Y-92230232D02*
X159475000Y-91952512D01*
X194957152Y-82577152D02*
X194904000Y-82577152D01*
X159752720Y-93964500D02*
X159752720Y-92230232D01*
X194404000Y-83024000D02*
X194281488Y-83024000D01*
X193245000Y-81987512D02*
X193245000Y-71642488D01*
X198581000Y-82949000D02*
X197230999Y-82949000D01*
X194281488Y-83024000D02*
X193245000Y-81987512D01*
X197230999Y-82949000D02*
X197155999Y-83024000D01*
X159927720Y-94139500D02*
X159752720Y-93964500D01*
X197155999Y-83024000D02*
X196404000Y-83024000D01*
X159475000Y-89500000D02*
X159650000Y-89325000D01*
X193250000Y-71637488D02*
X193497488Y-71637488D01*
X159475000Y-91952512D02*
X159475000Y-89500000D01*
X195957152Y-82577152D02*
X195904000Y-82577152D01*
X195457152Y-83024000D02*
X195404000Y-83024000D01*
X193245000Y-71642488D02*
X193250000Y-71637488D01*
X194457152Y-83024000D02*
X194404000Y-83024000D01*
X194457152Y-83023976D02*
G75*
G03*
X194680576Y-82800576I48J223376D01*
G01*
X194957152Y-82577224D02*
G75*
G02*
X195180576Y-82800576I48J-223376D01*
G01*
X195680552Y-82800576D02*
G75*
G02*
X195904000Y-82577152I223448J-24D01*
G01*
X195457152Y-83023976D02*
G75*
G03*
X195680576Y-82800576I48J223376D01*
G01*
X196180600Y-82800576D02*
G75*
G03*
X196404000Y-83024000I223400J-24D01*
G01*
X195180600Y-82800576D02*
G75*
G03*
X195404000Y-83024000I223400J-24D01*
G01*
X195957152Y-82577224D02*
G75*
G02*
X196180576Y-82800576I48J-223376D01*
G01*
X194680552Y-82800576D02*
G75*
G02*
X194904000Y-82577152I223448J-24D01*
G01*
X159227720Y-94139500D02*
X159402720Y-93964500D01*
X192895000Y-82132488D02*
X192895000Y-71497512D01*
X194136512Y-83374000D02*
X192895000Y-82132488D01*
X192895000Y-71497512D02*
X193002512Y-71390000D01*
X159402720Y-92375208D02*
X159125000Y-92097488D01*
X193002512Y-71390000D02*
X193002512Y-71142512D01*
X197155999Y-83374000D02*
X194136512Y-83374000D01*
X198581000Y-83449000D02*
X197230999Y-83449000D01*
X159125000Y-92097488D02*
X159125000Y-89500000D01*
X159125000Y-89500000D02*
X158950000Y-89325000D01*
X159402720Y-93964500D02*
X159402720Y-92375208D01*
X197230999Y-83449000D02*
X197155999Y-83374000D01*
D66*
X201226000Y-79430000D02*
X201245000Y-79449000D01*
X160880497Y-63644500D02*
X160880497Y-65980497D01*
X200220000Y-79430000D02*
X201226000Y-79430000D01*
X187320000Y-64720000D02*
X193000000Y-64720000D01*
X163000000Y-68100000D02*
X170700000Y-68100000D01*
X160880497Y-65980497D02*
X163000000Y-68100000D01*
X193000000Y-64720000D02*
X194630000Y-66350000D01*
X186300000Y-63700000D02*
X187320000Y-64720000D01*
X193964227Y-66883914D02*
X193964227Y-66674227D01*
X192510000Y-65220000D02*
X186620000Y-65220000D01*
X162556857Y-66914309D02*
X161500000Y-65857452D01*
X171714309Y-66914309D02*
X162556857Y-66914309D01*
X186620000Y-65220000D02*
X185700000Y-64300000D01*
X161500000Y-65857452D02*
X161500000Y-63644500D01*
X200282992Y-78949000D02*
X201245000Y-78949000D01*
X193964227Y-66674227D02*
X192510000Y-65220000D01*
X200100803Y-78766811D02*
X200282992Y-78949000D01*
X137070000Y-78430000D02*
X149365000Y-66135000D01*
X103371709Y-82871709D02*
X103371709Y-78628291D01*
X156524181Y-61470000D02*
X164360000Y-61470000D01*
X110040265Y-73620000D02*
X112450265Y-71210000D01*
X100894480Y-88275520D02*
X88820480Y-88275520D01*
X151859181Y-66135000D02*
X156524181Y-61470000D01*
X118670000Y-71210000D02*
X125890000Y-78430000D01*
X164360000Y-61470000D02*
X164783996Y-61893996D01*
X164783996Y-61893996D02*
X164783996Y-62350000D01*
X102626089Y-86543911D02*
X100894480Y-88275520D01*
X108380000Y-73620000D02*
X110040265Y-73620000D01*
X88820480Y-88275520D02*
X88425000Y-88671000D01*
X103371709Y-78628291D02*
X108380000Y-73620000D01*
X125890000Y-78430000D02*
X137070000Y-78430000D01*
X112450265Y-71210000D02*
X118670000Y-71210000D01*
X102633931Y-86543911D02*
X102626089Y-86543911D01*
X149365000Y-66135000D02*
X151859181Y-66135000D01*
X186290000Y-62250000D02*
X186590000Y-62250000D01*
X194190000Y-63580000D02*
X196078174Y-65468174D01*
X186590000Y-62250000D02*
X187920000Y-63580000D01*
X200150000Y-80950000D02*
X201244000Y-80950000D01*
X177609500Y-61310000D02*
X179197000Y-61310000D01*
X187920000Y-63580000D02*
X194190000Y-63580000D01*
X201244000Y-80950000D02*
X201245000Y-80949000D01*
X196078174Y-65468174D02*
X196078174Y-66409464D01*
X178240215Y-59278000D02*
X179197000Y-59278000D01*
X177671659Y-58709444D02*
X178240215Y-59278000D01*
D60*
X200016347Y-83383585D02*
X200081762Y-83449000D01*
X200081762Y-83449000D02*
X201245000Y-83449000D01*
D66*
X178169669Y-59930000D02*
X179190000Y-59930000D01*
X201213524Y-83980476D02*
X201245000Y-83949000D01*
X177586591Y-59346922D02*
X178169669Y-59930000D01*
X199850502Y-83980476D02*
X201213524Y-83980476D01*
X201214000Y-82480000D02*
X201245000Y-82449000D01*
X174821980Y-58518020D02*
X175756990Y-57583010D01*
X169926000Y-59722500D02*
X171130480Y-58518020D01*
X200150000Y-82480000D02*
X201214000Y-82480000D01*
X178200510Y-57583010D02*
X179197000Y-58579500D01*
X171130480Y-58518020D02*
X174821980Y-58518020D01*
X169395000Y-59722500D02*
X169926000Y-59722500D01*
X169360263Y-59687763D02*
X169395000Y-59722500D01*
X175756990Y-57583010D02*
X178200510Y-57583010D01*
X175624640Y-57263490D02*
X178579490Y-57263490D01*
D60*
X199902585Y-81949000D02*
X199877321Y-81923736D01*
X201245000Y-81949000D02*
X199902585Y-81949000D01*
D66*
X174689630Y-58198500D02*
X175624640Y-57263490D01*
X178579490Y-57263490D02*
X179197000Y-57881000D01*
X170731500Y-58198500D02*
X174689630Y-58198500D01*
X169890000Y-59040000D02*
X170731500Y-58198500D01*
X186410000Y-63010000D02*
X187590000Y-64190000D01*
X174688500Y-62770500D02*
X179197000Y-62770500D01*
X186290000Y-63010000D02*
X186410000Y-63010000D01*
X199880000Y-80360000D02*
X201156000Y-80360000D01*
X201156000Y-80360000D02*
X201245000Y-80449000D01*
X195460000Y-65790000D02*
X195460000Y-66450000D01*
X187590000Y-64190000D02*
X193860000Y-64190000D01*
X193860000Y-64190000D02*
X195460000Y-65790000D01*
D64*
X98190489Y-61535511D02*
X95194489Y-61535511D01*
X141710000Y-63770000D02*
X135760000Y-57820000D01*
X98190489Y-57759511D02*
X98190489Y-61535511D01*
X169438489Y-58114511D02*
X154785489Y-58114511D01*
X95194489Y-61535511D02*
X93070995Y-63659005D01*
X98589520Y-57360480D02*
X98190489Y-57759511D01*
X112611638Y-57360480D02*
X98589520Y-57360480D01*
X113071158Y-57820000D02*
X112611638Y-57360480D01*
X149130000Y-63770000D02*
X141710000Y-63770000D01*
X135760000Y-57820000D02*
X113071158Y-57820000D01*
X154785489Y-58114511D02*
X149130000Y-63770000D01*
X170053000Y-57500000D02*
X169438489Y-58114511D01*
X173770691Y-57649309D02*
X173337851Y-57216469D01*
X135660125Y-58105481D02*
X112975480Y-58105480D01*
X149290000Y-64040000D02*
X141594644Y-64040000D01*
X169821500Y-58430000D02*
X154900000Y-58430000D01*
X112975480Y-58105480D02*
X112500000Y-57630000D01*
X171035031Y-57216469D02*
X169821500Y-58430000D01*
X112500000Y-57630000D02*
X104545000Y-57630000D01*
X154900000Y-58430000D02*
X149290000Y-64040000D01*
X173337851Y-57216469D02*
X171035031Y-57216469D01*
X104545000Y-57630000D02*
X103850000Y-58325000D01*
X141594644Y-64040000D02*
X135660125Y-58105481D01*
X172260000Y-60278500D02*
X172435000Y-60103500D01*
X172435000Y-62580000D02*
X172260000Y-62405000D01*
X172260000Y-62405000D02*
X172260000Y-60278500D01*
X168900000Y-65575000D02*
X169075000Y-65400000D01*
X172775000Y-65400000D02*
X172950000Y-65575000D01*
X169075000Y-65400000D02*
X172775000Y-65400000D01*
X171910000Y-60278500D02*
X171735000Y-60103500D01*
X171735000Y-62580000D02*
X171910000Y-62405000D01*
X171910000Y-62405000D02*
X171910000Y-60278500D01*
X172775000Y-65050000D02*
X172950000Y-64875000D01*
X169075000Y-65050000D02*
X172775000Y-65050000D01*
X168900000Y-64875000D02*
X169075000Y-65050000D01*
X171371000Y-63484500D02*
X171196000Y-63309500D01*
X172799000Y-63484500D02*
X171371000Y-63484500D01*
X172974000Y-63309500D02*
X172799000Y-63484500D01*
X174506488Y-60325000D02*
X173206488Y-59025000D01*
X176027720Y-59420564D02*
X176202720Y-59595564D01*
X176202720Y-59595564D02*
X176202720Y-60033792D01*
X173206488Y-59025000D02*
X171211512Y-59025000D01*
X176202720Y-60033792D02*
X175911512Y-60325000D01*
X169709000Y-62633512D02*
X169470000Y-62872512D01*
X171211512Y-59025000D02*
X169709000Y-60527512D01*
X169470000Y-62872512D02*
X169222512Y-62872512D01*
X175911512Y-60325000D02*
X174506488Y-60325000D01*
X169709000Y-60527512D02*
X169709000Y-62633512D01*
X172974000Y-64009500D02*
X172799000Y-63834500D01*
X171371000Y-63834500D02*
X171196000Y-64009500D01*
X172799000Y-63834500D02*
X171371000Y-63834500D01*
X176056488Y-60675000D02*
X174361512Y-60675000D01*
X170059000Y-60672488D02*
X170059000Y-62778488D01*
X173061512Y-59375000D02*
X171356488Y-59375000D01*
X171356488Y-59375000D02*
X170059000Y-60672488D01*
X169717488Y-63120000D02*
X169717488Y-63367488D01*
X170059000Y-62778488D02*
X169717488Y-63120000D01*
X174361512Y-60675000D02*
X173061512Y-59375000D01*
X176552720Y-60178768D02*
X176056488Y-60675000D01*
X176727720Y-59420564D02*
X176552720Y-59595564D01*
X176552720Y-59595564D02*
X176552720Y-60178768D01*
D66*
X161150000Y-85350000D02*
X159200000Y-83400000D01*
X174184681Y-90600000D02*
X174000000Y-90600000D01*
X159200000Y-83400000D02*
X159200000Y-82550000D01*
X175294181Y-91709500D02*
X174184681Y-90600000D01*
D60*
X160525000Y-77800000D02*
X158350000Y-79975000D01*
D66*
X177031578Y-90849500D02*
X176171578Y-91709500D01*
D60*
X160575000Y-77800000D02*
X160525000Y-77800000D01*
X171450000Y-81175000D02*
X168100000Y-77825000D01*
D66*
X166654500Y-85350000D02*
X161150000Y-85350000D01*
D60*
X168100000Y-77825000D02*
X160600000Y-77825000D01*
D66*
X168375000Y-87070500D02*
X166654500Y-85350000D01*
D60*
X160600000Y-77825000D02*
X160575000Y-77800000D01*
D66*
X176171578Y-91709500D02*
X175294181Y-91709500D01*
D60*
X171450000Y-84375000D02*
X171450000Y-81175000D01*
D66*
X186075000Y-93925000D02*
X185050000Y-93925000D01*
X182710000Y-73400000D02*
X179734000Y-73400000D01*
X176070000Y-71836000D02*
X177611000Y-73377000D01*
X183560000Y-87596719D02*
X183560000Y-74250000D01*
X182900000Y-91775000D02*
X182900000Y-88256719D01*
X176070000Y-70846000D02*
X176070000Y-71836000D01*
X177611000Y-73377000D02*
X179764000Y-73377000D01*
X185050000Y-93925000D02*
X182900000Y-91775000D01*
X182900000Y-88256719D02*
X183560000Y-87596719D01*
X183560000Y-74250000D02*
X182710000Y-73400000D01*
X182587000Y-73877000D02*
X176761000Y-73877000D01*
X174546000Y-71662000D02*
X174546000Y-70846000D01*
X175540000Y-90380000D02*
X180270000Y-90380000D01*
X183190000Y-87460000D02*
X183190000Y-84074681D01*
X183193000Y-74483000D02*
X182587000Y-73877000D01*
X183190000Y-84074681D02*
X183193000Y-84071681D01*
X176761000Y-73877000D02*
X174546000Y-71662000D01*
X180270000Y-90380000D02*
X183190000Y-87460000D01*
X183193000Y-84071681D02*
X183193000Y-74483000D01*
X175250000Y-90670000D02*
X175540000Y-90380000D01*
D65*
X186413102Y-95414600D02*
X192082586Y-89745116D01*
X192082586Y-74888884D02*
X189880702Y-72687000D01*
X175367720Y-95963436D02*
X175367720Y-95868182D01*
X175821302Y-95414600D02*
X186413102Y-95414600D01*
X189880702Y-72687000D02*
X187999000Y-72687000D01*
X192082586Y-89745116D02*
X192082586Y-74888884D01*
X175527720Y-96123436D02*
X175367720Y-95963436D01*
X175367720Y-95868182D02*
X175821302Y-95414600D01*
X186255698Y-95034600D02*
X178604600Y-95034600D01*
X190354407Y-73698108D02*
X190434545Y-73778247D01*
X190116346Y-73698108D02*
X190116347Y-73698108D01*
X174987720Y-95710778D02*
X174987720Y-95963436D01*
X191702586Y-75046288D02*
X191702586Y-89587712D01*
X178304600Y-94734600D02*
X178254600Y-94734600D01*
X175663898Y-95034600D02*
X174987720Y-95710778D01*
X190434545Y-73778247D02*
X191702586Y-75046288D01*
X177954600Y-95034600D02*
X175663898Y-95034600D01*
X189723298Y-73067000D02*
X189798149Y-73141851D01*
X191702586Y-89587712D02*
X186255698Y-95034600D01*
X187999000Y-73067000D02*
X189723298Y-73067000D01*
X189798148Y-73379912D02*
X189798149Y-73379911D01*
X189798149Y-73617971D02*
X189878286Y-73698108D01*
X174987720Y-95963436D02*
X174827720Y-96123436D01*
X178104600Y-94884600D02*
G75*
G02*
X178254600Y-94734600I150000J0D01*
G01*
X189798166Y-73379930D02*
G75*
G03*
X189798148Y-73141852I-119066J119030D01*
G01*
X190116346Y-73698108D02*
G75*
G02*
X189878286Y-73698108I-119030J119029D01*
G01*
X178304600Y-94734600D02*
G75*
G02*
X178454600Y-94884600I0J-150000D01*
G01*
X178454600Y-94884600D02*
G75*
G03*
X178604600Y-95034600I150000J0D01*
G01*
X190354407Y-73698108D02*
G75*
G03*
X190116347Y-73698108I-119030J-119029D01*
G01*
X189798190Y-73617930D02*
G75*
G02*
X189798149Y-73379911I119010J119030D01*
G01*
X177954600Y-95034600D02*
G75*
G03*
X178104600Y-94884600I0J150000D01*
G01*
D66*
X179891000Y-90000000D02*
X167872974Y-90000000D01*
X167872974Y-90000000D02*
X167366487Y-90506487D01*
X197270850Y-76757948D02*
X197461902Y-76949000D01*
X182180000Y-82164500D02*
X182090000Y-82254500D01*
X179980500Y-89910500D02*
X179891000Y-90000000D01*
X182289500Y-78310000D02*
X182180000Y-78419500D01*
X197200000Y-76757948D02*
X197270850Y-76757948D01*
X182180000Y-78419500D02*
X182180000Y-82164500D01*
X197461902Y-76949000D02*
X198581000Y-76949000D01*
X197297221Y-77449000D02*
X198581000Y-77449000D01*
X167859000Y-89350000D02*
X180536999Y-89350000D01*
X182670000Y-78970000D02*
X182710000Y-79010000D01*
X197235072Y-77386851D02*
X197297221Y-77449000D01*
X180536999Y-89350000D02*
X180669500Y-89217499D01*
X167859000Y-89350000D02*
X166684000Y-90525000D01*
X182710000Y-82589500D02*
X182559500Y-82740000D01*
X182710000Y-79010000D02*
X182710000Y-82589500D01*
D64*
X197831000Y-81450000D02*
X197756000Y-81525000D01*
X195052366Y-81525000D02*
X194885000Y-81525000D01*
X197756000Y-81525000D02*
X195785000Y-81525000D01*
X194225000Y-81257512D02*
X194225000Y-72772488D01*
X194225000Y-72772488D02*
X194290000Y-72707488D01*
X195502366Y-81242366D02*
X195335000Y-81242366D01*
X160952720Y-93266000D02*
X161127720Y-93441000D01*
X194492488Y-81525000D02*
X194225000Y-81257512D01*
X160952720Y-89996500D02*
X160952720Y-93266000D01*
X161127720Y-89821500D02*
X160952720Y-89996500D01*
X194290000Y-72707488D02*
X194537488Y-72707488D01*
X194885000Y-81525000D02*
X194492488Y-81525000D01*
X198581000Y-81450000D02*
X197831000Y-81450000D01*
X195502366Y-81242417D02*
G75*
G02*
X195643683Y-81383683I34J-141283D01*
G01*
X195643700Y-81383683D02*
G75*
G03*
X195785000Y-81525000I141300J-17D01*
G01*
X195052366Y-81524983D02*
G75*
G03*
X195193683Y-81383683I34J141283D01*
G01*
X195193666Y-81383683D02*
G75*
G02*
X195335000Y-81242366I141334J-17D01*
G01*
X160602720Y-89996500D02*
X160602720Y-93266000D01*
X193875000Y-72627512D02*
X194042512Y-72460000D01*
X193875000Y-81402488D02*
X193875000Y-72627512D01*
X197756000Y-81875000D02*
X194347512Y-81875000D01*
X194347512Y-81875000D02*
X193875000Y-81402488D01*
X197831000Y-81950000D02*
X197756000Y-81875000D01*
X194042512Y-72460000D02*
X194042512Y-72212512D01*
X160427720Y-89821500D02*
X160602720Y-89996500D01*
X160602720Y-93266000D02*
X160427720Y-93441000D01*
D66*
X197556026Y-76450000D02*
X198581000Y-76450000D01*
X178244500Y-92625000D02*
X179469500Y-91400000D01*
X181600000Y-78970000D02*
X181600000Y-82620000D01*
X158984000Y-94725000D02*
X163984000Y-94725000D01*
X163984000Y-94725000D02*
X166084000Y-92625000D01*
X181610000Y-78960000D02*
X181600000Y-78970000D01*
X197200000Y-76093974D02*
X197556026Y-76450000D01*
X166084000Y-92625000D02*
X178244500Y-92625000D01*
X157384000Y-93125000D02*
X158984000Y-94725000D01*
X181600000Y-82620000D02*
X181470000Y-82750000D01*
X197200000Y-75430000D02*
X197720000Y-75950000D01*
X181070000Y-78590000D02*
X181070000Y-82254500D01*
X181350000Y-78310000D02*
X181070000Y-78590000D01*
X157909000Y-95100000D02*
X157384000Y-94575000D01*
X197720000Y-75950000D02*
X198581000Y-75950000D01*
X166259000Y-93000000D02*
X164159000Y-95100000D01*
X164159000Y-95100000D02*
X157909000Y-95100000D01*
X178600000Y-93000000D02*
X179000000Y-92600000D01*
X166259000Y-93000000D02*
X178600000Y-93000000D01*
D64*
X93247488Y-69375000D02*
X92950000Y-69672488D01*
X91834771Y-71480717D02*
X88930998Y-71480717D01*
X92950000Y-69672488D02*
X92950000Y-70365488D01*
X92950000Y-70365488D02*
X91834771Y-71480717D01*
X93677512Y-69375000D02*
X94000000Y-69697488D01*
X94000000Y-69697488D02*
X94000000Y-70600000D01*
X93247488Y-69375000D02*
X93677512Y-69375000D01*
X93825000Y-70775000D02*
X94000000Y-70600000D01*
X93102512Y-69025000D02*
X92600000Y-69527512D01*
X91689795Y-71130717D02*
X91379816Y-71130717D01*
X93102512Y-69025000D02*
X93822488Y-69025000D01*
X93822488Y-69025000D02*
X94350000Y-69552512D01*
X91379816Y-71130717D02*
X90709816Y-70460717D01*
X92600000Y-70220512D02*
X91689795Y-71130717D01*
X94525000Y-70775000D02*
X94350000Y-70600000D01*
X92600000Y-69527512D02*
X92600000Y-70220512D01*
X94350000Y-69552512D02*
X94350000Y-70600000D01*
X91878000Y-69447000D02*
X88937281Y-69447000D01*
X94108088Y-68438000D02*
X93945088Y-68275000D01*
X93945088Y-68275000D02*
X93050000Y-68275000D01*
X93050000Y-68275000D02*
X91878000Y-69447000D01*
X91325283Y-68420717D02*
X91700227Y-68045773D01*
X91700227Y-68045773D02*
X92292748Y-68045773D01*
X92292748Y-68045773D02*
X92467748Y-68220773D01*
X92292748Y-67695773D02*
X91589773Y-67695773D01*
X91589773Y-67695773D02*
X91294717Y-67400717D01*
X92467748Y-67520773D02*
X92292748Y-67695773D01*
X91294717Y-67400717D02*
X88930998Y-67400717D01*
X92471365Y-66888683D02*
X92471365Y-66888684D01*
X93482681Y-67900000D02*
X92966341Y-67383660D01*
X92471365Y-66888684D02*
X91963398Y-66380717D01*
X92930986Y-66676551D02*
X92930985Y-66676552D01*
X94108088Y-67738000D02*
X93946088Y-67900000D01*
X93946088Y-67900000D02*
X93482681Y-67900000D01*
X91963398Y-66380717D02*
X90709816Y-66380717D01*
X92930985Y-66676552D02*
X92718852Y-66888684D01*
X92966340Y-67136173D02*
X92966341Y-67136172D01*
X92966341Y-67136172D02*
X93178473Y-66924039D01*
X93178472Y-66676552D02*
X93178473Y-66676552D01*
X92966324Y-67136157D02*
G75*
G03*
X92966341Y-67383660I123776J-123743D01*
G01*
X92930958Y-66676523D02*
G75*
G02*
X93178472Y-66676553I123742J-123777D01*
G01*
X92471356Y-66888692D02*
G75*
G03*
X92718852Y-66888684I123744J123792D01*
G01*
X93178468Y-66676556D02*
G75*
G02*
X93178473Y-66924039I-123768J-123744D01*
G01*
X88930998Y-65360717D02*
X93717283Y-65360717D01*
X93717283Y-65360717D02*
X94897039Y-64180961D01*
X94897039Y-64180961D02*
X94897039Y-63452258D01*
X94897039Y-63452258D02*
X95072039Y-63277258D01*
X93567283Y-65010717D02*
X94547039Y-64030961D01*
X90709816Y-64340717D02*
X91379816Y-65010717D01*
X94547039Y-63452258D02*
X94372039Y-63277258D01*
X91379816Y-65010717D02*
X93567283Y-65010717D01*
X94547039Y-64030961D02*
X94547039Y-63452258D01*
D60*
X94650000Y-92271000D02*
X96208000Y-92271000D01*
X177594000Y-70846000D02*
X177594000Y-71810000D01*
X178661000Y-72877000D02*
X179764000Y-72877000D01*
X177594000Y-71810000D02*
X178661000Y-72877000D01*
D59*
X126215000Y-84285000D02*
X126215000Y-87000000D01*
X126700000Y-83800000D02*
X126215000Y-84285000D01*
D60*
X97885000Y-81410000D02*
X100180000Y-83705000D01*
X100180000Y-87029040D02*
X100156270Y-87052770D01*
X81285000Y-81410000D02*
X97885000Y-81410000D01*
X79860000Y-78630000D02*
X79860000Y-79985000D01*
D59*
X128715000Y-83800000D02*
X126700000Y-83800000D01*
D60*
X100180000Y-83705000D02*
X100180000Y-87029040D01*
X79860000Y-79985000D02*
X81285000Y-81410000D01*
D58*
X109390000Y-68720000D02*
X108374000Y-67704000D01*
X109390000Y-69124000D02*
X109390000Y-68720000D01*
X109390000Y-65480000D02*
X108374000Y-64464000D01*
X109390000Y-66011000D02*
X109390000Y-65480000D01*
X108374000Y-64464000D02*
X108374000Y-59624000D01*
X108374000Y-67704000D02*
X108374000Y-69100000D01*
X108374000Y-67704000D02*
X108374000Y-66876000D01*
X108374000Y-66876000D02*
X109239000Y-66011000D01*
X109267500Y-62137500D02*
X108370000Y-61240000D01*
X109239000Y-66011000D02*
X109390000Y-66011000D01*
D67*
X99682000Y-68584000D02*
X96196000Y-72070000D01*
X96196000Y-72070000D02*
X96196000Y-74332000D01*
D60*
X87336220Y-90729780D02*
X85722260Y-90729780D01*
X88425000Y-89641000D02*
X87336220Y-90729780D01*
D64*
X120036187Y-77226187D02*
X120034771Y-77226187D01*
D66*
X179877000Y-60997000D02*
X179877000Y-63333000D01*
X179300000Y-60420000D02*
X179877000Y-60997000D01*
D64*
X149820000Y-73430000D02*
X144100000Y-79150000D01*
X150680209Y-68167064D02*
X149820000Y-69027273D01*
X119599503Y-76790919D02*
X119599503Y-76770000D01*
X149820000Y-69027273D02*
X149820000Y-73430000D01*
D66*
X177560000Y-60420000D02*
X179300000Y-60420000D01*
D64*
X120034771Y-77226187D02*
X119599503Y-76790919D01*
X121960000Y-79150000D02*
X120036187Y-77226187D01*
X144100000Y-79150000D02*
X121960000Y-79150000D01*
D58*
X108300000Y-70144000D02*
X108300000Y-71359000D01*
X109783000Y-70200000D02*
X109779000Y-70196000D01*
X110250000Y-70200000D02*
X109783000Y-70200000D01*
X109779000Y-70196000D02*
X109390000Y-70196000D01*
X109390000Y-67893000D02*
X109390000Y-66981000D01*
D60*
X109390000Y-67901000D02*
X109391000Y-67902000D01*
X109390000Y-67893000D02*
X109390000Y-67901000D01*
D58*
X109390000Y-63171000D02*
X109390000Y-63956010D01*
D62*
X95512000Y-59511000D02*
X95511000Y-59512000D01*
X106306000Y-64857000D02*
X106306000Y-66512000D01*
X102018000Y-59130000D02*
X100653000Y-59130000D01*
X96831000Y-59511000D02*
X95512000Y-59511000D01*
X100653000Y-59130000D02*
X100651000Y-59132000D01*
D67*
X101008000Y-67385000D02*
X101008000Y-69951000D01*
X100500000Y-66877000D02*
X101008000Y-67385000D01*
X97706000Y-66877000D02*
X100500000Y-66877000D01*
X97243000Y-67340000D02*
X97706000Y-66877000D01*
X97243000Y-68584000D02*
X97243000Y-67340000D01*
X98693000Y-72266000D02*
X101008000Y-69951000D01*
X98693000Y-74266000D02*
X98693000Y-72266000D01*
D68*
X101008000Y-69544000D02*
X102786000Y-69544000D01*
D59*
X84399554Y-85229446D02*
X84407000Y-85222000D01*
D60*
X98445500Y-86869500D02*
X99461500Y-86869500D01*
D59*
X76418042Y-85229446D02*
X84399554Y-85229446D01*
D60*
X153000000Y-84100000D02*
X152100000Y-84100000D01*
X94381500Y-86869500D02*
X95397500Y-86869500D01*
D66*
X81760000Y-85070000D02*
X81912000Y-85222000D01*
X151935200Y-74186400D02*
X152925800Y-74186400D01*
D60*
X93682500Y-85800000D02*
X93682500Y-86323940D01*
X96413500Y-86869500D02*
X97429500Y-86869500D01*
D66*
X81912000Y-85222000D02*
X84407000Y-85222000D01*
X81760000Y-84110000D02*
X81760000Y-85070000D01*
D60*
X95397500Y-86869500D02*
X96413500Y-86869500D01*
X152100000Y-84100000D02*
X151600000Y-83600000D01*
X98445500Y-86869500D02*
X97429500Y-86869500D01*
X93682500Y-86323940D02*
X94228560Y-86870000D01*
D66*
X162776400Y-71800200D02*
X165849800Y-71800200D01*
X162522400Y-71546200D02*
X162776400Y-71800200D01*
X167780200Y-73298800D02*
X167348400Y-73298800D01*
X167348400Y-73298800D02*
X165849800Y-71800200D01*
D65*
X118896298Y-78915000D02*
X121071298Y-81090000D01*
X147127500Y-80900000D02*
X147127500Y-81405083D01*
X148192500Y-81405083D02*
X148192500Y-81215082D01*
X115978702Y-78915000D02*
X118896298Y-78915000D01*
X121071298Y-81090000D02*
X146290000Y-81090000D01*
X147100082Y-80394917D02*
X147100082Y-80584918D01*
X90600000Y-87936000D02*
X100564000Y-87936000D01*
X108860000Y-79640000D02*
X115253702Y-79640000D01*
X115253702Y-79640000D02*
X115978702Y-78915000D01*
X146795082Y-80584918D02*
X146795082Y-80394917D01*
X100564000Y-87936000D02*
X108860000Y-79640000D01*
X147100082Y-80900000D02*
X147127500Y-80900000D01*
X89226190Y-87693488D02*
X89226190Y-87467213D01*
X89900000Y-87236000D02*
X90600000Y-87936000D01*
X148317582Y-81090000D02*
X149319681Y-81090000D01*
X85182500Y-86858000D02*
X85342500Y-86698000D01*
X81162528Y-86698000D02*
X81322528Y-86858000D01*
X149319681Y-81090000D02*
X160178701Y-81090000D01*
X89457403Y-87236000D02*
X89900000Y-87236000D01*
X160471213Y-80797488D02*
X160697488Y-80797488D01*
X89226190Y-87467213D02*
X89457403Y-87236000D01*
X146920164Y-80269835D02*
X146975000Y-80269835D01*
X147632582Y-81910165D02*
X147687418Y-81910165D01*
X160178701Y-81090000D02*
X160471213Y-80797488D01*
X147100082Y-80584918D02*
X147100082Y-80900000D01*
X81322528Y-86858000D02*
X85182500Y-86858000D01*
X147100065Y-80394917D02*
G75*
G03*
X146975000Y-80269835I-125065J17D01*
G01*
X146920164Y-80269782D02*
G75*
G03*
X146795082Y-80394917I36J-125118D01*
G01*
X148192465Y-81405083D02*
G75*
G02*
X147687418Y-81910165I-505065J-17D01*
G01*
X147632582Y-81910200D02*
G75*
G02*
X147127500Y-81405083I18J505100D01*
G01*
X146795100Y-80584918D02*
G75*
G02*
X146290000Y-81090000I-505100J18D01*
G01*
X148317582Y-81090000D02*
G75*
G03*
X148192500Y-81215082I18J-125100D01*
G01*
X81322528Y-87238000D02*
X85182500Y-87238000D01*
X81162528Y-87398000D02*
X81322528Y-87238000D01*
X115821298Y-78535000D02*
X119053702Y-78535000D01*
X146415082Y-80584918D02*
X146415082Y-80394917D01*
X160021299Y-80710000D02*
X160202512Y-80528787D01*
X149319681Y-80710000D02*
X160021299Y-80710000D01*
X90757404Y-87556000D02*
X100394000Y-87556000D01*
X147632582Y-81530165D02*
X147687418Y-81530165D01*
X148317582Y-80710000D02*
X149319681Y-80710000D01*
X147507500Y-80900000D02*
X147507500Y-81405083D01*
X121228702Y-80710000D02*
X146290000Y-80710000D01*
X119053702Y-78535000D02*
X121228702Y-80710000D01*
X88957489Y-87198512D02*
X89300001Y-86856000D01*
X85182500Y-87238000D02*
X85342500Y-87398000D01*
X160202512Y-80528787D02*
X160202512Y-80302512D01*
X146920164Y-79889835D02*
X146975000Y-79889835D01*
X147812500Y-81405083D02*
X147812500Y-81215082D01*
X115096298Y-79260000D02*
X115821298Y-78535000D01*
X147480082Y-80900000D02*
X147507500Y-80900000D01*
X89300001Y-86856000D02*
X90057404Y-86856000D01*
X147480082Y-80394917D02*
X147480082Y-80584918D01*
X147480082Y-80584918D02*
X147480082Y-80900000D01*
X108690000Y-79260000D02*
X115096298Y-79260000D01*
X90057404Y-86856000D02*
X90757404Y-87556000D01*
X100394000Y-87556000D02*
X108690000Y-79260000D01*
X88731214Y-87198512D02*
X88957489Y-87198512D01*
X147480065Y-80394917D02*
G75*
G03*
X146975000Y-79889835I-505065J17D01*
G01*
X146415100Y-80584918D02*
G75*
G02*
X146290000Y-80710000I-125100J18D01*
G01*
X147632582Y-81530200D02*
G75*
G02*
X147507500Y-81405083I18J125100D01*
G01*
X148317582Y-80710000D02*
G75*
G03*
X147812500Y-81215082I18J-505100D01*
G01*
X147812465Y-81405083D02*
G75*
G02*
X147687418Y-81530165I-125065J-17D01*
G01*
X146920164Y-79889782D02*
G75*
G03*
X146415082Y-80394917I36J-505118D01*
G01*
D63*
X202050000Y-75950000D02*
X203070000Y-76970000D01*
X195192629Y-84736500D02*
X193996906Y-85932223D01*
D66*
X160720000Y-87870000D02*
X157750000Y-84900000D01*
X157750000Y-82250000D02*
X157250000Y-81750000D01*
D63*
X201245000Y-75950000D02*
X202050000Y-75950000D01*
D66*
X182653564Y-85802475D02*
X182479040Y-85976999D01*
X181663001Y-85976999D02*
X178900000Y-88740000D01*
X182479040Y-85976999D02*
X181663001Y-85976999D01*
X171779000Y-87870000D02*
X160720000Y-87870000D01*
X172649000Y-88740000D02*
X171779000Y-87870000D01*
D63*
X203070000Y-83805310D02*
X202138810Y-84736500D01*
X202138810Y-84736500D02*
X195192629Y-84736500D01*
D66*
X157750000Y-84900000D02*
X157750000Y-82250000D01*
X178900000Y-88740000D02*
X172649000Y-88740000D01*
D63*
X203070000Y-76970000D02*
X203070000Y-83805310D01*
D66*
X172780870Y-88420000D02*
X171900870Y-87540000D01*
D63*
X202105633Y-76450000D02*
X202823000Y-77167367D01*
D66*
X158070000Y-84720000D02*
X158070000Y-81820000D01*
X181636000Y-85370000D02*
X178586000Y-88420000D01*
D63*
X201245000Y-76450000D02*
X202105633Y-76450000D01*
D66*
X158070000Y-81820000D02*
X158000000Y-81750000D01*
X178586000Y-88420000D02*
X172780870Y-88420000D01*
D63*
X202823000Y-83703000D02*
X202112024Y-84413976D01*
X194595359Y-84729641D02*
X194585781Y-84729641D01*
X202823000Y-77167367D02*
X202823000Y-83703000D01*
D66*
X182210000Y-85370000D02*
X181636000Y-85370000D01*
X160890000Y-87540000D02*
X158070000Y-84720000D01*
D63*
X194911024Y-84413976D02*
X194595359Y-84729641D01*
X194585781Y-84729641D02*
X194002675Y-85312747D01*
X202112024Y-84413976D02*
X194911024Y-84413976D01*
D66*
X171900870Y-87540000D02*
X160890000Y-87540000D01*
D65*
X202224500Y-77889000D02*
X202384500Y-78049000D01*
X201910000Y-77949000D02*
X201970000Y-77889000D01*
X201970000Y-77889000D02*
X202224500Y-77889000D01*
X201245000Y-77949000D02*
X201910000Y-77949000D01*
X201245000Y-77449000D02*
X201910000Y-77449000D01*
X201970000Y-77509000D02*
X202224500Y-77509000D01*
X201910000Y-77449000D02*
X201970000Y-77509000D01*
X202224500Y-77509000D02*
X202384500Y-77349000D01*
D66*
X166967053Y-59850000D02*
X166523487Y-60293566D01*
X166523487Y-60293566D02*
X166523487Y-62860595D01*
X157861000Y-70631800D02*
X157429200Y-71063600D01*
X163492262Y-63175000D02*
X159459000Y-63175000D01*
X166523487Y-62860595D02*
X166209041Y-63175041D01*
X163492303Y-63175041D02*
X163492262Y-63175000D01*
X157861000Y-64773000D02*
X157861000Y-70631800D01*
X159459000Y-63175000D02*
X157861000Y-64773000D01*
X166970000Y-59850000D02*
X166967053Y-59850000D01*
X166209041Y-63175041D02*
X163492303Y-63175041D01*
X166160000Y-62624000D02*
X166160000Y-59868994D01*
X157480000Y-64604000D02*
X159234000Y-62850000D01*
X163624652Y-62855521D02*
X165928479Y-62855521D01*
X157480000Y-68870000D02*
X157480000Y-64604000D01*
X159234000Y-62850000D02*
X163619130Y-62850000D01*
X163619130Y-62850000D02*
X163624652Y-62855521D01*
X156000000Y-70350000D02*
X157480000Y-68870000D01*
X166160000Y-59868994D02*
X166179500Y-59849494D01*
X165928479Y-62855521D02*
X166160000Y-62624000D01*
D64*
X141856514Y-63500000D02*
X148983486Y-63500000D01*
D66*
X155250000Y-70800000D02*
X156529600Y-72079600D01*
D64*
X148983486Y-63500000D02*
X149485690Y-62997796D01*
X123270000Y-57375500D02*
X123419980Y-57525480D01*
D66*
X155250000Y-63425000D02*
X155250000Y-70800000D01*
X155244487Y-63419487D02*
X155250000Y-63425000D01*
D64*
X135881994Y-57525480D02*
X141856514Y-63500000D01*
D66*
X156529600Y-72079600D02*
X159994600Y-72079600D01*
D64*
X123419980Y-57525480D02*
X135881994Y-57525480D01*
X149485690Y-62997796D02*
X149485690Y-62785690D01*
D60*
X154482800Y-73149600D02*
X154988400Y-73149600D01*
X155879800Y-77317600D02*
X161975800Y-77317600D01*
X161975800Y-77317600D02*
X162331400Y-76962000D01*
X154988400Y-73149600D02*
X155397200Y-73558400D01*
D66*
X160500000Y-70250000D02*
X161750000Y-71500000D01*
D60*
X201246000Y-69450000D02*
X201246000Y-69950000D01*
X151000000Y-87800000D02*
X151600000Y-87200000D01*
X149600000Y-87800000D02*
X151000000Y-87800000D01*
D59*
X131050000Y-85700000D02*
X131050000Y-83835000D01*
X129685000Y-83800000D02*
X131015000Y-83800000D01*
D61*
X132000000Y-85700000D02*
X132000000Y-85000000D01*
X132000000Y-85000000D02*
X133250000Y-83750000D01*
X133250000Y-83750000D02*
X133750000Y-83750000D01*
G04 #@! TA.AperFunction,Conductor*
G36*
X153209191Y-85918907D02*
G01*
X153245155Y-85968407D01*
X153250000Y-85999000D01*
X153250000Y-88851000D01*
X153231093Y-88909191D01*
X153181593Y-88945155D01*
X153151000Y-88950000D01*
X147149000Y-88950000D01*
X147090809Y-88931093D01*
X147054845Y-88881593D01*
X147050000Y-88851000D01*
X147050000Y-85999000D01*
X147068907Y-85940809D01*
X147118407Y-85904845D01*
X147149000Y-85900000D01*
X153151000Y-85900000D01*
X153209191Y-85918907D01*
G37*
G04 #@! TD.AperFunction*
G04 #@! TA.AperFunction,Conductor*
G36*
X153657991Y-89745707D02*
G01*
X153693955Y-89795207D01*
X153698800Y-89825800D01*
X153698800Y-93677800D01*
X153679893Y-93735991D01*
X153630393Y-93771955D01*
X153599800Y-93776800D01*
X150597800Y-93776800D01*
X150539609Y-93757893D01*
X150503645Y-93708393D01*
X150498800Y-93677800D01*
X150498800Y-89825800D01*
X150517707Y-89767609D01*
X150567207Y-89731645D01*
X150597800Y-89726800D01*
X153599800Y-89726800D01*
X153657991Y-89745707D01*
G37*
G04 #@! TD.AperFunction*
G04 #@! TA.AperFunction,Conductor*
G36*
X154409191Y-82118907D02*
G01*
X154445155Y-82168407D01*
X154450000Y-82199000D01*
X154450000Y-84501000D01*
X154431093Y-84559191D01*
X154381593Y-84595155D01*
X154351000Y-84600000D01*
X150749000Y-84600000D01*
X150690809Y-84581093D01*
X150654845Y-84531593D01*
X150650000Y-84501000D01*
X150650000Y-82199000D01*
X150668907Y-82140809D01*
X150718407Y-82104845D01*
X150749000Y-82100000D01*
X154351000Y-82100000D01*
X154409191Y-82118907D01*
G37*
G04 #@! TD.AperFunction*
G04 #@! TA.AperFunction,Conductor*
G36*
X202144230Y-68775847D02*
G01*
X202810168Y-68782254D01*
X202868175Y-68801720D01*
X202903661Y-68851564D01*
X202908216Y-68881535D01*
X202904104Y-70307320D01*
X202898991Y-72079995D01*
X202898785Y-72151286D01*
X202879710Y-72209422D01*
X202830106Y-72245242D01*
X202799785Y-72250000D01*
X202469665Y-72250000D01*
X202467376Y-72249974D01*
X202352951Y-72247328D01*
X202295213Y-72227080D01*
X202260403Y-72176762D01*
X202258142Y-72129042D01*
X202259052Y-72124467D01*
X202260000Y-72114840D01*
X202260000Y-72092680D01*
X202255878Y-72079995D01*
X202251757Y-72077000D01*
X201217000Y-72077000D01*
X201158809Y-72058093D01*
X201122845Y-72008593D01*
X201118000Y-71978000D01*
X201118000Y-71807320D01*
X201372000Y-71807320D01*
X201376122Y-71820005D01*
X201380243Y-71823000D01*
X202244320Y-71823000D01*
X202257005Y-71818878D01*
X202260000Y-71814757D01*
X202260000Y-71785160D01*
X202259052Y-71775538D01*
X202248396Y-71721964D01*
X202251630Y-71721321D01*
X202248129Y-71676899D01*
X202249401Y-71672985D01*
X202259052Y-71624462D01*
X202260000Y-71614840D01*
X202260000Y-71592680D01*
X202255878Y-71579995D01*
X202251757Y-71577000D01*
X201387680Y-71577000D01*
X201374995Y-71581122D01*
X201372000Y-71585243D01*
X201372000Y-71807320D01*
X201118000Y-71807320D01*
X201118000Y-71307320D01*
X201372000Y-71307320D01*
X201376122Y-71320005D01*
X201380243Y-71323000D01*
X202244320Y-71323000D01*
X202257005Y-71318878D01*
X202260000Y-71314757D01*
X202260000Y-71285160D01*
X202259052Y-71275538D01*
X202248396Y-71221964D01*
X202251630Y-71221321D01*
X202248129Y-71176899D01*
X202249401Y-71172985D01*
X202259052Y-71124462D01*
X202260000Y-71114840D01*
X202260000Y-71092680D01*
X202255878Y-71079995D01*
X202251757Y-71077000D01*
X201387680Y-71077000D01*
X201374995Y-71081122D01*
X201372000Y-71085243D01*
X201372000Y-71307320D01*
X201118000Y-71307320D01*
X201118000Y-70807320D01*
X201372000Y-70807320D01*
X201376122Y-70820005D01*
X201380243Y-70823000D01*
X202244320Y-70823000D01*
X202257005Y-70818878D01*
X202260000Y-70814757D01*
X202260000Y-70785160D01*
X202259052Y-70775538D01*
X202248396Y-70721964D01*
X202251630Y-70721321D01*
X202248129Y-70676899D01*
X202249401Y-70672985D01*
X202259052Y-70624462D01*
X202260000Y-70614840D01*
X202260000Y-70592680D01*
X202255878Y-70579995D01*
X202251757Y-70577000D01*
X201387680Y-70577000D01*
X201374995Y-70581122D01*
X201372000Y-70585243D01*
X201372000Y-70807320D01*
X201118000Y-70807320D01*
X201118000Y-70307320D01*
X201372000Y-70307320D01*
X201376122Y-70320005D01*
X201380243Y-70323000D01*
X202244320Y-70323000D01*
X202257005Y-70318878D01*
X202260000Y-70314757D01*
X202260000Y-70285160D01*
X202259052Y-70275538D01*
X202248396Y-70221964D01*
X202251630Y-70221321D01*
X202248129Y-70176899D01*
X202249401Y-70172985D01*
X202259052Y-70124462D01*
X202260000Y-70114840D01*
X202260000Y-70092680D01*
X202255878Y-70079995D01*
X202251757Y-70077000D01*
X201387680Y-70077000D01*
X201374995Y-70081122D01*
X201372000Y-70085243D01*
X201372000Y-70307320D01*
X201118000Y-70307320D01*
X201118000Y-69807320D01*
X201372000Y-69807320D01*
X201376122Y-69820005D01*
X201380243Y-69823000D01*
X202244320Y-69823000D01*
X202257005Y-69818878D01*
X202260000Y-69814757D01*
X202260000Y-69785160D01*
X202259052Y-69775538D01*
X202248396Y-69721964D01*
X202251630Y-69721321D01*
X202248129Y-69676899D01*
X202249401Y-69672985D01*
X202259052Y-69624462D01*
X202260000Y-69614840D01*
X202260000Y-69592680D01*
X202255878Y-69579995D01*
X202251757Y-69577000D01*
X201387680Y-69577000D01*
X201374995Y-69581122D01*
X201372000Y-69585243D01*
X201372000Y-69807320D01*
X201118000Y-69807320D01*
X201118000Y-69307320D01*
X201372000Y-69307320D01*
X201376122Y-69320005D01*
X201380243Y-69323000D01*
X202244320Y-69323000D01*
X202257005Y-69318878D01*
X202260000Y-69314757D01*
X202260000Y-69285160D01*
X202259052Y-69275538D01*
X202250298Y-69231526D01*
X202242979Y-69213858D01*
X202209611Y-69163918D01*
X202196082Y-69150389D01*
X202146142Y-69117021D01*
X202128474Y-69109702D01*
X202084462Y-69100948D01*
X202074840Y-69100000D01*
X201387680Y-69100000D01*
X201374995Y-69104122D01*
X201372000Y-69108243D01*
X201372000Y-69307320D01*
X201118000Y-69307320D01*
X201118000Y-69115680D01*
X201113878Y-69102995D01*
X201109757Y-69100000D01*
X200415160Y-69100000D01*
X200405541Y-69100947D01*
X200389536Y-69104131D01*
X200328774Y-69096940D01*
X200283844Y-69055407D01*
X200271227Y-69008111D01*
X200269601Y-68858845D01*
X200287873Y-68800452D01*
X200336979Y-68763951D01*
X200369546Y-68758772D01*
X202144230Y-68775847D01*
G37*
G04 #@! TD.AperFunction*
G04 #@! TA.AperFunction,Conductor*
G36*
X198135747Y-66971758D02*
G01*
X198203664Y-66992441D01*
X198249618Y-67046558D01*
X198259019Y-67116930D01*
X198256418Y-67129513D01*
X198212011Y-67299993D01*
X198211677Y-67306372D01*
X198206260Y-67409745D01*
X198201640Y-67497899D01*
X198231274Y-67693848D01*
X198299705Y-67879836D01*
X198303063Y-67885252D01*
X198303065Y-67885256D01*
X198309450Y-67895554D01*
X198404135Y-68048266D01*
X198540301Y-68192257D01*
X198702638Y-68305927D01*
X198884517Y-68384633D01*
X198890765Y-68385938D01*
X198890764Y-68385938D01*
X199073762Y-68424169D01*
X199073766Y-68424169D01*
X199078507Y-68425160D01*
X199084995Y-68425500D01*
X199230529Y-68425500D01*
X199300706Y-68418372D01*
X199371814Y-68411149D01*
X199371815Y-68411149D01*
X199378163Y-68410504D01*
X199567272Y-68351241D01*
X199740602Y-68255162D01*
X199760725Y-68237915D01*
X199825461Y-68208772D01*
X199895679Y-68219254D01*
X199949083Y-68266035D01*
X199968717Y-68332766D01*
X199971622Y-68780109D01*
X199952063Y-68848358D01*
X199898710Y-68895198D01*
X199828504Y-68905758D01*
X199770061Y-68881754D01*
X199734648Y-68855213D01*
X199719054Y-68846676D01*
X199598606Y-68801522D01*
X199583351Y-68797895D01*
X199532486Y-68792369D01*
X199525672Y-68792000D01*
X198749115Y-68792000D01*
X198733876Y-68796475D01*
X198732671Y-68797865D01*
X198731000Y-68805548D01*
X198731000Y-72022000D01*
X198710998Y-72090121D01*
X198657342Y-72136614D01*
X198643130Y-72139706D01*
X198525703Y-72138810D01*
X198488879Y-72127998D01*
X198442386Y-72074342D01*
X198431000Y-72022000D01*
X198431000Y-71618115D01*
X198426525Y-71602876D01*
X198425135Y-71601671D01*
X198417452Y-71600000D01*
X197191116Y-71600000D01*
X197175877Y-71604475D01*
X197155401Y-71628106D01*
X197145368Y-71646480D01*
X197083057Y-71680506D01*
X197012241Y-71675443D01*
X196959530Y-71638115D01*
X196942841Y-71618115D01*
X196662263Y-71281885D01*
X197173000Y-71281885D01*
X197177475Y-71297124D01*
X197178865Y-71298329D01*
X197186548Y-71300000D01*
X198412885Y-71300000D01*
X198428124Y-71295525D01*
X198429329Y-71294135D01*
X198431000Y-71286452D01*
X198431000Y-71118115D01*
X198426525Y-71102876D01*
X198425135Y-71101671D01*
X198417452Y-71100000D01*
X197191116Y-71100000D01*
X197175877Y-71104475D01*
X197174672Y-71105865D01*
X197173001Y-71113548D01*
X197173001Y-71144669D01*
X197173371Y-71151493D01*
X197177161Y-71186393D01*
X197177161Y-71213603D01*
X197173369Y-71248510D01*
X197173000Y-71255329D01*
X197173000Y-71281885D01*
X196662263Y-71281885D01*
X196245021Y-70781885D01*
X197173000Y-70781885D01*
X197177475Y-70797124D01*
X197178865Y-70798329D01*
X197186548Y-70800000D01*
X198412885Y-70800000D01*
X198428124Y-70795525D01*
X198429329Y-70794135D01*
X198431000Y-70786452D01*
X198431000Y-70618115D01*
X198426525Y-70602876D01*
X198425135Y-70601671D01*
X198417452Y-70600000D01*
X197191116Y-70600000D01*
X197175877Y-70604475D01*
X197174672Y-70605865D01*
X197173001Y-70613548D01*
X197173001Y-70644669D01*
X197173371Y-70651493D01*
X197177161Y-70686393D01*
X197177161Y-70713603D01*
X197173369Y-70748510D01*
X197173000Y-70755329D01*
X197173000Y-70781885D01*
X196245021Y-70781885D01*
X196160000Y-70680000D01*
X195828238Y-70281885D01*
X197173000Y-70281885D01*
X197177475Y-70297124D01*
X197178865Y-70298329D01*
X197186548Y-70300000D01*
X198412885Y-70300000D01*
X198428124Y-70295525D01*
X198429329Y-70294135D01*
X198431000Y-70286452D01*
X198431000Y-70118115D01*
X198426525Y-70102876D01*
X198425135Y-70101671D01*
X198417452Y-70100000D01*
X197191116Y-70100000D01*
X197175877Y-70104475D01*
X197174672Y-70105865D01*
X197173001Y-70113548D01*
X197173001Y-70144669D01*
X197173371Y-70151493D01*
X197177161Y-70186393D01*
X197177161Y-70213603D01*
X197173369Y-70248510D01*
X197173000Y-70255329D01*
X197173000Y-70281885D01*
X195828238Y-70281885D01*
X195411571Y-69781885D01*
X197173000Y-69781885D01*
X197177475Y-69797124D01*
X197178865Y-69798329D01*
X197186548Y-69800000D01*
X198412885Y-69800000D01*
X198428124Y-69795525D01*
X198429329Y-69794135D01*
X198431000Y-69786452D01*
X198431000Y-69618115D01*
X198426525Y-69602876D01*
X198425135Y-69601671D01*
X198417452Y-69600000D01*
X197191116Y-69600000D01*
X197175877Y-69604475D01*
X197174672Y-69605865D01*
X197173001Y-69613548D01*
X197173001Y-69644669D01*
X197173371Y-69651493D01*
X197177161Y-69686393D01*
X197177161Y-69713603D01*
X197173369Y-69748510D01*
X197173000Y-69755329D01*
X197173000Y-69781885D01*
X195411571Y-69781885D01*
X194994904Y-69281885D01*
X197173000Y-69281885D01*
X197177475Y-69297124D01*
X197178865Y-69298329D01*
X197186548Y-69300000D01*
X198412885Y-69300000D01*
X198428124Y-69295525D01*
X198429329Y-69294135D01*
X198431000Y-69286452D01*
X198431000Y-68810116D01*
X198426525Y-68794877D01*
X198425135Y-68793672D01*
X198417452Y-68792001D01*
X197636331Y-68792001D01*
X197629510Y-68792371D01*
X197578648Y-68797895D01*
X197563396Y-68801521D01*
X197442946Y-68846676D01*
X197427351Y-68855214D01*
X197325276Y-68931715D01*
X197312715Y-68944276D01*
X197236214Y-69046351D01*
X197227676Y-69061946D01*
X197182522Y-69182394D01*
X197178895Y-69197649D01*
X197173369Y-69248514D01*
X197173000Y-69255328D01*
X197173000Y-69281885D01*
X194994904Y-69281885D01*
X194989204Y-69275045D01*
X194960960Y-69209908D01*
X194960000Y-69194382D01*
X194960000Y-67067267D01*
X194980002Y-66999146D01*
X195033658Y-66952653D01*
X195087260Y-66941273D01*
X198135747Y-66971758D01*
G37*
G04 #@! TD.AperFunction*
G04 #@! TA.AperFunction,Conductor*
G36*
X180576121Y-67520002D02*
G01*
X180622614Y-67573658D01*
X180634000Y-67626000D01*
X180634000Y-68899000D01*
X180613998Y-68967121D01*
X180560342Y-69013614D01*
X180508000Y-69025000D01*
X178984000Y-69025000D01*
X178977356Y-69033673D01*
X178977357Y-69033673D01*
X178121825Y-70150618D01*
X178064523Y-70192534D01*
X178021796Y-70200000D01*
X173584000Y-70200000D01*
X173584000Y-72198161D01*
X173583802Y-72200000D01*
X171190681Y-72200000D01*
X171189104Y-72194629D01*
X171184000Y-72159131D01*
X171184000Y-67626000D01*
X171204002Y-67557879D01*
X171257658Y-67511386D01*
X171310000Y-67500000D01*
X180508000Y-67500000D01*
X180576121Y-67520002D01*
G37*
G04 #@! TD.AperFunction*
G04 #@! TA.AperFunction,Conductor*
G36*
X178524931Y-81270002D02*
G01*
X178545905Y-81286905D01*
X178909000Y-81650000D01*
X178933354Y-81650000D01*
X178957937Y-81652421D01*
X178972377Y-81655294D01*
X178972382Y-81655294D01*
X178978442Y-81656500D01*
X180553558Y-81656500D01*
X180553558Y-81658166D01*
X180615416Y-81669905D01*
X180666938Y-81718751D01*
X180684000Y-81782063D01*
X180684000Y-83475937D01*
X180663998Y-83544058D01*
X180610342Y-83590551D01*
X180553558Y-83600016D01*
X180553558Y-83601500D01*
X178978442Y-83601500D01*
X178972382Y-83602706D01*
X178972377Y-83602706D01*
X178953422Y-83606477D01*
X178941252Y-83608898D01*
X178899078Y-83637078D01*
X178870898Y-83679252D01*
X178863500Y-83716442D01*
X178863500Y-84041558D01*
X178870898Y-84078748D01*
X178874764Y-84084533D01*
X178881950Y-84151369D01*
X178876009Y-84171602D01*
X178870898Y-84179252D01*
X178863500Y-84216442D01*
X178863500Y-84541558D01*
X178870898Y-84578748D01*
X178874581Y-84584260D01*
X178881744Y-84650869D01*
X178875903Y-84670762D01*
X178870898Y-84678252D01*
X178863500Y-84715442D01*
X178863500Y-85040558D01*
X178870898Y-85077748D01*
X178899078Y-85119922D01*
X178909394Y-85126815D01*
X178929549Y-85140282D01*
X178941252Y-85148102D01*
X178953422Y-85150523D01*
X178972377Y-85154294D01*
X178972382Y-85154294D01*
X178978442Y-85155500D01*
X180553558Y-85155500D01*
X180553558Y-85157166D01*
X180615416Y-85168905D01*
X180666938Y-85217751D01*
X180684000Y-85281063D01*
X180684000Y-85948077D01*
X180663998Y-86016198D01*
X180647095Y-86037172D01*
X180471172Y-86213095D01*
X180408860Y-86247121D01*
X180382077Y-86250000D01*
X178961190Y-86250000D01*
X178893069Y-86229998D01*
X178872095Y-86213095D01*
X178534000Y-85875000D01*
X172468301Y-85875000D01*
X172411097Y-85861266D01*
X172377796Y-85844298D01*
X172326181Y-85795550D01*
X172309000Y-85732032D01*
X172309000Y-83213083D01*
X175791996Y-83213083D01*
X175810702Y-83331191D01*
X175864991Y-83437738D01*
X175949547Y-83522294D01*
X175958379Y-83526794D01*
X175958380Y-83526795D01*
X175992261Y-83544058D01*
X176056094Y-83576583D01*
X176174202Y-83595289D01*
X176292310Y-83576583D01*
X176356143Y-83544058D01*
X176390024Y-83526795D01*
X176390025Y-83526794D01*
X176398857Y-83522294D01*
X176483413Y-83437738D01*
X176537702Y-83331191D01*
X176556408Y-83213083D01*
X176537702Y-83094975D01*
X176494003Y-83009211D01*
X176487914Y-82997261D01*
X176487913Y-82997260D01*
X176483413Y-82988428D01*
X176398857Y-82903872D01*
X176390025Y-82899372D01*
X176390024Y-82899371D01*
X176345584Y-82876728D01*
X176292310Y-82849583D01*
X176174202Y-82830877D01*
X176056094Y-82849583D01*
X176002820Y-82876728D01*
X175958380Y-82899371D01*
X175958379Y-82899372D01*
X175949547Y-82903872D01*
X175864991Y-82988428D01*
X175860491Y-82997260D01*
X175860490Y-82997261D01*
X175854401Y-83009211D01*
X175810702Y-83094975D01*
X175791996Y-83213083D01*
X172309000Y-83213083D01*
X172309000Y-82700000D01*
X173001794Y-82700000D01*
X173020500Y-82818108D01*
X173038831Y-82854084D01*
X173067772Y-82910883D01*
X173074789Y-82924655D01*
X173159345Y-83009211D01*
X173168177Y-83013711D01*
X173168178Y-83013712D01*
X173212619Y-83036356D01*
X173265892Y-83063500D01*
X173384000Y-83082206D01*
X173502108Y-83063500D01*
X173555382Y-83036355D01*
X173599822Y-83013712D01*
X173599823Y-83013711D01*
X173608655Y-83009211D01*
X173693211Y-82924655D01*
X173700229Y-82910883D01*
X173729169Y-82854084D01*
X173747500Y-82818108D01*
X173766206Y-82700000D01*
X173747500Y-82581892D01*
X173693211Y-82475345D01*
X173608655Y-82390789D01*
X173599823Y-82386289D01*
X173599822Y-82386288D01*
X173555381Y-82363644D01*
X173502108Y-82336500D01*
X173384000Y-82317794D01*
X173265892Y-82336500D01*
X173212619Y-82363644D01*
X173168178Y-82386288D01*
X173168177Y-82386289D01*
X173159345Y-82390789D01*
X173074789Y-82475345D01*
X173020500Y-82581892D01*
X173001794Y-82700000D01*
X172309000Y-82700000D01*
X172309000Y-81376000D01*
X172329002Y-81307879D01*
X172382658Y-81261386D01*
X172435000Y-81250000D01*
X178456810Y-81250000D01*
X178524931Y-81270002D01*
G37*
G04 #@! TD.AperFunction*
G04 #@! TA.AperFunction,Conductor*
G36*
X82254843Y-91456477D02*
G01*
X82435388Y-91474259D01*
X82454418Y-91478045D01*
X82538887Y-91503668D01*
X82623353Y-91529290D01*
X82641283Y-91536717D01*
X82796969Y-91619933D01*
X82813106Y-91630715D01*
X82868163Y-91675898D01*
X82949573Y-91742710D01*
X82963290Y-91756427D01*
X82966147Y-91759908D01*
X83075285Y-91892894D01*
X83086067Y-91909031D01*
X83169283Y-92064717D01*
X83176710Y-92082647D01*
X83227955Y-92251580D01*
X83231741Y-92270614D01*
X83249523Y-92451157D01*
X83250000Y-92460861D01*
X83250000Y-94406000D01*
X84125000Y-94406000D01*
X84308627Y-94426690D01*
X84330235Y-94431622D01*
X84494121Y-94488968D01*
X84514088Y-94498584D01*
X84661107Y-94590961D01*
X84678440Y-94604783D01*
X84801217Y-94727560D01*
X84815039Y-94744893D01*
X84907415Y-94891909D01*
X84917033Y-94911882D01*
X84974377Y-95075762D01*
X84979311Y-95097376D01*
X84999378Y-95275480D01*
X85000000Y-95286564D01*
X85000000Y-95398071D01*
X84999509Y-95407914D01*
X84981714Y-95586009D01*
X84977819Y-95605306D01*
X84926593Y-95771628D01*
X84918957Y-95789773D01*
X84835834Y-95942672D01*
X84824758Y-95958947D01*
X84713029Y-96092373D01*
X84698952Y-96106135D01*
X84563026Y-96214818D01*
X84546504Y-96225522D01*
X84391767Y-96305158D01*
X84373454Y-96312382D01*
X84206013Y-96359828D01*
X84186633Y-96363285D01*
X84008180Y-96377043D01*
X83998328Y-96377311D01*
X81802272Y-96327569D01*
X81792911Y-96326912D01*
X81715818Y-96317814D01*
X81618860Y-96306371D01*
X81600537Y-96302421D01*
X81437980Y-96250864D01*
X81420726Y-96243530D01*
X81270804Y-96162252D01*
X81255243Y-96151796D01*
X81123328Y-96043710D01*
X81110017Y-96030509D01*
X81000848Y-95899498D01*
X80990264Y-95884024D01*
X80907747Y-95734776D01*
X80900270Y-95717583D01*
X80847370Y-95555455D01*
X80843269Y-95537162D01*
X80821290Y-95363300D01*
X80820555Y-95353944D01*
X80776063Y-93915357D01*
X80732037Y-92491862D01*
X80732227Y-92481961D01*
X80745014Y-92297433D01*
X80748348Y-92277927D01*
X80750368Y-92270614D01*
X80796256Y-92104424D01*
X80803403Y-92085972D01*
X80884857Y-91925468D01*
X80895530Y-91908806D01*
X81007278Y-91767705D01*
X81021053Y-91753497D01*
X81158633Y-91637439D01*
X81174957Y-91626256D01*
X81332868Y-91539879D01*
X81351091Y-91532165D01*
X81523030Y-91478917D01*
X81542423Y-91474982D01*
X81726468Y-91456496D01*
X81736362Y-91456000D01*
X82245139Y-91456000D01*
X82254843Y-91456477D01*
G37*
G04 #@! TD.AperFunction*
G04 #@! TA.AperFunction,Conductor*
G36*
X96494523Y-73366650D02*
G01*
X96541659Y-73371961D01*
X96569167Y-73378240D01*
X96690320Y-73420634D01*
X96715738Y-73432874D01*
X96824430Y-73501170D01*
X96846483Y-73518758D01*
X96937242Y-73609517D01*
X96954830Y-73631570D01*
X97023125Y-73740260D01*
X97035366Y-73765680D01*
X97077760Y-73886833D01*
X97084039Y-73914342D01*
X97099208Y-74048971D01*
X97100000Y-74063078D01*
X97100000Y-76899813D01*
X97099393Y-76912163D01*
X97082002Y-77088737D01*
X97077183Y-77112963D01*
X97033445Y-77257148D01*
X97001966Y-77309667D01*
X96503667Y-77807966D01*
X96451148Y-77839445D01*
X96306963Y-77883183D01*
X96282740Y-77888001D01*
X96108041Y-77905208D01*
X96106163Y-77905393D01*
X96093813Y-77906000D01*
X94782078Y-77906000D01*
X94767971Y-77905208D01*
X94741784Y-77902258D01*
X94627778Y-77889412D01*
X94600270Y-77883133D01*
X94473832Y-77838890D01*
X94448412Y-77826648D01*
X94334989Y-77755380D01*
X94312930Y-77737788D01*
X94218212Y-77643070D01*
X94200620Y-77621011D01*
X94129352Y-77507588D01*
X94117110Y-77482168D01*
X94072867Y-77355730D01*
X94066588Y-77328222D01*
X94050792Y-77188030D01*
X94050000Y-77173922D01*
X94050000Y-76958797D01*
X94050536Y-76947190D01*
X94053776Y-76912163D01*
X94065897Y-76781141D01*
X94070155Y-76758325D01*
X94114123Y-76603522D01*
X94122492Y-76581880D01*
X94194110Y-76437776D01*
X94206311Y-76418029D01*
X94303152Y-76289504D01*
X94318769Y-76272331D01*
X94441847Y-76159818D01*
X94450776Y-76152381D01*
X95301544Y-75507861D01*
X95303858Y-75506108D01*
X95303861Y-75506106D01*
X95700000Y-75206000D01*
X95700000Y-74063078D01*
X95700792Y-74048971D01*
X95715961Y-73914342D01*
X95722240Y-73886833D01*
X95764634Y-73765680D01*
X95776875Y-73740260D01*
X95845170Y-73631570D01*
X95862758Y-73609517D01*
X95953517Y-73518758D01*
X95975570Y-73501170D01*
X96084262Y-73432874D01*
X96109680Y-73420634D01*
X96230833Y-73378240D01*
X96258341Y-73371961D01*
X96305477Y-73366650D01*
X96385897Y-73357589D01*
X96414103Y-73357589D01*
X96494523Y-73366650D01*
G37*
G04 #@! TD.AperFunction*
G04 #@! TA.AperFunction,Conductor*
G36*
X85771128Y-91680097D02*
G01*
X85801306Y-91683921D01*
X85841895Y-91694161D01*
X85895214Y-91722544D01*
X85914620Y-91739954D01*
X85948603Y-91789895D01*
X85963169Y-91829139D01*
X85970234Y-91858727D01*
X85980379Y-91947838D01*
X85980733Y-91951394D01*
X85985091Y-92002542D01*
X85985495Y-92009667D01*
X85986949Y-92060940D01*
X85987000Y-92064512D01*
X85987000Y-92304031D01*
X85986764Y-92311742D01*
X85983778Y-92360449D01*
X85979981Y-92422369D01*
X85978096Y-92437678D01*
X85957850Y-92546627D01*
X85956211Y-92554159D01*
X85931804Y-92651786D01*
X85924878Y-92679489D01*
X85921634Y-92690360D01*
X85871327Y-92834846D01*
X85861978Y-92855495D01*
X85789411Y-92983663D01*
X85776514Y-93002303D01*
X85678503Y-93119775D01*
X85670850Y-93128150D01*
X85479000Y-93320000D01*
X85444401Y-93363249D01*
X85135554Y-93749308D01*
X85122760Y-93763057D01*
X85104001Y-93780418D01*
X85028166Y-93850601D01*
X84997164Y-93871690D01*
X84889597Y-93923389D01*
X84853769Y-93934421D01*
X84734572Y-93952356D01*
X84699383Y-93952680D01*
X84574737Y-93936270D01*
X84542965Y-93927757D01*
X84425722Y-93879193D01*
X84397237Y-93862747D01*
X84289942Y-93780418D01*
X84277550Y-93769550D01*
X83871275Y-93363275D01*
X83862971Y-93354114D01*
X83750403Y-93216950D01*
X83736680Y-93196412D01*
X83655971Y-93045416D01*
X83646518Y-93022596D01*
X83634708Y-92983663D01*
X83596815Y-92858744D01*
X83591998Y-92834524D01*
X83576729Y-92679489D01*
X83574607Y-92657949D01*
X83574000Y-92645599D01*
X83574000Y-92374601D01*
X83574797Y-92360449D01*
X83589936Y-92226516D01*
X83596255Y-92198923D01*
X83638542Y-92078495D01*
X83650859Y-92053012D01*
X83718964Y-91945055D01*
X83736661Y-91922963D01*
X83827141Y-91832939D01*
X83849322Y-91815355D01*
X83890135Y-91789895D01*
X83957619Y-91747797D01*
X83983161Y-91735610D01*
X84103803Y-91693932D01*
X84131426Y-91687752D01*
X84265442Y-91673289D01*
X84279597Y-91672564D01*
X85771128Y-91680097D01*
G37*
G04 #@! TD.AperFunction*
G04 #@! TA.AperFunction,Conductor*
G36*
X178364780Y-65248078D02*
G01*
X178508483Y-65266997D01*
X178540256Y-65275510D01*
X178666471Y-65327790D01*
X178694956Y-65344236D01*
X178803340Y-65427403D01*
X178826597Y-65450660D01*
X178909764Y-65559044D01*
X178926211Y-65587531D01*
X178978490Y-65713745D01*
X178987003Y-65745517D01*
X179005922Y-65889220D01*
X179007000Y-65905666D01*
X179007000Y-66159127D01*
X179006204Y-66173267D01*
X178988461Y-66330380D01*
X178983410Y-66375102D01*
X178977103Y-66402669D01*
X178912232Y-66587602D01*
X178899936Y-66613068D01*
X178791650Y-66784914D01*
X178783437Y-66796454D01*
X178757413Y-66828983D01*
X178748000Y-66839485D01*
X178629129Y-66958036D01*
X178607087Y-66975573D01*
X178470875Y-67060978D01*
X178445488Y-67073179D01*
X178293711Y-67126189D01*
X178266249Y-67132446D01*
X178099424Y-67151210D01*
X178085343Y-67152000D01*
X172806305Y-67152000D01*
X172791733Y-67151154D01*
X172675367Y-67137605D01*
X172647007Y-67130911D01*
X172547925Y-67094997D01*
X172514799Y-67076988D01*
X172509770Y-67073179D01*
X172481540Y-67051800D01*
X172450427Y-67017595D01*
X172430832Y-66985889D01*
X172414154Y-66942768D01*
X172405139Y-66894471D01*
X172403000Y-66871351D01*
X172403000Y-66450864D01*
X172404078Y-66434417D01*
X172415610Y-66346826D01*
X172424123Y-66315055D01*
X172454744Y-66241130D01*
X172471190Y-66212644D01*
X172519902Y-66149161D01*
X172543160Y-66125903D01*
X172606643Y-66077190D01*
X172635128Y-66060744D01*
X172669348Y-66046570D01*
X172739937Y-66038981D01*
X172755139Y-66042712D01*
X172868510Y-66078132D01*
X173012998Y-66080780D01*
X173032530Y-66075455D01*
X173143763Y-66045130D01*
X173143765Y-66045129D01*
X173152422Y-66042769D01*
X173177086Y-66027625D01*
X173243015Y-66009000D01*
X174625500Y-66009000D01*
X175090225Y-65544275D01*
X175099386Y-65535971D01*
X175236550Y-65423403D01*
X175257088Y-65409680D01*
X175408084Y-65328971D01*
X175430904Y-65319518D01*
X175594756Y-65269815D01*
X175618973Y-65264999D01*
X175795551Y-65247607D01*
X175807901Y-65247000D01*
X178348334Y-65247000D01*
X178364780Y-65248078D01*
G37*
G04 #@! TD.AperFunction*
G04 #@! TA.AperFunction,Conductor*
G36*
X176748953Y-79090607D02*
G01*
X176899622Y-79105446D01*
X176923843Y-79110263D01*
X177062788Y-79152411D01*
X177085598Y-79161860D01*
X177213644Y-79230302D01*
X177234179Y-79244024D01*
X177351221Y-79340078D01*
X177360382Y-79348382D01*
X177610000Y-79598000D01*
X177737000Y-79598000D01*
X177829753Y-79616450D01*
X177875171Y-79635263D01*
X177921457Y-79666190D01*
X177943487Y-79680910D01*
X177962580Y-79696580D01*
X178048655Y-79782655D01*
X178059522Y-79795046D01*
X178147764Y-79910045D01*
X178164211Y-79938531D01*
X178216490Y-80064745D01*
X178225003Y-80096517D01*
X178243922Y-80240220D01*
X178245000Y-80256666D01*
X178245000Y-80426136D01*
X178243922Y-80442583D01*
X178232390Y-80530174D01*
X178223877Y-80561945D01*
X178193256Y-80635870D01*
X178176810Y-80664356D01*
X178128098Y-80727839D01*
X178104839Y-80751098D01*
X178041356Y-80799810D01*
X178012870Y-80816256D01*
X177938945Y-80846877D01*
X177907174Y-80855390D01*
X177819583Y-80866922D01*
X177803136Y-80868000D01*
X172844864Y-80868000D01*
X172828417Y-80866922D01*
X172740826Y-80855390D01*
X172709055Y-80846877D01*
X172635130Y-80816256D01*
X172606644Y-80799810D01*
X172543161Y-80751098D01*
X172519902Y-80727839D01*
X172471190Y-80664356D01*
X172454744Y-80635870D01*
X172424123Y-80561945D01*
X172415610Y-80530174D01*
X172404078Y-80442583D01*
X172403000Y-80426136D01*
X172403000Y-80039864D01*
X172404078Y-80023417D01*
X172415610Y-79935826D01*
X172424123Y-79904055D01*
X172454744Y-79830130D01*
X172471190Y-79801644D01*
X172519902Y-79738161D01*
X172543161Y-79714902D01*
X172606644Y-79666190D01*
X172635130Y-79649744D01*
X172709055Y-79619123D01*
X172740826Y-79610610D01*
X172828417Y-79599078D01*
X172839265Y-79598367D01*
X172839259Y-79598270D01*
X172843379Y-79598000D01*
X173038000Y-79598000D01*
X173287618Y-79348382D01*
X173296779Y-79340078D01*
X173413821Y-79244024D01*
X173434356Y-79230302D01*
X173562402Y-79161860D01*
X173585212Y-79152411D01*
X173724157Y-79110263D01*
X173748378Y-79105446D01*
X173899047Y-79090607D01*
X173911397Y-79090000D01*
X176736603Y-79090000D01*
X176748953Y-79090607D01*
G37*
G04 #@! TD.AperFunction*
G04 #@! TA.AperFunction,Conductor*
G36*
X177819583Y-86457078D02*
G01*
X177907174Y-86468610D01*
X177938945Y-86477123D01*
X178012870Y-86507744D01*
X178041355Y-86524190D01*
X178111453Y-86577977D01*
X178123845Y-86588845D01*
X178191322Y-86656322D01*
X178206992Y-86675416D01*
X178219406Y-86693995D01*
X178238220Y-86739415D01*
X178245000Y-86773500D01*
X178245000Y-86837000D01*
X178567550Y-87159550D01*
X178578418Y-87171942D01*
X178660747Y-87279237D01*
X178677193Y-87307722D01*
X178725757Y-87424965D01*
X178734270Y-87456736D01*
X178751922Y-87590812D01*
X178753000Y-87607259D01*
X178753000Y-87665136D01*
X178751922Y-87681584D01*
X178746716Y-87721124D01*
X178717993Y-87786051D01*
X178710890Y-87793771D01*
X178476067Y-88028595D01*
X178413754Y-88062620D01*
X178386971Y-88065500D01*
X175107350Y-88065500D01*
X175070774Y-88060074D01*
X174986403Y-88034480D01*
X174963583Y-88025028D01*
X174812588Y-87944320D01*
X174792050Y-87930597D01*
X174654886Y-87818029D01*
X174645725Y-87809725D01*
X174181000Y-87345000D01*
X172759213Y-87345000D01*
X172734633Y-87342579D01*
X172707642Y-87337210D01*
X172688418Y-87333387D01*
X172642999Y-87314574D01*
X172614337Y-87295423D01*
X172579576Y-87260662D01*
X172560426Y-87232001D01*
X172541613Y-87186581D01*
X172532421Y-87140367D01*
X172530000Y-87115787D01*
X172530000Y-86685213D01*
X172532421Y-86660633D01*
X172541613Y-86614419D01*
X172560426Y-86568999D01*
X172579577Y-86540337D01*
X172614337Y-86505577D01*
X172642999Y-86486426D01*
X172688418Y-86467613D01*
X172707642Y-86463790D01*
X172734633Y-86458421D01*
X172759213Y-86456000D01*
X177803136Y-86456000D01*
X177819583Y-86457078D01*
G37*
G04 #@! TD.AperFunction*
G04 #@! TA.AperFunction,Conductor*
G36*
X188582683Y-65629078D02*
G01*
X188670274Y-65640610D01*
X188702045Y-65649123D01*
X188775970Y-65679744D01*
X188804456Y-65696190D01*
X188867939Y-65744902D01*
X188891198Y-65768161D01*
X188939910Y-65831644D01*
X188956356Y-65860130D01*
X188986977Y-65934055D01*
X188995490Y-65965826D01*
X189007022Y-66053417D01*
X189008100Y-66069864D01*
X189008100Y-66318754D01*
X189007150Y-66334194D01*
X188985063Y-66513078D01*
X188977553Y-66543028D01*
X188946490Y-66623461D01*
X188915428Y-66703892D01*
X188900860Y-66731115D01*
X188801473Y-66872039D01*
X188780719Y-66894900D01*
X188644123Y-67012510D01*
X188631814Y-67021857D01*
X188629677Y-67023282D01*
X188246100Y-67279000D01*
X188246100Y-68599094D01*
X188226098Y-68667215D01*
X188172442Y-68713708D01*
X188114067Y-68723436D01*
X188114067Y-68724500D01*
X186513934Y-68724501D01*
X186478182Y-68731612D01*
X186451874Y-68736844D01*
X186451872Y-68736845D01*
X186439699Y-68739266D01*
X186429379Y-68746161D01*
X186429378Y-68746162D01*
X186368985Y-68786516D01*
X186355516Y-68795516D01*
X186299266Y-68879699D01*
X186284500Y-68953933D01*
X186284500Y-69030379D01*
X186277282Y-69057318D01*
X186214100Y-69120500D01*
X186214100Y-71597000D01*
X186468100Y-71851000D01*
X187286521Y-71851000D01*
X187300629Y-71851792D01*
X187463187Y-71870108D01*
X187490694Y-71876387D01*
X187638370Y-71928061D01*
X187663790Y-71940302D01*
X187745771Y-71991814D01*
X187792807Y-72044991D01*
X187803628Y-72115158D01*
X187774796Y-72180036D01*
X187715464Y-72219027D01*
X187678734Y-72224500D01*
X186536364Y-72224501D01*
X186513934Y-72224501D01*
X186478182Y-72231612D01*
X186451874Y-72236844D01*
X186451872Y-72236845D01*
X186439699Y-72239266D01*
X186429379Y-72246161D01*
X186429378Y-72246162D01*
X186368985Y-72286516D01*
X186355516Y-72295516D01*
X186299266Y-72379699D01*
X186284500Y-72453933D01*
X186284501Y-72804066D01*
X186294417Y-72853921D01*
X186294417Y-72903077D01*
X186284500Y-72952933D01*
X186284501Y-73303066D01*
X186299266Y-73377301D01*
X186355516Y-73461484D01*
X186365832Y-73468377D01*
X186429381Y-73510840D01*
X186429382Y-73510841D01*
X186434542Y-73514288D01*
X186439699Y-73517734D01*
X186439391Y-73518195D01*
X186486476Y-73556138D01*
X186508898Y-73623501D01*
X186491340Y-73692293D01*
X186442578Y-73737693D01*
X186439699Y-73738266D01*
X186429382Y-73745159D01*
X186429381Y-73745160D01*
X186369024Y-73785490D01*
X186355516Y-73794516D01*
X186299266Y-73878699D01*
X186284500Y-73952933D01*
X186284501Y-74303066D01*
X186294516Y-74353419D01*
X186294516Y-74402579D01*
X186284500Y-74452933D01*
X186284501Y-74803066D01*
X186299266Y-74877301D01*
X186355516Y-74961484D01*
X186365832Y-74968377D01*
X186429381Y-75010840D01*
X186429382Y-75010841D01*
X186434542Y-75014288D01*
X186439699Y-75017734D01*
X186439391Y-75018195D01*
X186486476Y-75056138D01*
X186508898Y-75123501D01*
X186491340Y-75192293D01*
X186442578Y-75237693D01*
X186439699Y-75238266D01*
X186429382Y-75245159D01*
X186429381Y-75245160D01*
X186369024Y-75285490D01*
X186355516Y-75294516D01*
X186299266Y-75378699D01*
X186284500Y-75452933D01*
X186284501Y-75803066D01*
X186294616Y-75853920D01*
X186294615Y-75903078D01*
X186285707Y-75947862D01*
X186285706Y-75947868D01*
X186284500Y-75953933D01*
X186284501Y-76304066D01*
X186291612Y-76339818D01*
X186296392Y-76363849D01*
X186299266Y-76378301D01*
X186306161Y-76388621D01*
X186306162Y-76388622D01*
X186346516Y-76449015D01*
X186355516Y-76462484D01*
X186365832Y-76469377D01*
X186429378Y-76511838D01*
X186429379Y-76511839D01*
X186431110Y-76512995D01*
X186439699Y-76518734D01*
X186439186Y-76519502D01*
X186485269Y-76556638D01*
X186507691Y-76624001D01*
X186490134Y-76692792D01*
X186441726Y-76737863D01*
X186439699Y-76738266D01*
X186429379Y-76745161D01*
X186429378Y-76745162D01*
X186368985Y-76785516D01*
X186355516Y-76794516D01*
X186299266Y-76878699D01*
X186284500Y-76952933D01*
X186284501Y-77303066D01*
X186294516Y-77353419D01*
X186294516Y-77402579D01*
X186284500Y-77452933D01*
X186284501Y-77803066D01*
X186299266Y-77877301D01*
X186355516Y-77961484D01*
X186365832Y-77968377D01*
X186429381Y-78010840D01*
X186429382Y-78010841D01*
X186437975Y-78016582D01*
X186439699Y-78017734D01*
X186439596Y-78017888D01*
X186487683Y-78056639D01*
X186510105Y-78124002D01*
X186492547Y-78192793D01*
X186443430Y-78238524D01*
X186439699Y-78239266D01*
X186429382Y-78246159D01*
X186429381Y-78246160D01*
X186369024Y-78286490D01*
X186355516Y-78295516D01*
X186299266Y-78379699D01*
X186284500Y-78453933D01*
X186284501Y-78804066D01*
X186294417Y-78853921D01*
X186294417Y-78903077D01*
X186284500Y-78952933D01*
X186284501Y-79303066D01*
X186299266Y-79377301D01*
X186355516Y-79461484D01*
X186365832Y-79468377D01*
X186429381Y-79510840D01*
X186429382Y-79510841D01*
X186434542Y-79514288D01*
X186439699Y-79517734D01*
X186439391Y-79518195D01*
X186486476Y-79556138D01*
X186508898Y-79623501D01*
X186491340Y-79692293D01*
X186442578Y-79737693D01*
X186439699Y-79738266D01*
X186429382Y-79745159D01*
X186429381Y-79745160D01*
X186369024Y-79785490D01*
X186355516Y-79794516D01*
X186299266Y-79878699D01*
X186284500Y-79952933D01*
X186284501Y-80303066D01*
X186294516Y-80353419D01*
X186294516Y-80402579D01*
X186284500Y-80452933D01*
X186284501Y-80803066D01*
X186299266Y-80877301D01*
X186355516Y-80961484D01*
X186365832Y-80968377D01*
X186429381Y-81010840D01*
X186429382Y-81010841D01*
X186437975Y-81016582D01*
X186439699Y-81017734D01*
X186439596Y-81017888D01*
X186487683Y-81056639D01*
X186510105Y-81124002D01*
X186492547Y-81192793D01*
X186443430Y-81238524D01*
X186439699Y-81239266D01*
X186429382Y-81246159D01*
X186429381Y-81246160D01*
X186369024Y-81286490D01*
X186355516Y-81295516D01*
X186299266Y-81379699D01*
X186284500Y-81453933D01*
X186284501Y-81804066D01*
X186294516Y-81854419D01*
X186294516Y-81903579D01*
X186284500Y-81953933D01*
X186284501Y-82304066D01*
X186299266Y-82378301D01*
X186355516Y-82462484D01*
X186365832Y-82469377D01*
X186429381Y-82511840D01*
X186429382Y-82511841D01*
X186434542Y-82515288D01*
X186439699Y-82518734D01*
X186439391Y-82519195D01*
X186486476Y-82557138D01*
X186508898Y-82624501D01*
X186491340Y-82693293D01*
X186442578Y-82738693D01*
X186439699Y-82739266D01*
X186429382Y-82746159D01*
X186429381Y-82746160D01*
X186369024Y-82786490D01*
X186355516Y-82795516D01*
X186299266Y-82879699D01*
X186284500Y-82953933D01*
X186284501Y-83304066D01*
X186294097Y-83352312D01*
X186294516Y-83354419D01*
X186294516Y-83403579D01*
X186284500Y-83453933D01*
X186284501Y-83804066D01*
X186299266Y-83878301D01*
X186355516Y-83962484D01*
X186365832Y-83969377D01*
X186429381Y-84011840D01*
X186429382Y-84011841D01*
X186434542Y-84015288D01*
X186439699Y-84018734D01*
X186439391Y-84019195D01*
X186486476Y-84057138D01*
X186508898Y-84124501D01*
X186491340Y-84193293D01*
X186442578Y-84238693D01*
X186439699Y-84239266D01*
X186429382Y-84246159D01*
X186429381Y-84246160D01*
X186412214Y-84257631D01*
X186355516Y-84295516D01*
X186299266Y-84379699D01*
X186284500Y-84453933D01*
X186284501Y-84804066D01*
X186294616Y-84854920D01*
X186294615Y-84904078D01*
X186285707Y-84948862D01*
X186285706Y-84948868D01*
X186284500Y-84954933D01*
X186284501Y-85305066D01*
X186299266Y-85379301D01*
X186355516Y-85463484D01*
X186439699Y-85519734D01*
X186513933Y-85534500D01*
X186604565Y-85534500D01*
X188011020Y-85534499D01*
X188079141Y-85554501D01*
X188119100Y-85600616D01*
X188119100Y-85948000D01*
X188653732Y-86406256D01*
X188663546Y-86415631D01*
X188796884Y-86557503D01*
X188813213Y-86579133D01*
X188889585Y-86706871D01*
X188909616Y-86740375D01*
X188920943Y-86765002D01*
X188980630Y-86943135D01*
X188986427Y-86969613D01*
X189007369Y-87163178D01*
X189008100Y-87176731D01*
X189008100Y-87538136D01*
X189007022Y-87554583D01*
X188995490Y-87642174D01*
X188986977Y-87673945D01*
X188956356Y-87747870D01*
X188939910Y-87776356D01*
X188891198Y-87839839D01*
X188867939Y-87863098D01*
X188804456Y-87911810D01*
X188775970Y-87928256D01*
X188702045Y-87958877D01*
X188670274Y-87967390D01*
X188582683Y-87978922D01*
X188566236Y-87980000D01*
X184496964Y-87980000D01*
X184480517Y-87978922D01*
X184392926Y-87967390D01*
X184361155Y-87958877D01*
X184287230Y-87928256D01*
X184258744Y-87911810D01*
X184195261Y-87863098D01*
X184172002Y-87839839D01*
X184123290Y-87776356D01*
X184106844Y-87747870D01*
X184076223Y-87673945D01*
X184067710Y-87642174D01*
X184056178Y-87554583D01*
X184055100Y-87538136D01*
X184055100Y-87250657D01*
X184055890Y-87236573D01*
X184074654Y-87069751D01*
X184080911Y-87042289D01*
X184133921Y-86890512D01*
X184146122Y-86865125D01*
X184231527Y-86728913D01*
X184249063Y-86706871D01*
X184367613Y-86588000D01*
X184378112Y-86578590D01*
X184392054Y-86567437D01*
X184690100Y-86329000D01*
X185071100Y-85440000D01*
X185071100Y-68041000D01*
X184690100Y-67406000D01*
X184448619Y-67261111D01*
X184399792Y-67231815D01*
X184253895Y-67144277D01*
X184242374Y-67136467D01*
X184093799Y-67023282D01*
X184083461Y-67015406D01*
X184063334Y-66996215D01*
X183937604Y-66846517D01*
X183922917Y-66824783D01*
X183864290Y-66714867D01*
X183854870Y-66692082D01*
X183819167Y-66574164D01*
X183814366Y-66549979D01*
X183801705Y-66421201D01*
X183801100Y-66408873D01*
X183801100Y-66371127D01*
X183801705Y-66358799D01*
X183814366Y-66230021D01*
X183819167Y-66205836D01*
X183854870Y-66087918D01*
X183864290Y-66065132D01*
X183921284Y-65958279D01*
X183937639Y-65934600D01*
X184012202Y-65849397D01*
X184036910Y-65827683D01*
X184129235Y-65765854D01*
X184158720Y-65751275D01*
X184271791Y-65712761D01*
X184287706Y-65708479D01*
X184431380Y-65679744D01*
X184589971Y-65648026D01*
X184596066Y-65646962D01*
X184684429Y-65633785D01*
X184696790Y-65632560D01*
X184786023Y-65628153D01*
X184792238Y-65628000D01*
X188566236Y-65628000D01*
X188582683Y-65629078D01*
G37*
G04 #@! TD.AperFunction*
G04 #@! TA.AperFunction,Conductor*
G36*
X91229142Y-88748612D02*
G01*
X91287711Y-88754408D01*
X91376264Y-88763171D01*
X91400597Y-88768036D01*
X91536024Y-88809324D01*
X91558930Y-88818862D01*
X91683644Y-88885898D01*
X91704237Y-88899742D01*
X91822999Y-88997859D01*
X92070998Y-89247717D01*
X99143597Y-89247717D01*
X99155947Y-89248324D01*
X99332525Y-89265716D01*
X99356742Y-89270532D01*
X99520594Y-89320235D01*
X99543414Y-89329688D01*
X99694410Y-89410397D01*
X99714948Y-89424120D01*
X99852112Y-89536688D01*
X99861273Y-89544992D01*
X99901723Y-89585442D01*
X99910027Y-89594603D01*
X100022595Y-89731767D01*
X100036318Y-89752305D01*
X100117027Y-89903301D01*
X100126480Y-89926120D01*
X100176183Y-90089973D01*
X100180999Y-90114190D01*
X100198391Y-90290768D01*
X100198998Y-90303118D01*
X100198998Y-92051530D01*
X100198391Y-92063880D01*
X100181000Y-92240454D01*
X100176183Y-92264674D01*
X100130612Y-92414905D01*
X100126480Y-92428526D01*
X100117027Y-92451346D01*
X100036317Y-92602345D01*
X100022599Y-92622875D01*
X99913972Y-92755238D01*
X99896519Y-92772691D01*
X99764156Y-92881318D01*
X99743629Y-92895034D01*
X99651415Y-92944324D01*
X99592627Y-92975746D01*
X99569808Y-92985199D01*
X99405955Y-93034902D01*
X99381738Y-93039718D01*
X99205161Y-93057110D01*
X99192811Y-93057717D01*
X98919185Y-93057717D01*
X98906835Y-93057110D01*
X98730258Y-93039718D01*
X98706041Y-93034902D01*
X98542188Y-92985199D01*
X98519369Y-92975746D01*
X98460581Y-92944324D01*
X98368367Y-92895034D01*
X98347840Y-92881318D01*
X98215477Y-92772691D01*
X98198024Y-92755238D01*
X98089397Y-92622875D01*
X98075679Y-92602345D01*
X97994969Y-92451346D01*
X97985516Y-92428526D01*
X97981384Y-92414905D01*
X97935813Y-92264674D01*
X97930996Y-92240454D01*
X97913605Y-92063880D01*
X97912998Y-92051530D01*
X97912998Y-90771717D01*
X97277998Y-90136717D01*
X94496000Y-90136717D01*
X94303954Y-90280751D01*
X94238265Y-90314221D01*
X94175076Y-90377410D01*
X93988000Y-90517717D01*
X93988000Y-90921033D01*
X93985769Y-90944638D01*
X93976050Y-90995598D01*
X93958675Y-91039493D01*
X93937955Y-91072151D01*
X93903934Y-91107790D01*
X93874814Y-91128222D01*
X93827686Y-91148525D01*
X93819401Y-91150219D01*
X93780922Y-91158087D01*
X93755259Y-91160639D01*
X93135574Y-91158522D01*
X91435998Y-91152717D01*
X91308998Y-91279717D01*
X91305548Y-91287493D01*
X91303734Y-91290137D01*
X91303193Y-91289765D01*
X91282282Y-91316030D01*
X89859366Y-92603343D01*
X89731596Y-92718937D01*
X89667661Y-92749806D01*
X89647064Y-92751501D01*
X89595686Y-92751501D01*
X89592738Y-92751780D01*
X89592729Y-92751780D01*
X89571522Y-92753784D01*
X89571520Y-92753784D01*
X89563873Y-92754507D01*
X89434924Y-92799791D01*
X89324990Y-92880990D01*
X89243791Y-92990924D01*
X89198507Y-93119873D01*
X89196170Y-93119052D01*
X89167814Y-93170749D01*
X89134971Y-93194316D01*
X89084768Y-93219270D01*
X89063329Y-93227583D01*
X88910080Y-93271410D01*
X88887490Y-93275689D01*
X88847059Y-93279575D01*
X88723056Y-93291493D01*
X88711582Y-93292069D01*
X88065939Y-93294937D01*
X87363086Y-93298059D01*
X87348935Y-93297325D01*
X87208440Y-93282082D01*
X87174556Y-93278406D01*
X87146949Y-93272215D01*
X86987933Y-93217194D01*
X86962403Y-93204999D01*
X86907547Y-93170749D01*
X86819676Y-93115885D01*
X86797516Y-93098306D01*
X86678268Y-92979586D01*
X86660589Y-92957503D01*
X86570838Y-92815169D01*
X86558528Y-92789691D01*
X86502803Y-92630921D01*
X86496491Y-92603343D01*
X86476797Y-92429052D01*
X86476000Y-92414905D01*
X86476000Y-92257078D01*
X86476792Y-92242970D01*
X86477076Y-92240454D01*
X86492162Y-92106560D01*
X86498441Y-92079053D01*
X86541425Y-91956210D01*
X86553667Y-91930789D01*
X86622911Y-91820588D01*
X86640503Y-91798529D01*
X86732529Y-91706503D01*
X86754588Y-91688911D01*
X86864789Y-91619667D01*
X86890210Y-91607425D01*
X87013053Y-91564441D01*
X87040560Y-91558162D01*
X87141044Y-91546840D01*
X87176972Y-91542792D01*
X87191078Y-91542000D01*
X87892000Y-91542000D01*
X89162000Y-90272000D01*
X89162000Y-89621397D01*
X89162607Y-89609047D01*
X89177446Y-89458380D01*
X89182264Y-89434154D01*
X89224410Y-89295216D01*
X89233860Y-89272402D01*
X89302302Y-89144356D01*
X89316024Y-89123821D01*
X89408128Y-89011593D01*
X89425593Y-88994128D01*
X89537821Y-88902024D01*
X89558356Y-88888302D01*
X89686402Y-88819860D01*
X89709212Y-88810411D01*
X89848157Y-88768263D01*
X89872378Y-88763446D01*
X90023047Y-88748607D01*
X90035397Y-88748000D01*
X91216734Y-88748000D01*
X91229142Y-88748612D01*
G37*
G04 #@! TD.AperFunction*
G04 #@! TA.AperFunction,Conductor*
G36*
X117520690Y-82292777D02*
G01*
X117681977Y-82310769D01*
X117709228Y-82316925D01*
X117823127Y-82356356D01*
X117827291Y-82357797D01*
X117855928Y-82367711D01*
X117881153Y-82379722D01*
X118010906Y-82460254D01*
X118036350Y-82481098D01*
X118133012Y-82584125D01*
X118154463Y-82615291D01*
X118215068Y-82740076D01*
X118226300Y-82776205D01*
X118248572Y-82922872D01*
X118250000Y-82941789D01*
X118250000Y-84279100D01*
X118248449Y-84298810D01*
X118240500Y-84349000D01*
X118240500Y-88901000D01*
X118243694Y-88941591D01*
X118244079Y-88944022D01*
X118248449Y-88971616D01*
X118250000Y-88991325D01*
X118250000Y-95390038D01*
X118249068Y-95405333D01*
X118222402Y-95623388D01*
X118215031Y-95653075D01*
X118136605Y-95858282D01*
X118130275Y-95872236D01*
X117978106Y-96159780D01*
X117971056Y-96171511D01*
X117864155Y-96329316D01*
X117846462Y-96350149D01*
X117782186Y-96411000D01*
X117718966Y-96443307D01*
X117695562Y-96445500D01*
X86126545Y-96445500D01*
X86058424Y-96425498D01*
X86042419Y-96413302D01*
X85984500Y-96361358D01*
X85966941Y-96341961D01*
X85885874Y-96231156D01*
X85878700Y-96220196D01*
X85802757Y-96089860D01*
X85797607Y-96080054D01*
X85729945Y-95936200D01*
X85722322Y-95915425D01*
X85682318Y-95767308D01*
X85678446Y-95745520D01*
X85669028Y-95638683D01*
X85664485Y-95587157D01*
X85663998Y-95576092D01*
X85663998Y-94987909D01*
X85664835Y-94973411D01*
X85683571Y-94811663D01*
X85690200Y-94783434D01*
X85742932Y-94637143D01*
X85755838Y-94611177D01*
X85840618Y-94480812D01*
X85859119Y-94458484D01*
X85976750Y-94345885D01*
X85987801Y-94336465D01*
X86148956Y-94214403D01*
X86205441Y-94171620D01*
X86211299Y-94167441D01*
X86219336Y-94162049D01*
X86297362Y-94109697D01*
X86309777Y-94102361D01*
X86401860Y-94054836D01*
X86408362Y-94051713D01*
X87298651Y-93654993D01*
X87310972Y-93650259D01*
X87491050Y-93591701D01*
X87516833Y-93586216D01*
X87641958Y-93573055D01*
X87705152Y-93566408D01*
X87718330Y-93565717D01*
X88832498Y-93565717D01*
X88853555Y-93539647D01*
X88910863Y-93534139D01*
X88910874Y-93534138D01*
X88912317Y-93533999D01*
X88913746Y-93533795D01*
X88913766Y-93533793D01*
X88934377Y-93530856D01*
X88934387Y-93530854D01*
X88935786Y-93530655D01*
X88937171Y-93530393D01*
X88937175Y-93530392D01*
X88956966Y-93526643D01*
X88958376Y-93526376D01*
X88981433Y-93520908D01*
X89134682Y-93477081D01*
X89136054Y-93476620D01*
X89155766Y-93469995D01*
X89155786Y-93469988D01*
X89157145Y-93469531D01*
X89178584Y-93461218D01*
X89179882Y-93460645D01*
X89179892Y-93460641D01*
X89198943Y-93452233D01*
X89198944Y-93452232D01*
X89200273Y-93451646D01*
X89250476Y-93426692D01*
X89286260Y-93405152D01*
X89319103Y-93381585D01*
X89319767Y-93381081D01*
X89324654Y-93377371D01*
X89324657Y-93377369D01*
X89330259Y-93373115D01*
X89339708Y-93361853D01*
X89377154Y-93317217D01*
X89395336Y-93295545D01*
X89398307Y-93290128D01*
X89398310Y-93290124D01*
X89415025Y-93259649D01*
X89423692Y-93243848D01*
X89423151Y-93243551D01*
X89427328Y-93232944D01*
X89440197Y-93211184D01*
X89443348Y-93205856D01*
X89469429Y-93131589D01*
X89486955Y-93098486D01*
X89499294Y-93081780D01*
X89525780Y-93055294D01*
X89542486Y-93042955D01*
X89575588Y-93025429D01*
X89596405Y-93018119D01*
X89638153Y-93011001D01*
X89647064Y-93011001D01*
X89668347Y-93010127D01*
X89669611Y-93010023D01*
X89669627Y-93010022D01*
X89683175Y-93008907D01*
X89683178Y-93008907D01*
X89688944Y-93008432D01*
X89780490Y-92983494D01*
X89785705Y-92980976D01*
X89785708Y-92980975D01*
X89831306Y-92958959D01*
X89844425Y-92952625D01*
X89848152Y-92950116D01*
X89848158Y-92950112D01*
X89901960Y-92913884D01*
X89901961Y-92913884D01*
X89905692Y-92911371D01*
X90971337Y-91947281D01*
X91035272Y-91916412D01*
X91055869Y-91914717D01*
X93519800Y-91914717D01*
X93544491Y-91917160D01*
X93625499Y-91933348D01*
X93671089Y-91952327D01*
X93729198Y-91991379D01*
X93763868Y-92026235D01*
X93802813Y-92084858D01*
X93821463Y-92130108D01*
X93837601Y-92211617D01*
X93840000Y-92236089D01*
X93840000Y-92826000D01*
X93960000Y-92946000D01*
X96847893Y-92946000D01*
X96864340Y-92947078D01*
X96954584Y-92958959D01*
X96986351Y-92967471D01*
X97062753Y-92999117D01*
X97091237Y-93015563D01*
X97156840Y-93065902D01*
X97180098Y-93089160D01*
X97230437Y-93154763D01*
X97246883Y-93183247D01*
X97278529Y-93259649D01*
X97287041Y-93291416D01*
X97298922Y-93381660D01*
X97300000Y-93398107D01*
X97300000Y-94106000D01*
X97600000Y-94437717D01*
X112516000Y-94437717D01*
X112815202Y-94090428D01*
X112815205Y-94090425D01*
X112992934Y-93884131D01*
X113236000Y-93602000D01*
X113235290Y-93211184D01*
X113219049Y-84279100D01*
X113216477Y-82864634D01*
X113217898Y-82845540D01*
X113236967Y-82719709D01*
X113248355Y-82683238D01*
X113299987Y-82577657D01*
X113321784Y-82546273D01*
X113404567Y-82459047D01*
X113430164Y-82438328D01*
X113542480Y-82369556D01*
X113567487Y-82357797D01*
X113694650Y-82314289D01*
X113721621Y-82308264D01*
X113862143Y-82292760D01*
X113875961Y-82292000D01*
X117506721Y-82292000D01*
X117520690Y-82292777D01*
G37*
G04 #@! TD.AperFunction*
G04 #@! TA.AperFunction,Conductor*
G36*
X121459191Y-84268907D02*
G01*
X121495155Y-84318407D01*
X121500000Y-84349000D01*
X121500000Y-88901000D01*
X121481093Y-88959191D01*
X121431593Y-88995155D01*
X121401000Y-89000000D01*
X118599000Y-89000000D01*
X118540809Y-88981093D01*
X118504845Y-88931593D01*
X118500000Y-88901000D01*
X118500000Y-84349000D01*
X118518907Y-84290809D01*
X118568407Y-84254845D01*
X118599000Y-84250000D01*
X121401000Y-84250000D01*
X121459191Y-84268907D01*
G37*
G04 #@! TD.AperFunction*
G04 #@! TA.AperFunction,Conductor*
G36*
X117631563Y-79264925D02*
G01*
X117656595Y-79272518D01*
X117679415Y-79281970D01*
X117765045Y-79327740D01*
X117830412Y-79362680D01*
X117850950Y-79376403D01*
X117988114Y-79488971D01*
X117997275Y-79497275D01*
X118002725Y-79502725D01*
X118011029Y-79511886D01*
X118123597Y-79649050D01*
X118137320Y-79669588D01*
X118218029Y-79820584D01*
X118227482Y-79843403D01*
X118277185Y-80007256D01*
X118282002Y-80031476D01*
X118299393Y-80208051D01*
X118300000Y-80220401D01*
X118300000Y-81136260D01*
X118299393Y-81148611D01*
X118284815Y-81296618D01*
X118279997Y-81320840D01*
X118238628Y-81457217D01*
X118229179Y-81480029D01*
X118161997Y-81605716D01*
X118148281Y-81626243D01*
X118103075Y-81681327D01*
X118057872Y-81736407D01*
X118040407Y-81753872D01*
X117985327Y-81799075D01*
X117930243Y-81844281D01*
X117909716Y-81857997D01*
X117784030Y-81925178D01*
X117761217Y-81934628D01*
X117624840Y-81975997D01*
X117600618Y-81980815D01*
X117493407Y-81991375D01*
X117452609Y-81995393D01*
X117440260Y-81996000D01*
X112300000Y-81996000D01*
X112008000Y-82296000D01*
X111999403Y-82304832D01*
X111999401Y-82304835D01*
X111716000Y-82596000D01*
X111716000Y-92581599D01*
X111715393Y-92593949D01*
X111698934Y-92761066D01*
X111698002Y-92770524D01*
X111693185Y-92794744D01*
X111655357Y-92919450D01*
X111643482Y-92958596D01*
X111634029Y-92981416D01*
X111553320Y-93132412D01*
X111539597Y-93152950D01*
X111427029Y-93290114D01*
X111418725Y-93299275D01*
X110913275Y-93804725D01*
X110904114Y-93813029D01*
X110766950Y-93925597D01*
X110746412Y-93939320D01*
X110595416Y-94020029D01*
X110572597Y-94029482D01*
X110408744Y-94079185D01*
X110384527Y-94084001D01*
X110212731Y-94100922D01*
X110207949Y-94101393D01*
X110195599Y-94102000D01*
X100836390Y-94102000D01*
X100819944Y-94100922D01*
X100712032Y-94086715D01*
X100680260Y-94078202D01*
X100587392Y-94039735D01*
X100558906Y-94023288D01*
X100479161Y-93962097D01*
X100455903Y-93938839D01*
X100394712Y-93859094D01*
X100378265Y-93830608D01*
X100339798Y-93737740D01*
X100331285Y-93705968D01*
X100317078Y-93598056D01*
X100316000Y-93581610D01*
X100316000Y-93422390D01*
X100317078Y-93405944D01*
X100331285Y-93298032D01*
X100339798Y-93266260D01*
X100378267Y-93173387D01*
X100394709Y-93144908D01*
X100455902Y-93065160D01*
X100479158Y-93041905D01*
X100558906Y-92980712D01*
X100587392Y-92964265D01*
X100680260Y-92925798D01*
X100712032Y-92917285D01*
X100819944Y-92903078D01*
X100836390Y-92902000D01*
X102616000Y-92902000D01*
X103116000Y-92402000D01*
X103116000Y-90602000D01*
X102616000Y-90102000D01*
X101276006Y-90102000D01*
X101207885Y-90081998D01*
X101186911Y-90065095D01*
X100916129Y-89794313D01*
X100882103Y-89732001D01*
X100887168Y-89661186D01*
X100911810Y-89620661D01*
X100933526Y-89596670D01*
X100939551Y-89590014D01*
X101002560Y-89459962D01*
X101026536Y-89317453D01*
X101026595Y-89312591D01*
X101027031Y-89307735D01*
X101028870Y-89307900D01*
X101047408Y-89247546D01*
X101063457Y-89227882D01*
X101252512Y-89038827D01*
X101314824Y-89004801D01*
X101341560Y-89001922D01*
X104890595Y-89000695D01*
X106900000Y-89000000D01*
X107900000Y-88000000D01*
X107900000Y-82820401D01*
X107900607Y-82808051D01*
X107900936Y-82804715D01*
X107917999Y-82631473D01*
X107922815Y-82607256D01*
X107972518Y-82443403D01*
X107981971Y-82420584D01*
X108062680Y-82269588D01*
X108076403Y-82249050D01*
X108188971Y-82111886D01*
X108197275Y-82102725D01*
X110102725Y-80197275D01*
X110111886Y-80188971D01*
X110249050Y-80076403D01*
X110269588Y-80062680D01*
X110388017Y-79999378D01*
X110447413Y-79984500D01*
X115233156Y-79984500D01*
X115244137Y-79984979D01*
X115273214Y-79987523D01*
X115273215Y-79987523D01*
X115284190Y-79988483D01*
X115294833Y-79985631D01*
X115294836Y-79985631D01*
X115323018Y-79978080D01*
X115333745Y-79975702D01*
X115362483Y-79970634D01*
X115362486Y-79970633D01*
X115373345Y-79968718D01*
X115382895Y-79963204D01*
X115386972Y-79961720D01*
X115390893Y-79959892D01*
X115401540Y-79957039D01*
X115434475Y-79933977D01*
X115443745Y-79928072D01*
X115478559Y-79907973D01*
X115479366Y-79909371D01*
X115501646Y-79900000D01*
X115800000Y-79900000D01*
X116202725Y-79497275D01*
X116211886Y-79488971D01*
X116349050Y-79376403D01*
X116369588Y-79362680D01*
X116434955Y-79327740D01*
X116520585Y-79281970D01*
X116543405Y-79272518D01*
X116568437Y-79264925D01*
X116605011Y-79259500D01*
X117594989Y-79259500D01*
X117631563Y-79264925D01*
G37*
G04 #@! TD.AperFunction*
G04 #@! TA.AperFunction,Conductor*
G36*
X127192121Y-84770002D02*
G01*
X127238614Y-84823658D01*
X127250000Y-84876000D01*
X127250000Y-88640175D01*
X127229998Y-88708296D01*
X127176342Y-88754789D01*
X127124959Y-88766171D01*
X122996048Y-88797585D01*
X122996047Y-88797585D01*
X122995261Y-88797591D01*
X122994520Y-88797615D01*
X122994505Y-88797615D01*
X122989839Y-88797764D01*
X122982600Y-88797996D01*
X122972952Y-88798541D01*
X122972187Y-88798603D01*
X122972172Y-88798604D01*
X122967363Y-88798994D01*
X122960311Y-88799565D01*
X122959601Y-88799640D01*
X122959580Y-88799642D01*
X122876602Y-88808413D01*
X122780757Y-88818543D01*
X122779211Y-88818783D01*
X122779213Y-88818783D01*
X122757243Y-88822197D01*
X122757231Y-88822199D01*
X122755707Y-88822436D01*
X122736792Y-88826330D01*
X122712256Y-88832644D01*
X122544450Y-88884682D01*
X122543019Y-88885204D01*
X122543012Y-88885206D01*
X122522089Y-88892833D01*
X122522080Y-88892836D01*
X122520633Y-88893364D01*
X122502842Y-88900853D01*
X122494682Y-88904768D01*
X122481378Y-88911149D01*
X122481362Y-88911157D01*
X122479999Y-88911811D01*
X122354019Y-88979998D01*
X122345128Y-88984810D01*
X122285152Y-89000000D01*
X121976000Y-89000000D01*
X121907879Y-88979998D01*
X121861386Y-88926342D01*
X121850000Y-88874000D01*
X121850000Y-84876000D01*
X121870002Y-84807879D01*
X121923658Y-84761386D01*
X121976000Y-84750000D01*
X127124000Y-84750000D01*
X127192121Y-84770002D01*
G37*
G04 #@! TD.AperFunction*
G04 #@! TA.AperFunction,Conductor*
G36*
X131255519Y-87750622D02*
G01*
X131284968Y-87753940D01*
X131306084Y-87756319D01*
X131361792Y-87781623D01*
X131391988Y-87834838D01*
X131394000Y-87854697D01*
X131394000Y-88624000D01*
X131399930Y-88679159D01*
X131400489Y-88681729D01*
X131400490Y-88681735D01*
X131404572Y-88700500D01*
X131411316Y-88731501D01*
X131418666Y-88758291D01*
X131425072Y-88769541D01*
X131434531Y-88786152D01*
X131447501Y-88835140D01*
X131447501Y-88911066D01*
X131462266Y-88985301D01*
X131518516Y-89069484D01*
X131602699Y-89125734D01*
X131612262Y-89127636D01*
X131612264Y-89127637D01*
X131636905Y-89132538D01*
X131676933Y-89140500D01*
X131901000Y-89140500D01*
X131959191Y-89159407D01*
X131995155Y-89208907D01*
X132000000Y-89239500D01*
X132000000Y-90294435D01*
X131999377Y-90305520D01*
X131978682Y-90489189D01*
X131973751Y-90510798D01*
X131914554Y-90679972D01*
X131904940Y-90699935D01*
X131841470Y-90800948D01*
X131809584Y-90851694D01*
X131795762Y-90869027D01*
X131669027Y-90995762D01*
X131651694Y-91009584D01*
X131499935Y-91104940D01*
X131479972Y-91114554D01*
X131310798Y-91173751D01*
X131289189Y-91178682D01*
X131105520Y-91199377D01*
X131094435Y-91200000D01*
X130409752Y-91200000D01*
X130390439Y-91198098D01*
X130368022Y-91193639D01*
X130342776Y-91188618D01*
X130307090Y-91173836D01*
X130274950Y-91152360D01*
X130247640Y-91125050D01*
X130238166Y-91110872D01*
X130226164Y-91092910D01*
X130211382Y-91057223D01*
X130200000Y-91000000D01*
X130200000Y-90800000D01*
X129995143Y-90800000D01*
X129994970Y-90799983D01*
X129939401Y-90775894D01*
X129923855Y-90762262D01*
X129923852Y-90762260D01*
X129922637Y-90761194D01*
X129921369Y-90760221D01*
X129921358Y-90760212D01*
X129820864Y-90683101D01*
X129819570Y-90682108D01*
X129816374Y-90679972D01*
X129792680Y-90664140D01*
X129792679Y-90664139D01*
X129791345Y-90663248D01*
X129768963Y-90650326D01*
X129738521Y-90635314D01*
X129631286Y-90590896D01*
X129619995Y-90586219D01*
X129619989Y-90586217D01*
X129618500Y-90585600D01*
X129586359Y-90574690D01*
X129572485Y-90570972D01*
X129562965Y-90568421D01*
X129562953Y-90568418D01*
X129561396Y-90568001D01*
X129559813Y-90567686D01*
X129559804Y-90567684D01*
X129537623Y-90563272D01*
X129528104Y-90561378D01*
X129526495Y-90561166D01*
X129526488Y-90561165D01*
X129393633Y-90543674D01*
X129393631Y-90543674D01*
X129392820Y-90543567D01*
X129392027Y-90543489D01*
X129392019Y-90543488D01*
X129388189Y-90543111D01*
X129375920Y-90541903D01*
X129362998Y-90541056D01*
X129346025Y-90540500D01*
X127874686Y-90540500D01*
X127857713Y-90541056D01*
X127844791Y-90541903D01*
X127827892Y-90543567D01*
X127827081Y-90543674D01*
X127827079Y-90543674D01*
X127650039Y-90566982D01*
X127650032Y-90566983D01*
X127648423Y-90567195D01*
X127642260Y-90568421D01*
X127616721Y-90573501D01*
X127616706Y-90573504D01*
X127615130Y-90573818D01*
X127613573Y-90574235D01*
X127613561Y-90574238D01*
X127604041Y-90576789D01*
X127590167Y-90580507D01*
X127558026Y-90591417D01*
X127556537Y-90592034D01*
X127556531Y-90592036D01*
X127398334Y-90657563D01*
X127396835Y-90658184D01*
X127366389Y-90673199D01*
X127365004Y-90673999D01*
X127364994Y-90674004D01*
X127349239Y-90683101D01*
X127344008Y-90686121D01*
X127315787Y-90704977D01*
X127314505Y-90705961D01*
X127314499Y-90705965D01*
X127191950Y-90800000D01*
X126500000Y-90800000D01*
X126500000Y-92095139D01*
X126499523Y-92104843D01*
X126481741Y-92285386D01*
X126477955Y-92304420D01*
X126426710Y-92473353D01*
X126419283Y-92491283D01*
X126336067Y-92646969D01*
X126325285Y-92663106D01*
X126213290Y-92799573D01*
X126199573Y-92813290D01*
X126118163Y-92880102D01*
X126063106Y-92925285D01*
X126046969Y-92936067D01*
X125891283Y-93019283D01*
X125873353Y-93026710D01*
X125788887Y-93052332D01*
X125704418Y-93077955D01*
X125685388Y-93081741D01*
X125504843Y-93099523D01*
X125495139Y-93100000D01*
X123004861Y-93100000D01*
X122995157Y-93099523D01*
X122814612Y-93081741D01*
X122795582Y-93077955D01*
X122711113Y-93052332D01*
X122626647Y-93026710D01*
X122608717Y-93019283D01*
X122453031Y-92936067D01*
X122436894Y-92925285D01*
X122381837Y-92880102D01*
X122300427Y-92813290D01*
X122286710Y-92799573D01*
X122174715Y-92663106D01*
X122163933Y-92646969D01*
X122080717Y-92491283D01*
X122073290Y-92473353D01*
X122022045Y-92304420D01*
X122018259Y-92285386D01*
X122000477Y-92104843D01*
X122000000Y-92095139D01*
X122000000Y-90061932D01*
X122000472Y-90052275D01*
X122018084Y-89872589D01*
X122021834Y-89853644D01*
X122072590Y-89685457D01*
X122079947Y-89667598D01*
X122162395Y-89512463D01*
X122173077Y-89496377D01*
X122284080Y-89360197D01*
X122297685Y-89346489D01*
X122433006Y-89234461D01*
X122449014Y-89223654D01*
X122476260Y-89208907D01*
X122603521Y-89140027D01*
X122621312Y-89132538D01*
X122789118Y-89080500D01*
X122808033Y-89076606D01*
X122987587Y-89057628D01*
X122997235Y-89057083D01*
X129251027Y-89009503D01*
X129251715Y-89009500D01*
X130426500Y-89009500D01*
X130463491Y-89005523D01*
X130479037Y-89003852D01*
X130479039Y-89003852D01*
X130481659Y-89003570D01*
X130484229Y-89003011D01*
X130484235Y-89003010D01*
X130498002Y-89000015D01*
X130500000Y-89000000D01*
X130500000Y-88999580D01*
X130534001Y-88992184D01*
X130560791Y-88984834D01*
X130648778Y-88934731D01*
X130681698Y-88906206D01*
X130700759Y-88889690D01*
X130700766Y-88889683D01*
X130702434Y-88888238D01*
X130734556Y-88854949D01*
X130781487Y-88765230D01*
X130801489Y-88697109D01*
X130812000Y-88624000D01*
X130812000Y-87900091D01*
X130830907Y-87841900D01*
X130873114Y-87808627D01*
X130951197Y-87776284D01*
X130976161Y-87769595D01*
X131118566Y-87750847D01*
X131131488Y-87750000D01*
X131244435Y-87750000D01*
X131255519Y-87750622D01*
G37*
G04 #@! TD.AperFunction*
G04 #@! TA.AperFunction,Conductor*
G36*
X129358947Y-90800847D02*
G01*
X129494231Y-90818658D01*
X129519194Y-90825347D01*
X129639215Y-90875061D01*
X129661597Y-90887983D01*
X129764664Y-90967069D01*
X129782931Y-90985336D01*
X129855133Y-91079431D01*
X129862017Y-91088403D01*
X129874939Y-91110785D01*
X129924653Y-91230806D01*
X129931342Y-91255769D01*
X129949153Y-91391053D01*
X129950000Y-91403975D01*
X129950000Y-92600000D01*
X130650000Y-93360000D01*
X135330000Y-93360000D01*
X136599345Y-91977465D01*
X136606652Y-91970290D01*
X136749846Y-91843543D01*
X136766484Y-91831639D01*
X136928191Y-91739580D01*
X136946920Y-91731350D01*
X137124097Y-91674494D01*
X137144118Y-91670289D01*
X137334326Y-91650530D01*
X137344555Y-91650000D01*
X137830925Y-91650000D01*
X137840629Y-91650477D01*
X138021175Y-91668259D01*
X138040205Y-91672045D01*
X138048280Y-91674494D01*
X138209140Y-91723290D01*
X138227070Y-91730717D01*
X138382756Y-91813933D01*
X138398893Y-91824715D01*
X138539129Y-91939804D01*
X138546328Y-91946328D01*
X138803672Y-92203672D01*
X138810196Y-92210871D01*
X138925285Y-92351107D01*
X138936067Y-92367244D01*
X139019283Y-92522930D01*
X139026710Y-92540860D01*
X139077955Y-92709793D01*
X139081741Y-92728827D01*
X139099523Y-92909371D01*
X139100000Y-92919075D01*
X139100000Y-95695139D01*
X139099523Y-95704843D01*
X139081741Y-95885386D01*
X139077955Y-95904420D01*
X139026710Y-96073353D01*
X139019283Y-96091283D01*
X138936067Y-96246969D01*
X138925285Y-96263106D01*
X138813290Y-96399573D01*
X138799567Y-96413295D01*
X138787704Y-96423030D01*
X138724902Y-96445500D01*
X127475098Y-96445500D01*
X127412296Y-96423030D01*
X127400433Y-96413295D01*
X127386710Y-96399573D01*
X127274715Y-96263106D01*
X127263933Y-96246969D01*
X127180717Y-96091283D01*
X127173290Y-96073353D01*
X127122045Y-95904420D01*
X127118259Y-95885386D01*
X127100477Y-95704843D01*
X127100000Y-95695139D01*
X127100000Y-91574686D01*
X127100847Y-91561764D01*
X127124475Y-91382295D01*
X127131164Y-91357332D01*
X127197931Y-91196141D01*
X127210853Y-91173759D01*
X127317069Y-91035336D01*
X127335336Y-91017069D01*
X127473760Y-90910853D01*
X127496141Y-90897931D01*
X127551355Y-90875061D01*
X127657332Y-90831164D01*
X127682295Y-90824475D01*
X127861764Y-90800847D01*
X127874686Y-90800000D01*
X129346025Y-90800000D01*
X129358947Y-90800847D01*
G37*
G04 #@! TD.AperFunction*
G04 #@! TA.AperFunction,Conductor*
G36*
X134395090Y-58804958D02*
G01*
X134427159Y-58829565D01*
X134445434Y-58847840D01*
X134531299Y-58959742D01*
X134544221Y-58982123D01*
X134598199Y-59112437D01*
X134604888Y-59137401D01*
X134624153Y-59283731D01*
X134625000Y-59296653D01*
X134625000Y-72135291D01*
X134623098Y-72154605D01*
X134602202Y-72259654D01*
X134587419Y-72295342D01*
X134559764Y-72336730D01*
X134533440Y-72376127D01*
X134506127Y-72403440D01*
X134425342Y-72457419D01*
X134389654Y-72472202D01*
X134284605Y-72493098D01*
X134265291Y-72495000D01*
X130978107Y-72495000D01*
X130958493Y-72493038D01*
X130855853Y-72472292D01*
X130819706Y-72457057D01*
X130741272Y-72403592D01*
X130714212Y-72376026D01*
X130661573Y-72295645D01*
X130647237Y-72260422D01*
X130626843Y-72156216D01*
X130625000Y-72137202D01*
X130625000Y-59325927D01*
X130625874Y-59312798D01*
X130646546Y-59158298D01*
X130653450Y-59132963D01*
X130711424Y-58995470D01*
X130724744Y-58972842D01*
X130816956Y-58855257D01*
X130835421Y-58837177D01*
X130879181Y-58804326D01*
X130938616Y-58784500D01*
X134334823Y-58784500D01*
X134395090Y-58804958D01*
G37*
G04 #@! TD.AperFunction*
G04 #@! TA.AperFunction,Conductor*
G36*
X173583600Y-76632800D02*
G01*
X173563598Y-76700921D01*
X173509942Y-76747414D01*
X173457600Y-76758800D01*
X162714256Y-76758800D01*
X162646135Y-76738798D01*
X162625161Y-76721895D01*
X162556055Y-76652789D01*
X162547223Y-76648289D01*
X162547222Y-76648288D01*
X162472694Y-76610314D01*
X162449508Y-76598500D01*
X162331400Y-76579794D01*
X162213292Y-76598500D01*
X162190106Y-76610314D01*
X162115578Y-76648288D01*
X162115577Y-76648289D01*
X162106745Y-76652789D01*
X162037639Y-76721895D01*
X161975327Y-76755921D01*
X161948544Y-76758800D01*
X153289000Y-76758800D01*
X151319305Y-78728495D01*
X151256993Y-78762521D01*
X151230210Y-78765400D01*
X147420990Y-78765400D01*
X147352869Y-78745398D01*
X147306376Y-78691742D01*
X147296272Y-78621468D01*
X147325766Y-78556888D01*
X147331895Y-78550305D01*
X150585095Y-75297105D01*
X150647407Y-75263079D01*
X150674190Y-75260200D01*
X171196000Y-75260200D01*
X171196000Y-72200000D01*
X173583600Y-72200000D01*
X173583600Y-76632800D01*
G37*
G04 #@! TD.AperFunction*
G04 #@! TA.AperFunction,Conductor*
G36*
X135692121Y-87520002D02*
G01*
X135738614Y-87573658D01*
X135750000Y-87626000D01*
X135750000Y-92459621D01*
X135726531Y-92532856D01*
X135693851Y-92578609D01*
X135684142Y-92590579D01*
X135323788Y-92983067D01*
X135253415Y-93059715D01*
X135192610Y-93096366D01*
X135160601Y-93100500D01*
X131526000Y-93100500D01*
X131457879Y-93080498D01*
X131411386Y-93026842D01*
X131400000Y-92974500D01*
X131400000Y-91506867D01*
X131420002Y-91438746D01*
X131473658Y-91392253D01*
X131484374Y-91387942D01*
X131565680Y-91359492D01*
X131567304Y-91358819D01*
X131568715Y-91358281D01*
X131613639Y-91350000D01*
X132500000Y-91350000D01*
X132500000Y-89125871D01*
X132520002Y-89057750D01*
X132536516Y-89037258D01*
X132546552Y-89030552D01*
X132590867Y-88964231D01*
X132602500Y-88905748D01*
X132602500Y-88829655D01*
X132618534Y-88768145D01*
X132625219Y-88756194D01*
X132625219Y-88756193D01*
X132628674Y-88750017D01*
X132648676Y-88681896D01*
X132650720Y-88667681D01*
X132656361Y-88628448D01*
X132656362Y-88628441D01*
X132657000Y-88624000D01*
X132657000Y-87817000D01*
X132677002Y-87748879D01*
X132730658Y-87702386D01*
X132783000Y-87691000D01*
X133339100Y-87691000D01*
X133363681Y-87693421D01*
X133390140Y-87698684D01*
X133401656Y-87699656D01*
X133403250Y-87699791D01*
X133411132Y-87700707D01*
X133412778Y-87700951D01*
X133415810Y-87701554D01*
X133418880Y-87701856D01*
X133418885Y-87701857D01*
X133429752Y-87702927D01*
X133455889Y-87705500D01*
X134874000Y-87705500D01*
X134877346Y-87705140D01*
X134877351Y-87705140D01*
X134914317Y-87701166D01*
X134914323Y-87701165D01*
X134917681Y-87700804D01*
X134926062Y-87698981D01*
X134962750Y-87691000D01*
X134970023Y-87689418D01*
X134970717Y-87689248D01*
X134970736Y-87689244D01*
X134971870Y-87688967D01*
X134980203Y-87686930D01*
X135060916Y-87643921D01*
X135114572Y-87597428D01*
X135132527Y-87579835D01*
X135141110Y-87564491D01*
X135191820Y-87514803D01*
X135251076Y-87500000D01*
X135624000Y-87500000D01*
X135692121Y-87520002D01*
G37*
G04 #@! TD.AperFunction*
G04 #@! TA.AperFunction,Conductor*
G36*
X134942121Y-85020002D02*
G01*
X134988614Y-85073658D01*
X135000000Y-85126000D01*
X135000000Y-85918500D01*
X134979998Y-85986621D01*
X134926342Y-86033114D01*
X134874000Y-86044500D01*
X134792518Y-86044500D01*
X134790164Y-86044678D01*
X134790158Y-86044678D01*
X134764021Y-86046652D01*
X134764013Y-86046653D01*
X134761655Y-86046831D01*
X134759326Y-86047185D01*
X134759307Y-86047187D01*
X134756359Y-86047635D01*
X134747821Y-86048425D01*
X134743955Y-86048122D01*
X134699563Y-86054657D01*
X134681212Y-86056000D01*
X134318568Y-86056000D01*
X134300379Y-86054680D01*
X134259870Y-86048770D01*
X134259862Y-86048769D01*
X134256371Y-86048260D01*
X134252841Y-86048144D01*
X134249326Y-86047831D01*
X134249331Y-86047779D01*
X134242956Y-86047421D01*
X134240597Y-86047155D01*
X134238271Y-86046804D01*
X134207585Y-86044500D01*
X133666796Y-86044500D01*
X133664975Y-86044606D01*
X133664966Y-86044606D01*
X133653271Y-86045285D01*
X133643011Y-86045881D01*
X133614039Y-86049257D01*
X133536140Y-86074797D01*
X133530640Y-86077929D01*
X133476115Y-86108975D01*
X133476102Y-86108983D01*
X133474444Y-86109927D01*
X133472842Y-86110974D01*
X133472840Y-86110975D01*
X133462896Y-86117473D01*
X133453404Y-86123675D01*
X133426005Y-86155786D01*
X133366574Y-86194622D01*
X133330156Y-86200000D01*
X132728500Y-86200000D01*
X132660379Y-86179998D01*
X132613886Y-86126342D01*
X132602500Y-86074000D01*
X132602500Y-85126000D01*
X132622502Y-85057879D01*
X132676158Y-85011386D01*
X132728500Y-85000000D01*
X134874000Y-85000000D01*
X134942121Y-85020002D01*
G37*
G04 #@! TD.AperFunction*
G04 #@! TA.AperFunction,Conductor*
G36*
X126138850Y-93901902D02*
G01*
X126150808Y-93904281D01*
X126175305Y-93909154D01*
X126210989Y-93923934D01*
X126233627Y-93939060D01*
X126260940Y-93966373D01*
X126276066Y-93989011D01*
X126290847Y-94024696D01*
X126298098Y-94061150D01*
X126300000Y-94080464D01*
X126300000Y-95519536D01*
X126298098Y-95538850D01*
X126290847Y-95575304D01*
X126276066Y-95610989D01*
X126260941Y-95633626D01*
X126233627Y-95660940D01*
X126210989Y-95676066D01*
X126175305Y-95690846D01*
X126150808Y-95695719D01*
X126138850Y-95698098D01*
X126119536Y-95700000D01*
X122487566Y-95700000D01*
X122473065Y-95698932D01*
X122467433Y-95698098D01*
X122392514Y-95687005D01*
X122322236Y-95676599D01*
X122294479Y-95668195D01*
X122221240Y-95633626D01*
X122164026Y-95606620D01*
X122138672Y-95589409D01*
X122081703Y-95536145D01*
X122062030Y-95510542D01*
X122025635Y-95442536D01*
X122015246Y-95411967D01*
X122001325Y-95327740D01*
X122000000Y-95311596D01*
X122000000Y-94251173D01*
X122001902Y-94231860D01*
X122022147Y-94130079D01*
X122036930Y-94094390D01*
X122046236Y-94080464D01*
X122089060Y-94016373D01*
X122116373Y-93989060D01*
X122191204Y-93939059D01*
X122194392Y-93936929D01*
X122230078Y-93922147D01*
X122295406Y-93909153D01*
X122331860Y-93901902D01*
X122351173Y-93900000D01*
X126119536Y-93900000D01*
X126138850Y-93901902D01*
G37*
G04 #@! TD.AperFunction*
G04 #@! TA.AperFunction,Conductor*
G36*
X130442121Y-84770002D02*
G01*
X130488614Y-84823658D01*
X130500000Y-84876000D01*
X130500000Y-86250000D01*
X130507794Y-86250000D01*
X130516011Y-86257120D01*
X130554395Y-86316846D01*
X130557078Y-86327763D01*
X130559432Y-86339595D01*
X130564133Y-86363231D01*
X130608448Y-86429552D01*
X130674769Y-86473867D01*
X130686938Y-86476288D01*
X130686939Y-86476288D01*
X130727184Y-86484293D01*
X130733252Y-86485500D01*
X131472748Y-86485500D01*
X131531231Y-86473867D01*
X131534840Y-86471456D01*
X131599874Y-86464465D01*
X131617399Y-86469611D01*
X131623769Y-86473867D01*
X131682252Y-86485500D01*
X132421748Y-86485500D01*
X132480231Y-86473867D01*
X132484112Y-86471274D01*
X132549370Y-86464257D01*
X132567239Y-86469504D01*
X132573769Y-86473867D01*
X132632252Y-86485500D01*
X133371748Y-86485500D01*
X133377816Y-86484293D01*
X133418061Y-86476288D01*
X133418062Y-86476288D01*
X133430231Y-86473867D01*
X133496552Y-86429552D01*
X133540867Y-86363231D01*
X133543288Y-86351061D01*
X133548037Y-86339595D01*
X133549158Y-86340059D01*
X133576128Y-86288506D01*
X133637824Y-86253376D01*
X133666796Y-86250000D01*
X134207585Y-86250000D01*
X134226523Y-86252860D01*
X134226706Y-86251608D01*
X134289987Y-86260840D01*
X134289993Y-86260840D01*
X134294514Y-86261500D01*
X134705486Y-86261500D01*
X134710036Y-86260830D01*
X134710039Y-86260830D01*
X134773884Y-86251431D01*
X134774086Y-86252800D01*
X134792518Y-86250000D01*
X134874000Y-86250000D01*
X134942121Y-86270002D01*
X134988614Y-86323658D01*
X135000000Y-86376000D01*
X135000000Y-87374000D01*
X134979998Y-87442121D01*
X134926342Y-87488614D01*
X134874000Y-87500000D01*
X133455889Y-87500000D01*
X133430659Y-87494983D01*
X133430231Y-87497133D01*
X133377816Y-87486707D01*
X133371748Y-87485500D01*
X132632252Y-87485500D01*
X132573769Y-87497133D01*
X132573341Y-87494983D01*
X132548111Y-87500000D01*
X132500000Y-87500000D01*
X132500000Y-87514373D01*
X132499366Y-87516464D01*
X132497121Y-87526783D01*
X132496290Y-87526602D01*
X132478766Y-87584373D01*
X132463133Y-87607769D01*
X132451500Y-87666252D01*
X132451500Y-88624000D01*
X132431498Y-88692121D01*
X132377842Y-88738614D01*
X132325500Y-88750000D01*
X131779500Y-88750000D01*
X131711379Y-88729998D01*
X131664886Y-88676342D01*
X131653500Y-88624000D01*
X131653500Y-87666252D01*
X131641867Y-87607769D01*
X131597552Y-87541448D01*
X131531231Y-87497133D01*
X131519062Y-87494712D01*
X131519061Y-87494712D01*
X131478816Y-87486707D01*
X131472748Y-87485500D01*
X130733252Y-87485500D01*
X130727184Y-87486707D01*
X130686939Y-87494712D01*
X130686938Y-87494712D01*
X130674769Y-87497133D01*
X130608448Y-87541448D01*
X130564133Y-87607769D01*
X130552500Y-87666252D01*
X130552500Y-88624000D01*
X130532498Y-88692121D01*
X130478842Y-88738614D01*
X130426500Y-88750000D01*
X127876000Y-88750000D01*
X127807879Y-88729998D01*
X127761386Y-88676342D01*
X127750000Y-88624000D01*
X127750000Y-84876000D01*
X127770002Y-84807879D01*
X127823658Y-84761386D01*
X127876000Y-84750000D01*
X130374000Y-84750000D01*
X130442121Y-84770002D01*
G37*
G04 #@! TD.AperFunction*
G04 #@! TA.AperFunction,Conductor*
G36*
X192184023Y-67169949D02*
G01*
X192207416Y-67189172D01*
X194586496Y-69679931D01*
X194894773Y-70002679D01*
X194902595Y-70011685D01*
X195540000Y-70820000D01*
X197170000Y-72790000D01*
X197179693Y-72790013D01*
X197189267Y-72791507D01*
X197188933Y-72793645D01*
X197244707Y-72810104D01*
X197291127Y-72863823D01*
X197301135Y-72934111D01*
X197277268Y-72991575D01*
X197236212Y-73046356D01*
X197227676Y-73061946D01*
X197182522Y-73182394D01*
X197178895Y-73197649D01*
X197173369Y-73248514D01*
X197173000Y-73255328D01*
X197173000Y-73281885D01*
X197177475Y-73297124D01*
X197178865Y-73298329D01*
X197186548Y-73300000D01*
X198412885Y-73300000D01*
X198428123Y-73295526D01*
X198428156Y-73295488D01*
X198487882Y-73257104D01*
X198523381Y-73252000D01*
X198636403Y-73252000D01*
X198704524Y-73272002D01*
X198718915Y-73282775D01*
X198736865Y-73298329D01*
X198744548Y-73300000D01*
X201076885Y-73300000D01*
X201092123Y-73295526D01*
X201092156Y-73295488D01*
X201151882Y-73257104D01*
X201187381Y-73252000D01*
X201269000Y-73252000D01*
X201337121Y-73272002D01*
X201383614Y-73325658D01*
X201395000Y-73378000D01*
X201395000Y-75522000D01*
X201374998Y-75590121D01*
X201321342Y-75636614D01*
X201304350Y-75640310D01*
X201162880Y-75640155D01*
X201121476Y-75627998D01*
X201107085Y-75617225D01*
X201089135Y-75601671D01*
X201081452Y-75600000D01*
X198749115Y-75600000D01*
X198733877Y-75604474D01*
X198733844Y-75604512D01*
X198682608Y-75637440D01*
X198520431Y-75637262D01*
X198488879Y-75627998D01*
X198442386Y-75574342D01*
X198431000Y-75522000D01*
X198431000Y-75281885D01*
X198731000Y-75281885D01*
X198735475Y-75297124D01*
X198736865Y-75298329D01*
X198744548Y-75300000D01*
X201076885Y-75300000D01*
X201092124Y-75295525D01*
X201093329Y-75294135D01*
X201095000Y-75286452D01*
X201095000Y-75118115D01*
X201090525Y-75102876D01*
X201089135Y-75101671D01*
X201081452Y-75100000D01*
X198749115Y-75100000D01*
X198733876Y-75104475D01*
X198732671Y-75105865D01*
X198731000Y-75113548D01*
X198731000Y-75281885D01*
X198431000Y-75281885D01*
X198431000Y-74781885D01*
X198731000Y-74781885D01*
X198735475Y-74797124D01*
X198736865Y-74798329D01*
X198744548Y-74800000D01*
X201076885Y-74800000D01*
X201092124Y-74795525D01*
X201093329Y-74794135D01*
X201095000Y-74786452D01*
X201095000Y-74618115D01*
X201090525Y-74602876D01*
X201089135Y-74601671D01*
X201081452Y-74600000D01*
X198749115Y-74600000D01*
X198733876Y-74604475D01*
X198732671Y-74605865D01*
X198731000Y-74613548D01*
X198731000Y-74781885D01*
X198431000Y-74781885D01*
X198431000Y-74618115D01*
X198426525Y-74602876D01*
X198425135Y-74601671D01*
X198417452Y-74600000D01*
X197191116Y-74600000D01*
X197175877Y-74604475D01*
X197174672Y-74605865D01*
X197173001Y-74613548D01*
X197173001Y-74644669D01*
X197173371Y-74651493D01*
X197177161Y-74686393D01*
X197177161Y-74713603D01*
X197173369Y-74748510D01*
X197173000Y-74755329D01*
X197173000Y-74828173D01*
X197152998Y-74896294D01*
X197099342Y-74942787D01*
X197029068Y-74952891D01*
X196964488Y-74923397D01*
X196949806Y-74908354D01*
X196433123Y-74281885D01*
X197173000Y-74281885D01*
X197177475Y-74297124D01*
X197178865Y-74298329D01*
X197186548Y-74300000D01*
X198412885Y-74300000D01*
X198428124Y-74295525D01*
X198429329Y-74294135D01*
X198431000Y-74286452D01*
X198431000Y-74281885D01*
X198731000Y-74281885D01*
X198735475Y-74297124D01*
X198736865Y-74298329D01*
X198744548Y-74300000D01*
X201076885Y-74300000D01*
X201092124Y-74295525D01*
X201093329Y-74294135D01*
X201095000Y-74286452D01*
X201095000Y-74118115D01*
X201090525Y-74102876D01*
X201089135Y-74101671D01*
X201081452Y-74100000D01*
X198749115Y-74100000D01*
X198733876Y-74104475D01*
X198732671Y-74105865D01*
X198731000Y-74113548D01*
X198731000Y-74281885D01*
X198431000Y-74281885D01*
X198431000Y-74118115D01*
X198426525Y-74102876D01*
X198425135Y-74101671D01*
X198417452Y-74100000D01*
X197191116Y-74100000D01*
X197175877Y-74104475D01*
X197174672Y-74105865D01*
X197173001Y-74113548D01*
X197173001Y-74144669D01*
X197173371Y-74151493D01*
X197177161Y-74186393D01*
X197177161Y-74213603D01*
X197173369Y-74248510D01*
X197173000Y-74255329D01*
X197173000Y-74281885D01*
X196433123Y-74281885D01*
X196020745Y-73781885D01*
X197173000Y-73781885D01*
X197177475Y-73797124D01*
X197178865Y-73798329D01*
X197186548Y-73800000D01*
X198412885Y-73800000D01*
X198428124Y-73795525D01*
X198429329Y-73794135D01*
X198431000Y-73786452D01*
X198431000Y-73781885D01*
X198731000Y-73781885D01*
X198735475Y-73797124D01*
X198736865Y-73798329D01*
X198744548Y-73800000D01*
X201076885Y-73800000D01*
X201092124Y-73795525D01*
X201093329Y-73794135D01*
X201095000Y-73786452D01*
X201095000Y-73618115D01*
X201090525Y-73602876D01*
X201089135Y-73601671D01*
X201081452Y-73600000D01*
X198749115Y-73600000D01*
X198733876Y-73604475D01*
X198732671Y-73605865D01*
X198731000Y-73613548D01*
X198731000Y-73781885D01*
X198431000Y-73781885D01*
X198431000Y-73618115D01*
X198426525Y-73602876D01*
X198425135Y-73601671D01*
X198417452Y-73600000D01*
X197191116Y-73600000D01*
X197175877Y-73604475D01*
X197174672Y-73605865D01*
X197173001Y-73613548D01*
X197173001Y-73644669D01*
X197173371Y-73651493D01*
X197177161Y-73686393D01*
X197177161Y-73713603D01*
X197173369Y-73748510D01*
X197173000Y-73755329D01*
X197173000Y-73781885D01*
X196020745Y-73781885D01*
X194980000Y-72520000D01*
X192390000Y-69680000D01*
X189645122Y-69660872D01*
X189577142Y-69640396D01*
X189531024Y-69586417D01*
X189520000Y-69534875D01*
X189520000Y-67285525D01*
X189540002Y-67217404D01*
X189593658Y-67170911D01*
X189645524Y-67159526D01*
X192115829Y-67150204D01*
X192184023Y-67169949D01*
G37*
G04 #@! TD.AperFunction*
M02*
