G04 #@! TF.GenerationSoftware,KiCad,Pcbnew,6.0.11+dfsg-1~bpo11+1*
G04 #@! TF.CreationDate,2023-05-25T13:31:40+02:00*
G04 #@! TF.ProjectId,scalenode-cm4-baseboard,7363616c-656e-46f6-9465-2d636d342d62,1.1.1*
G04 #@! TF.SameCoordinates,Original*
G04 #@! TF.FileFunction,Paste,Bot*
G04 #@! TF.FilePolarity,Positive*
%FSLAX46Y46*%
G04 Gerber Fmt 4.6, Leading zero omitted, Abs format (unit mm)*
G04 Created by KiCad (PCBNEW 6.0.11+dfsg-1~bpo11+1) date 2023-05-25 13:31:40*
%MOMM*%
%LPD*%
G01*
G04 APERTURE LIST*
G04 Aperture macros list*
%AMRoundRect*
0 Rectangle with rounded corners*
0 $1 Rounding radius*
0 $2 $3 $4 $5 $6 $7 $8 $9 X,Y pos of 4 corners*
0 Add a 4 corners polygon primitive as box body*
4,1,4,$2,$3,$4,$5,$6,$7,$8,$9,$2,$3,0*
0 Add four circle primitives for the rounded corners*
1,1,$1+$1,$2,$3*
1,1,$1+$1,$4,$5*
1,1,$1+$1,$6,$7*
1,1,$1+$1,$8,$9*
0 Add four rect primitives between the rounded corners*
20,1,$1+$1,$2,$3,$4,$5,0*
20,1,$1+$1,$4,$5,$6,$7,0*
20,1,$1+$1,$6,$7,$8,$9,0*
20,1,$1+$1,$8,$9,$2,$3,0*%
G04 Aperture macros list end*
%ADD10C,0.120000*%
%ADD11C,0.100000*%
%ADD12C,0.010000*%
%ADD13C,0.850000*%
%ADD14RoundRect,0.147500X0.172500X-0.147500X0.172500X0.147500X-0.172500X0.147500X-0.172500X-0.147500X0*%
%ADD15RoundRect,0.120000X-0.280000X0.180000X-0.280000X-0.180000X0.280000X-0.180000X0.280000X0.180000X0*%
%ADD16RoundRect,0.120000X0.280000X-0.180000X0.280000X0.180000X-0.280000X0.180000X-0.280000X-0.180000X0*%
%ADD17R,1.550000X0.300000*%
%ADD18R,2.750000X1.200000*%
%ADD19R,1.200000X1.200000*%
%ADD20RoundRect,0.147500X0.147500X0.172500X-0.147500X0.172500X-0.147500X-0.172500X0.147500X-0.172500X0*%
%ADD21R,0.740000X0.220000*%
%ADD22RoundRect,0.337500X0.337500X1.062500X-0.337500X1.062500X-0.337500X-1.062500X0.337500X-1.062500X0*%
%ADD23R,3.050000X1.520000*%
%ADD24RoundRect,0.147500X-0.172500X0.147500X-0.172500X-0.147500X0.172500X-0.147500X0.172500X0.147500X0*%
%ADD25R,1.750000X0.700000*%
%ADD26R,1.000000X1.400000*%
%ADD27R,1.400000X1.000000*%
%ADD28R,1.500000X0.800000*%
%ADD29R,1.500000X1.500000*%
%ADD30R,1.500000X1.300000*%
%ADD31RoundRect,0.180000X-0.420000X-0.720000X0.420000X-0.720000X0.420000X0.720000X-0.420000X0.720000X0*%
%ADD32R,1.520000X3.050000*%
%ADD33R,0.700000X1.200000*%
%ADD34R,1.630000X0.300000*%
%ADD35R,1.800000X0.300000*%
%ADD36RoundRect,0.180000X-0.720000X0.420000X-0.720000X-0.420000X0.720000X-0.420000X0.720000X0.420000X0*%
%ADD37RoundRect,0.180000X0.720000X-0.420000X0.720000X0.420000X-0.720000X0.420000X-0.720000X-0.420000X0*%
%ADD38RoundRect,0.162500X-0.600000X0.162500X-0.600000X-0.162500X0.600000X-0.162500X0.600000X0.162500X0*%
%ADD39RoundRect,0.114500X-1.030500X-1.435500X1.030500X-1.435500X1.030500X1.435500X-1.030500X1.435500X0*%
%ADD40RoundRect,0.147500X-0.147500X-0.172500X0.147500X-0.172500X0.147500X0.172500X-0.147500X0.172500X0*%
%ADD41R,1.143000X2.032000*%
%ADD42RoundRect,0.200000X0.800000X0.850000X-0.800000X0.850000X-0.800000X-0.850000X0.800000X-0.850000X0*%
%ADD43RoundRect,0.250000X0.650000X2.450000X-0.650000X2.450000X-0.650000X-2.450000X0.650000X-2.450000X0*%
%ADD44RoundRect,0.150000X-0.350000X-0.550000X0.350000X-0.550000X0.350000X0.550000X-0.350000X0.550000X0*%
%ADD45RoundRect,0.250000X0.250000X-0.650000X0.250000X0.650000X-0.250000X0.650000X-0.250000X-0.650000X0*%
%ADD46RoundRect,0.250000X-0.250000X0.650000X-0.250000X-0.650000X0.250000X-0.650000X0.250000X0.650000X0*%
%ADD47RoundRect,0.200000X0.850000X-0.800000X0.850000X0.800000X-0.850000X0.800000X-0.850000X-0.800000X0*%
G04 APERTURE END LIST*
D10*
X141088000Y-75202000D02*
X141088000Y-78557000D01*
X140188000Y-76308000D02*
X140188000Y-77457000D01*
X141289000Y-75104000D02*
X141289000Y-78657000D01*
X143589000Y-78028000D02*
X143589000Y-75718000D01*
X143089000Y-78502000D02*
X143089000Y-75253000D01*
X140488000Y-75729000D02*
X140488000Y-78037000D01*
X143288000Y-78353000D02*
X143288000Y-75408000D01*
X142787000Y-78653000D02*
X142787000Y-75098000D01*
X142689000Y-78702000D02*
X142689000Y-75053000D01*
X143389000Y-78252000D02*
X143389000Y-75503000D01*
X141189000Y-75152000D02*
X141189000Y-78617000D01*
X140688000Y-75503000D02*
X140688000Y-78252000D01*
X143687000Y-77877000D02*
X143687000Y-75853000D01*
X142887000Y-78603000D02*
X142887000Y-75138000D01*
X141387000Y-75053000D02*
X141387000Y-78702000D01*
X140388000Y-75879000D02*
X140388000Y-77902000D01*
X142589000Y-75007000D02*
X142589000Y-78738000D01*
X140988000Y-75253000D02*
X140988000Y-78502000D01*
X143187000Y-78428000D02*
X143187000Y-75327000D01*
X142988000Y-78553000D02*
X142988000Y-75198000D01*
X140589000Y-75604000D02*
X140589000Y-78153000D01*
X141487000Y-78748000D02*
X141487000Y-75017000D01*
X140789000Y-75402000D02*
X140789000Y-78347000D01*
X143488000Y-78153000D02*
X143488000Y-75604000D01*
X143889000Y-77448000D02*
X143889000Y-76299000D01*
X143788000Y-77698000D02*
X143788000Y-76048000D01*
X140289000Y-76058000D02*
X140289000Y-77708000D01*
X140888000Y-75327000D02*
X140888000Y-78428000D01*
D11*
X141481000Y-75004999D02*
G75*
G03*
X141487000Y-78752000I557967J-1872612D01*
G01*
X142595000Y-78752000D02*
G75*
G03*
X142589000Y-75003000I-557907J1873612D01*
G01*
D10*
X110687000Y-78653000D02*
X110687000Y-75098000D01*
X111789000Y-77448000D02*
X111789000Y-76299000D01*
X109089000Y-75152000D02*
X109089000Y-78617000D01*
X111688000Y-77698000D02*
X111688000Y-76048000D01*
X108788000Y-75327000D02*
X108788000Y-78428000D01*
X108189000Y-76058000D02*
X108189000Y-77708000D01*
X108088000Y-76308000D02*
X108088000Y-77457000D01*
X108489000Y-75604000D02*
X108489000Y-78153000D01*
X108988000Y-75202000D02*
X108988000Y-78557000D01*
X111489000Y-78028000D02*
X111489000Y-75718000D01*
X110888000Y-78553000D02*
X110888000Y-75198000D01*
X110989000Y-78502000D02*
X110989000Y-75253000D01*
X111188000Y-78353000D02*
X111188000Y-75408000D01*
X108689000Y-75402000D02*
X108689000Y-78347000D01*
X110787000Y-78603000D02*
X110787000Y-75138000D01*
X109387000Y-78748000D02*
X109387000Y-75017000D01*
X108388000Y-75729000D02*
X108388000Y-78037000D01*
X111587000Y-77877000D02*
X111587000Y-75853000D01*
X110489000Y-75007000D02*
X110489000Y-78738000D01*
X108588000Y-75503000D02*
X108588000Y-78252000D01*
X109189000Y-75104000D02*
X109189000Y-78657000D01*
X109287000Y-75053000D02*
X109287000Y-78702000D01*
X108888000Y-75253000D02*
X108888000Y-78502000D01*
X110589000Y-78702000D02*
X110589000Y-75053000D01*
X111388000Y-78153000D02*
X111388000Y-75604000D01*
X108288000Y-75879000D02*
X108288000Y-77902000D01*
X111087000Y-78428000D02*
X111087000Y-75327000D01*
X111289000Y-78252000D02*
X111289000Y-75503000D01*
D11*
X109381000Y-75004999D02*
G75*
G03*
X109387000Y-78752000I557967J-1872612D01*
G01*
X110495000Y-78752000D02*
G75*
G03*
X110489000Y-75003000I-557907J1873612D01*
G01*
G36*
X200127000Y-86748000D02*
G01*
X200145000Y-86759000D01*
X200163000Y-86771000D01*
X200181000Y-86782000D01*
X200198000Y-86794000D01*
X200249000Y-86833000D01*
X200265000Y-86846000D01*
X200281000Y-86860000D01*
X200297000Y-86875000D01*
X200312000Y-86889000D01*
X200342000Y-86919000D01*
X200384000Y-86967000D01*
X200397000Y-86984000D01*
X200410000Y-87000000D01*
X200423000Y-87018000D01*
X200435000Y-87035000D01*
X200447000Y-87053000D01*
X200458000Y-87070000D01*
X200469000Y-87089000D01*
X200480000Y-87107000D01*
X200490000Y-87126000D01*
X200500000Y-87144000D01*
X200509000Y-87163000D01*
X200518000Y-87183000D01*
X200529000Y-87209000D01*
X200543000Y-87251000D01*
X200555000Y-87294000D01*
X200565000Y-87337000D01*
X200572000Y-87381000D01*
X200577000Y-87425000D01*
X200580000Y-87470000D01*
X200580000Y-87514000D01*
X200578000Y-87559000D01*
X200574000Y-87603000D01*
X200568000Y-87647000D01*
X200559000Y-87691000D01*
X200548000Y-87734000D01*
X200534000Y-87776000D01*
X200519000Y-87818000D01*
X200501000Y-87859000D01*
X200481000Y-87899000D01*
X200459000Y-87937000D01*
X200435000Y-87975000D01*
X200409000Y-88011000D01*
X200382000Y-88046000D01*
X200352000Y-88079000D01*
X200321000Y-88111000D01*
X200288000Y-88141000D01*
X200254000Y-88169000D01*
X200218000Y-88196000D01*
X200181000Y-88220000D01*
X200143000Y-88243000D01*
X200103000Y-88263000D01*
X200063000Y-88282000D01*
X200021000Y-88298000D01*
X199979000Y-88312000D01*
X199936000Y-88324000D01*
X199893000Y-88334000D01*
X199849000Y-88341000D01*
X199805000Y-88346000D01*
X199760000Y-88349000D01*
X199716000Y-88349000D01*
X199671000Y-88347000D01*
X199627000Y-88343000D01*
X199583000Y-88337000D01*
X199539000Y-88328000D01*
X199496000Y-88317000D01*
X199454000Y-88303000D01*
X199412000Y-88288000D01*
X199371000Y-88270000D01*
X199331000Y-88250000D01*
X199293000Y-88228000D01*
X199255000Y-88204000D01*
X199219000Y-88178000D01*
X199184000Y-88151000D01*
X199151000Y-88121000D01*
X199119000Y-88090000D01*
X199089000Y-88057000D01*
X199061000Y-88023000D01*
X199034000Y-87987000D01*
X199010000Y-87950000D01*
X198987000Y-87912000D01*
X198967000Y-87872000D01*
X198948000Y-87832000D01*
X198932000Y-87790000D01*
X198925000Y-87770000D01*
X198918000Y-87749000D01*
X198906000Y-87707000D01*
X198901000Y-87686000D01*
X198897000Y-87664000D01*
X198893000Y-87643000D01*
X198889000Y-87621000D01*
X198886000Y-87600000D01*
X198882000Y-87556000D01*
X198881000Y-87535000D01*
X198881000Y-87513000D01*
X198880000Y-87491000D01*
X198882000Y-87447000D01*
X198884000Y-87426000D01*
X198888000Y-87382000D01*
X198892000Y-87361000D01*
X198895000Y-87339000D01*
X198910000Y-87276000D01*
X198916000Y-87255000D01*
X198930000Y-87213000D01*
X198937000Y-87193000D01*
X198945000Y-87173000D01*
X198953000Y-87155000D01*
X200104000Y-86736000D01*
X200127000Y-86748000D01*
G37*
D12*
X200127000Y-86748000D02*
X200145000Y-86759000D01*
X200163000Y-86771000D01*
X200181000Y-86782000D01*
X200198000Y-86794000D01*
X200249000Y-86833000D01*
X200265000Y-86846000D01*
X200281000Y-86860000D01*
X200297000Y-86875000D01*
X200312000Y-86889000D01*
X200342000Y-86919000D01*
X200384000Y-86967000D01*
X200397000Y-86984000D01*
X200410000Y-87000000D01*
X200423000Y-87018000D01*
X200435000Y-87035000D01*
X200447000Y-87053000D01*
X200458000Y-87070000D01*
X200469000Y-87089000D01*
X200480000Y-87107000D01*
X200490000Y-87126000D01*
X200500000Y-87144000D01*
X200509000Y-87163000D01*
X200518000Y-87183000D01*
X200529000Y-87209000D01*
X200543000Y-87251000D01*
X200555000Y-87294000D01*
X200565000Y-87337000D01*
X200572000Y-87381000D01*
X200577000Y-87425000D01*
X200580000Y-87470000D01*
X200580000Y-87514000D01*
X200578000Y-87559000D01*
X200574000Y-87603000D01*
X200568000Y-87647000D01*
X200559000Y-87691000D01*
X200548000Y-87734000D01*
X200534000Y-87776000D01*
X200519000Y-87818000D01*
X200501000Y-87859000D01*
X200481000Y-87899000D01*
X200459000Y-87937000D01*
X200435000Y-87975000D01*
X200409000Y-88011000D01*
X200382000Y-88046000D01*
X200352000Y-88079000D01*
X200321000Y-88111000D01*
X200288000Y-88141000D01*
X200254000Y-88169000D01*
X200218000Y-88196000D01*
X200181000Y-88220000D01*
X200143000Y-88243000D01*
X200103000Y-88263000D01*
X200063000Y-88282000D01*
X200021000Y-88298000D01*
X199979000Y-88312000D01*
X199936000Y-88324000D01*
X199893000Y-88334000D01*
X199849000Y-88341000D01*
X199805000Y-88346000D01*
X199760000Y-88349000D01*
X199716000Y-88349000D01*
X199671000Y-88347000D01*
X199627000Y-88343000D01*
X199583000Y-88337000D01*
X199539000Y-88328000D01*
X199496000Y-88317000D01*
X199454000Y-88303000D01*
X199412000Y-88288000D01*
X199371000Y-88270000D01*
X199331000Y-88250000D01*
X199293000Y-88228000D01*
X199255000Y-88204000D01*
X199219000Y-88178000D01*
X199184000Y-88151000D01*
X199151000Y-88121000D01*
X199119000Y-88090000D01*
X199089000Y-88057000D01*
X199061000Y-88023000D01*
X199034000Y-87987000D01*
X199010000Y-87950000D01*
X198987000Y-87912000D01*
X198967000Y-87872000D01*
X198948000Y-87832000D01*
X198932000Y-87790000D01*
X198925000Y-87770000D01*
X198918000Y-87749000D01*
X198906000Y-87707000D01*
X198901000Y-87686000D01*
X198897000Y-87664000D01*
X198893000Y-87643000D01*
X198889000Y-87621000D01*
X198886000Y-87600000D01*
X198882000Y-87556000D01*
X198881000Y-87535000D01*
X198881000Y-87513000D01*
X198880000Y-87491000D01*
X198882000Y-87447000D01*
X198884000Y-87426000D01*
X198888000Y-87382000D01*
X198892000Y-87361000D01*
X198895000Y-87339000D01*
X198910000Y-87276000D01*
X198916000Y-87255000D01*
X198930000Y-87213000D01*
X198937000Y-87193000D01*
X198945000Y-87173000D01*
X198953000Y-87155000D01*
X200104000Y-86736000D01*
X200127000Y-86748000D01*
G36*
X199805000Y-65053000D02*
G01*
X199849000Y-65058000D01*
X199893000Y-65065000D01*
X199936000Y-65075000D01*
X199979000Y-65087000D01*
X200021000Y-65101000D01*
X200063000Y-65117000D01*
X200103000Y-65136000D01*
X200143000Y-65156000D01*
X200181000Y-65179000D01*
X200218000Y-65203000D01*
X200254000Y-65230000D01*
X200288000Y-65258000D01*
X200321000Y-65288000D01*
X200352000Y-65320000D01*
X200382000Y-65353000D01*
X200409000Y-65388000D01*
X200435000Y-65424000D01*
X200459000Y-65462000D01*
X200481000Y-65500000D01*
X200501000Y-65540000D01*
X200519000Y-65581000D01*
X200534000Y-65623000D01*
X200548000Y-65665000D01*
X200559000Y-65708000D01*
X200568000Y-65752000D01*
X200574000Y-65796000D01*
X200578000Y-65840000D01*
X200580000Y-65885000D01*
X200580000Y-65929000D01*
X200577000Y-65974000D01*
X200572000Y-66018000D01*
X200565000Y-66062000D01*
X200555000Y-66105000D01*
X200543000Y-66148000D01*
X200522000Y-66211000D01*
X200513000Y-66231000D01*
X200505000Y-66251000D01*
X200495000Y-66270000D01*
X200486000Y-66290000D01*
X200475000Y-66309000D01*
X200465000Y-66328000D01*
X200453000Y-66347000D01*
X200442000Y-66365000D01*
X200429000Y-66383000D01*
X200417000Y-66401000D01*
X200404000Y-66419000D01*
X200390000Y-66436000D01*
X200376000Y-66452000D01*
X200362000Y-66469000D01*
X200347000Y-66485000D01*
X200316000Y-66516000D01*
X200300000Y-66530000D01*
X200284000Y-66545000D01*
X200267000Y-66559000D01*
X200250000Y-66572000D01*
X200233000Y-66586000D01*
X200179000Y-66622000D01*
X200122000Y-66655000D01*
X200104000Y-66663000D01*
X198953000Y-66244000D01*
X198944000Y-66220000D01*
X198937000Y-66200000D01*
X198931000Y-66180000D01*
X198925000Y-66159000D01*
X198919000Y-66139000D01*
X198914000Y-66118000D01*
X198909000Y-66098000D01*
X198901000Y-66056000D01*
X198895000Y-66014000D01*
X198889000Y-65951000D01*
X198888000Y-65930000D01*
X198888000Y-65866000D01*
X198890000Y-65824000D01*
X198892000Y-65803000D01*
X198895000Y-65782000D01*
X198897000Y-65760000D01*
X198901000Y-65740000D01*
X198904000Y-65719000D01*
X198908000Y-65698000D01*
X198913000Y-65677000D01*
X198918000Y-65657000D01*
X198924000Y-65636000D01*
X198932000Y-65609000D01*
X198948000Y-65567000D01*
X198967000Y-65527000D01*
X198987000Y-65487000D01*
X199010000Y-65449000D01*
X199034000Y-65412000D01*
X199061000Y-65376000D01*
X199089000Y-65342000D01*
X199119000Y-65309000D01*
X199151000Y-65278000D01*
X199184000Y-65248000D01*
X199219000Y-65221000D01*
X199255000Y-65195000D01*
X199293000Y-65171000D01*
X199331000Y-65149000D01*
X199371000Y-65129000D01*
X199412000Y-65111000D01*
X199454000Y-65096000D01*
X199496000Y-65082000D01*
X199539000Y-65071000D01*
X199583000Y-65062000D01*
X199627000Y-65056000D01*
X199671000Y-65052000D01*
X199716000Y-65050000D01*
X199760000Y-65050000D01*
X199805000Y-65053000D01*
G37*
X199805000Y-65053000D02*
X199849000Y-65058000D01*
X199893000Y-65065000D01*
X199936000Y-65075000D01*
X199979000Y-65087000D01*
X200021000Y-65101000D01*
X200063000Y-65117000D01*
X200103000Y-65136000D01*
X200143000Y-65156000D01*
X200181000Y-65179000D01*
X200218000Y-65203000D01*
X200254000Y-65230000D01*
X200288000Y-65258000D01*
X200321000Y-65288000D01*
X200352000Y-65320000D01*
X200382000Y-65353000D01*
X200409000Y-65388000D01*
X200435000Y-65424000D01*
X200459000Y-65462000D01*
X200481000Y-65500000D01*
X200501000Y-65540000D01*
X200519000Y-65581000D01*
X200534000Y-65623000D01*
X200548000Y-65665000D01*
X200559000Y-65708000D01*
X200568000Y-65752000D01*
X200574000Y-65796000D01*
X200578000Y-65840000D01*
X200580000Y-65885000D01*
X200580000Y-65929000D01*
X200577000Y-65974000D01*
X200572000Y-66018000D01*
X200565000Y-66062000D01*
X200555000Y-66105000D01*
X200543000Y-66148000D01*
X200522000Y-66211000D01*
X200513000Y-66231000D01*
X200505000Y-66251000D01*
X200495000Y-66270000D01*
X200486000Y-66290000D01*
X200475000Y-66309000D01*
X200465000Y-66328000D01*
X200453000Y-66347000D01*
X200442000Y-66365000D01*
X200429000Y-66383000D01*
X200417000Y-66401000D01*
X200404000Y-66419000D01*
X200390000Y-66436000D01*
X200376000Y-66452000D01*
X200362000Y-66469000D01*
X200347000Y-66485000D01*
X200316000Y-66516000D01*
X200300000Y-66530000D01*
X200284000Y-66545000D01*
X200267000Y-66559000D01*
X200250000Y-66572000D01*
X200233000Y-66586000D01*
X200179000Y-66622000D01*
X200122000Y-66655000D01*
X200104000Y-66663000D01*
X198953000Y-66244000D01*
X198944000Y-66220000D01*
X198937000Y-66200000D01*
X198931000Y-66180000D01*
X198925000Y-66159000D01*
X198919000Y-66139000D01*
X198914000Y-66118000D01*
X198909000Y-66098000D01*
X198901000Y-66056000D01*
X198895000Y-66014000D01*
X198889000Y-65951000D01*
X198888000Y-65930000D01*
X198888000Y-65866000D01*
X198890000Y-65824000D01*
X198892000Y-65803000D01*
X198895000Y-65782000D01*
X198897000Y-65760000D01*
X198901000Y-65740000D01*
X198904000Y-65719000D01*
X198908000Y-65698000D01*
X198913000Y-65677000D01*
X198918000Y-65657000D01*
X198924000Y-65636000D01*
X198932000Y-65609000D01*
X198948000Y-65567000D01*
X198967000Y-65527000D01*
X198987000Y-65487000D01*
X199010000Y-65449000D01*
X199034000Y-65412000D01*
X199061000Y-65376000D01*
X199089000Y-65342000D01*
X199119000Y-65309000D01*
X199151000Y-65278000D01*
X199184000Y-65248000D01*
X199219000Y-65221000D01*
X199255000Y-65195000D01*
X199293000Y-65171000D01*
X199331000Y-65149000D01*
X199371000Y-65129000D01*
X199412000Y-65111000D01*
X199454000Y-65096000D01*
X199496000Y-65082000D01*
X199539000Y-65071000D01*
X199583000Y-65062000D01*
X199627000Y-65056000D01*
X199671000Y-65052000D01*
X199716000Y-65050000D01*
X199760000Y-65050000D01*
X199805000Y-65053000D01*
G36*
X200926000Y-67032000D02*
G01*
X200948000Y-67034000D01*
X200990000Y-67038000D01*
X201032000Y-67044000D01*
X201053000Y-67048000D01*
X201080000Y-67053000D01*
X201123000Y-67066000D01*
X201165000Y-67081000D01*
X201206000Y-67098000D01*
X201246000Y-67117000D01*
X201285000Y-67138000D01*
X201323000Y-67162000D01*
X201360000Y-67187000D01*
X201395000Y-67214000D01*
X201429000Y-67243000D01*
X201462000Y-67273000D01*
X201492000Y-67306000D01*
X201521000Y-67340000D01*
X201548000Y-67375000D01*
X201573000Y-67412000D01*
X201597000Y-67450000D01*
X201618000Y-67489000D01*
X201637000Y-67529000D01*
X201654000Y-67570000D01*
X201669000Y-67612000D01*
X201682000Y-67655000D01*
X201692000Y-67698000D01*
X201700000Y-67742000D01*
X201706000Y-67786000D01*
X201709000Y-67830000D01*
X201710000Y-67875000D01*
X201709000Y-67919000D01*
X201706000Y-67963000D01*
X201700000Y-68007000D01*
X201692000Y-68051000D01*
X201682000Y-68094000D01*
X201669000Y-68137000D01*
X201654000Y-68179000D01*
X201637000Y-68220000D01*
X201618000Y-68260000D01*
X201597000Y-68299000D01*
X201573000Y-68337000D01*
X201548000Y-68374000D01*
X201521000Y-68409000D01*
X201492000Y-68443000D01*
X201462000Y-68476000D01*
X201429000Y-68506000D01*
X201395000Y-68535000D01*
X201360000Y-68562000D01*
X201323000Y-68587000D01*
X201285000Y-68611000D01*
X201246000Y-68632000D01*
X201206000Y-68651000D01*
X201165000Y-68668000D01*
X201123000Y-68683000D01*
X201080000Y-68696000D01*
X201037000Y-68706000D01*
X200993000Y-68714000D01*
X200949000Y-68720000D01*
X200905000Y-68723000D01*
X200860000Y-68724000D01*
X200816000Y-68723000D01*
X200772000Y-68720000D01*
X200728000Y-68714000D01*
X200684000Y-68706000D01*
X200641000Y-68696000D01*
X200620000Y-68690000D01*
X200578000Y-68676000D01*
X200558000Y-68669000D01*
X200537000Y-68661000D01*
X200497000Y-68643000D01*
X200478000Y-68634000D01*
X200458000Y-68623000D01*
X200439000Y-68613000D01*
X200421000Y-68602000D01*
X200402000Y-68590000D01*
X200366000Y-68566000D01*
X200348000Y-68553000D01*
X200331000Y-68540000D01*
X200314000Y-68526000D01*
X200298000Y-68512000D01*
X200250000Y-68467000D01*
X200235000Y-68451000D01*
X200221000Y-68435000D01*
X200193000Y-68401000D01*
X200180000Y-68384000D01*
X200154000Y-68348000D01*
X200142000Y-68330000D01*
X200132000Y-68313000D01*
X200449000Y-67130000D01*
X200473000Y-67119000D01*
X200492000Y-67110000D01*
X200512000Y-67102000D01*
X200531000Y-67094000D01*
X200571000Y-67080000D01*
X200591000Y-67074000D01*
X200612000Y-67068000D01*
X200632000Y-67062000D01*
X200653000Y-67057000D01*
X200673000Y-67052000D01*
X200715000Y-67044000D01*
X200757000Y-67038000D01*
X200820000Y-67032000D01*
X200842000Y-67032000D01*
X200863000Y-67031000D01*
X200905000Y-67031000D01*
X200926000Y-67032000D01*
G37*
X200926000Y-67032000D02*
X200948000Y-67034000D01*
X200990000Y-67038000D01*
X201032000Y-67044000D01*
X201053000Y-67048000D01*
X201080000Y-67053000D01*
X201123000Y-67066000D01*
X201165000Y-67081000D01*
X201206000Y-67098000D01*
X201246000Y-67117000D01*
X201285000Y-67138000D01*
X201323000Y-67162000D01*
X201360000Y-67187000D01*
X201395000Y-67214000D01*
X201429000Y-67243000D01*
X201462000Y-67273000D01*
X201492000Y-67306000D01*
X201521000Y-67340000D01*
X201548000Y-67375000D01*
X201573000Y-67412000D01*
X201597000Y-67450000D01*
X201618000Y-67489000D01*
X201637000Y-67529000D01*
X201654000Y-67570000D01*
X201669000Y-67612000D01*
X201682000Y-67655000D01*
X201692000Y-67698000D01*
X201700000Y-67742000D01*
X201706000Y-67786000D01*
X201709000Y-67830000D01*
X201710000Y-67875000D01*
X201709000Y-67919000D01*
X201706000Y-67963000D01*
X201700000Y-68007000D01*
X201692000Y-68051000D01*
X201682000Y-68094000D01*
X201669000Y-68137000D01*
X201654000Y-68179000D01*
X201637000Y-68220000D01*
X201618000Y-68260000D01*
X201597000Y-68299000D01*
X201573000Y-68337000D01*
X201548000Y-68374000D01*
X201521000Y-68409000D01*
X201492000Y-68443000D01*
X201462000Y-68476000D01*
X201429000Y-68506000D01*
X201395000Y-68535000D01*
X201360000Y-68562000D01*
X201323000Y-68587000D01*
X201285000Y-68611000D01*
X201246000Y-68632000D01*
X201206000Y-68651000D01*
X201165000Y-68668000D01*
X201123000Y-68683000D01*
X201080000Y-68696000D01*
X201037000Y-68706000D01*
X200993000Y-68714000D01*
X200949000Y-68720000D01*
X200905000Y-68723000D01*
X200860000Y-68724000D01*
X200816000Y-68723000D01*
X200772000Y-68720000D01*
X200728000Y-68714000D01*
X200684000Y-68706000D01*
X200641000Y-68696000D01*
X200620000Y-68690000D01*
X200578000Y-68676000D01*
X200558000Y-68669000D01*
X200537000Y-68661000D01*
X200497000Y-68643000D01*
X200478000Y-68634000D01*
X200458000Y-68623000D01*
X200439000Y-68613000D01*
X200421000Y-68602000D01*
X200402000Y-68590000D01*
X200366000Y-68566000D01*
X200348000Y-68553000D01*
X200331000Y-68540000D01*
X200314000Y-68526000D01*
X200298000Y-68512000D01*
X200250000Y-68467000D01*
X200235000Y-68451000D01*
X200221000Y-68435000D01*
X200193000Y-68401000D01*
X200180000Y-68384000D01*
X200154000Y-68348000D01*
X200142000Y-68330000D01*
X200132000Y-68313000D01*
X200449000Y-67130000D01*
X200473000Y-67119000D01*
X200492000Y-67110000D01*
X200512000Y-67102000D01*
X200531000Y-67094000D01*
X200571000Y-67080000D01*
X200591000Y-67074000D01*
X200612000Y-67068000D01*
X200632000Y-67062000D01*
X200653000Y-67057000D01*
X200673000Y-67052000D01*
X200715000Y-67044000D01*
X200757000Y-67038000D01*
X200820000Y-67032000D01*
X200842000Y-67032000D01*
X200863000Y-67031000D01*
X200905000Y-67031000D01*
X200926000Y-67032000D01*
G36*
X200905000Y-84676000D02*
G01*
X200949000Y-84679000D01*
X200993000Y-84685000D01*
X201037000Y-84693000D01*
X201080000Y-84703000D01*
X201123000Y-84716000D01*
X201165000Y-84731000D01*
X201206000Y-84748000D01*
X201246000Y-84767000D01*
X201285000Y-84788000D01*
X201323000Y-84812000D01*
X201360000Y-84837000D01*
X201395000Y-84864000D01*
X201429000Y-84893000D01*
X201462000Y-84923000D01*
X201492000Y-84956000D01*
X201521000Y-84990000D01*
X201548000Y-85025000D01*
X201573000Y-85062000D01*
X201597000Y-85100000D01*
X201618000Y-85139000D01*
X201637000Y-85179000D01*
X201654000Y-85220000D01*
X201669000Y-85262000D01*
X201682000Y-85305000D01*
X201692000Y-85348000D01*
X201700000Y-85392000D01*
X201706000Y-85436000D01*
X201709000Y-85480000D01*
X201710000Y-85524000D01*
X201709000Y-85569000D01*
X201706000Y-85613000D01*
X201700000Y-85657000D01*
X201692000Y-85701000D01*
X201682000Y-85744000D01*
X201669000Y-85787000D01*
X201654000Y-85829000D01*
X201637000Y-85870000D01*
X201618000Y-85910000D01*
X201597000Y-85949000D01*
X201573000Y-85987000D01*
X201548000Y-86024000D01*
X201521000Y-86059000D01*
X201492000Y-86093000D01*
X201462000Y-86126000D01*
X201429000Y-86156000D01*
X201395000Y-86185000D01*
X201360000Y-86212000D01*
X201323000Y-86237000D01*
X201285000Y-86261000D01*
X201246000Y-86282000D01*
X201206000Y-86301000D01*
X201165000Y-86318000D01*
X201123000Y-86333000D01*
X201080000Y-86346000D01*
X201038000Y-86356000D01*
X201017000Y-86360000D01*
X200995000Y-86364000D01*
X200974000Y-86367000D01*
X200952000Y-86370000D01*
X200930000Y-86372000D01*
X200909000Y-86373000D01*
X200865000Y-86375000D01*
X200843000Y-86374000D01*
X200821000Y-86374000D01*
X200800000Y-86372000D01*
X200778000Y-86371000D01*
X200756000Y-86368000D01*
X200735000Y-86365000D01*
X200713000Y-86362000D01*
X200692000Y-86358000D01*
X200670000Y-86353000D01*
X200649000Y-86348000D01*
X200607000Y-86336000D01*
X200587000Y-86329000D01*
X200566000Y-86322000D01*
X200526000Y-86306000D01*
X200486000Y-86288000D01*
X200466000Y-86278000D01*
X200449000Y-86269000D01*
X200132000Y-85086000D01*
X200147000Y-85064000D01*
X200159000Y-85047000D01*
X200185000Y-85013000D01*
X200227000Y-84965000D01*
X200242000Y-84950000D01*
X200256000Y-84935000D01*
X200272000Y-84920000D01*
X200287000Y-84906000D01*
X200319000Y-84878000D01*
X200370000Y-84839000D01*
X200387000Y-84827000D01*
X200405000Y-84815000D01*
X200459000Y-84782000D01*
X200478000Y-84772000D01*
X200496000Y-84762000D01*
X200516000Y-84753000D01*
X200554000Y-84735000D01*
X200574000Y-84727000D01*
X200594000Y-84720000D01*
X200613000Y-84712000D01*
X200641000Y-84703000D01*
X200684000Y-84693000D01*
X200728000Y-84685000D01*
X200772000Y-84679000D01*
X200816000Y-84676000D01*
X200860000Y-84675000D01*
X200905000Y-84676000D01*
G37*
X200905000Y-84676000D02*
X200949000Y-84679000D01*
X200993000Y-84685000D01*
X201037000Y-84693000D01*
X201080000Y-84703000D01*
X201123000Y-84716000D01*
X201165000Y-84731000D01*
X201206000Y-84748000D01*
X201246000Y-84767000D01*
X201285000Y-84788000D01*
X201323000Y-84812000D01*
X201360000Y-84837000D01*
X201395000Y-84864000D01*
X201429000Y-84893000D01*
X201462000Y-84923000D01*
X201492000Y-84956000D01*
X201521000Y-84990000D01*
X201548000Y-85025000D01*
X201573000Y-85062000D01*
X201597000Y-85100000D01*
X201618000Y-85139000D01*
X201637000Y-85179000D01*
X201654000Y-85220000D01*
X201669000Y-85262000D01*
X201682000Y-85305000D01*
X201692000Y-85348000D01*
X201700000Y-85392000D01*
X201706000Y-85436000D01*
X201709000Y-85480000D01*
X201710000Y-85524000D01*
X201709000Y-85569000D01*
X201706000Y-85613000D01*
X201700000Y-85657000D01*
X201692000Y-85701000D01*
X201682000Y-85744000D01*
X201669000Y-85787000D01*
X201654000Y-85829000D01*
X201637000Y-85870000D01*
X201618000Y-85910000D01*
X201597000Y-85949000D01*
X201573000Y-85987000D01*
X201548000Y-86024000D01*
X201521000Y-86059000D01*
X201492000Y-86093000D01*
X201462000Y-86126000D01*
X201429000Y-86156000D01*
X201395000Y-86185000D01*
X201360000Y-86212000D01*
X201323000Y-86237000D01*
X201285000Y-86261000D01*
X201246000Y-86282000D01*
X201206000Y-86301000D01*
X201165000Y-86318000D01*
X201123000Y-86333000D01*
X201080000Y-86346000D01*
X201038000Y-86356000D01*
X201017000Y-86360000D01*
X200995000Y-86364000D01*
X200974000Y-86367000D01*
X200952000Y-86370000D01*
X200930000Y-86372000D01*
X200909000Y-86373000D01*
X200865000Y-86375000D01*
X200843000Y-86374000D01*
X200821000Y-86374000D01*
X200800000Y-86372000D01*
X200778000Y-86371000D01*
X200756000Y-86368000D01*
X200735000Y-86365000D01*
X200713000Y-86362000D01*
X200692000Y-86358000D01*
X200670000Y-86353000D01*
X200649000Y-86348000D01*
X200607000Y-86336000D01*
X200587000Y-86329000D01*
X200566000Y-86322000D01*
X200526000Y-86306000D01*
X200486000Y-86288000D01*
X200466000Y-86278000D01*
X200449000Y-86269000D01*
X200132000Y-85086000D01*
X200147000Y-85064000D01*
X200159000Y-85047000D01*
X200185000Y-85013000D01*
X200227000Y-84965000D01*
X200242000Y-84950000D01*
X200256000Y-84935000D01*
X200272000Y-84920000D01*
X200287000Y-84906000D01*
X200319000Y-84878000D01*
X200370000Y-84839000D01*
X200387000Y-84827000D01*
X200405000Y-84815000D01*
X200459000Y-84782000D01*
X200478000Y-84772000D01*
X200496000Y-84762000D01*
X200516000Y-84753000D01*
X200554000Y-84735000D01*
X200574000Y-84727000D01*
X200594000Y-84720000D01*
X200613000Y-84712000D01*
X200641000Y-84703000D01*
X200684000Y-84693000D01*
X200728000Y-84685000D01*
X200772000Y-84679000D01*
X200816000Y-84676000D01*
X200860000Y-84675000D01*
X200905000Y-84676000D01*
D13*
X202406000Y-65899000D02*
G75*
G03*
X202406000Y-65899000I-426000J0D01*
G01*
X202404000Y-87500000D02*
G75*
G03*
X202404000Y-87500000I-424000J0D01*
G01*
D14*
X99452000Y-86860000D03*
X99452000Y-85890000D03*
X98436000Y-86860000D03*
X98436000Y-85890000D03*
X97420000Y-86860000D03*
X97420000Y-85890000D03*
X96404000Y-86860000D03*
X96404000Y-85890000D03*
X95388000Y-86860000D03*
X95388000Y-85890000D03*
X94372000Y-86860000D03*
X94372000Y-85890000D03*
D15*
X174546000Y-69446000D03*
X174546000Y-70846000D03*
X177594000Y-69446000D03*
X177594000Y-70846000D03*
D16*
X176070000Y-68052000D03*
X176070000Y-66652000D03*
X173022000Y-81768000D03*
X173022000Y-80368000D03*
D15*
X176070000Y-69446000D03*
X176070000Y-70846000D03*
X177594000Y-85448000D03*
X177594000Y-86848000D03*
D16*
X176070000Y-81768000D03*
X176070000Y-80368000D03*
X174546000Y-81768000D03*
X174546000Y-80368000D03*
D17*
X187314000Y-86127000D03*
X179766000Y-85880000D03*
X187314000Y-85630000D03*
X179766000Y-85380000D03*
X187314000Y-85130000D03*
X179766000Y-84878000D03*
X187314000Y-84629000D03*
X179766000Y-84379000D03*
X187314000Y-84129000D03*
X179766000Y-83879000D03*
X187314000Y-83629000D03*
X179766000Y-83379000D03*
X187314000Y-83129000D03*
X179766000Y-82879000D03*
X187314000Y-82629000D03*
X179766000Y-82379000D03*
X187314000Y-82129000D03*
X179766000Y-81879000D03*
X187314000Y-81629000D03*
X179766000Y-81379000D03*
X187314000Y-81129000D03*
X179766000Y-80879000D03*
X187314000Y-80628000D03*
X179766000Y-80378000D03*
X187314000Y-80128000D03*
X179766000Y-79878000D03*
X187314000Y-79628000D03*
X179766000Y-79378000D03*
X187314000Y-79128000D03*
X179766000Y-78878000D03*
X187314000Y-78629000D03*
X179766000Y-78379000D03*
X187314000Y-78129000D03*
X179766000Y-77879000D03*
X187314000Y-77628000D03*
X179766000Y-77378000D03*
X187314000Y-77128000D03*
X179766000Y-76878000D03*
X187314000Y-76629000D03*
X179766000Y-76379000D03*
X187314000Y-76129000D03*
X179766000Y-75879000D03*
X187314000Y-75628000D03*
X179766000Y-75378000D03*
X187314000Y-75128000D03*
X179766000Y-74878000D03*
X187314000Y-74628000D03*
X179766000Y-74378000D03*
X187314000Y-74128000D03*
X179766000Y-73878000D03*
X187314000Y-73628000D03*
X179766000Y-73378000D03*
X187314000Y-73128000D03*
X179766000Y-72878000D03*
X187314000Y-72629000D03*
X179766000Y-72379000D03*
X187314000Y-72129000D03*
X179766000Y-71879000D03*
X187314000Y-69629000D03*
X179766000Y-69379000D03*
X187314000Y-69129000D03*
X179766000Y-68879000D03*
X187314000Y-68630000D03*
X179766000Y-68380000D03*
X187314000Y-68130000D03*
X179766000Y-67880000D03*
X187314000Y-67630000D03*
D18*
X186539000Y-66528000D03*
X186539000Y-87229000D03*
D16*
X177594000Y-81768000D03*
X177594000Y-80368000D03*
D15*
X173022000Y-85448000D03*
X173022000Y-86848000D03*
D16*
X177594000Y-68052000D03*
X177594000Y-66652000D03*
D19*
X122650000Y-85600000D03*
X120550000Y-85600000D03*
D20*
X129685000Y-83800000D03*
X128715000Y-83800000D03*
D21*
X91659000Y-82941000D03*
X93000000Y-81941000D03*
X91659000Y-81941000D03*
X91659000Y-82441000D03*
X93000000Y-82441000D03*
X93000000Y-82941000D03*
X91659000Y-83440000D03*
X93000000Y-83440000D03*
X93000000Y-83940000D03*
X91659000Y-83940000D03*
X91659000Y-84440000D03*
X93000000Y-84440000D03*
X93000000Y-84940000D03*
X91659000Y-84940000D03*
D19*
X131150000Y-90200000D03*
X133250000Y-90200000D03*
D22*
X128676000Y-86750000D03*
X126325000Y-86750000D03*
D23*
X106306000Y-62567000D03*
X106306000Y-64857000D03*
D20*
X131985000Y-83800000D03*
X131015000Y-83800000D03*
D24*
X88425000Y-88671000D03*
X88425000Y-89641000D03*
D16*
X173022000Y-68052000D03*
X173022000Y-66652000D03*
X174546000Y-68052000D03*
X174546000Y-66652000D03*
D15*
X176070000Y-85448000D03*
X176070000Y-86848000D03*
X174546000Y-85448000D03*
X174546000Y-86848000D03*
D19*
X122650000Y-87800000D03*
X120550000Y-87800000D03*
D14*
X152925800Y-74185400D03*
X152925800Y-73217400D03*
X151935200Y-74185400D03*
X151935200Y-73217400D03*
D25*
X76350000Y-81900000D03*
X76350000Y-83000000D03*
X76350000Y-84099000D03*
X76350000Y-85200000D03*
X76350000Y-86300000D03*
X76350000Y-87399000D03*
X76350000Y-88500000D03*
X76350000Y-89600000D03*
D26*
X85654000Y-90699000D03*
D27*
X87135000Y-79600000D03*
D28*
X84084000Y-91000000D03*
D29*
X76475000Y-79449000D03*
D30*
X76475000Y-90800000D03*
D28*
X84734000Y-79150000D03*
D31*
X102318000Y-59130000D03*
X105317000Y-59130000D03*
D24*
X109387000Y-62153000D03*
X109387000Y-63123000D03*
D32*
X110551000Y-59511000D03*
X108261000Y-59511000D03*
D24*
X154482800Y-73149600D03*
X154482800Y-74119600D03*
X108300000Y-69174000D03*
X108300000Y-70144000D03*
D33*
X133002000Y-88286000D03*
X132052000Y-88286000D03*
X131103000Y-88286000D03*
X131103000Y-85685000D03*
X132052000Y-85685000D03*
X133002000Y-85685000D03*
D24*
X109337000Y-69176000D03*
X109337000Y-70146000D03*
X109390000Y-66011000D03*
X109390000Y-66981000D03*
X134500000Y-85766000D03*
X134500000Y-86734000D03*
D34*
X201245000Y-83949000D03*
D35*
X198581000Y-83949000D03*
D34*
X201245000Y-83449000D03*
D35*
X198581000Y-83449000D03*
D34*
X201245000Y-82949000D03*
D35*
X198581000Y-82949000D03*
D34*
X201245000Y-82449000D03*
D35*
X198581000Y-82449000D03*
D34*
X201245000Y-81949000D03*
D35*
X198581000Y-81949000D03*
D34*
X201245000Y-81449000D03*
D35*
X198581000Y-81449000D03*
D34*
X201245000Y-80949000D03*
D35*
X198581000Y-80949000D03*
D34*
X201245000Y-80449000D03*
D35*
X198581000Y-80449000D03*
D34*
X201245000Y-79949000D03*
D35*
X198581000Y-79949000D03*
D34*
X201245000Y-79449000D03*
D35*
X198581000Y-79449000D03*
D34*
X201245000Y-78949000D03*
D35*
X198581000Y-78949000D03*
D34*
X201245000Y-78449000D03*
D35*
X198581000Y-78449000D03*
D34*
X201245000Y-77949000D03*
D35*
X198581000Y-77949000D03*
D34*
X201245000Y-77449000D03*
D35*
X198581000Y-77449000D03*
D34*
X201245000Y-76949000D03*
D35*
X198581000Y-76949000D03*
D34*
X201245000Y-76450000D03*
D35*
X198581000Y-76450000D03*
D34*
X201245000Y-75950000D03*
D35*
X198581000Y-75950000D03*
D34*
X201245000Y-75450000D03*
D35*
X198581000Y-75450000D03*
D34*
X201245000Y-74950000D03*
D35*
X198581000Y-74950000D03*
D34*
X201245000Y-74450000D03*
D35*
X198581000Y-74450000D03*
D34*
X201245000Y-73950000D03*
D35*
X198581000Y-73950000D03*
D34*
X201245000Y-73450000D03*
D35*
X198581000Y-73450000D03*
D34*
X201245000Y-72950000D03*
D35*
X198581000Y-72950000D03*
D34*
X201245000Y-72450000D03*
D35*
X198581000Y-72450000D03*
D34*
X201245000Y-71950000D03*
D35*
X198581000Y-71950000D03*
D34*
X201245000Y-71450000D03*
D35*
X198581000Y-71450000D03*
D34*
X201245000Y-70950000D03*
D35*
X198581000Y-70950000D03*
D34*
X201245000Y-70450000D03*
D35*
X198581000Y-70450000D03*
D34*
X201245000Y-69950000D03*
D35*
X198581000Y-69950000D03*
D34*
X201245000Y-69450000D03*
D35*
X198581000Y-69450000D03*
D36*
X151600000Y-87500000D03*
X151600000Y-90499000D03*
D37*
X151600000Y-86900000D03*
X151600000Y-83901000D03*
D38*
X96336000Y-93411000D03*
X96336000Y-92141000D03*
X96336000Y-90875000D03*
X96336000Y-89604000D03*
X101762000Y-89604000D03*
X101762000Y-90875000D03*
X101762000Y-92141000D03*
X101762000Y-93411000D03*
D39*
X99050000Y-91506000D03*
D16*
X134800000Y-94196000D03*
X134800000Y-92796000D03*
D40*
X102316000Y-74756000D03*
X103284000Y-74756000D03*
X102316000Y-64506000D03*
X103284000Y-64506000D03*
D14*
X132000000Y-93665000D03*
X132000000Y-92697000D03*
D41*
X128350000Y-91896000D03*
X125650000Y-91896000D03*
D40*
X102315000Y-65706000D03*
X103285000Y-65706000D03*
D16*
X133300000Y-94196000D03*
X133300000Y-92796000D03*
D40*
X102315000Y-68206000D03*
X103285000Y-68206000D03*
D32*
X99145000Y-59506000D03*
X96855000Y-59506000D03*
D42*
X125001000Y-94796000D03*
X129000000Y-94796000D03*
D43*
X114316000Y-85212000D03*
X109216000Y-85212000D03*
D44*
X84100000Y-95301000D03*
X86300000Y-95301000D03*
D45*
X99681000Y-68597000D03*
X97230000Y-68597000D03*
X97230000Y-62896000D03*
X99681000Y-62896000D03*
D44*
X85000000Y-92501000D03*
X87200000Y-92501000D03*
D46*
X96244000Y-74285000D03*
X98695000Y-74285000D03*
X98695000Y-79986000D03*
X96244000Y-79986000D03*
D40*
X102315000Y-70906000D03*
X103285000Y-70906000D03*
D47*
X90500000Y-90007000D03*
X90500000Y-94006000D03*
D40*
X102315000Y-73506000D03*
X103285000Y-73506000D03*
D43*
X114316000Y-91312000D03*
X109216000Y-91312000D03*
D40*
X102301000Y-67006000D03*
X103269000Y-67006000D03*
X102316000Y-72206000D03*
X103284000Y-72206000D03*
D14*
X94650000Y-90791000D03*
X94650000Y-89821000D03*
D19*
X93000000Y-92556000D03*
X93000000Y-90456000D03*
D14*
X94650000Y-93241000D03*
X94650000Y-92271000D03*
M02*
