G04 #@! TF.GenerationSoftware,KiCad,Pcbnew,6.0.11+dfsg-1~bpo11+1*
G04 #@! TF.CreationDate,2023-05-25T13:31:40+02:00*
G04 #@! TF.ProjectId,scalenode-cm4-baseboard,7363616c-656e-46f6-9465-2d636d342d62,1.1.1*
G04 #@! TF.SameCoordinates,Original*
G04 #@! TF.FileFunction,Legend,Bot*
G04 #@! TF.FilePolarity,Positive*
%FSLAX46Y46*%
G04 Gerber Fmt 4.6, Leading zero omitted, Abs format (unit mm)*
G04 Created by KiCad (PCBNEW 6.0.11+dfsg-1~bpo11+1) date 2023-05-25 13:31:40*
%MOMM*%
%LPD*%
G01*
G04 APERTURE LIST*
%ADD10C,0.150000*%
%ADD11C,0.144296*%
%ADD12C,0.125000*%
%ADD13C,0.124000*%
%ADD14C,0.145036*%
%ADD15C,0.174000*%
G04 APERTURE END LIST*
D10*
X112508333Y-74269833D02*
X112408333Y-74303166D01*
X112241666Y-74303166D01*
X112175000Y-74269833D01*
X112141666Y-74236500D01*
X112108333Y-74169833D01*
X112108333Y-74103166D01*
X112141666Y-74036500D01*
X112175000Y-74003166D01*
X112241666Y-73969833D01*
X112375000Y-73936500D01*
X112441666Y-73903166D01*
X112475000Y-73869833D01*
X112508333Y-73803166D01*
X112508333Y-73736500D01*
X112475000Y-73669833D01*
X112441666Y-73636500D01*
X112375000Y-73603166D01*
X112208333Y-73603166D01*
X112108333Y-73636500D01*
X111841666Y-74269833D02*
X111741666Y-74303166D01*
X111575000Y-74303166D01*
X111508333Y-74269833D01*
X111475000Y-74236500D01*
X111441666Y-74169833D01*
X111441666Y-74103166D01*
X111475000Y-74036500D01*
X111508333Y-74003166D01*
X111575000Y-73969833D01*
X111708333Y-73936500D01*
X111775000Y-73903166D01*
X111808333Y-73869833D01*
X111841666Y-73803166D01*
X111841666Y-73736500D01*
X111808333Y-73669833D01*
X111775000Y-73636500D01*
X111708333Y-73603166D01*
X111541666Y-73603166D01*
X111441666Y-73636500D01*
X111141666Y-74303166D02*
X111141666Y-73603166D01*
X110975000Y-73603166D01*
X110875000Y-73636500D01*
X110808333Y-73703166D01*
X110775000Y-73769833D01*
X110741666Y-73903166D01*
X110741666Y-74003166D01*
X110775000Y-74136500D01*
X110808333Y-74203166D01*
X110875000Y-74269833D01*
X110975000Y-74303166D01*
X111141666Y-74303166D01*
X109941666Y-73669833D02*
X109908333Y-73636500D01*
X109841666Y-73603166D01*
X109675000Y-73603166D01*
X109608333Y-73636500D01*
X109575000Y-73669833D01*
X109541666Y-73736500D01*
X109541666Y-73803166D01*
X109575000Y-73903166D01*
X109975000Y-74303166D01*
X109541666Y-74303166D01*
X109275000Y-73669833D02*
X109241666Y-73636500D01*
X109175000Y-73603166D01*
X109008333Y-73603166D01*
X108941666Y-73636500D01*
X108908333Y-73669833D01*
X108875000Y-73736500D01*
X108875000Y-73803166D01*
X108908333Y-73903166D01*
X109308333Y-74303166D01*
X108875000Y-74303166D01*
X108475000Y-73903166D02*
X108541666Y-73869833D01*
X108575000Y-73836500D01*
X108608333Y-73769833D01*
X108608333Y-73736500D01*
X108575000Y-73669833D01*
X108541666Y-73636500D01*
X108475000Y-73603166D01*
X108341666Y-73603166D01*
X108275000Y-73636500D01*
X108241666Y-73669833D01*
X108208333Y-73736500D01*
X108208333Y-73769833D01*
X108241666Y-73836500D01*
X108275000Y-73869833D01*
X108341666Y-73903166D01*
X108475000Y-73903166D01*
X108541666Y-73936500D01*
X108575000Y-73969833D01*
X108608333Y-74036500D01*
X108608333Y-74169833D01*
X108575000Y-74236500D01*
X108541666Y-74269833D01*
X108475000Y-74303166D01*
X108341666Y-74303166D01*
X108275000Y-74269833D01*
X108241666Y-74236500D01*
X108208333Y-74169833D01*
X108208333Y-74036500D01*
X108241666Y-73969833D01*
X108275000Y-73936500D01*
X108341666Y-73903166D01*
X107775000Y-73603166D02*
X107708333Y-73603166D01*
X107641666Y-73636500D01*
X107608333Y-73669833D01*
X107575000Y-73736500D01*
X107541666Y-73869833D01*
X107541666Y-74036500D01*
X107575000Y-74169833D01*
X107608333Y-74236500D01*
X107641666Y-74269833D01*
X107708333Y-74303166D01*
X107775000Y-74303166D01*
X107841666Y-74269833D01*
X107875000Y-74236500D01*
X107908333Y-74169833D01*
X107941666Y-74036500D01*
X107941666Y-73869833D01*
X107908333Y-73736500D01*
X107875000Y-73669833D01*
X107841666Y-73636500D01*
X107775000Y-73603166D01*
X144583333Y-74269833D02*
X144483333Y-74303166D01*
X144316666Y-74303166D01*
X144250000Y-74269833D01*
X144216666Y-74236500D01*
X144183333Y-74169833D01*
X144183333Y-74103166D01*
X144216666Y-74036500D01*
X144250000Y-74003166D01*
X144316666Y-73969833D01*
X144450000Y-73936500D01*
X144516666Y-73903166D01*
X144550000Y-73869833D01*
X144583333Y-73803166D01*
X144583333Y-73736500D01*
X144550000Y-73669833D01*
X144516666Y-73636500D01*
X144450000Y-73603166D01*
X144283333Y-73603166D01*
X144183333Y-73636500D01*
X143916666Y-74269833D02*
X143816666Y-74303166D01*
X143650000Y-74303166D01*
X143583333Y-74269833D01*
X143550000Y-74236500D01*
X143516666Y-74169833D01*
X143516666Y-74103166D01*
X143550000Y-74036500D01*
X143583333Y-74003166D01*
X143650000Y-73969833D01*
X143783333Y-73936500D01*
X143850000Y-73903166D01*
X143883333Y-73869833D01*
X143916666Y-73803166D01*
X143916666Y-73736500D01*
X143883333Y-73669833D01*
X143850000Y-73636500D01*
X143783333Y-73603166D01*
X143616666Y-73603166D01*
X143516666Y-73636500D01*
X143216666Y-74303166D02*
X143216666Y-73603166D01*
X143050000Y-73603166D01*
X142950000Y-73636500D01*
X142883333Y-73703166D01*
X142850000Y-73769833D01*
X142816666Y-73903166D01*
X142816666Y-74003166D01*
X142850000Y-74136500D01*
X142883333Y-74203166D01*
X142950000Y-74269833D01*
X143050000Y-74303166D01*
X143216666Y-74303166D01*
X142016666Y-73669833D02*
X141983333Y-73636500D01*
X141916666Y-73603166D01*
X141750000Y-73603166D01*
X141683333Y-73636500D01*
X141650000Y-73669833D01*
X141616666Y-73736500D01*
X141616666Y-73803166D01*
X141650000Y-73903166D01*
X142050000Y-74303166D01*
X141616666Y-74303166D01*
X141350000Y-73669833D02*
X141316666Y-73636500D01*
X141250000Y-73603166D01*
X141083333Y-73603166D01*
X141016666Y-73636500D01*
X140983333Y-73669833D01*
X140950000Y-73736500D01*
X140950000Y-73803166D01*
X140983333Y-73903166D01*
X141383333Y-74303166D01*
X140950000Y-74303166D01*
X140350000Y-73836500D02*
X140350000Y-74303166D01*
X140516666Y-73569833D02*
X140683333Y-74069833D01*
X140250000Y-74069833D01*
X140016666Y-73669833D02*
X139983333Y-73636500D01*
X139916666Y-73603166D01*
X139750000Y-73603166D01*
X139683333Y-73636500D01*
X139650000Y-73669833D01*
X139616666Y-73736500D01*
X139616666Y-73803166D01*
X139650000Y-73903166D01*
X140050000Y-74303166D01*
X139616666Y-74303166D01*
X99821666Y-83839166D02*
X99488333Y-83605833D01*
X99821666Y-83439166D02*
X99121666Y-83439166D01*
X99121666Y-83705833D01*
X99155000Y-83772500D01*
X99188333Y-83805833D01*
X99255000Y-83839166D01*
X99355000Y-83839166D01*
X99421666Y-83805833D01*
X99455000Y-83772500D01*
X99488333Y-83705833D01*
X99488333Y-83439166D01*
X99821666Y-84505833D02*
X99821666Y-84105833D01*
X99821666Y-84305833D02*
X99121666Y-84305833D01*
X99221666Y-84239166D01*
X99288333Y-84172500D01*
X99321666Y-84105833D01*
X99121666Y-84739166D02*
X99121666Y-85172500D01*
X99388333Y-84939166D01*
X99388333Y-85039166D01*
X99421666Y-85105833D01*
X99455000Y-85139166D01*
X99521666Y-85172500D01*
X99688333Y-85172500D01*
X99755000Y-85139166D01*
X99788333Y-85105833D01*
X99821666Y-85039166D01*
X99821666Y-84839166D01*
X99788333Y-84772500D01*
X99755000Y-84739166D01*
X98805666Y-83839166D02*
X98472333Y-83605833D01*
X98805666Y-83439166D02*
X98105666Y-83439166D01*
X98105666Y-83705833D01*
X98139000Y-83772500D01*
X98172333Y-83805833D01*
X98239000Y-83839166D01*
X98339000Y-83839166D01*
X98405666Y-83805833D01*
X98439000Y-83772500D01*
X98472333Y-83705833D01*
X98472333Y-83439166D01*
X98805666Y-84505833D02*
X98805666Y-84105833D01*
X98805666Y-84305833D02*
X98105666Y-84305833D01*
X98205666Y-84239166D01*
X98272333Y-84172500D01*
X98305666Y-84105833D01*
X98172333Y-84772500D02*
X98139000Y-84805833D01*
X98105666Y-84872500D01*
X98105666Y-85039166D01*
X98139000Y-85105833D01*
X98172333Y-85139166D01*
X98239000Y-85172500D01*
X98305666Y-85172500D01*
X98405666Y-85139166D01*
X98805666Y-84739166D01*
X98805666Y-85172500D01*
X97789666Y-83839166D02*
X97456333Y-83605833D01*
X97789666Y-83439166D02*
X97089666Y-83439166D01*
X97089666Y-83705833D01*
X97123000Y-83772500D01*
X97156333Y-83805833D01*
X97223000Y-83839166D01*
X97323000Y-83839166D01*
X97389666Y-83805833D01*
X97423000Y-83772500D01*
X97456333Y-83705833D01*
X97456333Y-83439166D01*
X97789666Y-84505833D02*
X97789666Y-84105833D01*
X97789666Y-84305833D02*
X97089666Y-84305833D01*
X97189666Y-84239166D01*
X97256333Y-84172500D01*
X97289666Y-84105833D01*
X97789666Y-85172500D02*
X97789666Y-84772500D01*
X97789666Y-84972500D02*
X97089666Y-84972500D01*
X97189666Y-84905833D01*
X97256333Y-84839166D01*
X97289666Y-84772500D01*
X96773666Y-83839166D02*
X96440333Y-83605833D01*
X96773666Y-83439166D02*
X96073666Y-83439166D01*
X96073666Y-83705833D01*
X96107000Y-83772500D01*
X96140333Y-83805833D01*
X96207000Y-83839166D01*
X96307000Y-83839166D01*
X96373666Y-83805833D01*
X96407000Y-83772500D01*
X96440333Y-83705833D01*
X96440333Y-83439166D01*
X96773666Y-84505833D02*
X96773666Y-84105833D01*
X96773666Y-84305833D02*
X96073666Y-84305833D01*
X96173666Y-84239166D01*
X96240333Y-84172500D01*
X96273666Y-84105833D01*
X96073666Y-84939166D02*
X96073666Y-85005833D01*
X96107000Y-85072500D01*
X96140333Y-85105833D01*
X96207000Y-85139166D01*
X96340333Y-85172500D01*
X96507000Y-85172500D01*
X96640333Y-85139166D01*
X96707000Y-85105833D01*
X96740333Y-85072500D01*
X96773666Y-85005833D01*
X96773666Y-84939166D01*
X96740333Y-84872500D01*
X96707000Y-84839166D01*
X96640333Y-84805833D01*
X96507000Y-84772500D01*
X96340333Y-84772500D01*
X96207000Y-84805833D01*
X96140333Y-84839166D01*
X96107000Y-84872500D01*
X96073666Y-84939166D01*
X95757666Y-83839166D02*
X95424333Y-83605833D01*
X95757666Y-83439166D02*
X95057666Y-83439166D01*
X95057666Y-83705833D01*
X95091000Y-83772500D01*
X95124333Y-83805833D01*
X95191000Y-83839166D01*
X95291000Y-83839166D01*
X95357666Y-83805833D01*
X95391000Y-83772500D01*
X95424333Y-83705833D01*
X95424333Y-83439166D01*
X95757666Y-84172500D02*
X95757666Y-84305833D01*
X95724333Y-84372500D01*
X95691000Y-84405833D01*
X95591000Y-84472500D01*
X95457666Y-84505833D01*
X95191000Y-84505833D01*
X95124333Y-84472500D01*
X95091000Y-84439166D01*
X95057666Y-84372500D01*
X95057666Y-84239166D01*
X95091000Y-84172500D01*
X95124333Y-84139166D01*
X95191000Y-84105833D01*
X95357666Y-84105833D01*
X95424333Y-84139166D01*
X95457666Y-84172500D01*
X95491000Y-84239166D01*
X95491000Y-84372500D01*
X95457666Y-84439166D01*
X95424333Y-84472500D01*
X95357666Y-84505833D01*
X94741666Y-83839166D02*
X94408333Y-83605833D01*
X94741666Y-83439166D02*
X94041666Y-83439166D01*
X94041666Y-83705833D01*
X94075000Y-83772500D01*
X94108333Y-83805833D01*
X94175000Y-83839166D01*
X94275000Y-83839166D01*
X94341666Y-83805833D01*
X94375000Y-83772500D01*
X94408333Y-83705833D01*
X94408333Y-83439166D01*
X94041666Y-84472500D02*
X94041666Y-84139166D01*
X94375000Y-84105833D01*
X94341666Y-84139166D01*
X94308333Y-84205833D01*
X94308333Y-84372500D01*
X94341666Y-84439166D01*
X94375000Y-84472500D01*
X94441666Y-84505833D01*
X94608333Y-84505833D01*
X94675000Y-84472500D01*
X94708333Y-84439166D01*
X94741666Y-84372500D01*
X94741666Y-84205833D01*
X94708333Y-84139166D01*
X94675000Y-84105833D01*
X174666666Y-72264166D02*
X174333333Y-72030833D01*
X174666666Y-71864166D02*
X173966666Y-71864166D01*
X173966666Y-72130833D01*
X174000000Y-72197500D01*
X174033333Y-72230833D01*
X174100000Y-72264166D01*
X174200000Y-72264166D01*
X174266666Y-72230833D01*
X174300000Y-72197500D01*
X174333333Y-72130833D01*
X174333333Y-71864166D01*
X174200000Y-72864166D02*
X174666666Y-72864166D01*
X173933333Y-72697500D02*
X174433333Y-72530833D01*
X174433333Y-72964166D01*
X177841666Y-72289166D02*
X177508333Y-72055833D01*
X177841666Y-71889166D02*
X177141666Y-71889166D01*
X177141666Y-72155833D01*
X177175000Y-72222500D01*
X177208333Y-72255833D01*
X177275000Y-72289166D01*
X177375000Y-72289166D01*
X177441666Y-72255833D01*
X177475000Y-72222500D01*
X177508333Y-72155833D01*
X177508333Y-71889166D01*
X177841666Y-72955833D02*
X177841666Y-72555833D01*
X177841666Y-72755833D02*
X177141666Y-72755833D01*
X177241666Y-72689166D01*
X177308333Y-72622500D01*
X177341666Y-72555833D01*
X176241666Y-64489166D02*
X176274999Y-64455833D01*
X176308332Y-64355833D01*
X176308332Y-64289166D01*
X176274999Y-64189166D01*
X176208332Y-64122500D01*
X176141666Y-64089166D01*
X176008332Y-64055833D01*
X175908332Y-64055833D01*
X175774999Y-64089166D01*
X175708332Y-64122500D01*
X175641666Y-64189166D01*
X175608332Y-64289166D01*
X175608332Y-64355833D01*
X175641666Y-64455833D01*
X175674999Y-64489166D01*
X175608332Y-64722500D02*
X175608332Y-65189166D01*
X176308332Y-64889166D01*
X173275000Y-78414166D02*
X173308333Y-78380833D01*
X173341666Y-78280833D01*
X173341666Y-78214166D01*
X173308333Y-78114166D01*
X173241666Y-78047500D01*
X173175000Y-78014166D01*
X173041666Y-77980833D01*
X172941666Y-77980833D01*
X172808333Y-78014166D01*
X172741666Y-78047500D01*
X172675000Y-78114166D01*
X172641666Y-78214166D01*
X172641666Y-78280833D01*
X172675000Y-78380833D01*
X172708333Y-78414166D01*
X172708333Y-78680833D02*
X172675000Y-78714166D01*
X172641666Y-78780833D01*
X172641666Y-78947500D01*
X172675000Y-79014166D01*
X172708333Y-79047500D01*
X172775000Y-79080833D01*
X172841666Y-79080833D01*
X172941666Y-79047500D01*
X173341666Y-78647500D01*
X173341666Y-79080833D01*
X176254166Y-72264166D02*
X175920833Y-72030833D01*
X176254166Y-71864166D02*
X175554166Y-71864166D01*
X175554166Y-72130833D01*
X175587500Y-72197500D01*
X175620833Y-72230833D01*
X175687500Y-72264166D01*
X175787500Y-72264166D01*
X175854166Y-72230833D01*
X175887500Y-72197500D01*
X175920833Y-72130833D01*
X175920833Y-71864166D01*
X175554166Y-72497500D02*
X175554166Y-72930833D01*
X175820833Y-72697500D01*
X175820833Y-72797500D01*
X175854166Y-72864166D01*
X175887500Y-72897500D01*
X175954166Y-72930833D01*
X176120833Y-72930833D01*
X176187500Y-72897500D01*
X176220833Y-72864166D01*
X176254166Y-72797500D01*
X176254166Y-72597500D01*
X176220833Y-72530833D01*
X176187500Y-72497500D01*
X177822000Y-88089166D02*
X177855333Y-88055833D01*
X177888666Y-87955833D01*
X177888666Y-87889166D01*
X177855333Y-87789166D01*
X177788666Y-87722500D01*
X177722000Y-87689166D01*
X177588666Y-87655833D01*
X177488666Y-87655833D01*
X177355333Y-87689166D01*
X177288666Y-87722500D01*
X177222000Y-87789166D01*
X177188666Y-87889166D01*
X177188666Y-87955833D01*
X177222000Y-88055833D01*
X177255333Y-88089166D01*
X177888666Y-88755833D02*
X177888666Y-88355833D01*
X177888666Y-88555833D02*
X177188666Y-88555833D01*
X177288666Y-88489166D01*
X177355333Y-88422500D01*
X177388666Y-88355833D01*
X177255333Y-89022500D02*
X177222000Y-89055833D01*
X177188666Y-89122500D01*
X177188666Y-89289166D01*
X177222000Y-89355833D01*
X177255333Y-89389166D01*
X177322000Y-89422500D01*
X177388666Y-89422500D01*
X177488666Y-89389166D01*
X177888666Y-88989166D01*
X177888666Y-89422500D01*
X176323000Y-78414166D02*
X176356333Y-78380833D01*
X176389666Y-78280833D01*
X176389666Y-78214166D01*
X176356333Y-78114166D01*
X176289666Y-78047500D01*
X176223000Y-78014166D01*
X176089666Y-77980833D01*
X175989666Y-77980833D01*
X175856333Y-78014166D01*
X175789666Y-78047500D01*
X175723000Y-78114166D01*
X175689666Y-78214166D01*
X175689666Y-78280833D01*
X175723000Y-78380833D01*
X175756333Y-78414166D01*
X175989666Y-78814166D02*
X175956333Y-78747500D01*
X175923000Y-78714166D01*
X175856333Y-78680833D01*
X175823000Y-78680833D01*
X175756333Y-78714166D01*
X175723000Y-78747500D01*
X175689666Y-78814166D01*
X175689666Y-78947500D01*
X175723000Y-79014166D01*
X175756333Y-79047500D01*
X175823000Y-79080833D01*
X175856333Y-79080833D01*
X175923000Y-79047500D01*
X175956333Y-79014166D01*
X175989666Y-78947500D01*
X175989666Y-78814166D01*
X176023000Y-78747500D01*
X176056333Y-78714166D01*
X176123000Y-78680833D01*
X176256333Y-78680833D01*
X176323000Y-78714166D01*
X176356333Y-78747500D01*
X176389666Y-78814166D01*
X176389666Y-78947500D01*
X176356333Y-79014166D01*
X176323000Y-79047500D01*
X176256333Y-79080833D01*
X176123000Y-79080833D01*
X176056333Y-79047500D01*
X176023000Y-79014166D01*
X175989666Y-78947500D01*
X174799000Y-78414166D02*
X174832333Y-78380833D01*
X174865666Y-78280833D01*
X174865666Y-78214166D01*
X174832333Y-78114166D01*
X174765666Y-78047500D01*
X174699000Y-78014166D01*
X174565666Y-77980833D01*
X174465666Y-77980833D01*
X174332333Y-78014166D01*
X174265666Y-78047500D01*
X174199000Y-78114166D01*
X174165666Y-78214166D01*
X174165666Y-78280833D01*
X174199000Y-78380833D01*
X174232333Y-78414166D01*
X174165666Y-79047500D02*
X174165666Y-78714166D01*
X174499000Y-78680833D01*
X174465666Y-78714166D01*
X174432333Y-78780833D01*
X174432333Y-78947500D01*
X174465666Y-79014166D01*
X174499000Y-79047500D01*
X174565666Y-79080833D01*
X174732333Y-79080833D01*
X174799000Y-79047500D01*
X174832333Y-79014166D01*
X174865666Y-78947500D01*
X174865666Y-78780833D01*
X174832333Y-78714166D01*
X174799000Y-78680833D01*
X188516666Y-86744166D02*
X189016666Y-86744166D01*
X189116666Y-86710833D01*
X189183333Y-86644166D01*
X189216666Y-86544166D01*
X189216666Y-86477500D01*
X188516666Y-87010833D02*
X188516666Y-87444166D01*
X188783333Y-87210833D01*
X188783333Y-87310833D01*
X188816666Y-87377500D01*
X188850000Y-87410833D01*
X188916666Y-87444166D01*
X189083333Y-87444166D01*
X189150000Y-87410833D01*
X189183333Y-87377500D01*
X189216666Y-87310833D01*
X189216666Y-87110833D01*
X189183333Y-87044166D01*
X189150000Y-87010833D01*
X177847000Y-78414166D02*
X177880333Y-78380833D01*
X177913666Y-78280833D01*
X177913666Y-78214166D01*
X177880333Y-78114166D01*
X177813666Y-78047500D01*
X177747000Y-78014166D01*
X177613666Y-77980833D01*
X177513666Y-77980833D01*
X177380333Y-78014166D01*
X177313666Y-78047500D01*
X177247000Y-78114166D01*
X177213666Y-78214166D01*
X177213666Y-78280833D01*
X177247000Y-78380833D01*
X177280333Y-78414166D01*
X177913666Y-79080833D02*
X177913666Y-78680833D01*
X177913666Y-78880833D02*
X177213666Y-78880833D01*
X177313666Y-78814166D01*
X177380333Y-78747500D01*
X177413666Y-78680833D01*
X177913666Y-79747500D02*
X177913666Y-79347500D01*
X177913666Y-79547500D02*
X177213666Y-79547500D01*
X177313666Y-79480833D01*
X177380333Y-79414166D01*
X177413666Y-79347500D01*
X173250000Y-88089166D02*
X173283333Y-88055833D01*
X173316666Y-87955833D01*
X173316666Y-87889166D01*
X173283333Y-87789166D01*
X173216666Y-87722500D01*
X173150000Y-87689166D01*
X173016666Y-87655833D01*
X172916666Y-87655833D01*
X172783333Y-87689166D01*
X172716666Y-87722500D01*
X172650000Y-87789166D01*
X172616666Y-87889166D01*
X172616666Y-87955833D01*
X172650000Y-88055833D01*
X172683333Y-88089166D01*
X172616666Y-88322500D02*
X172616666Y-88755833D01*
X172883333Y-88522500D01*
X172883333Y-88622500D01*
X172916666Y-88689166D01*
X172950000Y-88722500D01*
X173016666Y-88755833D01*
X173183333Y-88755833D01*
X173250000Y-88722500D01*
X173283333Y-88689166D01*
X173316666Y-88622500D01*
X173316666Y-88422500D01*
X173283333Y-88355833D01*
X173250000Y-88322500D01*
X177775000Y-64489166D02*
X177808333Y-64455833D01*
X177841666Y-64355833D01*
X177841666Y-64289166D01*
X177808333Y-64189166D01*
X177741666Y-64122500D01*
X177675000Y-64089166D01*
X177541666Y-64055833D01*
X177441666Y-64055833D01*
X177308333Y-64089166D01*
X177241666Y-64122500D01*
X177175000Y-64189166D01*
X177141666Y-64289166D01*
X177141666Y-64355833D01*
X177175000Y-64455833D01*
X177208333Y-64489166D01*
X177841666Y-65155833D02*
X177841666Y-64755833D01*
X177841666Y-64955833D02*
X177141666Y-64955833D01*
X177241666Y-64889166D01*
X177308333Y-64822500D01*
X177341666Y-64755833D01*
X177141666Y-65589166D02*
X177141666Y-65655833D01*
X177175000Y-65722500D01*
X177208333Y-65755833D01*
X177275000Y-65789166D01*
X177408333Y-65822500D01*
X177575000Y-65822500D01*
X177708333Y-65789166D01*
X177775000Y-65755833D01*
X177808333Y-65722500D01*
X177841666Y-65655833D01*
X177841666Y-65589166D01*
X177808333Y-65522500D01*
X177775000Y-65489166D01*
X177708333Y-65455833D01*
X177575000Y-65422500D01*
X177408333Y-65422500D01*
X177275000Y-65455833D01*
X177208333Y-65489166D01*
X177175000Y-65522500D01*
X177141666Y-65589166D01*
X121810833Y-84324000D02*
X121844166Y-84357333D01*
X121944166Y-84390666D01*
X122010833Y-84390666D01*
X122110833Y-84357333D01*
X122177500Y-84290666D01*
X122210833Y-84224000D01*
X122244166Y-84090666D01*
X122244166Y-83990666D01*
X122210833Y-83857333D01*
X122177500Y-83790666D01*
X122110833Y-83724000D01*
X122010833Y-83690666D01*
X121944166Y-83690666D01*
X121844166Y-83724000D01*
X121810833Y-83757333D01*
X121144166Y-84390666D02*
X121544166Y-84390666D01*
X121344166Y-84390666D02*
X121344166Y-83690666D01*
X121410833Y-83790666D01*
X121477500Y-83857333D01*
X121544166Y-83890666D01*
X120744166Y-83990666D02*
X120810833Y-83957333D01*
X120844166Y-83924000D01*
X120877500Y-83857333D01*
X120877500Y-83824000D01*
X120844166Y-83757333D01*
X120810833Y-83724000D01*
X120744166Y-83690666D01*
X120610833Y-83690666D01*
X120544166Y-83724000D01*
X120510833Y-83757333D01*
X120477500Y-83824000D01*
X120477500Y-83857333D01*
X120510833Y-83924000D01*
X120544166Y-83957333D01*
X120610833Y-83990666D01*
X120744166Y-83990666D01*
X120810833Y-84024000D01*
X120844166Y-84057333D01*
X120877500Y-84124000D01*
X120877500Y-84257333D01*
X120844166Y-84324000D01*
X120810833Y-84357333D01*
X120744166Y-84390666D01*
X120610833Y-84390666D01*
X120544166Y-84357333D01*
X120510833Y-84324000D01*
X120477500Y-84257333D01*
X120477500Y-84124000D01*
X120510833Y-84057333D01*
X120544166Y-84024000D01*
X120610833Y-83990666D01*
X129585833Y-83066666D02*
X129819166Y-82733333D01*
X129985833Y-83066666D02*
X129985833Y-82366666D01*
X129719166Y-82366666D01*
X129652500Y-82400000D01*
X129619166Y-82433333D01*
X129585833Y-82500000D01*
X129585833Y-82600000D01*
X129619166Y-82666666D01*
X129652500Y-82700000D01*
X129719166Y-82733333D01*
X129985833Y-82733333D01*
X128919166Y-83066666D02*
X129319166Y-83066666D01*
X129119166Y-83066666D02*
X129119166Y-82366666D01*
X129185833Y-82466666D01*
X129252500Y-82533333D01*
X129319166Y-82566666D01*
X128519166Y-82666666D02*
X128585833Y-82633333D01*
X128619166Y-82600000D01*
X128652500Y-82533333D01*
X128652500Y-82500000D01*
X128619166Y-82433333D01*
X128585833Y-82400000D01*
X128519166Y-82366666D01*
X128385833Y-82366666D01*
X128319166Y-82400000D01*
X128285833Y-82433333D01*
X128252500Y-82500000D01*
X128252500Y-82533333D01*
X128285833Y-82600000D01*
X128319166Y-82633333D01*
X128385833Y-82666666D01*
X128519166Y-82666666D01*
X128585833Y-82700000D01*
X128619166Y-82733333D01*
X128652500Y-82800000D01*
X128652500Y-82933333D01*
X128619166Y-83000000D01*
X128585833Y-83033333D01*
X128519166Y-83066666D01*
X128385833Y-83066666D01*
X128319166Y-83033333D01*
X128285833Y-83000000D01*
X128252500Y-82933333D01*
X128252500Y-82800000D01*
X128285833Y-82733333D01*
X128319166Y-82700000D01*
X128385833Y-82666666D01*
X92860833Y-81166666D02*
X92860833Y-80466666D01*
X92694166Y-80466666D01*
X92594166Y-80500000D01*
X92527500Y-80566666D01*
X92494166Y-80633333D01*
X92460833Y-80766666D01*
X92460833Y-80866666D01*
X92494166Y-81000000D01*
X92527500Y-81066666D01*
X92594166Y-81133333D01*
X92694166Y-81166666D01*
X92860833Y-81166666D01*
X92194166Y-80533333D02*
X92160833Y-80500000D01*
X92094166Y-80466666D01*
X91927500Y-80466666D01*
X91860833Y-80500000D01*
X91827500Y-80533333D01*
X91794166Y-80600000D01*
X91794166Y-80666666D01*
X91827500Y-80766666D01*
X92227500Y-81166666D01*
X91794166Y-81166666D01*
X130000000Y-89764166D02*
X130033333Y-89730833D01*
X130066666Y-89630833D01*
X130066666Y-89564166D01*
X130033333Y-89464166D01*
X129966666Y-89397500D01*
X129900000Y-89364166D01*
X129766666Y-89330833D01*
X129666666Y-89330833D01*
X129533333Y-89364166D01*
X129466666Y-89397500D01*
X129400000Y-89464166D01*
X129366666Y-89564166D01*
X129366666Y-89630833D01*
X129400000Y-89730833D01*
X129433333Y-89764166D01*
X130066666Y-90430833D02*
X130066666Y-90030833D01*
X130066666Y-90230833D02*
X129366666Y-90230833D01*
X129466666Y-90164166D01*
X129533333Y-90097500D01*
X129566666Y-90030833D01*
X129366666Y-91030833D02*
X129366666Y-90897500D01*
X129400000Y-90830833D01*
X129433333Y-90797500D01*
X129533333Y-90730833D01*
X129666666Y-90697500D01*
X129933333Y-90697500D01*
X130000000Y-90730833D01*
X130033333Y-90764166D01*
X130066666Y-90830833D01*
X130066666Y-90964166D01*
X130033333Y-91030833D01*
X130000000Y-91064166D01*
X129933333Y-91097500D01*
X129766666Y-91097500D01*
X129700000Y-91064166D01*
X129666666Y-91030833D01*
X129633333Y-90964166D01*
X129633333Y-90830833D01*
X129666666Y-90764166D01*
X129700000Y-90730833D01*
X129766666Y-90697500D01*
X127527500Y-84966666D02*
X127860833Y-84966666D01*
X127860833Y-84266666D01*
X126927500Y-84966666D02*
X127327500Y-84966666D01*
X127127500Y-84966666D02*
X127127500Y-84266666D01*
X127194166Y-84366666D01*
X127260833Y-84433333D01*
X127327500Y-84466666D01*
X106560833Y-61375000D02*
X106594166Y-61408333D01*
X106694166Y-61441666D01*
X106760833Y-61441666D01*
X106860833Y-61408333D01*
X106927500Y-61341666D01*
X106960833Y-61275000D01*
X106994166Y-61141666D01*
X106994166Y-61041666D01*
X106960833Y-60908333D01*
X106927500Y-60841666D01*
X106860833Y-60775000D01*
X106760833Y-60741666D01*
X106694166Y-60741666D01*
X106594166Y-60775000D01*
X106560833Y-60808333D01*
X105927500Y-60741666D02*
X106260833Y-60741666D01*
X106294166Y-61075000D01*
X106260833Y-61041666D01*
X106194166Y-61008333D01*
X106027500Y-61008333D01*
X105960833Y-61041666D01*
X105927500Y-61075000D01*
X105894166Y-61141666D01*
X105894166Y-61308333D01*
X105927500Y-61375000D01*
X105960833Y-61408333D01*
X106027500Y-61441666D01*
X106194166Y-61441666D01*
X106260833Y-61408333D01*
X106294166Y-61375000D01*
X105460833Y-60741666D02*
X105394166Y-60741666D01*
X105327500Y-60775000D01*
X105294166Y-60808333D01*
X105260833Y-60875000D01*
X105227500Y-61008333D01*
X105227500Y-61175000D01*
X105260833Y-61308333D01*
X105294166Y-61375000D01*
X105327500Y-61408333D01*
X105394166Y-61441666D01*
X105460833Y-61441666D01*
X105527500Y-61408333D01*
X105560833Y-61375000D01*
X105594166Y-61308333D01*
X105627500Y-61175000D01*
X105627500Y-61008333D01*
X105594166Y-60875000D01*
X105560833Y-60808333D01*
X105527500Y-60775000D01*
X105460833Y-60741666D01*
X146144166Y-77058333D02*
X146044166Y-77091666D01*
X145877500Y-77091666D01*
X145810833Y-77058333D01*
X145777500Y-77025000D01*
X145744166Y-76958333D01*
X145744166Y-76891666D01*
X145777500Y-76825000D01*
X145810833Y-76791666D01*
X145877500Y-76758333D01*
X146010833Y-76725000D01*
X146077500Y-76691666D01*
X146110833Y-76658333D01*
X146144166Y-76591666D01*
X146144166Y-76525000D01*
X146110833Y-76458333D01*
X146077500Y-76425000D01*
X146010833Y-76391666D01*
X145844166Y-76391666D01*
X145744166Y-76425000D01*
X145444166Y-77091666D02*
X145444166Y-76391666D01*
X145177500Y-76391666D01*
X145110833Y-76425000D01*
X145077500Y-76458333D01*
X145044166Y-76525000D01*
X145044166Y-76625000D01*
X145077500Y-76691666D01*
X145110833Y-76725000D01*
X145177500Y-76758333D01*
X145444166Y-76758333D01*
X144377500Y-77091666D02*
X144777500Y-77091666D01*
X144577500Y-77091666D02*
X144577500Y-76391666D01*
X144644166Y-76491666D01*
X144710833Y-76558333D01*
X144777500Y-76591666D01*
X131860833Y-83066666D02*
X132094166Y-82733333D01*
X132260833Y-83066666D02*
X132260833Y-82366666D01*
X131994166Y-82366666D01*
X131927500Y-82400000D01*
X131894166Y-82433333D01*
X131860833Y-82500000D01*
X131860833Y-82600000D01*
X131894166Y-82666666D01*
X131927500Y-82700000D01*
X131994166Y-82733333D01*
X132260833Y-82733333D01*
X131194166Y-83066666D02*
X131594166Y-83066666D01*
X131394166Y-83066666D02*
X131394166Y-82366666D01*
X131460833Y-82466666D01*
X131527500Y-82533333D01*
X131594166Y-82566666D01*
X130860833Y-83066666D02*
X130727500Y-83066666D01*
X130660833Y-83033333D01*
X130627500Y-83000000D01*
X130560833Y-82900000D01*
X130527500Y-82766666D01*
X130527500Y-82500000D01*
X130560833Y-82433333D01*
X130594166Y-82400000D01*
X130660833Y-82366666D01*
X130794166Y-82366666D01*
X130860833Y-82400000D01*
X130894166Y-82433333D01*
X130927500Y-82500000D01*
X130927500Y-82666666D01*
X130894166Y-82733333D01*
X130860833Y-82766666D01*
X130794166Y-82800000D01*
X130660833Y-82800000D01*
X130594166Y-82766666D01*
X130560833Y-82733333D01*
X130527500Y-82666666D01*
X88791666Y-87314166D02*
X88458333Y-87080833D01*
X88791666Y-86914166D02*
X88091666Y-86914166D01*
X88091666Y-87180833D01*
X88125000Y-87247500D01*
X88158333Y-87280833D01*
X88225000Y-87314166D01*
X88325000Y-87314166D01*
X88391666Y-87280833D01*
X88425000Y-87247500D01*
X88458333Y-87180833D01*
X88458333Y-86914166D01*
X88091666Y-87914166D02*
X88091666Y-87780833D01*
X88125000Y-87714166D01*
X88158333Y-87680833D01*
X88258333Y-87614166D01*
X88391666Y-87580833D01*
X88658333Y-87580833D01*
X88725000Y-87614166D01*
X88758333Y-87647500D01*
X88791666Y-87714166D01*
X88791666Y-87847500D01*
X88758333Y-87914166D01*
X88725000Y-87947500D01*
X88658333Y-87980833D01*
X88491666Y-87980833D01*
X88425000Y-87947500D01*
X88391666Y-87914166D01*
X88358333Y-87847500D01*
X88358333Y-87714166D01*
X88391666Y-87647500D01*
X88425000Y-87614166D01*
X88491666Y-87580833D01*
X173175000Y-64489166D02*
X173208333Y-64455833D01*
X173241666Y-64355833D01*
X173241666Y-64289166D01*
X173208333Y-64189166D01*
X173141666Y-64122500D01*
X173075000Y-64089166D01*
X172941666Y-64055833D01*
X172841666Y-64055833D01*
X172708333Y-64089166D01*
X172641666Y-64122500D01*
X172575000Y-64189166D01*
X172541666Y-64289166D01*
X172541666Y-64355833D01*
X172575000Y-64455833D01*
X172608333Y-64489166D01*
X173241666Y-65155833D02*
X173241666Y-64755833D01*
X173241666Y-64955833D02*
X172541666Y-64955833D01*
X172641666Y-64889166D01*
X172708333Y-64822500D01*
X172741666Y-64755833D01*
X174708333Y-64489166D02*
X174741666Y-64455833D01*
X174774999Y-64355833D01*
X174774999Y-64289166D01*
X174741666Y-64189166D01*
X174674999Y-64122500D01*
X174608333Y-64089166D01*
X174474999Y-64055833D01*
X174374999Y-64055833D01*
X174241666Y-64089166D01*
X174174999Y-64122500D01*
X174108333Y-64189166D01*
X174074999Y-64289166D01*
X174074999Y-64355833D01*
X174108333Y-64455833D01*
X174141666Y-64489166D01*
X174308333Y-65089166D02*
X174774999Y-65089166D01*
X174041666Y-64922500D02*
X174541666Y-64755833D01*
X174541666Y-65189166D01*
X176298000Y-88089166D02*
X176331333Y-88055833D01*
X176364666Y-87955833D01*
X176364666Y-87889166D01*
X176331333Y-87789166D01*
X176264666Y-87722500D01*
X176198000Y-87689166D01*
X176064666Y-87655833D01*
X175964666Y-87655833D01*
X175831333Y-87689166D01*
X175764666Y-87722500D01*
X175698000Y-87789166D01*
X175664666Y-87889166D01*
X175664666Y-87955833D01*
X175698000Y-88055833D01*
X175731333Y-88089166D01*
X176364666Y-88422500D02*
X176364666Y-88555833D01*
X176331333Y-88622500D01*
X176298000Y-88655833D01*
X176198000Y-88722500D01*
X176064666Y-88755833D01*
X175798000Y-88755833D01*
X175731333Y-88722500D01*
X175698000Y-88689166D01*
X175664666Y-88622500D01*
X175664666Y-88489166D01*
X175698000Y-88422500D01*
X175731333Y-88389166D01*
X175798000Y-88355833D01*
X175964666Y-88355833D01*
X176031333Y-88389166D01*
X176064666Y-88422500D01*
X176098000Y-88489166D01*
X176098000Y-88622500D01*
X176064666Y-88689166D01*
X176031333Y-88722500D01*
X175964666Y-88755833D01*
X174774000Y-88089166D02*
X174807333Y-88055833D01*
X174840666Y-87955833D01*
X174840666Y-87889166D01*
X174807333Y-87789166D01*
X174740666Y-87722500D01*
X174674000Y-87689166D01*
X174540666Y-87655833D01*
X174440666Y-87655833D01*
X174307333Y-87689166D01*
X174240666Y-87722500D01*
X174174000Y-87789166D01*
X174140666Y-87889166D01*
X174140666Y-87955833D01*
X174174000Y-88055833D01*
X174207333Y-88089166D01*
X174140666Y-88689166D02*
X174140666Y-88555833D01*
X174174000Y-88489166D01*
X174207333Y-88455833D01*
X174307333Y-88389166D01*
X174440666Y-88355833D01*
X174707333Y-88355833D01*
X174774000Y-88389166D01*
X174807333Y-88422500D01*
X174840666Y-88489166D01*
X174840666Y-88622500D01*
X174807333Y-88689166D01*
X174774000Y-88722500D01*
X174707333Y-88755833D01*
X174540666Y-88755833D01*
X174474000Y-88722500D01*
X174440666Y-88689166D01*
X174407333Y-88622500D01*
X174407333Y-88489166D01*
X174440666Y-88422500D01*
X174474000Y-88389166D01*
X174540666Y-88355833D01*
X121760833Y-89600000D02*
X121794166Y-89633333D01*
X121894166Y-89666666D01*
X121960833Y-89666666D01*
X122060833Y-89633333D01*
X122127500Y-89566666D01*
X122160833Y-89500000D01*
X122194166Y-89366666D01*
X122194166Y-89266666D01*
X122160833Y-89133333D01*
X122127500Y-89066666D01*
X122060833Y-89000000D01*
X121960833Y-88966666D01*
X121894166Y-88966666D01*
X121794166Y-89000000D01*
X121760833Y-89033333D01*
X121094166Y-89666666D02*
X121494166Y-89666666D01*
X121294166Y-89666666D02*
X121294166Y-88966666D01*
X121360833Y-89066666D01*
X121427500Y-89133333D01*
X121494166Y-89166666D01*
X120760833Y-89666666D02*
X120627500Y-89666666D01*
X120560833Y-89633333D01*
X120527500Y-89600000D01*
X120460833Y-89500000D01*
X120427500Y-89366666D01*
X120427500Y-89100000D01*
X120460833Y-89033333D01*
X120494166Y-89000000D01*
X120560833Y-88966666D01*
X120694166Y-88966666D01*
X120760833Y-89000000D01*
X120794166Y-89033333D01*
X120827500Y-89100000D01*
X120827500Y-89266666D01*
X120794166Y-89333333D01*
X120760833Y-89366666D01*
X120694166Y-89400000D01*
X120560833Y-89400000D01*
X120494166Y-89366666D01*
X120460833Y-89333333D01*
X120427500Y-89266666D01*
X153250000Y-75314166D02*
X153283333Y-75280833D01*
X153316666Y-75180833D01*
X153316666Y-75114166D01*
X153283333Y-75014166D01*
X153216666Y-74947500D01*
X153150000Y-74914166D01*
X153016666Y-74880833D01*
X152916666Y-74880833D01*
X152783333Y-74914166D01*
X152716666Y-74947500D01*
X152650000Y-75014166D01*
X152616666Y-75114166D01*
X152616666Y-75180833D01*
X152650000Y-75280833D01*
X152683333Y-75314166D01*
X152616666Y-75947500D02*
X152616666Y-75614166D01*
X152950000Y-75580833D01*
X152916666Y-75614166D01*
X152883333Y-75680833D01*
X152883333Y-75847500D01*
X152916666Y-75914166D01*
X152950000Y-75947500D01*
X153016666Y-75980833D01*
X153183333Y-75980833D01*
X153250000Y-75947500D01*
X153283333Y-75914166D01*
X153316666Y-75847500D01*
X153316666Y-75680833D01*
X153283333Y-75614166D01*
X153250000Y-75580833D01*
X153316666Y-76647500D02*
X153316666Y-76247500D01*
X153316666Y-76447500D02*
X152616666Y-76447500D01*
X152716666Y-76380833D01*
X152783333Y-76314166D01*
X152816666Y-76247500D01*
X152175000Y-75314166D02*
X152208333Y-75280833D01*
X152241666Y-75180833D01*
X152241666Y-75114166D01*
X152208333Y-75014166D01*
X152141666Y-74947500D01*
X152075000Y-74914166D01*
X151941666Y-74880833D01*
X151841666Y-74880833D01*
X151708333Y-74914166D01*
X151641666Y-74947500D01*
X151575000Y-75014166D01*
X151541666Y-75114166D01*
X151541666Y-75180833D01*
X151575000Y-75280833D01*
X151608333Y-75314166D01*
X151541666Y-75947500D02*
X151541666Y-75614166D01*
X151875000Y-75580833D01*
X151841666Y-75614166D01*
X151808333Y-75680833D01*
X151808333Y-75847500D01*
X151841666Y-75914166D01*
X151875000Y-75947500D01*
X151941666Y-75980833D01*
X152108333Y-75980833D01*
X152175000Y-75947500D01*
X152208333Y-75914166D01*
X152241666Y-75847500D01*
X152241666Y-75680833D01*
X152208333Y-75614166D01*
X152175000Y-75580833D01*
X151608333Y-76247500D02*
X151575000Y-76280833D01*
X151541666Y-76347500D01*
X151541666Y-76514166D01*
X151575000Y-76580833D01*
X151608333Y-76614166D01*
X151675000Y-76647500D01*
X151741666Y-76647500D01*
X151841666Y-76614166D01*
X152241666Y-76214166D01*
X152241666Y-76647500D01*
X75441666Y-92164166D02*
X75941666Y-92164166D01*
X76041666Y-92130833D01*
X76108333Y-92064166D01*
X76141666Y-91964166D01*
X76141666Y-91897500D01*
X75675000Y-92797500D02*
X76141666Y-92797500D01*
X75408333Y-92630833D02*
X75908333Y-92464166D01*
X75908333Y-92897500D01*
X104135833Y-57541666D02*
X104369166Y-57208333D01*
X104535833Y-57541666D02*
X104535833Y-56841666D01*
X104269166Y-56841666D01*
X104202500Y-56875000D01*
X104169166Y-56908333D01*
X104135833Y-56975000D01*
X104135833Y-57075000D01*
X104169166Y-57141666D01*
X104202500Y-57175000D01*
X104269166Y-57208333D01*
X104535833Y-57208333D01*
X103469166Y-57541666D02*
X103869166Y-57541666D01*
X103669166Y-57541666D02*
X103669166Y-56841666D01*
X103735833Y-56941666D01*
X103802500Y-57008333D01*
X103869166Y-57041666D01*
X103235833Y-56841666D02*
X102769166Y-56841666D01*
X103069166Y-57541666D01*
X110841666Y-62214166D02*
X110508333Y-61980833D01*
X110841666Y-61814166D02*
X110141666Y-61814166D01*
X110141666Y-62080833D01*
X110175000Y-62147500D01*
X110208333Y-62180833D01*
X110275000Y-62214166D01*
X110375000Y-62214166D01*
X110441666Y-62180833D01*
X110475000Y-62147500D01*
X110508333Y-62080833D01*
X110508333Y-61814166D01*
X110141666Y-62447500D02*
X110141666Y-62880833D01*
X110408333Y-62647500D01*
X110408333Y-62747500D01*
X110441666Y-62814166D01*
X110475000Y-62847500D01*
X110541666Y-62880833D01*
X110708333Y-62880833D01*
X110775000Y-62847500D01*
X110808333Y-62814166D01*
X110841666Y-62747500D01*
X110841666Y-62547500D01*
X110808333Y-62480833D01*
X110775000Y-62447500D01*
X110141666Y-63314166D02*
X110141666Y-63380833D01*
X110175000Y-63447500D01*
X110208333Y-63480833D01*
X110275000Y-63514166D01*
X110408333Y-63547500D01*
X110575000Y-63547500D01*
X110708333Y-63514166D01*
X110775000Y-63480833D01*
X110808333Y-63447500D01*
X110841666Y-63380833D01*
X110841666Y-63314166D01*
X110808333Y-63247500D01*
X110775000Y-63214166D01*
X110708333Y-63180833D01*
X110575000Y-63147500D01*
X110408333Y-63147500D01*
X110275000Y-63180833D01*
X110208333Y-63214166D01*
X110175000Y-63247500D01*
X110141666Y-63314166D01*
X109710833Y-57475000D02*
X109744166Y-57508333D01*
X109844166Y-57541666D01*
X109910833Y-57541666D01*
X110010833Y-57508333D01*
X110077500Y-57441666D01*
X110110833Y-57375000D01*
X110144166Y-57241666D01*
X110144166Y-57141666D01*
X110110833Y-57008333D01*
X110077500Y-56941666D01*
X110010833Y-56875000D01*
X109910833Y-56841666D01*
X109844166Y-56841666D01*
X109744166Y-56875000D01*
X109710833Y-56908333D01*
X109444166Y-56908333D02*
X109410833Y-56875000D01*
X109344166Y-56841666D01*
X109177500Y-56841666D01*
X109110833Y-56875000D01*
X109077500Y-56908333D01*
X109044166Y-56975000D01*
X109044166Y-57041666D01*
X109077500Y-57141666D01*
X109477500Y-57541666D01*
X109044166Y-57541666D01*
X108410833Y-56841666D02*
X108744166Y-56841666D01*
X108777500Y-57175000D01*
X108744166Y-57141666D01*
X108677500Y-57108333D01*
X108510833Y-57108333D01*
X108444166Y-57141666D01*
X108410833Y-57175000D01*
X108377500Y-57241666D01*
X108377500Y-57408333D01*
X108410833Y-57475000D01*
X108444166Y-57508333D01*
X108510833Y-57541666D01*
X108677500Y-57541666D01*
X108744166Y-57508333D01*
X108777500Y-57475000D01*
X154891666Y-75264166D02*
X154558333Y-75030833D01*
X154891666Y-74864166D02*
X154191666Y-74864166D01*
X154191666Y-75130833D01*
X154225000Y-75197500D01*
X154258333Y-75230833D01*
X154325000Y-75264166D01*
X154425000Y-75264166D01*
X154491666Y-75230833D01*
X154525000Y-75197500D01*
X154558333Y-75130833D01*
X154558333Y-74864166D01*
X154191666Y-75897500D02*
X154191666Y-75564166D01*
X154525000Y-75530833D01*
X154491666Y-75564166D01*
X154458333Y-75630833D01*
X154458333Y-75797500D01*
X154491666Y-75864166D01*
X154525000Y-75897500D01*
X154591666Y-75930833D01*
X154758333Y-75930833D01*
X154825000Y-75897500D01*
X154858333Y-75864166D01*
X154891666Y-75797500D01*
X154891666Y-75630833D01*
X154858333Y-75564166D01*
X154825000Y-75530833D01*
X154191666Y-76564166D02*
X154191666Y-76230833D01*
X154525000Y-76197500D01*
X154491666Y-76230833D01*
X154458333Y-76297500D01*
X154458333Y-76464166D01*
X154491666Y-76530833D01*
X154525000Y-76564166D01*
X154591666Y-76597500D01*
X154758333Y-76597500D01*
X154825000Y-76564166D01*
X154858333Y-76530833D01*
X154891666Y-76464166D01*
X154891666Y-76297500D01*
X154858333Y-76230833D01*
X154825000Y-76197500D01*
X107641666Y-69264166D02*
X107308333Y-69030833D01*
X107641666Y-68864166D02*
X106941666Y-68864166D01*
X106941666Y-69130833D01*
X106975000Y-69197500D01*
X107008333Y-69230833D01*
X107075000Y-69264166D01*
X107175000Y-69264166D01*
X107241666Y-69230833D01*
X107275000Y-69197500D01*
X107308333Y-69130833D01*
X107308333Y-68864166D01*
X107008333Y-69530833D02*
X106975000Y-69564166D01*
X106941666Y-69630833D01*
X106941666Y-69797500D01*
X106975000Y-69864166D01*
X107008333Y-69897500D01*
X107075000Y-69930833D01*
X107141666Y-69930833D01*
X107241666Y-69897500D01*
X107641666Y-69497500D01*
X107641666Y-69930833D01*
X106941666Y-70164166D02*
X106941666Y-70630833D01*
X107641666Y-70330833D01*
X134566666Y-87664166D02*
X135133333Y-87664166D01*
X135200000Y-87697500D01*
X135233333Y-87730833D01*
X135266666Y-87797500D01*
X135266666Y-87930833D01*
X135233333Y-87997500D01*
X135200000Y-88030833D01*
X135133333Y-88064166D01*
X134566666Y-88064166D01*
X134633333Y-88364166D02*
X134600000Y-88397500D01*
X134566666Y-88464166D01*
X134566666Y-88630833D01*
X134600000Y-88697500D01*
X134633333Y-88730833D01*
X134700000Y-88764166D01*
X134766666Y-88764166D01*
X134866666Y-88730833D01*
X135266666Y-88330833D01*
X135266666Y-88764166D01*
X110766666Y-69189166D02*
X110433333Y-68955833D01*
X110766666Y-68789166D02*
X110066666Y-68789166D01*
X110066666Y-69055833D01*
X110100000Y-69122500D01*
X110133333Y-69155833D01*
X110200000Y-69189166D01*
X110300000Y-69189166D01*
X110366666Y-69155833D01*
X110400000Y-69122500D01*
X110433333Y-69055833D01*
X110433333Y-68789166D01*
X110133333Y-69455833D02*
X110100000Y-69489166D01*
X110066666Y-69555833D01*
X110066666Y-69722500D01*
X110100000Y-69789166D01*
X110133333Y-69822500D01*
X110200000Y-69855833D01*
X110266666Y-69855833D01*
X110366666Y-69822500D01*
X110766666Y-69422500D01*
X110766666Y-69855833D01*
X110366666Y-70255833D02*
X110333333Y-70189166D01*
X110300000Y-70155833D01*
X110233333Y-70122500D01*
X110200000Y-70122500D01*
X110133333Y-70155833D01*
X110100000Y-70189166D01*
X110066666Y-70255833D01*
X110066666Y-70389166D01*
X110100000Y-70455833D01*
X110133333Y-70489166D01*
X110200000Y-70522500D01*
X110233333Y-70522500D01*
X110300000Y-70489166D01*
X110333333Y-70455833D01*
X110366666Y-70389166D01*
X110366666Y-70255833D01*
X110400000Y-70189166D01*
X110433333Y-70155833D01*
X110500000Y-70122500D01*
X110633333Y-70122500D01*
X110700000Y-70155833D01*
X110733333Y-70189166D01*
X110766666Y-70255833D01*
X110766666Y-70389166D01*
X110733333Y-70455833D01*
X110700000Y-70489166D01*
X110633333Y-70522500D01*
X110500000Y-70522500D01*
X110433333Y-70489166D01*
X110400000Y-70455833D01*
X110366666Y-70389166D01*
X110816666Y-66064166D02*
X110483333Y-65830833D01*
X110816666Y-65664166D02*
X110116666Y-65664166D01*
X110116666Y-65930833D01*
X110150000Y-65997500D01*
X110183333Y-66030833D01*
X110250000Y-66064166D01*
X110350000Y-66064166D01*
X110416666Y-66030833D01*
X110450000Y-65997500D01*
X110483333Y-65930833D01*
X110483333Y-65664166D01*
X110183333Y-66330833D02*
X110150000Y-66364166D01*
X110116666Y-66430833D01*
X110116666Y-66597500D01*
X110150000Y-66664166D01*
X110183333Y-66697500D01*
X110250000Y-66730833D01*
X110316666Y-66730833D01*
X110416666Y-66697500D01*
X110816666Y-66297500D01*
X110816666Y-66730833D01*
X110816666Y-67064166D02*
X110816666Y-67197500D01*
X110783333Y-67264166D01*
X110750000Y-67297500D01*
X110650000Y-67364166D01*
X110516666Y-67397500D01*
X110250000Y-67397500D01*
X110183333Y-67364166D01*
X110150000Y-67330833D01*
X110116666Y-67264166D01*
X110116666Y-67130833D01*
X110150000Y-67064166D01*
X110183333Y-67030833D01*
X110250000Y-66997500D01*
X110416666Y-66997500D01*
X110483333Y-67030833D01*
X110516666Y-67064166D01*
X110550000Y-67130833D01*
X110550000Y-67264166D01*
X110516666Y-67330833D01*
X110483333Y-67364166D01*
X110416666Y-67397500D01*
X114044166Y-77058333D02*
X113944166Y-77091666D01*
X113777500Y-77091666D01*
X113710833Y-77058333D01*
X113677500Y-77025000D01*
X113644166Y-76958333D01*
X113644166Y-76891666D01*
X113677500Y-76825000D01*
X113710833Y-76791666D01*
X113777500Y-76758333D01*
X113910833Y-76725000D01*
X113977500Y-76691666D01*
X114010833Y-76658333D01*
X114044166Y-76591666D01*
X114044166Y-76525000D01*
X114010833Y-76458333D01*
X113977500Y-76425000D01*
X113910833Y-76391666D01*
X113744166Y-76391666D01*
X113644166Y-76425000D01*
X113344166Y-77091666D02*
X113344166Y-76391666D01*
X113077500Y-76391666D01*
X113010833Y-76425000D01*
X112977500Y-76458333D01*
X112944166Y-76525000D01*
X112944166Y-76625000D01*
X112977500Y-76691666D01*
X113010833Y-76725000D01*
X113077500Y-76758333D01*
X113344166Y-76758333D01*
X112344166Y-76391666D02*
X112477500Y-76391666D01*
X112544166Y-76425000D01*
X112577500Y-76458333D01*
X112644166Y-76558333D01*
X112677500Y-76691666D01*
X112677500Y-76958333D01*
X112644166Y-77025000D01*
X112610833Y-77058333D01*
X112544166Y-77091666D01*
X112410833Y-77091666D01*
X112344166Y-77058333D01*
X112310833Y-77025000D01*
X112277500Y-76958333D01*
X112277500Y-76791666D01*
X112310833Y-76725000D01*
X112344166Y-76691666D01*
X112410833Y-76658333D01*
X112544166Y-76658333D01*
X112610833Y-76691666D01*
X112644166Y-76725000D01*
X112677500Y-76791666D01*
X135800000Y-85764166D02*
X135833333Y-85730833D01*
X135866666Y-85630833D01*
X135866666Y-85564166D01*
X135833333Y-85464166D01*
X135766666Y-85397500D01*
X135700000Y-85364166D01*
X135566666Y-85330833D01*
X135466666Y-85330833D01*
X135333333Y-85364166D01*
X135266666Y-85397500D01*
X135200000Y-85464166D01*
X135166666Y-85564166D01*
X135166666Y-85630833D01*
X135200000Y-85730833D01*
X135233333Y-85764166D01*
X135866666Y-86430833D02*
X135866666Y-86030833D01*
X135866666Y-86230833D02*
X135166666Y-86230833D01*
X135266666Y-86164166D01*
X135333333Y-86097500D01*
X135366666Y-86030833D01*
X135166666Y-86664166D02*
X135166666Y-87130833D01*
X135866666Y-86830833D01*
X196385166Y-70264166D02*
X196885166Y-70264166D01*
X196985166Y-70230833D01*
X197051833Y-70164166D01*
X197085166Y-70064166D01*
X197085166Y-69997500D01*
X197085166Y-70964166D02*
X197085166Y-70564166D01*
X197085166Y-70764166D02*
X196385166Y-70764166D01*
X196485166Y-70697500D01*
X196551833Y-70630833D01*
X196585166Y-70564166D01*
X196385166Y-71397500D02*
X196385166Y-71464166D01*
X196418500Y-71530833D01*
X196451833Y-71564166D01*
X196518500Y-71597500D01*
X196651833Y-71630833D01*
X196818500Y-71630833D01*
X196951833Y-71597500D01*
X197018500Y-71564166D01*
X197051833Y-71530833D01*
X197085166Y-71464166D01*
X197085166Y-71397500D01*
X197051833Y-71330833D01*
X197018500Y-71297500D01*
X196951833Y-71264166D01*
X196818500Y-71230833D01*
X196651833Y-71230833D01*
X196518500Y-71264166D01*
X196451833Y-71297500D01*
X196418500Y-71330833D01*
X196385166Y-71397500D01*
X150241666Y-88839166D02*
X149908333Y-88605833D01*
X150241666Y-88439166D02*
X149541666Y-88439166D01*
X149541666Y-88705833D01*
X149575000Y-88772500D01*
X149608333Y-88805833D01*
X149675000Y-88839166D01*
X149775000Y-88839166D01*
X149841666Y-88805833D01*
X149875000Y-88772500D01*
X149908333Y-88705833D01*
X149908333Y-88439166D01*
X149541666Y-89439166D02*
X149541666Y-89305833D01*
X149575000Y-89239166D01*
X149608333Y-89205833D01*
X149708333Y-89139166D01*
X149841666Y-89105833D01*
X150108333Y-89105833D01*
X150175000Y-89139166D01*
X150208333Y-89172500D01*
X150241666Y-89239166D01*
X150241666Y-89372500D01*
X150208333Y-89439166D01*
X150175000Y-89472500D01*
X150108333Y-89505833D01*
X149941666Y-89505833D01*
X149875000Y-89472500D01*
X149841666Y-89439166D01*
X149808333Y-89372500D01*
X149808333Y-89239166D01*
X149841666Y-89172500D01*
X149875000Y-89139166D01*
X149941666Y-89105833D01*
X149608333Y-89772500D02*
X149575000Y-89805833D01*
X149541666Y-89872500D01*
X149541666Y-90039166D01*
X149575000Y-90105833D01*
X149608333Y-90139166D01*
X149675000Y-90172500D01*
X149741666Y-90172500D01*
X149841666Y-90139166D01*
X150241666Y-89739166D01*
X150241666Y-90172500D01*
X150216666Y-84839166D02*
X149883333Y-84605833D01*
X150216666Y-84439166D02*
X149516666Y-84439166D01*
X149516666Y-84705833D01*
X149550000Y-84772500D01*
X149583333Y-84805833D01*
X149650000Y-84839166D01*
X149750000Y-84839166D01*
X149816666Y-84805833D01*
X149850000Y-84772500D01*
X149883333Y-84705833D01*
X149883333Y-84439166D01*
X149516666Y-85439166D02*
X149516666Y-85305833D01*
X149550000Y-85239166D01*
X149583333Y-85205833D01*
X149683333Y-85139166D01*
X149816666Y-85105833D01*
X150083333Y-85105833D01*
X150150000Y-85139166D01*
X150183333Y-85172500D01*
X150216666Y-85239166D01*
X150216666Y-85372500D01*
X150183333Y-85439166D01*
X150150000Y-85472500D01*
X150083333Y-85505833D01*
X149916666Y-85505833D01*
X149850000Y-85472500D01*
X149816666Y-85439166D01*
X149783333Y-85372500D01*
X149783333Y-85239166D01*
X149816666Y-85172500D01*
X149850000Y-85139166D01*
X149916666Y-85105833D01*
X149516666Y-85739166D02*
X149516666Y-86172500D01*
X149783333Y-85939166D01*
X149783333Y-86039166D01*
X149816666Y-86105833D01*
X149850000Y-86139166D01*
X149916666Y-86172500D01*
X150083333Y-86172500D01*
X150150000Y-86139166D01*
X150183333Y-86105833D01*
X150216666Y-86039166D01*
X150216666Y-85839166D01*
X150183333Y-85772500D01*
X150150000Y-85739166D01*
X135110833Y-82366666D02*
X134710833Y-82366666D01*
X134910833Y-83066666D02*
X134910833Y-82366666D01*
X134477500Y-83066666D02*
X134477500Y-82366666D01*
X134210833Y-82366666D01*
X134144166Y-82400000D01*
X134110833Y-82433333D01*
X134077500Y-82500000D01*
X134077500Y-82600000D01*
X134110833Y-82666666D01*
X134144166Y-82700000D01*
X134210833Y-82733333D01*
X134477500Y-82733333D01*
X133810833Y-82433333D02*
X133777500Y-82400000D01*
X133710833Y-82366666D01*
X133544166Y-82366666D01*
X133477500Y-82400000D01*
X133444166Y-82433333D01*
X133410833Y-82500000D01*
X133410833Y-82566666D01*
X133444166Y-82666666D01*
X133844166Y-83066666D01*
X133410833Y-83066666D01*
X99410833Y-95191666D02*
X99410833Y-94491666D01*
X98677500Y-95125000D02*
X98710833Y-95158333D01*
X98810833Y-95191666D01*
X98877500Y-95191666D01*
X98977500Y-95158333D01*
X99044166Y-95091666D01*
X99077500Y-95025000D01*
X99110833Y-94891666D01*
X99110833Y-94791666D01*
X99077500Y-94658333D01*
X99044166Y-94591666D01*
X98977500Y-94525000D01*
X98877500Y-94491666D01*
X98810833Y-94491666D01*
X98710833Y-94525000D01*
X98677500Y-94558333D01*
X98010833Y-95191666D02*
X98410833Y-95191666D01*
X98210833Y-95191666D02*
X98210833Y-94491666D01*
X98277500Y-94591666D01*
X98344166Y-94658333D01*
X98410833Y-94691666D01*
X135225000Y-95164166D02*
X135258333Y-95130833D01*
X135291666Y-95030833D01*
X135291666Y-94964166D01*
X135258333Y-94864166D01*
X135191666Y-94797500D01*
X135125000Y-94764166D01*
X134991666Y-94730833D01*
X134891666Y-94730833D01*
X134758333Y-94764166D01*
X134691666Y-94797500D01*
X134625000Y-94864166D01*
X134591666Y-94964166D01*
X134591666Y-95030833D01*
X134625000Y-95130833D01*
X134658333Y-95164166D01*
X134591666Y-95397500D02*
X134591666Y-95830833D01*
X134858333Y-95597500D01*
X134858333Y-95697500D01*
X134891666Y-95764166D01*
X134925000Y-95797500D01*
X134991666Y-95830833D01*
X135158333Y-95830833D01*
X135225000Y-95797500D01*
X135258333Y-95764166D01*
X135291666Y-95697500D01*
X135291666Y-95497500D01*
X135258333Y-95430833D01*
X135225000Y-95397500D01*
X134591666Y-96430833D02*
X134591666Y-96297500D01*
X134625000Y-96230833D01*
X134658333Y-96197500D01*
X134758333Y-96130833D01*
X134891666Y-96097500D01*
X135158333Y-96097500D01*
X135225000Y-96130833D01*
X135258333Y-96164166D01*
X135291666Y-96230833D01*
X135291666Y-96364166D01*
X135258333Y-96430833D01*
X135225000Y-96464166D01*
X135158333Y-96497500D01*
X134991666Y-96497500D01*
X134925000Y-96464166D01*
X134891666Y-96430833D01*
X134858333Y-96364166D01*
X134858333Y-96230833D01*
X134891666Y-96164166D01*
X134925000Y-96130833D01*
X134991666Y-96097500D01*
X105211833Y-75025000D02*
X105245166Y-75058333D01*
X105345166Y-75091666D01*
X105411833Y-75091666D01*
X105511833Y-75058333D01*
X105578500Y-74991666D01*
X105611833Y-74925000D01*
X105645166Y-74791666D01*
X105645166Y-74691666D01*
X105611833Y-74558333D01*
X105578500Y-74491666D01*
X105511833Y-74425000D01*
X105411833Y-74391666D01*
X105345166Y-74391666D01*
X105245166Y-74425000D01*
X105211833Y-74458333D01*
X104945166Y-74458333D02*
X104911833Y-74425000D01*
X104845166Y-74391666D01*
X104678500Y-74391666D01*
X104611833Y-74425000D01*
X104578500Y-74458333D01*
X104545166Y-74525000D01*
X104545166Y-74591666D01*
X104578500Y-74691666D01*
X104978500Y-75091666D01*
X104545166Y-75091666D01*
X104311833Y-74391666D02*
X103845166Y-74391666D01*
X104145166Y-75091666D01*
X103185833Y-63775000D02*
X103219166Y-63808333D01*
X103319166Y-63841666D01*
X103385833Y-63841666D01*
X103485833Y-63808333D01*
X103552500Y-63741666D01*
X103585833Y-63675000D01*
X103619166Y-63541666D01*
X103619166Y-63441666D01*
X103585833Y-63308333D01*
X103552500Y-63241666D01*
X103485833Y-63175000D01*
X103385833Y-63141666D01*
X103319166Y-63141666D01*
X103219166Y-63175000D01*
X103185833Y-63208333D01*
X102952500Y-63141666D02*
X102519166Y-63141666D01*
X102752500Y-63408333D01*
X102652500Y-63408333D01*
X102585833Y-63441666D01*
X102552500Y-63475000D01*
X102519166Y-63541666D01*
X102519166Y-63708333D01*
X102552500Y-63775000D01*
X102585833Y-63808333D01*
X102652500Y-63841666D01*
X102852500Y-63841666D01*
X102919166Y-63808333D01*
X102952500Y-63775000D01*
X101919166Y-63375000D02*
X101919166Y-63841666D01*
X102085833Y-63108333D02*
X102252500Y-63608333D01*
X101819166Y-63608333D01*
X132250000Y-95164166D02*
X132283333Y-95130833D01*
X132316666Y-95030833D01*
X132316666Y-94964166D01*
X132283333Y-94864166D01*
X132216666Y-94797500D01*
X132150000Y-94764166D01*
X132016666Y-94730833D01*
X131916666Y-94730833D01*
X131783333Y-94764166D01*
X131716666Y-94797500D01*
X131650000Y-94864166D01*
X131616666Y-94964166D01*
X131616666Y-95030833D01*
X131650000Y-95130833D01*
X131683333Y-95164166D01*
X131616666Y-95397500D02*
X131616666Y-95830833D01*
X131883333Y-95597500D01*
X131883333Y-95697500D01*
X131916666Y-95764166D01*
X131950000Y-95797500D01*
X132016666Y-95830833D01*
X132183333Y-95830833D01*
X132250000Y-95797500D01*
X132283333Y-95764166D01*
X132316666Y-95697500D01*
X132316666Y-95497500D01*
X132283333Y-95430833D01*
X132250000Y-95397500D01*
X131616666Y-96064166D02*
X131616666Y-96530833D01*
X132316666Y-96230833D01*
X127177500Y-90300000D02*
X127410833Y-90300000D01*
X127410833Y-90666666D02*
X127410833Y-89966666D01*
X127077500Y-89966666D01*
X126444166Y-90666666D02*
X126844166Y-90666666D01*
X126644166Y-90666666D02*
X126644166Y-89966666D01*
X126710833Y-90066666D01*
X126777500Y-90133333D01*
X126844166Y-90166666D01*
X105185833Y-66441666D02*
X105419166Y-66108333D01*
X105585833Y-66441666D02*
X105585833Y-65741666D01*
X105319166Y-65741666D01*
X105252500Y-65775000D01*
X105219166Y-65808333D01*
X105185833Y-65875000D01*
X105185833Y-65975000D01*
X105219166Y-66041666D01*
X105252500Y-66075000D01*
X105319166Y-66108333D01*
X105585833Y-66108333D01*
X104952500Y-65741666D02*
X104519166Y-65741666D01*
X104752500Y-66008333D01*
X104652500Y-66008333D01*
X104585833Y-66041666D01*
X104552500Y-66075000D01*
X104519166Y-66141666D01*
X104519166Y-66308333D01*
X104552500Y-66375000D01*
X104585833Y-66408333D01*
X104652500Y-66441666D01*
X104852500Y-66441666D01*
X104919166Y-66408333D01*
X104952500Y-66375000D01*
X104252500Y-65808333D02*
X104219166Y-65775000D01*
X104152500Y-65741666D01*
X103985833Y-65741666D01*
X103919166Y-65775000D01*
X103885833Y-65808333D01*
X103852500Y-65875000D01*
X103852500Y-65941666D01*
X103885833Y-66041666D01*
X104285833Y-66441666D01*
X103852500Y-66441666D01*
X133737500Y-95164166D02*
X133770833Y-95130833D01*
X133804166Y-95030833D01*
X133804166Y-94964166D01*
X133770833Y-94864166D01*
X133704166Y-94797500D01*
X133637500Y-94764166D01*
X133504166Y-94730833D01*
X133404166Y-94730833D01*
X133270833Y-94764166D01*
X133204166Y-94797500D01*
X133137500Y-94864166D01*
X133104166Y-94964166D01*
X133104166Y-95030833D01*
X133137500Y-95130833D01*
X133170833Y-95164166D01*
X133104166Y-95397500D02*
X133104166Y-95830833D01*
X133370833Y-95597500D01*
X133370833Y-95697500D01*
X133404166Y-95764166D01*
X133437500Y-95797500D01*
X133504166Y-95830833D01*
X133670833Y-95830833D01*
X133737500Y-95797500D01*
X133770833Y-95764166D01*
X133804166Y-95697500D01*
X133804166Y-95497500D01*
X133770833Y-95430833D01*
X133737500Y-95397500D01*
X133104166Y-96464166D02*
X133104166Y-96130833D01*
X133437500Y-96097500D01*
X133404166Y-96130833D01*
X133370833Y-96197500D01*
X133370833Y-96364166D01*
X133404166Y-96430833D01*
X133437500Y-96464166D01*
X133504166Y-96497500D01*
X133670833Y-96497500D01*
X133737500Y-96464166D01*
X133770833Y-96430833D01*
X133804166Y-96364166D01*
X133804166Y-96197500D01*
X133770833Y-96130833D01*
X133737500Y-96097500D01*
X105185833Y-68516666D02*
X105419166Y-68183333D01*
X105585833Y-68516666D02*
X105585833Y-67816666D01*
X105319166Y-67816666D01*
X105252500Y-67850000D01*
X105219166Y-67883333D01*
X105185833Y-67950000D01*
X105185833Y-68050000D01*
X105219166Y-68116666D01*
X105252500Y-68150000D01*
X105319166Y-68183333D01*
X105585833Y-68183333D01*
X104952500Y-67816666D02*
X104519166Y-67816666D01*
X104752500Y-68083333D01*
X104652500Y-68083333D01*
X104585833Y-68116666D01*
X104552500Y-68150000D01*
X104519166Y-68216666D01*
X104519166Y-68383333D01*
X104552500Y-68450000D01*
X104585833Y-68483333D01*
X104652500Y-68516666D01*
X104852500Y-68516666D01*
X104919166Y-68483333D01*
X104952500Y-68450000D01*
X103852500Y-68516666D02*
X104252500Y-68516666D01*
X104052500Y-68516666D02*
X104052500Y-67816666D01*
X104119166Y-67916666D01*
X104185833Y-67983333D01*
X104252500Y-68016666D01*
X98335833Y-57475000D02*
X98369166Y-57508333D01*
X98469166Y-57541666D01*
X98535833Y-57541666D01*
X98635833Y-57508333D01*
X98702500Y-57441666D01*
X98735833Y-57375000D01*
X98769166Y-57241666D01*
X98769166Y-57141666D01*
X98735833Y-57008333D01*
X98702500Y-56941666D01*
X98635833Y-56875000D01*
X98535833Y-56841666D01*
X98469166Y-56841666D01*
X98369166Y-56875000D01*
X98335833Y-56908333D01*
X98102500Y-56841666D02*
X97669166Y-56841666D01*
X97902500Y-57108333D01*
X97802500Y-57108333D01*
X97735833Y-57141666D01*
X97702500Y-57175000D01*
X97669166Y-57241666D01*
X97669166Y-57408333D01*
X97702500Y-57475000D01*
X97735833Y-57508333D01*
X97802500Y-57541666D01*
X98002500Y-57541666D01*
X98069166Y-57508333D01*
X98102500Y-57475000D01*
X97002500Y-57541666D02*
X97402500Y-57541666D01*
X97202500Y-57541666D02*
X97202500Y-56841666D01*
X97269166Y-56941666D01*
X97335833Y-57008333D01*
X97402500Y-57041666D01*
X123541666Y-94464166D02*
X122841666Y-94464166D01*
X122841666Y-94630833D01*
X122875000Y-94730833D01*
X122941666Y-94797500D01*
X123008333Y-94830833D01*
X123141666Y-94864166D01*
X123241666Y-94864166D01*
X123375000Y-94830833D01*
X123441666Y-94797500D01*
X123508333Y-94730833D01*
X123541666Y-94630833D01*
X123541666Y-94464166D01*
X123141666Y-95264166D02*
X123108333Y-95197500D01*
X123075000Y-95164166D01*
X123008333Y-95130833D01*
X122975000Y-95130833D01*
X122908333Y-95164166D01*
X122875000Y-95197500D01*
X122841666Y-95264166D01*
X122841666Y-95397500D01*
X122875000Y-95464166D01*
X122908333Y-95497500D01*
X122975000Y-95530833D01*
X123008333Y-95530833D01*
X123075000Y-95497500D01*
X123108333Y-95464166D01*
X123141666Y-95397500D01*
X123141666Y-95264166D01*
X123175000Y-95197500D01*
X123208333Y-95164166D01*
X123275000Y-95130833D01*
X123408333Y-95130833D01*
X123475000Y-95164166D01*
X123508333Y-95197500D01*
X123541666Y-95264166D01*
X123541666Y-95397500D01*
X123508333Y-95464166D01*
X123475000Y-95497500D01*
X123408333Y-95530833D01*
X123275000Y-95530833D01*
X123208333Y-95497500D01*
X123175000Y-95464166D01*
X123141666Y-95397500D01*
X111985833Y-81912000D02*
X112019166Y-81945333D01*
X112119166Y-81978666D01*
X112185833Y-81978666D01*
X112285833Y-81945333D01*
X112352500Y-81878666D01*
X112385833Y-81812000D01*
X112419166Y-81678666D01*
X112419166Y-81578666D01*
X112385833Y-81445333D01*
X112352500Y-81378666D01*
X112285833Y-81312000D01*
X112185833Y-81278666D01*
X112119166Y-81278666D01*
X112019166Y-81312000D01*
X111985833Y-81345333D01*
X111719166Y-81345333D02*
X111685833Y-81312000D01*
X111619166Y-81278666D01*
X111452500Y-81278666D01*
X111385833Y-81312000D01*
X111352500Y-81345333D01*
X111319166Y-81412000D01*
X111319166Y-81478666D01*
X111352500Y-81578666D01*
X111752500Y-81978666D01*
X111319166Y-81978666D01*
X110719166Y-81278666D02*
X110852500Y-81278666D01*
X110919166Y-81312000D01*
X110952500Y-81345333D01*
X111019166Y-81445333D01*
X111052500Y-81578666D01*
X111052500Y-81845333D01*
X111019166Y-81912000D01*
X110985833Y-81945333D01*
X110919166Y-81978666D01*
X110785833Y-81978666D01*
X110719166Y-81945333D01*
X110685833Y-81912000D01*
X110652500Y-81845333D01*
X110652500Y-81678666D01*
X110685833Y-81612000D01*
X110719166Y-81578666D01*
X110785833Y-81545333D01*
X110919166Y-81545333D01*
X110985833Y-81578666D01*
X111019166Y-81612000D01*
X111052500Y-81678666D01*
X82952500Y-95400000D02*
X83185833Y-95400000D01*
X83185833Y-95766666D02*
X83185833Y-95066666D01*
X82852500Y-95066666D01*
X82352500Y-95400000D02*
X82252500Y-95433333D01*
X82219166Y-95466666D01*
X82185833Y-95533333D01*
X82185833Y-95633333D01*
X82219166Y-95700000D01*
X82252500Y-95733333D01*
X82319166Y-95766666D01*
X82585833Y-95766666D01*
X82585833Y-95066666D01*
X82352500Y-95066666D01*
X82285833Y-95100000D01*
X82252500Y-95133333D01*
X82219166Y-95200000D01*
X82219166Y-95266666D01*
X82252500Y-95333333D01*
X82285833Y-95366666D01*
X82352500Y-95400000D01*
X82585833Y-95400000D01*
X81919166Y-95133333D02*
X81885833Y-95100000D01*
X81819166Y-95066666D01*
X81652500Y-95066666D01*
X81585833Y-95100000D01*
X81552500Y-95133333D01*
X81519166Y-95200000D01*
X81519166Y-95266666D01*
X81552500Y-95366666D01*
X81952500Y-95766666D01*
X81519166Y-95766666D01*
X95541666Y-65464166D02*
X94841666Y-65464166D01*
X94841666Y-65630833D01*
X94875000Y-65730833D01*
X94941666Y-65797500D01*
X95008333Y-65830833D01*
X95141666Y-65864166D01*
X95241666Y-65864166D01*
X95375000Y-65830833D01*
X95441666Y-65797500D01*
X95508333Y-65730833D01*
X95541666Y-65630833D01*
X95541666Y-65464166D01*
X94841666Y-66497500D02*
X94841666Y-66164166D01*
X95175000Y-66130833D01*
X95141666Y-66164166D01*
X95108333Y-66230833D01*
X95108333Y-66397500D01*
X95141666Y-66464166D01*
X95175000Y-66497500D01*
X95241666Y-66530833D01*
X95408333Y-66530833D01*
X95475000Y-66497500D01*
X95508333Y-66464166D01*
X95541666Y-66397500D01*
X95541666Y-66230833D01*
X95508333Y-66164166D01*
X95475000Y-66130833D01*
X83852500Y-92425000D02*
X84085833Y-92425000D01*
X84085833Y-92791666D02*
X84085833Y-92091666D01*
X83752500Y-92091666D01*
X83252500Y-92425000D02*
X83152500Y-92458333D01*
X83119166Y-92491666D01*
X83085833Y-92558333D01*
X83085833Y-92658333D01*
X83119166Y-92725000D01*
X83152500Y-92758333D01*
X83219166Y-92791666D01*
X83485833Y-92791666D01*
X83485833Y-92091666D01*
X83252500Y-92091666D01*
X83185833Y-92125000D01*
X83152500Y-92158333D01*
X83119166Y-92225000D01*
X83119166Y-92291666D01*
X83152500Y-92358333D01*
X83185833Y-92391666D01*
X83252500Y-92425000D01*
X83485833Y-92425000D01*
X82419166Y-92791666D02*
X82819166Y-92791666D01*
X82619166Y-92791666D02*
X82619166Y-92091666D01*
X82685833Y-92191666D01*
X82752500Y-92258333D01*
X82819166Y-92291666D01*
X94536666Y-77400166D02*
X93836666Y-77400166D01*
X93836666Y-77566833D01*
X93870000Y-77666833D01*
X93936666Y-77733500D01*
X94003333Y-77766833D01*
X94136666Y-77800166D01*
X94236666Y-77800166D01*
X94370000Y-77766833D01*
X94436666Y-77733500D01*
X94503333Y-77666833D01*
X94536666Y-77566833D01*
X94536666Y-77400166D01*
X94070000Y-78400166D02*
X94536666Y-78400166D01*
X93803333Y-78233500D02*
X94303333Y-78066833D01*
X94303333Y-78500166D01*
X105210833Y-71241666D02*
X105444166Y-70908333D01*
X105610833Y-71241666D02*
X105610833Y-70541666D01*
X105344166Y-70541666D01*
X105277500Y-70575000D01*
X105244166Y-70608333D01*
X105210833Y-70675000D01*
X105210833Y-70775000D01*
X105244166Y-70841666D01*
X105277500Y-70875000D01*
X105344166Y-70908333D01*
X105610833Y-70908333D01*
X104944166Y-70608333D02*
X104910833Y-70575000D01*
X104844166Y-70541666D01*
X104677500Y-70541666D01*
X104610833Y-70575000D01*
X104577500Y-70608333D01*
X104544166Y-70675000D01*
X104544166Y-70741666D01*
X104577500Y-70841666D01*
X104977500Y-71241666D01*
X104544166Y-71241666D01*
X103944166Y-70541666D02*
X104077500Y-70541666D01*
X104144166Y-70575000D01*
X104177500Y-70608333D01*
X104244166Y-70708333D01*
X104277500Y-70841666D01*
X104277500Y-71108333D01*
X104244166Y-71175000D01*
X104210833Y-71208333D01*
X104144166Y-71241666D01*
X104010833Y-71241666D01*
X103944166Y-71208333D01*
X103910833Y-71175000D01*
X103877500Y-71108333D01*
X103877500Y-70941666D01*
X103910833Y-70875000D01*
X103944166Y-70841666D01*
X104010833Y-70808333D01*
X104144166Y-70808333D01*
X104210833Y-70841666D01*
X104244166Y-70875000D01*
X104277500Y-70941666D01*
X91160833Y-88491666D02*
X91160833Y-87791666D01*
X90994166Y-87791666D01*
X90894166Y-87825000D01*
X90827500Y-87891666D01*
X90794166Y-87958333D01*
X90760833Y-88091666D01*
X90760833Y-88191666D01*
X90794166Y-88325000D01*
X90827500Y-88391666D01*
X90894166Y-88458333D01*
X90994166Y-88491666D01*
X91160833Y-88491666D01*
X90160833Y-87791666D02*
X90294166Y-87791666D01*
X90360833Y-87825000D01*
X90394166Y-87858333D01*
X90460833Y-87958333D01*
X90494166Y-88091666D01*
X90494166Y-88358333D01*
X90460833Y-88425000D01*
X90427500Y-88458333D01*
X90360833Y-88491666D01*
X90227500Y-88491666D01*
X90160833Y-88458333D01*
X90127500Y-88425000D01*
X90094166Y-88358333D01*
X90094166Y-88191666D01*
X90127500Y-88125000D01*
X90160833Y-88091666D01*
X90227500Y-88058333D01*
X90360833Y-88058333D01*
X90427500Y-88091666D01*
X90460833Y-88125000D01*
X90494166Y-88191666D01*
X105210833Y-73841666D02*
X105444166Y-73508333D01*
X105610833Y-73841666D02*
X105610833Y-73141666D01*
X105344166Y-73141666D01*
X105277500Y-73175000D01*
X105244166Y-73208333D01*
X105210833Y-73275000D01*
X105210833Y-73375000D01*
X105244166Y-73441666D01*
X105277500Y-73475000D01*
X105344166Y-73508333D01*
X105610833Y-73508333D01*
X104944166Y-73208333D02*
X104910833Y-73175000D01*
X104844166Y-73141666D01*
X104677500Y-73141666D01*
X104610833Y-73175000D01*
X104577500Y-73208333D01*
X104544166Y-73275000D01*
X104544166Y-73341666D01*
X104577500Y-73441666D01*
X104977500Y-73841666D01*
X104544166Y-73841666D01*
X103910833Y-73141666D02*
X104244166Y-73141666D01*
X104277500Y-73475000D01*
X104244166Y-73441666D01*
X104177500Y-73408333D01*
X104010833Y-73408333D01*
X103944166Y-73441666D01*
X103910833Y-73475000D01*
X103877500Y-73541666D01*
X103877500Y-73708333D01*
X103910833Y-73775000D01*
X103944166Y-73808333D01*
X104010833Y-73841666D01*
X104177500Y-73841666D01*
X104244166Y-73808333D01*
X104277500Y-73775000D01*
X111985833Y-95100000D02*
X112019166Y-95133333D01*
X112119166Y-95166666D01*
X112185833Y-95166666D01*
X112285833Y-95133333D01*
X112352500Y-95066666D01*
X112385833Y-95000000D01*
X112419166Y-94866666D01*
X112419166Y-94766666D01*
X112385833Y-94633333D01*
X112352500Y-94566666D01*
X112285833Y-94500000D01*
X112185833Y-94466666D01*
X112119166Y-94466666D01*
X112019166Y-94500000D01*
X111985833Y-94533333D01*
X111719166Y-94533333D02*
X111685833Y-94500000D01*
X111619166Y-94466666D01*
X111452500Y-94466666D01*
X111385833Y-94500000D01*
X111352500Y-94533333D01*
X111319166Y-94600000D01*
X111319166Y-94666666D01*
X111352500Y-94766666D01*
X111752500Y-95166666D01*
X111319166Y-95166666D01*
X110919166Y-94766666D02*
X110985833Y-94733333D01*
X111019166Y-94700000D01*
X111052500Y-94633333D01*
X111052500Y-94600000D01*
X111019166Y-94533333D01*
X110985833Y-94500000D01*
X110919166Y-94466666D01*
X110785833Y-94466666D01*
X110719166Y-94500000D01*
X110685833Y-94533333D01*
X110652500Y-94600000D01*
X110652500Y-94633333D01*
X110685833Y-94700000D01*
X110719166Y-94733333D01*
X110785833Y-94766666D01*
X110919166Y-94766666D01*
X110985833Y-94800000D01*
X111019166Y-94833333D01*
X111052500Y-94900000D01*
X111052500Y-95033333D01*
X111019166Y-95100000D01*
X110985833Y-95133333D01*
X110919166Y-95166666D01*
X110785833Y-95166666D01*
X110719166Y-95133333D01*
X110685833Y-95100000D01*
X110652500Y-95033333D01*
X110652500Y-94900000D01*
X110685833Y-94833333D01*
X110719166Y-94800000D01*
X110785833Y-94766666D01*
X105185833Y-67412500D02*
X105219166Y-67445833D01*
X105319166Y-67479166D01*
X105385833Y-67479166D01*
X105485833Y-67445833D01*
X105552500Y-67379166D01*
X105585833Y-67312500D01*
X105619166Y-67179166D01*
X105619166Y-67079166D01*
X105585833Y-66945833D01*
X105552500Y-66879166D01*
X105485833Y-66812500D01*
X105385833Y-66779166D01*
X105319166Y-66779166D01*
X105219166Y-66812500D01*
X105185833Y-66845833D01*
X104952500Y-66779166D02*
X104519166Y-66779166D01*
X104752500Y-67045833D01*
X104652500Y-67045833D01*
X104585833Y-67079166D01*
X104552500Y-67112500D01*
X104519166Y-67179166D01*
X104519166Y-67345833D01*
X104552500Y-67412500D01*
X104585833Y-67445833D01*
X104652500Y-67479166D01*
X104852500Y-67479166D01*
X104919166Y-67445833D01*
X104952500Y-67412500D01*
X104285833Y-66779166D02*
X103852500Y-66779166D01*
X104085833Y-67045833D01*
X103985833Y-67045833D01*
X103919166Y-67079166D01*
X103885833Y-67112500D01*
X103852500Y-67179166D01*
X103852500Y-67345833D01*
X103885833Y-67412500D01*
X103919166Y-67445833D01*
X103985833Y-67479166D01*
X104185833Y-67479166D01*
X104252500Y-67445833D01*
X104285833Y-67412500D01*
X105211833Y-72475000D02*
X105245166Y-72508333D01*
X105345166Y-72541666D01*
X105411833Y-72541666D01*
X105511833Y-72508333D01*
X105578500Y-72441666D01*
X105611833Y-72375000D01*
X105645166Y-72241666D01*
X105645166Y-72141666D01*
X105611833Y-72008333D01*
X105578500Y-71941666D01*
X105511833Y-71875000D01*
X105411833Y-71841666D01*
X105345166Y-71841666D01*
X105245166Y-71875000D01*
X105211833Y-71908333D01*
X104978500Y-71841666D02*
X104545166Y-71841666D01*
X104778500Y-72108333D01*
X104678500Y-72108333D01*
X104611833Y-72141666D01*
X104578500Y-72175000D01*
X104545166Y-72241666D01*
X104545166Y-72408333D01*
X104578500Y-72475000D01*
X104611833Y-72508333D01*
X104678500Y-72541666D01*
X104878500Y-72541666D01*
X104945166Y-72508333D01*
X104978500Y-72475000D01*
X104111833Y-71841666D02*
X104045166Y-71841666D01*
X103978500Y-71875000D01*
X103945166Y-71908333D01*
X103911833Y-71975000D01*
X103878500Y-72108333D01*
X103878500Y-72275000D01*
X103911833Y-72408333D01*
X103945166Y-72475000D01*
X103978500Y-72508333D01*
X104045166Y-72541666D01*
X104111833Y-72541666D01*
X104178500Y-72508333D01*
X104211833Y-72475000D01*
X104245166Y-72408333D01*
X104278500Y-72275000D01*
X104278500Y-72108333D01*
X104245166Y-71975000D01*
X104211833Y-71908333D01*
X104178500Y-71875000D01*
X104111833Y-71841666D01*
X95016666Y-87964166D02*
X94683333Y-87730833D01*
X95016666Y-87564166D02*
X94316666Y-87564166D01*
X94316666Y-87830833D01*
X94350000Y-87897500D01*
X94383333Y-87930833D01*
X94450000Y-87964166D01*
X94550000Y-87964166D01*
X94616666Y-87930833D01*
X94650000Y-87897500D01*
X94683333Y-87830833D01*
X94683333Y-87564166D01*
X94383333Y-88230833D02*
X94350000Y-88264166D01*
X94316666Y-88330833D01*
X94316666Y-88497500D01*
X94350000Y-88564166D01*
X94383333Y-88597500D01*
X94450000Y-88630833D01*
X94516666Y-88630833D01*
X94616666Y-88597500D01*
X95016666Y-88197500D01*
X95016666Y-88630833D01*
X94316666Y-88864166D02*
X94316666Y-89297500D01*
X94583333Y-89064166D01*
X94583333Y-89164166D01*
X94616666Y-89230833D01*
X94650000Y-89264166D01*
X94716666Y-89297500D01*
X94883333Y-89297500D01*
X94950000Y-89264166D01*
X94983333Y-89230833D01*
X95016666Y-89164166D01*
X95016666Y-88964166D01*
X94983333Y-88897500D01*
X94950000Y-88864166D01*
X93300000Y-87964166D02*
X93333333Y-87930833D01*
X93366666Y-87830833D01*
X93366666Y-87764166D01*
X93333333Y-87664166D01*
X93266666Y-87597500D01*
X93200000Y-87564166D01*
X93066666Y-87530833D01*
X92966666Y-87530833D01*
X92833333Y-87564166D01*
X92766666Y-87597500D01*
X92700000Y-87664166D01*
X92666666Y-87764166D01*
X92666666Y-87830833D01*
X92700000Y-87930833D01*
X92733333Y-87964166D01*
X92733333Y-88230833D02*
X92700000Y-88264166D01*
X92666666Y-88330833D01*
X92666666Y-88497500D01*
X92700000Y-88564166D01*
X92733333Y-88597500D01*
X92800000Y-88630833D01*
X92866666Y-88630833D01*
X92966666Y-88597500D01*
X93366666Y-88197500D01*
X93366666Y-88630833D01*
X92666666Y-89064166D02*
X92666666Y-89130833D01*
X92700000Y-89197500D01*
X92733333Y-89230833D01*
X92800000Y-89264166D01*
X92933333Y-89297500D01*
X93100000Y-89297500D01*
X93233333Y-89264166D01*
X93300000Y-89230833D01*
X93333333Y-89197500D01*
X93366666Y-89130833D01*
X93366666Y-89064166D01*
X93333333Y-88997500D01*
X93300000Y-88964166D01*
X93233333Y-88930833D01*
X93100000Y-88897500D01*
X92933333Y-88897500D01*
X92800000Y-88930833D01*
X92733333Y-88964166D01*
X92700000Y-88997500D01*
X92666666Y-89064166D01*
X94991666Y-94439166D02*
X94658333Y-94205833D01*
X94991666Y-94039166D02*
X94291666Y-94039166D01*
X94291666Y-94305833D01*
X94325000Y-94372500D01*
X94358333Y-94405833D01*
X94425000Y-94439166D01*
X94525000Y-94439166D01*
X94591666Y-94405833D01*
X94625000Y-94372500D01*
X94658333Y-94305833D01*
X94658333Y-94039166D01*
X94358333Y-94705833D02*
X94325000Y-94739166D01*
X94291666Y-94805833D01*
X94291666Y-94972500D01*
X94325000Y-95039166D01*
X94358333Y-95072500D01*
X94425000Y-95105833D01*
X94491666Y-95105833D01*
X94591666Y-95072500D01*
X94991666Y-94672500D01*
X94991666Y-95105833D01*
X94525000Y-95705833D02*
X94991666Y-95705833D01*
X94258333Y-95539166D02*
X94758333Y-95372500D01*
X94758333Y-95805833D01*
X174246000Y-69846000D02*
X174246000Y-70446000D01*
X174846000Y-69846000D02*
X174846000Y-70446000D01*
X177894000Y-69846000D02*
X177894000Y-70446000D01*
X177294000Y-69846000D02*
X177294000Y-70446000D01*
X175770000Y-67652000D02*
X175770000Y-67052000D01*
X176370000Y-67652000D02*
X176370000Y-67052000D01*
X173322000Y-81368000D02*
X173322000Y-80768000D01*
X172722000Y-81368000D02*
X172722000Y-80768000D01*
X176370000Y-69846000D02*
X176370000Y-70446000D01*
X175770000Y-69846000D02*
X175770000Y-70446000D01*
X177894000Y-85848000D02*
X177894000Y-86448000D01*
X177294000Y-85848000D02*
X177294000Y-86448000D01*
X176370000Y-81368000D02*
X176370000Y-80768000D01*
X175770000Y-81368000D02*
X175770000Y-80768000D01*
X174246000Y-81368000D02*
X174246000Y-80768000D01*
X174846000Y-81368000D02*
X174846000Y-80768000D01*
X183090000Y-65929000D02*
X184840000Y-65929000D01*
X184940000Y-87828000D02*
X182989000Y-87828000D01*
X179540000Y-87828000D02*
X179540000Y-86229000D01*
X179540000Y-67429000D02*
X179540000Y-65929000D01*
X187289000Y-71780000D02*
X187289000Y-69979000D01*
X180839000Y-87828000D02*
X179540000Y-87828000D01*
X179540000Y-71530000D02*
X179540000Y-69729000D01*
X179540000Y-65929000D02*
X181239000Y-65929000D01*
D11*
X188486148Y-86127000D02*
G75*
G03*
X188486148Y-86127000I-72148J0D01*
G01*
D10*
X177294000Y-81368000D02*
X177294000Y-80768000D01*
X177894000Y-81368000D02*
X177894000Y-80768000D01*
X173322000Y-85848000D02*
X173322000Y-86448000D01*
X172722000Y-85848000D02*
X172722000Y-86448000D01*
X177894000Y-67652000D02*
X177894000Y-67052000D01*
X177294000Y-67652000D02*
X177294000Y-67052000D01*
X121900000Y-84800000D02*
X121300000Y-84800000D01*
X121900000Y-86400000D02*
X121300000Y-86400000D01*
X91605000Y-81511000D02*
X93054000Y-81511000D01*
X91605000Y-85370000D02*
X93054000Y-85370000D01*
X90820000Y-84940000D02*
G75*
G03*
X90820000Y-84940000I-101000J0D01*
G01*
X131900000Y-91000000D02*
X132500000Y-91000000D01*
X131900000Y-89400000D02*
X132500000Y-89400000D01*
X127901000Y-85500000D02*
X127100000Y-85500000D01*
X127901000Y-87999000D02*
X127100000Y-87999000D01*
D12*
X129862500Y-86750000D02*
G75*
G03*
X129862500Y-86750000I-62500J0D01*
G01*
D10*
X104916000Y-63412000D02*
X104916000Y-64012000D01*
X107696000Y-63412000D02*
X107696000Y-64012000D01*
D12*
X142101500Y-79328000D02*
G75*
G03*
X142101500Y-79328000I-62500J0D01*
G01*
D10*
X173322000Y-67652000D02*
X173322000Y-67052000D01*
X172722000Y-67652000D02*
X172722000Y-67052000D01*
X174846000Y-67652000D02*
X174846000Y-67052000D01*
X174246000Y-67652000D02*
X174246000Y-67052000D01*
X175770000Y-85848000D02*
X175770000Y-86448000D01*
X176370000Y-85848000D02*
X176370000Y-86448000D01*
X174246000Y-85848000D02*
X174246000Y-86448000D01*
X174846000Y-85848000D02*
X174846000Y-86448000D01*
X121900000Y-87000000D02*
X121300000Y-87000000D01*
X121900000Y-88600000D02*
X121300000Y-88600000D01*
X77404000Y-78824000D02*
X83804000Y-78824000D01*
X87704000Y-80224000D02*
X87704000Y-91324000D01*
X87704000Y-78824000D02*
X87704000Y-78924000D01*
X83204000Y-91324000D02*
X77404000Y-91324000D01*
X85604000Y-78824000D02*
X87704000Y-78824000D01*
X87704000Y-91324000D02*
X86304000Y-91324000D01*
X103818000Y-58230000D02*
X103318000Y-58230000D01*
X103818000Y-60032000D02*
X104316000Y-60032000D01*
X103818000Y-58230000D02*
X104316000Y-58230000D01*
X103818000Y-60032000D02*
X103318000Y-60032000D01*
X109706000Y-58121000D02*
X109106000Y-58121000D01*
X109706000Y-60901000D02*
X109106000Y-60901000D01*
X133625600Y-86114800D02*
X133476600Y-86114800D01*
X130479400Y-87834000D02*
X130628400Y-87834000D01*
X130479400Y-86136000D02*
X130628400Y-86136000D01*
X133625600Y-86114800D02*
X133625600Y-87663800D01*
X130479400Y-86136000D02*
X130479400Y-87834000D01*
X133625600Y-87663800D02*
X133476600Y-87812800D01*
D13*
X134244000Y-88286000D02*
G75*
G03*
X134244000Y-88286000I-62000J0D01*
G01*
X134252000Y-88286000D02*
G75*
G03*
X134252000Y-88286000I-62000J0D01*
G01*
D12*
X110001500Y-79328000D02*
G75*
G03*
X110001500Y-79328000I-62500J0D01*
G01*
D10*
X197230000Y-69450000D02*
G75*
G03*
X197230000Y-69450000I-99000J0D01*
G01*
X203581000Y-88049000D02*
X202930000Y-88049000D01*
X198181000Y-65350000D02*
X198181000Y-66370000D01*
X198780000Y-65350000D02*
X198181000Y-65350000D01*
X202930000Y-65350000D02*
X203581000Y-65350000D01*
X198181000Y-88049000D02*
X198780000Y-88049000D01*
X198181000Y-87029000D02*
X198181000Y-88049000D01*
X203581000Y-65350000D02*
X203581000Y-88049000D01*
X152500000Y-89000000D02*
X152500000Y-88500000D01*
X152500000Y-89000000D02*
X152500000Y-89498000D01*
X150698000Y-89000000D02*
X150698000Y-89498000D01*
X150698000Y-89000000D02*
X150698000Y-88500000D01*
X152502000Y-85400000D02*
X152502000Y-84902000D01*
X150700000Y-85400000D02*
X150700000Y-84902000D01*
X150700000Y-85400000D02*
X150700000Y-85900000D01*
X152502000Y-85400000D02*
X152502000Y-85900000D01*
X95574000Y-94087000D02*
X97100000Y-94087000D01*
D14*
X95321518Y-93415000D02*
G75*
G03*
X95321518Y-93415000I-72518J0D01*
G01*
D12*
X95182500Y-93411000D02*
G75*
G03*
X95182500Y-93411000I-62500J0D01*
G01*
D10*
X135100000Y-93796000D02*
X135100000Y-93196000D01*
X134500000Y-93796000D02*
X134500000Y-93196000D01*
X127413000Y-91035000D02*
X126640000Y-91035000D01*
X127413000Y-92688000D02*
X126640000Y-92688000D01*
X133000000Y-93796000D02*
X133000000Y-93196000D01*
X133600000Y-93796000D02*
X133600000Y-93196000D01*
X98300000Y-60896000D02*
X97700000Y-60896000D01*
X98300000Y-58116000D02*
X97700000Y-58116000D01*
X130301000Y-93296000D02*
X130301000Y-96296000D01*
X130301000Y-96296000D02*
X127000000Y-96296000D01*
X127000000Y-93296000D02*
X130301000Y-93296000D01*
X113181000Y-87822000D02*
X110351000Y-87822000D01*
X113181000Y-82602000D02*
X110351000Y-82602000D01*
X84900000Y-96001000D02*
X85498000Y-96001000D01*
X84880000Y-94601000D02*
X85480000Y-94601000D01*
X95976000Y-67847000D02*
X95976000Y-63646000D01*
X100935000Y-69646000D02*
X100935000Y-63646000D01*
D15*
X101643000Y-69047000D02*
G75*
G03*
X101643000Y-69047000I-87000J0D01*
G01*
D10*
X85780000Y-91801000D02*
X86380000Y-91801000D01*
X85800000Y-93201000D02*
X86398000Y-93201000D01*
X99949000Y-75035000D02*
X99949000Y-79236000D01*
X94990000Y-73236000D02*
X94990000Y-79236000D01*
D15*
X94456000Y-73835000D02*
G75*
G03*
X94456000Y-73835000I-87000J0D01*
G01*
D10*
X92000000Y-95307000D02*
X89000000Y-95307000D01*
X92000000Y-92006000D02*
X92000000Y-95307000D01*
X89000000Y-95307000D02*
X89000000Y-92006000D01*
X113181000Y-93922000D02*
X110351000Y-93922000D01*
X113181000Y-88702000D02*
X110351000Y-88702000D01*
X92200000Y-91806000D02*
X92200000Y-91206000D01*
X93800000Y-91806000D02*
X93800000Y-91206000D01*
M02*
