G04 #@! TF.GenerationSoftware,KiCad,Pcbnew,6.0.11+dfsg-1~bpo11+1*
G04 #@! TF.CreationDate,2023-05-25T13:31:40+02:00*
G04 #@! TF.ProjectId,scalenode-cm4-baseboard,7363616c-656e-46f6-9465-2d636d342d62,1.1.1*
G04 #@! TF.SameCoordinates,Original*
G04 #@! TF.FileFunction,Paste,Top*
G04 #@! TF.FilePolarity,Positive*
%FSLAX46Y46*%
G04 Gerber Fmt 4.6, Leading zero omitted, Abs format (unit mm)*
G04 Created by KiCad (PCBNEW 6.0.11+dfsg-1~bpo11+1) date 2023-05-25 13:31:40*
%MOMM*%
%LPD*%
G01*
G04 APERTURE LIST*
G04 Aperture macros list*
%AMRoundRect*
0 Rectangle with rounded corners*
0 $1 Rounding radius*
0 $2 $3 $4 $5 $6 $7 $8 $9 X,Y pos of 4 corners*
0 Add a 4 corners polygon primitive as box body*
4,1,4,$2,$3,$4,$5,$6,$7,$8,$9,$2,$3,0*
0 Add four circle primitives for the rounded corners*
1,1,$1+$1,$2,$3*
1,1,$1+$1,$4,$5*
1,1,$1+$1,$6,$7*
1,1,$1+$1,$8,$9*
0 Add four rect primitives between the rounded corners*
20,1,$1+$1,$2,$3,$4,$5,0*
20,1,$1+$1,$4,$5,$6,$7,0*
20,1,$1+$1,$6,$7,$8,$9,0*
20,1,$1+$1,$8,$9,$2,$3,0*%
G04 Aperture macros list end*
%ADD10C,0.010000*%
%ADD11RoundRect,0.147500X-0.172500X0.147500X-0.172500X-0.147500X0.172500X-0.147500X0.172500X0.147500X0*%
%ADD12RoundRect,0.147500X-0.147500X-0.172500X0.147500X-0.172500X0.147500X0.172500X-0.147500X0.172500X0*%
%ADD13RoundRect,0.120000X-0.180000X-0.280000X0.180000X-0.280000X0.180000X0.280000X-0.180000X0.280000X0*%
%ADD14RoundRect,0.147500X0.147500X0.172500X-0.147500X0.172500X-0.147500X-0.172500X0.147500X-0.172500X0*%
%ADD15R,0.200000X0.700000*%
%ADD16RoundRect,0.147500X0.172500X-0.147500X0.172500X0.147500X-0.172500X0.147500X-0.172500X-0.147500X0*%
%ADD17R,1.450000X0.300000*%
%ADD18R,2.400000X0.850000*%
%ADD19R,0.650000X0.250000*%
%ADD20R,1.700000X2.500000*%
%ADD21RoundRect,0.090000X0.210000X-0.410000X0.210000X0.410000X-0.210000X0.410000X-0.210000X-0.410000X0*%
%ADD22R,1.380000X0.450000*%
%ADD23R,1.900000X2.375000*%
%ADD24R,1.900000X1.175000*%
%ADD25R,2.100000X1.475000*%
%ADD26R,1.000000X1.600000*%
%ADD27R,0.800000X0.800000*%
%ADD28R,0.520000X0.300000*%
%ADD29R,0.490000X0.300000*%
%ADD30RoundRect,0.120000X0.180000X0.280000X-0.180000X0.280000X-0.180000X-0.280000X0.180000X-0.280000X0*%
%ADD31RoundRect,0.250000X0.650000X2.450000X-0.650000X2.450000X-0.650000X-2.450000X0.650000X-2.450000X0*%
%ADD32RoundRect,0.150000X-0.350000X-0.550000X0.350000X-0.550000X0.350000X0.550000X-0.350000X0.550000X0*%
%ADD33R,1.050000X0.340000*%
%ADD34R,0.340000X1.050000*%
G04 APERTURE END LIST*
G36*
X93586500Y-91229000D02*
G01*
X92586500Y-91229000D01*
X92586500Y-90229000D01*
X93586500Y-90229000D01*
X93586500Y-91229000D01*
G37*
D10*
X93586500Y-91229000D02*
X92586500Y-91229000D01*
X92586500Y-90229000D01*
X93586500Y-90229000D01*
X93586500Y-91229000D01*
G36*
X92196500Y-92620000D02*
G01*
X91195500Y-92620000D01*
X91195500Y-91620000D01*
X92196500Y-91620000D01*
X92196500Y-92620000D01*
G37*
X92196500Y-92620000D02*
X91195500Y-92620000D01*
X91195500Y-91620000D01*
X92196500Y-91620000D01*
X92196500Y-92620000D01*
G36*
X93586500Y-92620000D02*
G01*
X92586500Y-92620000D01*
X92586500Y-91620000D01*
X93586500Y-91620000D01*
X93586500Y-92620000D01*
G37*
X93586500Y-92620000D02*
X92586500Y-92620000D01*
X92586500Y-91620000D01*
X93586500Y-91620000D01*
X93586500Y-92620000D01*
G36*
X92196500Y-91229000D02*
G01*
X91195500Y-91229000D01*
X91195500Y-90229000D01*
X92196500Y-90229000D01*
X92196500Y-91229000D01*
G37*
X92196500Y-91229000D02*
X91195500Y-91229000D01*
X91195500Y-90229000D01*
X92196500Y-90229000D01*
X92196500Y-91229000D01*
D11*
X159990000Y-74185000D03*
X159990000Y-75155000D03*
D12*
X174281200Y-83712800D03*
X175249200Y-83712800D03*
X174281200Y-82696800D03*
X175249200Y-82696800D03*
D13*
X78450000Y-77940000D03*
X79850000Y-77940000D03*
D14*
X93775000Y-58106000D03*
X92805000Y-58106000D03*
D12*
X90765000Y-58106000D03*
X91735000Y-58106000D03*
D15*
X176978720Y-58261680D03*
X176978720Y-61342680D03*
X176578720Y-58261680D03*
X176578720Y-61342680D03*
X176177720Y-58261680D03*
X176177720Y-61342680D03*
X175777720Y-58261680D03*
X175777720Y-61342680D03*
X175377720Y-58261680D03*
X175377720Y-61342680D03*
X174977720Y-58261680D03*
X174977720Y-61342680D03*
X174578720Y-58261680D03*
X174578720Y-61342680D03*
X174177720Y-58261680D03*
X174177720Y-61342680D03*
X173777720Y-58261680D03*
X173777720Y-61342680D03*
X173378720Y-58261680D03*
X173378720Y-61342680D03*
X172977720Y-58261680D03*
X172977720Y-61342680D03*
X172578720Y-58261680D03*
X172578720Y-61342680D03*
X172177720Y-58261680D03*
X172177720Y-61342680D03*
X171777720Y-58261680D03*
X171777720Y-61342680D03*
X171378720Y-58261680D03*
X171378720Y-61342680D03*
X170977720Y-58261680D03*
X170977720Y-61342680D03*
X170577720Y-58261680D03*
X170577720Y-61342680D03*
X170177720Y-58261680D03*
X170177720Y-61342680D03*
X169778720Y-58261680D03*
X169778720Y-61342680D03*
X169378720Y-58261680D03*
X169378720Y-61342680D03*
X168978720Y-58261680D03*
X168978720Y-61342680D03*
X168577720Y-58261680D03*
X168577720Y-61342680D03*
X168177720Y-58261680D03*
X168177720Y-61342680D03*
X167777720Y-58261680D03*
X167777720Y-61342680D03*
X167378720Y-58261680D03*
X167378720Y-61342680D03*
X166977720Y-58261680D03*
X166977720Y-61342680D03*
X166578720Y-58261680D03*
X166578720Y-61342680D03*
X166178720Y-58261680D03*
X166178720Y-61342680D03*
X165778720Y-58261680D03*
X165778720Y-61342680D03*
X165377720Y-58261680D03*
X165377720Y-61342680D03*
X164977720Y-58261680D03*
X164977720Y-61342680D03*
X164577720Y-58261680D03*
X164577720Y-61342680D03*
X164178720Y-58261680D03*
X164178720Y-61342680D03*
X163778720Y-58261680D03*
X163778720Y-61342680D03*
X163378720Y-58261680D03*
X163378720Y-61342680D03*
X162977720Y-58261680D03*
X162977720Y-61342680D03*
X162578720Y-58261680D03*
X162578720Y-61342680D03*
X162178720Y-58261680D03*
X162178720Y-61342680D03*
X161777720Y-58261680D03*
X161777720Y-61342680D03*
X161378720Y-58261680D03*
X161378720Y-61342680D03*
X160977720Y-58261680D03*
X160977720Y-61342680D03*
X160578720Y-58261680D03*
X160578720Y-61342680D03*
X160178720Y-58261680D03*
X160178720Y-61342680D03*
X159777720Y-58261680D03*
X159777720Y-61342680D03*
X159378720Y-58261680D03*
X159378720Y-61342680D03*
X158978720Y-58261680D03*
X158978720Y-61342680D03*
X158578720Y-58261680D03*
X158578720Y-61342680D03*
X158178720Y-58261680D03*
X158178720Y-61342680D03*
X157777720Y-58261680D03*
X157777720Y-61342680D03*
X157377720Y-58261680D03*
X157377720Y-61342680D03*
X176978720Y-92261680D03*
X176978720Y-95342680D03*
X176578720Y-92261680D03*
X176578720Y-95342680D03*
X176177720Y-92261680D03*
X176177720Y-95342680D03*
X175777720Y-92261680D03*
X175777720Y-95342680D03*
X175377720Y-92261680D03*
X175377720Y-95342680D03*
X174977720Y-92261680D03*
X174977720Y-95342680D03*
X174578720Y-92261680D03*
X174578720Y-95342680D03*
X174177720Y-92261680D03*
X174177720Y-95342680D03*
X173777720Y-92261680D03*
X173777720Y-95342680D03*
X173378720Y-92261680D03*
X173378720Y-95342680D03*
X172977720Y-92261680D03*
X172977720Y-95342680D03*
X172578720Y-92261680D03*
X172578720Y-95342680D03*
X172177720Y-92261680D03*
X172177720Y-95342680D03*
X171777720Y-92261680D03*
X171777720Y-95342680D03*
X171378720Y-92261680D03*
X171378720Y-95342680D03*
X170977720Y-92261680D03*
X170977720Y-95342680D03*
X170577720Y-92261680D03*
X170577720Y-95342680D03*
X170177720Y-92261680D03*
X170177720Y-95342680D03*
X169778720Y-92261680D03*
X169778720Y-95342680D03*
X169378720Y-92261680D03*
X169378720Y-95342680D03*
X168978720Y-92261680D03*
X168978720Y-95342680D03*
X168577720Y-92261680D03*
X168577720Y-95342680D03*
X168177720Y-92261680D03*
X168177720Y-95342680D03*
X167777720Y-92261680D03*
X167777720Y-95342680D03*
X167378720Y-92261680D03*
X167378720Y-95342680D03*
X166977720Y-92261680D03*
X166977720Y-95342680D03*
X166578720Y-92261680D03*
X166578720Y-95342680D03*
X166178720Y-92261680D03*
X166178720Y-95342680D03*
X165778720Y-92261680D03*
X165778720Y-95342680D03*
X165377720Y-92261680D03*
X165377720Y-95342680D03*
X164977720Y-92261680D03*
X164977720Y-95342680D03*
X164577720Y-92261680D03*
X164577720Y-95342680D03*
X164178720Y-92261680D03*
X164178720Y-95342680D03*
X163778720Y-92261680D03*
X163778720Y-95342680D03*
X163378720Y-92261680D03*
X163378720Y-95342680D03*
X162977720Y-92261680D03*
X162977720Y-95342680D03*
X162578720Y-92261680D03*
X162578720Y-95342680D03*
X162178720Y-92261680D03*
X162178720Y-95342680D03*
X161777720Y-92261680D03*
X161777720Y-95342680D03*
X161378720Y-92261680D03*
X161378720Y-95342680D03*
X160977720Y-92261680D03*
X160977720Y-95342680D03*
X160578720Y-92261680D03*
X160578720Y-95342680D03*
X160178720Y-92261680D03*
X160178720Y-95342680D03*
X159777720Y-92261680D03*
X159777720Y-95342680D03*
X159378720Y-92261680D03*
X159378720Y-95342680D03*
X158978720Y-92261680D03*
X158978720Y-95342680D03*
X158578720Y-92261680D03*
X158578720Y-95342680D03*
X158178720Y-92261680D03*
X158178720Y-95342680D03*
X157777720Y-92261680D03*
X157777720Y-95342680D03*
X157377720Y-92261680D03*
X157377720Y-95342680D03*
D16*
X175959000Y-85671000D03*
X175959000Y-84701000D03*
X85750000Y-84984000D03*
X85750000Y-84016000D03*
X150922000Y-62788000D03*
X150922000Y-61818000D03*
D12*
X151877000Y-61818000D03*
X152847000Y-61818000D03*
D17*
X169949000Y-85329000D03*
X169949000Y-85829000D03*
X169949000Y-86329000D03*
X169949000Y-86829000D03*
X169949000Y-87329000D03*
X174349000Y-87329000D03*
X174349000Y-86829000D03*
X174349000Y-86329000D03*
X174349000Y-85829000D03*
X174349000Y-85329000D03*
D18*
X112487000Y-73804000D03*
X112487000Y-72533000D03*
X112487000Y-71264000D03*
X112487000Y-69994000D03*
X112487000Y-68723000D03*
X112487000Y-67453000D03*
X112487000Y-66185000D03*
X112487000Y-64914000D03*
X112487000Y-63645000D03*
X112487000Y-62373000D03*
X112487000Y-61104000D03*
X112487000Y-59833000D03*
X97888000Y-59833000D03*
X97888000Y-61104000D03*
X97888000Y-62373000D03*
X97888000Y-63645000D03*
X97888000Y-64914000D03*
X97888000Y-66185000D03*
X97888000Y-67453000D03*
X97888000Y-68723000D03*
X97888000Y-69994000D03*
X97888000Y-71264000D03*
X97888000Y-72533000D03*
X97888000Y-73804000D03*
D19*
X166749560Y-73148720D03*
X166749560Y-72699720D03*
X166749560Y-72249720D03*
X166749560Y-71798720D03*
X166749560Y-71348720D03*
X166749560Y-70899720D03*
X163648560Y-70899720D03*
X163648560Y-71348720D03*
X163648560Y-71798720D03*
X163648560Y-72249720D03*
X163648560Y-72699720D03*
X163648560Y-73148720D03*
D20*
X165199560Y-72023720D03*
D12*
X168157400Y-70174600D03*
X169125400Y-70174600D03*
X168159800Y-71190600D03*
X169127800Y-71190600D03*
D14*
X164619560Y-74330040D03*
X163649560Y-74330040D03*
D12*
X165779560Y-74335120D03*
X166749560Y-74335120D03*
D14*
X159377240Y-71053440D03*
X158407240Y-71053440D03*
D16*
X158379160Y-72045200D03*
X158379160Y-71075200D03*
D12*
X155216040Y-71070800D03*
X156186040Y-71070800D03*
D11*
X155182880Y-71095100D03*
X155182880Y-72065100D03*
D21*
X150941000Y-60505000D03*
X152841000Y-60505000D03*
X151891500Y-58305000D03*
D16*
X175808000Y-89862000D03*
X175808000Y-88892000D03*
X176951000Y-89862000D03*
X176951000Y-88892000D03*
D12*
X168159800Y-72460600D03*
X169127800Y-72460600D03*
D16*
X158930000Y-75145000D03*
X158930000Y-74175000D03*
D17*
X159200000Y-76800000D03*
X159200000Y-77300000D03*
X159200000Y-77800000D03*
X159200000Y-78300000D03*
X159200000Y-78800000D03*
X163600000Y-78800000D03*
X163600000Y-78300000D03*
X163600000Y-77800000D03*
X163600000Y-77300000D03*
X163600000Y-76800000D03*
D22*
X79426000Y-86072000D03*
X79426000Y-86721000D03*
X79426000Y-87372000D03*
X79426000Y-88025000D03*
X79426000Y-88673000D03*
D23*
X76766000Y-84462000D03*
D24*
X76766000Y-86537000D03*
D25*
X79066000Y-84909000D03*
D23*
X76766000Y-90286000D03*
D25*
X79066000Y-89836000D03*
D24*
X76766000Y-88209000D03*
D26*
X122350000Y-58252000D03*
X120600000Y-60551000D03*
X118851000Y-58252000D03*
D16*
X81745000Y-85780000D03*
X81745000Y-84812000D03*
D27*
X76100000Y-80791000D03*
X76100000Y-82291000D03*
D28*
X81835000Y-86806000D03*
D29*
X81850000Y-87306000D03*
X81850000Y-87806000D03*
X82600000Y-87806000D03*
X82600000Y-87306000D03*
X82600000Y-86806000D03*
D30*
X79920000Y-81760000D03*
X78520000Y-81760000D03*
D31*
X112950000Y-92060000D03*
X107850000Y-92060000D03*
D32*
X97800000Y-92599000D03*
X100000000Y-92599000D03*
D16*
X93800000Y-87585000D03*
X93800000Y-86615000D03*
D33*
X90032500Y-90125000D03*
X90032500Y-90775000D03*
X90032500Y-91425000D03*
X90032500Y-92074000D03*
X90032500Y-92725000D03*
D34*
X91090500Y-93785000D03*
X91741500Y-93785000D03*
X92390500Y-93785000D03*
X93040500Y-93785000D03*
X93692500Y-93785000D03*
D33*
X94751500Y-92725000D03*
X94751500Y-92074000D03*
X94751500Y-91425000D03*
X94751500Y-90775000D03*
X94751500Y-90125000D03*
D34*
X93692500Y-89064000D03*
X93040500Y-89064000D03*
X92390500Y-89064000D03*
X91741500Y-89064000D03*
X91090500Y-89064000D03*
D11*
X89800000Y-95115000D03*
X89800000Y-96085000D03*
D12*
X90815000Y-95100000D03*
X91785000Y-95100000D03*
D16*
X92400000Y-87585000D03*
X92400000Y-86615000D03*
D12*
X86400000Y-92200000D03*
X87370000Y-92200000D03*
D16*
X91000000Y-87585000D03*
X91000000Y-86615000D03*
D27*
X76100000Y-77931000D03*
X76100000Y-79431000D03*
D12*
X85415000Y-90850000D03*
X86385000Y-90850000D03*
D27*
X98150000Y-90850000D03*
X99650000Y-90850000D03*
D14*
X93785000Y-95100000D03*
X92815000Y-95100000D03*
D31*
X112950000Y-85960000D03*
X107850000Y-85960000D03*
D30*
X99625000Y-94375000D03*
X98225000Y-94375000D03*
M02*
