M48
; DRILL file {KiCad 6.0.11+dfsg-1~bpo11+1} date Thu 25 May 2023 01:32:15 PM CEST
; FORMAT={-:-/ absolute / inch / decimal}
; #@! TF.CreationDate,2023-05-25T13:32:15+02:00
; #@! TF.GenerationSoftware,Kicad,Pcbnew,6.0.11+dfsg-1~bpo11+1
; #@! TF.FileFunction,Plated,1,4,PTH
FMAT,2
INCH
; #@! TA.AperFunction,Plated,PTH,ViaDrill
T1C0.0059
; #@! TA.AperFunction,Plated,PTH,ViaDrill
T2C0.0157
; #@! TA.AperFunction,Plated,PTH,ComponentDrill
T3C0.0276
; #@! TA.AperFunction,Plated,PTH,ComponentDrill
T4C0.0350
; #@! TA.AperFunction,Plated,PTH,ComponentDrill
T5C0.0394
; #@! TA.AperFunction,Plated,PTH,ComponentDrill
T6C0.0433
; #@! TA.AperFunction,Plated,PTH,ComponentDrill
T7C0.0591
; #@! TA.AperFunction,Plated,PTH,ComponentDrill
T8C0.0866
; #@! TA.AperFunction,Plated,PTH,ComponentDrill
T9C0.1083
; #@! TA.AperFunction,Plated,PTH,ComponentDrill
T10C0.1457
%
G90
G05
T1
X3.065Y-3.577
X3.0815Y-3.4428
X3.1245Y-3.1299
X3.1441Y-3.0957
X3.1746Y-3.1518
X3.1949Y-3.6498
X3.1949Y-3.6892
X3.1949Y-3.7286
X3.1949Y-3.768
X3.1954Y-3.4133
X3.1954Y-3.4409
X3.2189Y-3.3114
X3.2343Y-3.6498
X3.2343Y-3.6892
X3.2343Y-3.7286
X3.2343Y-3.768
X3.2398Y-3.152
X3.2813Y-3.4632
X3.2943Y-3.5526
X3.3031Y-3.6252
X3.3091Y-3.6587
X3.3231Y-3.3552
X3.3308Y-3.1518
X3.3346Y-3.6843
X3.3465Y-3.315
X3.3599Y-3.4133
X3.3599Y-3.4409
X3.435Y-3.6969
X3.435Y-3.7441
X3.4547Y-3.7205
X3.4685Y-3.6102
X3.4685Y-3.6496
X3.4724Y-3.6969
X3.4724Y-3.7441
X3.4843Y-3.6299
X3.4934Y-3.433
X3.5Y-3.6102
X3.5Y-3.6496
X3.5128Y-3.4525
X3.6378Y-3.2638
X3.6405Y-2.6583
X3.6405Y-2.6859
X3.6535Y-2.314
X3.6883Y-3.378
X3.6939Y-2.7864
X3.705Y-2.6669
X3.705Y-2.6944
X3.7154Y-2.4912
X3.7157Y-3.3449
X3.7215Y-2.7864
X3.7354Y-3.035
X3.7354Y-3.0554
X3.743Y-2.4912
X3.7551Y-3.3453
X3.7603Y-2.343
X3.7638Y-3.035
X3.7638Y-3.0554
X3.7898Y-3.0348
X3.7898Y-3.0551
X3.7943Y-3.3081
X3.8346Y-3.3081
X3.8413Y-3.6898
X3.876Y-3.3081
X3.9144Y-3.3083
X3.9432Y-3.4273
X3.9508Y-3.2598
X3.9574Y-3.5159
X3.9606Y-3.6949
X3.9626Y-2.328
X3.9685Y-3.2776
X3.9717Y-2.543
X3.9717Y-2.588
X3.9717Y-2.843
X3.9717Y-2.943
X3.9767Y-2.738
X3.988Y-3.2608
X4.0098Y-3.2776
X4.0117Y-2.738
X4.0295Y-3.2618
X4.0407Y-3.4072
X4.0467Y-2.738
X4.0479Y-3.2778
X4.0662Y-3.4079
X4.0698Y-3.2627
X4.0882Y-3.2788
X4.0886Y-2.2963
X4.0945Y-3.5335
X4.0945Y-3.5728
X4.0945Y-3.6122
X4.0945Y-3.6516
X4.0945Y-3.6909
X4.1043Y-2.4481
X4.1324Y-3.4359
X4.1581Y-2.3859
X4.1732Y-3.5335
X4.1732Y-3.5728
X4.1732Y-3.6122
X4.1732Y-3.6516
X4.1732Y-3.6909
X4.1853Y-2.6186
X4.2638Y-2.8091
X4.3067Y-2.518
X4.3067Y-2.6733
X4.3406Y-2.7638
X4.3522Y-2.4188
X4.563Y-3.5471
X4.563Y-3.5766
X4.563Y-3.6061
X4.563Y-3.6357
X4.563Y-3.6652
X4.6586Y-3.0232
X4.6843Y-3.0224
X4.685Y-3.3366
X4.685Y-3.3661
X4.685Y-3.3957
X4.685Y-3.4252
X4.685Y-3.4547
X4.685Y-3.4843
X4.7086Y-3.0224
X4.7846Y-2.3366
X4.813Y-3.7106
X4.813Y-3.7402
X4.8346Y-3.5748
X4.8346Y-3.5984
X4.8346Y-3.622
X4.8346Y-3.6457
X4.8425Y-3.7106
X4.8425Y-3.7402
X4.8522Y-2.7415
X4.8531Y-2.2589
X4.8583Y-3.5748
X4.8583Y-3.5984
X4.8583Y-3.622
X4.8583Y-3.6457
X4.8819Y-3.3543
X4.8819Y-3.3858
X4.8819Y-3.4173
X4.8819Y-3.4488
X4.8819Y-3.5748
X4.8819Y-3.5984
X4.8819Y-3.622
X4.8819Y-3.6457
X4.9055Y-3.3701
X4.9055Y-3.4016
X4.9055Y-3.4331
X4.9055Y-3.4646
X5.0506Y-2.7415
X5.1614Y-2.7937
X5.1614Y-2.8173
X5.185Y-2.7937
X5.185Y-2.8173
X5.1969Y-3.6122
X5.2087Y-2.4252
X5.2087Y-2.4488
X5.2087Y-2.4724
X5.2087Y-2.7937
X5.2087Y-2.8173
X5.2323Y-2.4252
X5.2323Y-2.4488
X5.2323Y-2.4724
X5.2323Y-2.7937
X5.2323Y-2.8173
X5.2362Y-3.6122
X5.2559Y-2.4252
X5.2559Y-2.4488
X5.2559Y-2.4724
X5.2559Y-2.7937
X5.2559Y-2.8173
X5.2756Y-3.6122
X5.2795Y-2.4252
X5.2795Y-2.4488
X5.2795Y-2.4724
X5.2795Y-2.7937
X5.2795Y-2.8173
X5.2953Y-3.5039
X5.2953Y-3.5433
X5.2953Y-3.5827
X5.3248Y-3.5236
X5.3248Y-3.563
X5.3248Y-3.6024
X5.6102Y-2.6809
X5.8268Y-3.4055
X5.8268Y-3.4567
X5.8268Y-3.4902
X5.83Y-3.088
X5.8583Y-3.4311
X5.863Y-3.059
X5.882Y-3.089
X5.8853Y-2.4719
X5.8898Y-3.4055
X5.8898Y-3.4567
X5.8917Y-3.4882
X5.913Y-3.059
X5.9319Y-2.7098
X5.9319Y-2.7362
X5.9323Y-2.6837
X5.936Y-3.089
X5.9429Y-2.3189
X5.9626Y-3.6752
X5.9646Y-3.624
X5.971Y-3.059
X5.9817Y-2.9207
X5.983Y-2.843
X5.998Y-3.6496
X6.0207Y-2.9207
X6.0236Y-3.248
X6.0236Y-3.311
X6.0335Y-3.624
X6.0335Y-3.6752
X6.0413Y-3.2795
X6.0591Y-3.248
X6.0875Y-2.4688
X6.112Y-2.4968
X6.118Y-2.896
X6.1181Y-2.3848
X6.137Y-3.044
X6.1417Y-2.7697
X6.1453Y-2.3182
X6.1909Y-3.2185
X6.1962Y-3.6663
X6.1962Y-3.7234
X6.198Y-2.7978
X6.21Y-3.7838
X6.2116Y-2.4427
X6.2125Y-3.5988
X6.2205Y-3.1024
X6.2205Y-3.2185
X6.2343Y-3.1486
X6.237Y-3.502
X6.2579Y-3.5167
X6.26Y-3.7838
X6.2677Y-3.25
X6.2688Y-3.7063
X6.2854Y-3.5167
X6.2927Y-2.4508
X6.2949Y-2.3182
X6.2964Y-3.7063
X6.2984Y-2.2705
X6.299Y-2.8378
X6.305Y-3.7838
X6.3051Y-3.502
X6.3052Y-3.608
X6.3072Y-3.1615
X6.3161Y-3.5363
X6.3161Y-3.6788
X6.3177Y-2.3182
X6.3189Y-2.7657
X6.3193Y-2.2701
X6.32Y-2.4429
X6.3252Y-2.8976
X6.3267Y-3.181
X6.3339Y-2.5057
X6.3386Y-3.0846
X6.3398Y-2.3181
X6.3421Y-2.2701
X6.3436Y-3.5363
X6.3436Y-3.6788
X6.355Y-3.7838
X6.3583Y-2.5057
X6.3622Y-2.3181
X6.3633Y-3.5153
X6.3633Y-3.7087
X6.3634Y-2.2701
X6.3661Y-3.0846
X6.3681Y-2.815
X6.3712Y-2.4508
X6.3909Y-3.5153
X6.3909Y-3.7087
X6.391Y-3.03
X6.3985Y-2.8168
X6.4Y-3.7838
X6.4025Y-2.4436
X6.409Y-3.494
X6.4105Y-3.5374
X6.4105Y-3.6788
X6.4166Y-2.2701
X6.4248Y-2.3663
X6.4381Y-3.5374
X6.4381Y-3.6788
X6.4475Y-3.7838
X6.45Y-3.5988
X6.455Y-3.556
X6.4638Y-2.2701
X6.465Y-2.4436
X6.4793Y-2.3348
X6.4855Y-2.7718
X6.4876Y-2.4547
X6.4927Y-2.3742
X6.495Y-3.7838
X6.51Y-2.4433
X6.5106Y-2.2701
X6.5205Y-2.7718
X6.5394Y-3.5983
X6.5425Y-2.3563
X6.5425Y-3.7838
X6.5579Y-2.2701
X6.5624Y-3.564
X6.5736Y-2.3563
X6.5745Y-2.3835
X6.5745Y-2.4435
X6.5888Y-2.8061
X6.5892Y-3.5632
X6.59Y-3.7838
X6.598Y-2.3559
X6.6055Y-2.8858
X6.611Y-2.919
X6.62Y-2.3288
X6.6289Y-3.428
X6.635Y-3.7838
X6.637Y-2.2701
X6.6417Y-2.3504
X6.6496Y-2.5541
X6.6496Y-2.5817
X6.6503Y-2.4435
X6.6571Y-2.7327
X6.6575Y-3.4785
X6.6623Y-2.4753
X6.6677Y-2.3499
X6.6818Y-2.4948
X6.685Y-3.6038
X6.685Y-3.7838
X6.6886Y-2.3244
X6.692Y-3.4785
X6.695Y-2.2638
X6.7205Y-2.6811
X6.7275Y-3.4785
X6.73Y-3.6038
X6.73Y-3.7838
X6.7314Y-2.3824
X6.7322Y-2.4435
X6.74Y-2.4925
X6.74Y-2.5201
X6.75Y-2.725
X6.75Y-2.775
X6.75Y-2.825
X6.75Y-3.3219
X6.7526Y-3.3931
X6.7604Y-2.6344
X6.7612Y-2.3663
X6.7612Y-2.4638
X6.78Y-3.6038
X6.78Y-3.7838
X6.7801Y-3.3931
X6.7848Y-2.775
X6.7888Y-2.3663
X6.7888Y-2.4638
X6.7944Y-2.2701
X6.7996Y-2.725
X6.8091Y-2.5541
X6.8091Y-2.5817
X6.81Y-2.4925
X6.81Y-2.5201
X6.8143Y-2.75
X6.825Y-3.6038
X6.825Y-3.7838
X6.8261Y-3.2559
X6.8295Y-2.4449
X6.8414Y-2.2697
X6.8492Y-2.725
X6.8504Y-3.5669
X6.8583Y-3.7874
X6.8665Y-3.602
X6.8709Y-3.1638
X6.8763Y-2.2588
X6.8775Y-2.4438
X6.8775Y-2.4713
X6.883Y-3.7844
X6.8988Y-2.725
X6.8996Y-3.5697
X6.9024Y-3.124
X6.9029Y-2.3327
X6.9105Y-3.7844
X6.9122Y-3.5921
X6.9128Y-2.4469
X6.917Y-3.4485
X6.9302Y-2.3394
X6.9311Y-3.1626
X6.936Y-3.2761
X6.936Y-3.7864
X6.9484Y-2.725
X6.9578Y-2.3394
X6.962Y-2.5935
X6.962Y-3.4485
X6.9622Y-3.1236
X6.9697Y-3.5768
X6.9777Y-2.4469
X6.9906Y-2.3787
X6.9913Y-3.1618
X6.9916Y-2.3365
X6.9925Y-2.4138
X6.9935Y-3.2579
X6.9935Y-3.3091
X6.9946Y-2.287
X6.9949Y-2.3114
X6.998Y-2.727
X7.017Y-3.4485
X7.021Y-3.2815
X7.027Y-2.5935
X7.0472Y-3.6457
X7.0547Y-2.3594
X7.055Y-2.2788
X7.055Y-2.3063
X7.055Y-2.3338
X7.055Y-2.4138
X7.055Y-2.4713
X7.0657Y-3.5984
X7.0818Y-2.4934
X7.0858Y-3.5398
X7.0906Y-2.6339
X7.113Y-3.5125
X7.1287Y-3.2384
X7.1398Y-3.0831
X7.1445Y-3.2579
X7.15Y-3.1087
X7.1689Y-3.2384
X7.1736Y-3.361
X7.1768Y-3.0831
X7.1874Y-3.2575
X7.1911Y-3.3781
X7.1917Y-3.1091
X7.1938Y-3.3022
X7.227Y-3.5111
X7.227Y-3.5341
X7.252Y-3.5111
X7.252Y-3.5341
X7.2591Y-3.2882
X7.262Y-2.6185
X7.2677Y-3.4341
X7.277Y-3.5101
X7.277Y-3.5341
X7.2884Y-3.627
X7.3058Y-3.434
X7.3067Y-2.6177
X7.311Y-2.5315
X7.312Y-2.731
X7.312Y-2.9301
X7.312Y-2.9829
X7.312Y-3.0778
X7.312Y-3.1616
X7.312Y-3.2439
X7.312Y-3.28
X7.312Y-3.3526
X7.312Y-3.394
X7.312Y-2.6614
X7.312Y-2.6962
X7.3122Y-2.7787
X7.3126Y-3.1126
X7.313Y-3.638
X7.3258Y-3.6978
X7.3343Y-2.4508
X7.3343Y-2.4807
X7.3346Y-2.5079
X7.3406Y-3.638
X7.3445Y-2.618
X7.3445Y-3.434
X7.3652Y-3.6299
X7.3795Y-2.618
X7.3833Y-3.433
X7.3986Y-3.565
X7.4193Y-3.5797
X7.422Y-3.4335
X7.4224Y-2.6181
X7.4469Y-3.5797
X7.4675Y-3.5659
X7.4772Y-2.6654
X7.4772Y-2.6978
X7.4772Y-2.7303
X7.5116Y-2.6654
X7.5116Y-2.6978
X7.5116Y-2.7303
X7.5441Y-2.7303
X7.5768Y-2.7429
X7.5985Y-2.8009
X7.6012Y-2.7685
X7.618Y-2.8204
X7.6268Y-2.7937
X7.6364Y-2.6332
X7.6377Y-3.3832
X7.6379Y-3.3588
X7.6395Y-2.843
X7.6457Y-2.8146
X7.659Y-2.8625
X7.6626Y-2.6122
X7.6654Y-2.8354
X7.6777Y-2.8918
X7.6862Y-2.8591
X7.6953Y-2.6161
X7.6971Y-2.9113
X7.7039Y-2.8835
X7.7196Y-2.6145
X7.7198Y-2.9426
X7.726Y-2.9083
X7.728Y-3.5331
X7.729Y-3.5061
X7.7393Y-2.9621
X7.7406Y-2.65
X7.7457Y-2.9339
X7.753Y-3.5061
X7.7539Y-3.1276
X7.7539Y-3.1858
X7.754Y-3.5331
X7.7543Y-3.2457
X7.7547Y-3.3051
X7.7638Y-2.9697
X7.7638Y-2.9958
X7.7638Y-3.022
X7.7652Y-3.0467
X7.7669Y-2.6508
X7.7673Y-2.6756
X7.778Y-3.5061
X7.779Y-3.5321
X7.7937Y-2.6504
X7.7976Y-2.678
X7.798Y-2.7051
X7.8275Y-2.7047
X7.8642Y-2.7055
X7.8681Y-3.3063
X7.8692Y-3.2253
X7.8693Y-3.1638
X7.8709Y-3.0295
X7.8709Y-3.0685
X7.8747Y-3.2828
X7.878Y-3.1011
X7.8799Y-3.187
X7.8799Y-3.2472
X7.8827Y-3.1272
X7.8964Y-2.717
X7.9374Y-2.717
X7.9679Y-3.0452
X7.9679Y-3.0728
X7.9781Y-2.7455
X7.9781Y-2.7719
X7.9781Y-2.7984
X7.9781Y-2.8248
X7.9784Y-2.719
X7.9862Y-2.997
T2
X5.1959Y-3.2638
T3
X7.8634Y-2.5944
X7.8634Y-3.4449
X7.9079Y-2.6722
X7.9079Y-3.3671
X7.952Y-2.5944
X7.952Y-3.4449
T4
X3.5009Y-2.572
X3.5009Y-2.6524
X3.5009Y-2.7327
X3.5009Y-2.813
X3.571Y-2.5319
X3.571Y-2.6122
X3.571Y-2.6925
X3.571Y-2.7728
T5
X3.6639Y-2.4161
X3.6639Y-2.5062
X3.6639Y-2.8393
X3.6639Y-2.9295
X4.3283Y-3.0267
X5.5921Y-3.0267
T6
X5.0473Y-2.3701
X5.1457Y-2.3701
T7
X4.6098Y-2.876
X4.6098Y-2.876
X4.6098Y-3.1759
X4.6098Y-3.1759
X4.6098Y-3.3759
X4.6098Y-3.3759
X5.4098Y-2.876
X5.4098Y-2.876
X5.4098Y-3.2759
X5.4098Y-3.2759
X5.4098Y-3.6759
X5.4098Y-3.6759
T8
X3.0758Y-3.7086
T9
X7.8874Y-2.3658
X7.8874Y-3.665
T10
X5.7279Y-2.3701
X5.7279Y-3.6693
X7.6176Y-2.3701
X7.6176Y-3.6693
T4
G00X3.2838Y-2.2821
M15
G01X3.2247Y-2.2821
M16
G05
G00X3.2838Y-3.0643
M15
G01X3.2247Y-3.0643
M16
G05
T0
M30
